<svg width="16" height="16" fill="none" xmlns="http://www.w3.org/2000/svg"><path d="M8.218 0C3.832 0 1.5 2.81 1.5 5.874c0 1.421.794 3.193 2.065 3.755.193.087.298.05.341-.129.038-.136.205-.79.286-1.1a.283.283 0 0 0-.068-.278c-.422-.488-.757-1.377-.757-2.21 0-2.138 1.7-4.213 4.59-4.213 2.5 0 4.25 1.624 4.25 3.947 0 2.625-1.39 4.442-3.194 4.442-1 0-1.744-.785-1.507-1.755.285-1.155.844-2.397.844-3.23 0-.747-.422-1.365-1.285-1.365-1.017 0-1.842 1.007-1.842 2.36 0 .858.304 1.438.304 1.438L4.334 12.36c-.316 1.285.043 3.366.074 3.545.02.099.13.13.192.049.1-.13 1.315-1.865 1.656-3.12l.633-2.31c.335.606 1.303 1.113 2.333 1.113 3.064 0 5.278-2.694 5.278-6.036C14.489 2.397 11.747 0 8.218 0Z" fill="#002E5D"/></svg>