<svg width="96" height="96" viewBox="0 0 96 96" fill="none" xmlns="http://www.w3.org/2000/svg">
<path d="M96 33.0764L88.3636 86.6596L23.0454 77.359L19.7942 76.8956L9.92203 75.4904L4.32717 74.693L0 74.077L7.63578 20.4951L96 33.0764Z" fill="#F3F8FF"/>
<path d="M34.9921 19.5681L32.551 21.4148C32.1755 21.6989 32.1015 22.2335 32.3857 22.6088L35.8908 27.238C36.175 27.6133 36.7097 27.6873 37.0853 27.4033L39.5263 25.5566C39.9018 25.2725 39.9758 24.7379 39.6916 24.3626L36.1866 19.7334C35.9024 19.358 35.3676 19.284 34.9921 19.5681Z" fill="#454E54"/>
<path d="M34.716 17.0087L30.1618 20.454C29.8243 20.7093 29.7578 21.1897 30.0132 21.527L31.4965 23.486C31.7519 23.8233 32.2325 23.8898 32.5699 23.6345L37.1242 20.1891C37.4616 19.9338 37.5281 19.4534 37.2727 19.1161L35.7895 17.1572C35.5341 16.8199 35.0535 16.7534 34.716 17.0087Z" fill="#454E54"/>
<path d="M56.5859 12.0444H53.5246C53.0536 12.0444 52.6719 12.426 52.6719 12.8968V18.7023C52.6719 19.173 53.0536 19.5546 53.5246 19.5546H56.5859C57.0569 19.5546 57.4386 19.173 57.4386 18.7023V12.8968C57.4386 12.426 57.0569 12.0444 56.5859 12.0444Z" fill="#454E54"/>
<path d="M57.9114 9.83716H52.1999C51.7767 9.83716 51.4336 10.1801 51.4336 10.6031V13.0599C51.4336 13.4829 51.7767 13.8258 52.1999 13.8258H57.9114C58.3346 13.8258 58.6777 13.4829 58.6777 13.0599V10.6031C58.6777 10.1801 58.3346 9.83716 57.9114 9.83716Z" fill="#454E54"/>
<path d="M55.0558 79.5448C72.1525 79.5448 86.012 65.6911 86.012 48.6018C86.012 31.5125 72.1525 17.6589 55.0558 17.6589C37.9592 17.6589 24.0996 31.5125 24.0996 48.6018C24.0996 65.6911 37.9592 79.5448 55.0558 79.5448Z" fill="#C9DAF4"/>
<path d="M55.0551 72.3673C68.1861 72.3673 78.8309 61.7271 78.8309 48.6018C78.8309 35.4764 68.1861 24.8362 55.0551 24.8362C41.9241 24.8362 31.2793 35.4764 31.2793 48.6018C31.2793 61.7271 41.9241 72.3673 55.0551 72.3673Z" fill="white"/>
<path d="M34.3014 64.1826C34.2903 64.1825 34.2794 64.1799 34.2696 64.1749C34.2597 64.1698 34.2512 64.1625 34.2446 64.1536C30.861 59.6379 29.0742 54.2598 29.0742 48.5999C29.0706 43.707 30.4503 38.9127 33.0543 34.7696C35.6583 30.6265 39.3806 27.3032 43.7921 25.183C48.2036 23.0627 53.1247 22.2316 57.9882 22.7856C62.8517 23.3396 67.4596 25.2561 71.2807 28.3142C71.2953 28.3262 71.3046 28.3434 71.3066 28.3621C71.3086 28.3809 71.3031 28.3997 71.2914 28.4144C71.2796 28.429 71.2624 28.4383 71.2438 28.4403C71.2251 28.4423 71.2064 28.4368 71.1918 28.4252C66.5694 24.7265 60.9897 22.7716 55.0562 22.7716C40.8051 22.7734 29.2149 34.3599 29.2149 48.5999C29.2149 54.227 30.9934 59.5755 34.3582 64.0666C34.3693 64.0817 34.3741 64.1006 34.3715 64.1192C34.369 64.1378 34.3592 64.1547 34.3443 64.1662C34.3321 64.1761 34.3171 64.1819 34.3014 64.1826Z" fill="#002E5D"/>
<path d="M33.2061 70.5922C33.1967 70.5922 33.1875 70.5904 33.1788 70.5868C33.1701 70.5832 33.1623 70.578 33.1556 70.5714C28.823 66.2517 25.8633 60.7491 24.648 54.7542C23.4327 48.7592 24.016 42.539 26.3246 36.8742C26.3278 36.865 26.3327 36.8565 26.3392 36.8494C26.3458 36.8422 26.3537 36.8364 26.3625 36.8324C26.3713 36.8283 26.3809 36.8261 26.3906 36.8259C26.4003 36.8257 26.4099 36.8275 26.4189 36.8312C26.4279 36.8348 26.4361 36.8403 26.4429 36.8472C26.4497 36.8541 26.455 36.8623 26.4585 36.8714C26.462 36.8804 26.4637 36.8901 26.4633 36.8998C26.4629 36.9095 26.4606 36.919 26.4564 36.9278C24.941 40.6325 24.1648 44.5976 24.1714 48.6C24.1714 56.8673 27.3974 64.6335 33.2534 70.4686C33.2634 70.4786 33.2702 70.4912 33.2729 70.505C33.2757 70.5188 33.2744 70.533 33.269 70.5461C33.2637 70.5591 33.2546 70.5702 33.243 70.5781C33.2314 70.5859 33.2176 70.5902 33.2036 70.5903L33.2061 70.5922Z" fill="#002E5D"/>
<path d="M65.1967 77.9177C65.1798 77.9178 65.1634 77.9119 65.1504 77.901C65.1375 77.8901 65.1288 77.875 65.126 77.8583C65.1232 77.8416 65.1264 77.8245 65.1351 77.8099C65.1438 77.7954 65.1573 77.7844 65.1734 77.779C77.598 73.4764 85.9408 61.7506 85.9408 48.6019C85.9424 48.5842 85.9506 48.5678 85.9637 48.5559C85.9769 48.544 85.994 48.5374 86.0117 48.5374C86.0294 48.5374 86.0465 48.544 86.0597 48.5559C86.0728 48.5678 86.081 48.5842 86.0827 48.6019C86.0827 55.1778 84.0506 61.4625 80.2052 66.7693C76.4704 71.9312 71.2394 75.8218 65.22 77.9145C65.2125 77.9168 65.2046 77.9179 65.1967 77.9177Z" fill="#002E5D"/>
<path d="M74.9145 24.9365C74.8979 24.9368 74.8817 24.9309 74.8691 24.9201C70.9339 21.6349 66.2435 19.3786 61.2198 18.3542C56.196 17.3299 50.9963 17.5695 46.0882 19.0515C46.079 19.0549 46.0693 19.0564 46.0596 19.0559C46.0499 19.0553 46.0404 19.0528 46.0317 19.0485C46.023 19.0441 46.0152 19.0381 46.009 19.0306C46.0027 19.0232 45.998 19.0146 45.9952 19.0053C45.9924 18.9959 45.9915 18.9861 45.9927 18.9765C45.9938 18.9668 45.9969 18.9575 46.0018 18.9491C46.0066 18.9407 46.0132 18.9333 46.021 18.9275C46.0288 18.9217 46.0377 18.9176 46.0472 18.9154C50.9769 17.4183 56.2023 17.1734 61.2506 18.2028C66.2989 19.2322 71.0108 21.5034 74.9599 24.8111C74.9744 24.8232 74.9834 24.8406 74.9851 24.8594C74.9867 24.8781 74.9809 24.8968 74.9688 24.9113C74.9622 24.9193 74.9539 24.9257 74.9445 24.93C74.9351 24.9344 74.9249 24.9366 74.9145 24.9365Z" fill="#002E5D"/>
<path d="M55.0564 17.205C53.7342 17.205 52.4417 16.8131 51.3423 16.0788C50.2429 15.3445 49.386 14.3009 48.88 13.0798C48.374 11.8587 48.2416 10.5151 48.4996 9.21886C48.7575 7.92259 49.3942 6.73189 50.3292 5.79734C51.2641 4.86278 52.4554 4.22634 53.7522 3.96849C55.049 3.71065 56.3932 3.84298 57.6148 4.34876C58.8364 4.85454 59.8805 5.71105 60.6151 6.80997C61.3497 7.9089 61.7417 9.20088 61.7417 10.5225C61.7397 12.2942 61.0348 13.9928 59.7814 15.2455C58.5281 16.4983 56.8289 17.203 55.0564 17.205ZM55.0564 4.69179C53.9027 4.69166 52.7748 5.03353 51.8155 5.67414C50.8561 6.31476 50.1083 7.22535 49.6667 8.29077C49.2251 9.35619 49.1095 10.5286 49.3345 11.6597C49.5595 12.7908 50.1151 13.8298 50.9308 14.6453C51.7466 15.4608 52.786 16.0162 53.9175 16.2412C55.0491 16.4662 56.222 16.3508 57.2879 15.9095C58.3539 15.4682 59.2649 14.7209 59.9059 13.762C60.5469 12.8031 60.8891 11.6758 60.8891 10.5225C60.8872 8.97686 60.2721 7.49501 59.1787 6.40205C58.0853 5.30909 56.6028 4.69425 55.0564 4.69242V4.69179Z" fill="#454E54"/>
<path d="M55.0565 30.3373C54.8892 30.3373 54.7288 30.2709 54.6105 30.1527C54.4922 30.0345 54.4258 29.8741 54.4258 29.7069V27.0396C54.4258 26.8724 54.4922 26.7121 54.6105 26.5938C54.7288 26.4756 54.8892 26.4092 55.0565 26.4092C55.2237 26.4092 55.3842 26.4756 55.5024 26.5938C55.6207 26.7121 55.6872 26.8724 55.6872 27.0396V29.7063C55.6872 29.7891 55.671 29.8712 55.6393 29.9477C55.6077 30.0243 55.5612 30.0939 55.5027 30.1525C55.4441 30.2111 55.3745 30.2576 55.298 30.2893C55.2214 30.321 55.1393 30.3373 55.0565 30.3373Z" fill="#325D9C"/>
<path d="M76.6284 49.2329C76.9771 49.2329 77.2598 48.9505 77.2598 48.6022C77.2598 48.2538 76.9771 47.9714 76.6284 47.9714H73.9594C73.6107 47.9714 73.328 48.2538 73.328 48.6022C73.328 48.9505 73.6107 49.2329 73.9594 49.2329H76.6284Z" fill="#C9DAF4"/>
<path d="M67.976 61.5171C68.0943 61.3989 68.2547 61.3325 68.4219 61.3325C68.5891 61.3325 68.7495 61.3989 68.8678 61.5171L70.7561 63.4039C70.8147 63.4625 70.8612 63.532 70.893 63.6086C70.9247 63.6851 70.9411 63.7671 70.9411 63.85C70.9411 63.9328 70.9247 64.0148 70.893 64.0914C70.8612 64.1679 70.8147 64.2374 70.7561 64.296C70.6975 64.3546 70.6279 64.4011 70.5514 64.4328C70.4748 64.4646 70.3927 64.4809 70.3099 64.4809C70.227 64.4809 70.1449 64.4646 70.0683 64.4328C69.9918 64.4011 69.9222 64.3546 69.8637 64.296L67.976 62.4091C67.9174 62.3506 67.8708 62.2811 67.8391 62.2045C67.8074 62.128 67.791 62.046 67.791 61.9631C67.791 61.8803 67.8074 61.7982 67.8391 61.7217C67.8708 61.6452 67.9174 61.5757 67.976 61.5171Z" fill="#C9DAF4"/>
<path d="M55.0565 66.8669C55.2237 66.8669 55.3842 66.9334 55.5024 67.0516C55.6207 67.1698 55.6872 67.3302 55.6872 67.4974V70.1659C55.6872 70.3331 55.6207 70.4935 55.5024 70.6117C55.3842 70.7299 55.2237 70.7963 55.0565 70.7963C54.8892 70.7963 54.7288 70.7299 54.6105 70.6117C54.4922 70.4935 54.4258 70.3331 54.4258 70.1659V67.4974C54.4258 67.3302 54.4922 67.1698 54.6105 67.0516C54.7288 66.9334 54.8892 66.8669 55.0565 66.8669Z" fill="#C9DAF4"/>
<path d="M42.1344 61.5172C42.193 61.5758 42.2395 61.6453 42.2712 61.7218C42.303 61.7983 42.3193 61.8804 42.3193 61.9632C42.3193 62.0461 42.303 62.1281 42.2712 62.2046C42.2395 62.2812 42.193 62.3507 42.1344 62.4092L40.2467 64.2974C40.1284 64.4155 39.968 64.4819 39.8008 64.4819C39.6336 64.4819 39.4732 64.4155 39.3549 64.2974C39.2963 64.2388 39.2497 64.1693 39.218 64.0927C39.1863 64.0162 39.1699 63.9342 39.1699 63.8513C39.1699 63.7685 39.1863 63.6864 39.218 63.6099C39.2497 63.5334 39.2963 63.4639 39.3549 63.4053L41.2426 61.5185C41.3607 61.4001 41.521 61.3335 41.6882 61.3333C41.8554 61.333 42.0159 61.3992 42.1344 61.5172Z" fill="#C9DAF4"/>
<path d="M36.7833 48.5999C36.7833 48.7671 36.7168 48.9274 36.5986 49.0457C36.4803 49.1639 36.3199 49.2303 36.1526 49.2303H33.4823C33.315 49.2303 33.1546 49.1639 33.0363 49.0457C32.918 48.9274 32.8516 48.7671 32.8516 48.5999C32.8516 48.4327 32.918 48.2724 33.0363 48.1541C33.1546 48.0359 33.315 47.9695 33.4823 47.9695H36.152C36.2348 47.9694 36.3169 47.9856 36.3935 48.0173C36.4701 48.0489 36.5397 48.0954 36.5983 48.1539C36.657 48.2125 36.7035 48.282 36.7352 48.3585C36.767 48.435 36.7833 48.5171 36.7833 48.5999Z" fill="#C9DAF4"/>
<path d="M42.1344 35.6871C42.0758 35.7457 42.0062 35.7922 41.9297 35.8239C41.8531 35.8556 41.771 35.872 41.6881 35.872C41.6053 35.872 41.5232 35.8556 41.4466 35.8239C41.3701 35.7922 41.3005 35.7457 41.2419 35.6871L39.3549 33.7996C39.2963 33.741 39.2497 33.6715 39.218 33.595C39.1863 33.5185 39.1699 33.4364 39.1699 33.3536C39.1699 33.2707 39.1863 33.1887 39.218 33.1122C39.2497 33.0356 39.2963 32.9661 39.3549 32.9075C39.4135 32.8489 39.483 32.8024 39.5596 32.7707C39.6362 32.739 39.7182 32.7227 39.8011 32.7227C39.884 32.7227 39.9661 32.739 40.0426 32.7707C40.1192 32.8024 40.1888 32.8489 40.2473 32.9075L42.1344 34.7938C42.1932 34.8523 42.2399 34.9219 42.2717 34.9986C42.3036 35.0752 42.32 35.1574 42.32 35.2404C42.32 35.3234 42.3036 35.4056 42.2717 35.4822C42.2399 35.5589 42.1932 35.6285 42.1344 35.6871Z" fill="#C9DAF4"/>
<path d="M55.5039 59.2836L41.1777 44.9636L47.2078 38.9361L55.5039 47.2287L84.3738 18.3718L90.4038 24.3993L55.5039 59.2836Z" fill="#325D9C"/>
<path d="M55.248 56.9909C55.2377 56.9909 55.2275 56.9886 55.2181 56.9842C55.2087 56.9799 55.2004 56.9735 55.1938 56.9657L42.083 41.5279C42.0712 41.5134 42.0653 41.4949 42.0666 41.4762C42.0682 41.4574 42.0773 41.4399 42.0918 41.4277L48.5923 35.9109C48.5994 35.9048 48.6077 35.9002 48.6166 35.8973C48.6255 35.8944 48.6349 35.8933 48.6442 35.894C48.6535 35.8948 48.6626 35.8974 48.6709 35.9017C48.6792 35.906 48.6866 35.9119 48.6926 35.9191L56.2395 44.8042L87.3079 18.4363C87.3223 18.4241 87.341 18.4181 87.3598 18.4197C87.3786 18.4212 87.396 18.4301 87.4082 18.4445L92.928 24.9422C92.9398 24.9567 92.9457 24.9752 92.9444 24.9939C92.943 25.0127 92.9341 25.0302 92.9198 25.0425L77.4086 38.2069C77.4016 38.2136 77.3933 38.2188 77.3842 38.2222C77.375 38.2255 77.3654 38.227 77.3557 38.2265C77.346 38.226 77.3365 38.2235 77.3278 38.2192C77.319 38.2149 77.3113 38.2089 77.305 38.2015C77.2987 38.1941 77.294 38.1855 77.2912 38.1762C77.2884 38.1669 77.2875 38.1571 77.2885 38.1475C77.2896 38.1378 77.2927 38.1285 77.2975 38.1201C77.3023 38.1117 77.3088 38.1043 77.3165 38.0985L92.7741 24.98L87.3458 18.592L56.2773 44.9587C56.2703 44.9648 56.262 44.9695 56.2532 44.9724C56.2443 44.9754 56.2349 44.9765 56.2256 44.9757C56.2163 44.9749 56.2073 44.9722 56.1991 44.9679C56.1909 44.9635 56.1836 44.9576 56.1776 44.9505L48.6295 36.0647L42.2375 41.4901L55.2587 56.8194L60.6196 52.2671C60.6341 52.2562 60.6523 52.2513 60.6703 52.2533C60.6884 52.2553 60.705 52.2641 60.7168 52.278C60.7286 52.2918 60.7346 52.3096 60.7336 52.3278C60.7327 52.3459 60.7248 52.363 60.7117 52.3756L55.294 56.9739C55.2812 56.9849 55.2649 56.9909 55.248 56.9909Z" fill="#002E5D"/>
<path d="M68.8649 70.5922C68.8524 70.5926 68.84 70.5898 68.829 70.5839C68.8179 70.578 68.8086 70.5694 68.8019 70.5588C68.7969 70.5509 68.7935 70.5421 68.792 70.5329C68.7904 70.5237 68.7907 70.5143 68.7928 70.5052C68.795 70.4961 68.7988 70.4876 68.8043 70.48C68.8097 70.4724 68.8166 70.466 68.8246 70.4611C76.3834 65.6939 80.8954 57.5224 80.8954 48.6C80.9036 43.4533 79.3656 38.4226 76.4805 34.1596C76.4699 34.144 76.4659 34.1248 76.4695 34.1062C76.473 34.0877 76.4838 34.0713 76.4995 34.0606C76.5151 34.05 76.5343 34.0461 76.5529 34.0496C76.5715 34.0532 76.5879 34.0639 76.5985 34.0796C79.2908 38.0748 80.8196 42.7392 81.0144 47.5524C81.2092 52.3655 80.0622 57.1381 77.7016 61.3377C75.5762 65.0978 72.5525 68.2734 68.9003 70.5809C68.8897 70.5877 68.8775 70.5916 68.8649 70.5922Z" fill="#002E5D"/>
<path d="M44.6953 64.4637L51.6228 64.1113L50.212 66.6759L51.7509 70.715L44.6953 70.4262V64.4637Z" fill="#F70431"/>
<path d="M53.0104 89.5174L34.1124 86.8267C33.7271 86.7718 33.3793 86.5661 33.1456 86.255C32.912 85.9438 32.8114 85.5527 32.8662 85.1675L34.7217 72.1487C34.7766 71.7636 34.9824 71.416 35.2937 71.1825C35.605 70.949 35.9963 70.8487 36.3816 70.9036L55.2797 73.5949C55.6649 73.6497 56.0127 73.8552 56.2464 74.1662C56.4801 74.4773 56.5806 74.8684 56.5259 75.2535L54.6704 88.2723C54.6154 88.6574 54.4097 89.0049 54.0984 89.2384C53.7871 89.4719 53.3957 89.5723 53.0104 89.5174Z" fill="#325D9C"/>
<path d="M54.9004 88.078C54.8625 88.078 54.8247 88.078 54.7862 88.0736L44.6907 87.3323C44.6728 87.3299 44.6564 87.3207 44.6449 87.3066C44.6335 87.2926 44.6278 87.2747 44.6291 87.2566C44.6304 87.2385 44.6385 87.2216 44.6518 87.2093C44.6652 87.197 44.6827 87.1902 44.7008 87.1904L54.7969 87.9318C55.1662 87.9585 55.531 87.8377 55.8112 87.5959C56.0914 87.3541 56.2642 87.011 56.2917 86.6419L57.2554 73.5292C57.2823 73.1601 57.1615 72.7954 56.9195 72.5152C56.6776 72.235 56.3342 72.0624 55.965 72.0351L46.7916 71.358C46.7819 71.3579 46.7723 71.3557 46.7635 71.3517C46.7547 71.3477 46.7467 71.3419 46.7402 71.3348C46.7337 71.3276 46.7287 71.3192 46.7255 71.31C46.7224 71.3008 46.7211 71.2911 46.7219 71.2814C46.7226 71.2718 46.7253 71.2624 46.7298 71.2538C46.7343 71.2452 46.7405 71.2376 46.748 71.2315C46.7555 71.2254 46.7642 71.2209 46.7736 71.2183C46.7829 71.2156 46.7927 71.2149 46.8023 71.2162L55.9757 71.8895C56.1772 71.9043 56.3739 71.9586 56.5544 72.0493C56.7349 72.1401 56.8958 72.2655 57.0278 72.4184C57.1598 72.5713 57.2604 72.7488 57.3238 72.9405C57.3872 73.1323 57.4121 73.3347 57.3973 73.5361L56.4336 86.6489C56.4056 87.0365 56.232 87.3992 55.9476 87.6643C55.6633 87.9293 55.2892 88.0771 54.9004 88.078Z" fill="#002E5D"/>
<path d="M34.7011 80.9544H34.6961C34.6777 80.9523 34.6609 80.9432 34.6491 80.929C34.6374 80.9148 34.6316 80.8965 34.633 80.8781L35.2915 71.9148C35.3216 71.5081 35.5121 71.13 35.821 70.8636C36.1299 70.5971 36.5319 70.4641 36.9388 70.4938L42.6321 70.9118C42.6504 70.914 42.6671 70.9232 42.6788 70.9374C42.6906 70.9516 42.6964 70.9697 42.6951 70.9881C42.6932 71.0065 42.6842 71.0234 42.6699 71.0352C42.6556 71.047 42.6373 71.0527 42.6188 71.0511L36.9256 70.6332C36.5565 70.6066 36.1919 70.7274 35.9117 70.969C35.6315 71.2107 35.4586 71.5535 35.4308 71.9224L34.7724 80.8863C34.7716 80.9046 34.7637 80.922 34.7504 80.9346C34.7372 80.9473 34.7195 80.9544 34.7011 80.9544Z" fill="#002E5D"/>
<path d="M47.8582 83.3725C49.6055 81.626 49.6055 78.7944 47.8582 77.0479C46.111 75.3014 43.2781 75.3014 41.5309 77.0479C39.7836 78.7944 39.7836 81.626 41.5309 83.3725C43.2781 85.119 46.111 85.119 47.8582 83.3725Z" fill="white"/>
<path d="M44.6943 80.2816C44.6755 80.2814 44.6574 80.2738 44.6441 80.2605C44.6308 80.2472 44.6232 80.2292 44.623 80.2103V64.1113C44.623 64.0924 44.6306 64.0743 44.6439 64.0609C44.6573 64.0475 44.6754 64.04 44.6943 64.04C44.7132 64.04 44.7313 64.0475 44.7447 64.0609C44.7581 64.0743 44.7656 64.0924 44.7656 64.1113V80.2103C44.7654 80.2292 44.7579 80.2472 44.7445 80.2605C44.7312 80.2738 44.7132 80.2814 44.6943 80.2816Z" fill="#002E5D"/>
<path d="M42.8072 89.6925H11.542C11.5231 89.6925 11.5049 89.685 11.4916 89.6717C11.4782 89.6583 11.4707 89.6402 11.4707 89.6213C11.4707 89.6024 11.4782 89.5843 11.4916 89.5709C11.5049 89.5576 11.5231 89.55 11.542 89.55H42.8072C42.8261 89.55 42.8442 89.5576 42.8576 89.5709C42.871 89.5843 42.8785 89.6024 42.8785 89.6213C42.8785 89.6402 42.871 89.6583 42.8576 89.6717C42.8442 89.685 42.8261 89.6925 42.8072 89.6925Z" fill="#002E5D"/>
<path d="M80.4122 91.5946H20.9588C20.9489 91.5955 20.939 91.5943 20.9296 91.5912C20.9202 91.5881 20.9115 91.583 20.9042 91.5763C20.8968 91.5696 20.891 91.5615 20.8869 91.5524C20.8829 91.5434 20.8809 91.5335 20.8809 91.5236C20.8809 91.5137 20.8829 91.5039 20.8869 91.4948C20.891 91.4858 20.8968 91.4776 20.9042 91.4709C20.9115 91.4643 20.9202 91.4592 20.9296 91.4561C20.939 91.4529 20.9489 91.4518 20.9588 91.4527H80.4122C80.4221 91.4518 80.432 91.4529 80.4414 91.4561C80.4508 91.4592 80.4595 91.4643 80.4668 91.4709C80.4742 91.4776 80.48 91.4858 80.484 91.4948C80.4881 91.5039 80.4901 91.5137 80.4901 91.5236C80.4901 91.5335 80.4881 91.5434 80.484 91.5524C80.48 91.5615 80.4742 91.5696 80.4668 91.5763C80.4595 91.583 80.4508 91.5881 80.4414 91.5912C80.432 91.5943 80.4221 91.5955 80.4122 91.5946Z" fill="#002E5D"/>
<path d="M93.2459 76.3987C93.6177 74.1095 92.0625 71.9525 89.7723 71.5809C87.4821 71.2093 85.3242 72.7638 84.9524 75.053C84.5807 77.3422 86.1359 79.4992 88.4261 79.8708C90.7162 80.2424 92.8742 78.6879 93.2459 76.3987Z" fill="#C9DAF4"/>
<path d="M44.054 10.1305C44.2167 9.4416 43.7898 8.75132 43.1006 8.58873C42.4114 8.42613 41.7209 8.85279 41.5582 9.54169C41.3955 10.2306 41.8224 10.9209 42.5116 11.0835C43.2008 11.2461 43.8914 10.8194 44.054 10.1305Z" fill="#C9DAF4"/>
<path d="M10.0111 66.4232C10.1737 65.7343 9.74687 65.044 9.05767 64.8814C8.36847 64.7189 7.6779 65.1455 7.51524 65.8344C7.35257 66.5233 7.77941 67.2136 8.46861 67.3762C9.15781 67.5388 9.84838 67.1121 10.0111 66.4232Z" fill="#C9DAF4"/>
<path d="M91.0479 77.3389C91.0076 77.3388 90.9682 77.3272 90.9344 77.3054L87.0291 74.8373C86.9813 74.8072 86.9474 74.7592 86.9349 74.7041C86.9225 74.6489 86.9324 74.5911 86.9626 74.5433C86.9928 74.4954 87.0408 74.4616 87.0959 74.4491C87.1511 74.4366 87.209 74.4466 87.2568 74.4768L91.1621 76.9455C91.2012 76.9701 91.2313 77.0068 91.2477 77.0501C91.2642 77.0933 91.2661 77.1407 91.2532 77.1851C91.2403 77.2296 91.2133 77.2686 91.1763 77.2963C91.1392 77.324 91.0942 77.339 91.0479 77.3389Z" fill="white"/>
<path d="M87.8613 78.0564C87.8232 78.0563 87.7857 78.046 87.7529 78.0266C87.7201 78.0072 87.6931 77.9793 87.6748 77.9459C87.6564 77.9124 87.6473 77.8747 87.6485 77.8366C87.6497 77.7985 87.6612 77.7614 87.6816 77.7292L90.1514 73.8256C90.1658 73.8009 90.185 73.7793 90.208 73.7621C90.2309 73.745 90.2571 73.7326 90.2849 73.7258C90.3128 73.719 90.3417 73.7179 90.37 73.7225C90.3982 73.7271 90.4253 73.7374 90.4495 73.7527C90.4737 73.768 90.4946 73.788 90.5109 73.8116C90.5272 73.8351 90.5386 73.8617 90.5444 73.8898C90.5502 73.9178 90.5502 73.9468 90.5446 73.9748C90.5389 74.0029 90.5277 74.0296 90.5115 74.0532L88.0449 77.9574C88.0253 77.9882 87.9981 78.0134 87.966 78.0308C87.9339 78.0481 87.8978 78.0569 87.8613 78.0564Z" fill="white"/>
</svg>
