<svg width="96" height="96" viewBox="0 0 96 96" fill="none" xmlns="http://www.w3.org/2000/svg">
<g clip-path="url(#clip0_2620_28557)">
<path d="M96 49.1964C96 63.3078 89.7225 75.9748 79.7685 84.637C79.0332 85.2782 78.279 85.8962 77.5056 86.4909C76.8919 86.9633 76.2655 87.4211 75.6263 87.8645C74.4639 88.6716 73.2644 89.428 72.0278 90.1338L71.8432 90.2399H24.1597C23.3658 89.7918 22.5863 89.3226 21.8213 88.8323C20.4361 87.9427 19.0982 86.9834 17.8131 85.9584C6.94744 77.2868 0 64.0416 0 49.1964C0 23.0872 21.4908 1.91992 47.9991 1.91992C74.5074 1.91992 96 23.0872 96 49.1964Z" fill="#F3F8FF"/>
<path d="M60.916 28.7791H37.9727V90.2401H60.916V28.7791Z" fill="#325D9C"/>
<path d="M51.5527 28.7791H28.6094V90.2401H51.5527V28.7791Z" fill="#C9DAF4"/>
<path d="M40.4863 56.5991H17.543V90.2401H40.4863V56.5991Z" fill="#325D9C"/>
<path d="M31.123 56.5991H8.17969V90.2401H31.123V56.5991Z" fill="#C9DAF4"/>
<path d="M87.9238 72.1052H64.9805V90.24H87.9238V72.1052Z" fill="#325D9C"/>
<path d="M78.5644 72.1052H55.6211V90.24H78.5644V72.1052Z" fill="#C9DAF4"/>
<path d="M81.6603 70.4365H59.2344V72.1053H81.6603V70.4365Z" fill="#002E5D"/>
<path d="M34.6212 54.8472H12.1953V56.5991H34.6212V54.8472Z" fill="#002E5D"/>
<path d="M56.0861 27.0271H33.6602V28.779H56.0861V27.0271Z" fill="#325D9C"/>
<path d="M26.9463 35.9338C27.7996 35.9357 28.6473 36.0707 29.459 36.334V54.8409C29.3458 54.8457 29.2313 54.8484 29.1182 54.8484C24.4002 54.8484 20.0907 50.6145 19.4915 45.3915C18.8923 40.1684 22.2291 35.9338 26.9463 35.9338Z" fill="#DD872A"/>
<path d="M20.386 45.3908C20.9852 50.6131 25.2941 54.8471 30.0127 54.8471C31.3939 54.8563 32.7486 54.4679 33.9153 53.7284C34.0398 53.6489 34.1618 53.5655 34.2813 53.4782C36.5561 51.8204 37.8588 48.821 37.4668 45.3949V45.3908C37.4514 45.2544 37.4332 45.1181 37.4123 44.9818C36.6427 39.9469 32.436 35.9304 27.8401 35.9304C23.125 35.9338 19.7868 40.1677 20.386 45.3908Z" fill="#FFC15A"/>
<path d="M32.4472 52.3976C35.7535 50.7376 36.8582 46.2536 34.9145 42.3823C32.9709 38.511 28.7149 36.7185 25.4086 38.3785C22.1022 40.0386 20.9975 44.5226 22.9412 48.3938C24.8848 52.2651 29.1408 54.0576 32.4472 52.3976Z" fill="white"/>
<path d="M31.6049 50.7211C34.1202 49.4583 34.9605 46.0468 33.4817 43.1015C32.003 40.1561 28.7651 38.7922 26.2497 40.0551C23.7344 41.318 22.8941 44.7295 24.3729 47.6748C25.8516 50.6201 29.0895 51.984 31.6049 50.7211Z" fill="#FFC15A"/>
<path d="M30.6527 48.8209C32.272 48.0078 32.8131 45.8118 31.8612 43.9159C30.9093 42.0199 28.8249 41.1421 27.2056 41.9551C25.5862 42.7681 25.0451 44.9642 25.997 46.8601C26.9489 48.7561 29.0333 49.6339 30.6527 48.8209Z" fill="white"/>
<path d="M29.6784 46.885C30.3839 46.5307 30.6195 45.5737 30.2047 44.7473C29.7898 43.921 28.8815 43.5383 28.1759 43.8925C27.4704 44.2468 27.2348 45.2038 27.6496 46.0301C28.0645 46.8565 28.9728 47.2392 29.6784 46.885Z" fill="#FFC15A"/>
<g style="mix-blend-mode:multiply" opacity="0.25">
<path d="M29.6641 44.791L37.4666 45.395V45.3909C37.4511 45.2545 37.433 45.1182 37.412 44.9819L29.6954 44.384L29.6641 44.791Z" fill="#AF6215"/>
</g>
<g style="mix-blend-mode:multiply" opacity="0.25">
<path d="M28.1719 50.2131L33.9137 53.7286C34.0382 53.649 34.1602 53.5656 34.2797 53.4784L28.3805 49.8655L28.1719 50.2131Z" fill="#AF6215"/>
</g>
<path d="M29.457 44.4419L37.2732 39.8283L37.4961 38.7621L40.5432 36.9639L40.2439 38.3088L41.5664 38.6967L38.5193 40.4957L37.4784 40.1766L29.6629 44.7902L29.457 44.4419Z" fill="#002E5D"/>
<path d="M28.2223 49.8103L37.2287 50.9303L38.0562 50.2227L41.5676 50.659L40.5089 51.5418L41.3195 52.6563L37.8081 52.22L37.1789 51.3311L28.1719 50.2118L28.2223 49.8103Z" fill="#002E5D"/>
<path d="M41.1309 17.9777L40.938 19.3295C39.7401 19.161 38.6164 18.6499 37.7021 17.8578C36.6202 16.9395 35.7327 15.6123 35.0721 13.917C34.8042 13.2209 34.5833 12.5076 34.4109 11.7819C34.2142 10.9821 34.0774 10.1686 34.0019 9.34834L33.9815 9.00273C33.9778 8.95327 33.9844 8.90359 34.0008 8.85681C34.0173 8.81002 34.0432 8.76714 34.077 8.73085C34.1108 8.69456 34.1517 8.66564 34.1972 8.64592C34.2427 8.62619 34.2918 8.61608 34.3414 8.61621H39.1254V9.97957H35.8131C35.7687 9.97952 35.7248 9.98919 35.6845 10.0079C35.6442 10.0266 35.6085 10.0539 35.5798 10.0879C35.5512 10.1218 35.5303 10.1616 35.5187 10.2045C35.5071 10.2474 35.505 10.2923 35.5125 10.3361C35.537 10.4779 35.565 10.6306 35.597 10.7921C35.8336 11.983 36.2992 13.6606 37.1683 15.099C38.03 16.523 39.2917 17.7146 41.1309 17.9777Z" fill="#FFC15A"/>
<path d="M55.9097 8.89571L55.8777 9.34698C55.7287 10.9107 55.3689 12.447 54.8081 13.9142C54.1482 15.6096 53.2614 16.9334 52.1795 17.8544C51.2651 18.6468 50.1411 19.1581 48.9429 19.3268L48.75 17.975C50.5905 17.7119 51.8516 16.5203 52.7126 15.099C53.727 13.4275 54.1864 11.4329 54.382 10.2591C54.3877 10.2251 54.3859 10.1902 54.3767 10.157C54.3675 10.1238 54.3512 10.0929 54.3288 10.0666C54.3065 10.0404 54.2787 10.0193 54.2474 10.0048C54.2161 9.99037 54.182 9.98292 54.1475 9.98299H50.7582V8.61963H55.6486C55.6842 8.61967 55.7193 8.62695 55.752 8.64103C55.7846 8.65512 55.8141 8.6757 55.8385 8.70154C55.8629 8.72737 55.8818 8.75791 55.8941 8.79129C55.9063 8.82468 55.9116 8.86021 55.9097 8.89571Z" fill="#FFC15A"/>
<path d="M46.4243 20.0562H43.4883V25.7918H46.4243V20.0562Z" fill="#FFC15A"/>
<path d="M46.4243 19.6035V23.1953C45.3779 23.4346 44.3595 23.3146 43.4883 23.0651V19.6035H46.4243Z" fill="#EF9A1D"/>
<path d="M39.123 8.61621H37.168V9.98162H39.123V8.61621Z" fill="#F49E21"/>
<path d="M41.1306 17.9779L40.9377 19.3296C39.7397 19.1611 38.616 18.65 37.7017 17.8579C37.3492 17.0364 37.1676 16.1518 37.168 15.258V15.0991C38.0296 16.5232 39.2914 17.7147 41.1306 17.9779Z" fill="#F49E21"/>
<path d="M52.7129 8.61621H50.7578V9.98162H52.7129V8.61621Z" fill="#F49E21"/>
<path d="M52.7138 15.0991V15.2552C52.7151 16.1495 52.5347 17.0348 52.1834 17.8572C51.269 18.6497 50.145 19.161 48.9468 19.3296L48.7539 17.9779C50.591 17.7147 51.8528 16.5232 52.7138 15.0991Z" fill="#F49E21"/>
<path d="M52.1042 6.65771V15.2578C52.0995 17.156 51.3436 18.9751 50.0016 20.3175C48.6595 21.6599 46.8406 22.4164 44.9425 22.4216C44.1465 22.4226 43.3562 22.2887 42.605 22.0255C41.3562 21.5897 40.2515 20.8185 39.412 19.7964C38.5724 18.7744 38.0305 17.5409 37.8455 16.2312C37.8003 15.908 37.7775 15.5821 37.7773 15.2558V6.65771H52.1042Z" fill="#FFC15A"/>
<path d="M53.089 6.50986V6.80707C53.089 6.90554 53.0696 7.00305 53.032 7.09403C52.9943 7.185 52.939 7.26766 52.8694 7.33729C52.7998 7.40692 52.7171 7.46216 52.6262 7.49984C52.5352 7.53752 52.4377 7.55692 52.3392 7.55692H37.5467C37.3479 7.55692 37.1571 7.47792 37.0165 7.33729C36.8759 7.19667 36.7969 7.00594 36.7969 6.80707V6.50986C36.7969 6.31099 36.8759 6.12026 37.0165 5.97964C37.1571 5.83901 37.3479 5.76001 37.5467 5.76001H52.3392C52.5381 5.76001 52.7288 5.83901 52.8694 5.97964C53.01 6.12026 53.089 6.31099 53.089 6.50986Z" fill="#FFC15A"/>
<path d="M45.5567 6.65845C45.2856 8.8125 44.4209 10.8487 43.0592 12.5396C41.6974 14.2305 39.8923 15.5094 37.8455 16.2333C37.8003 15.9101 37.7775 15.5842 37.7773 15.2578V6.65845H45.5567Z" fill="#FFD469"/>
<path d="M46.7235 14.6642C46.7047 14.6823 46.6906 14.7048 46.6824 14.7296C46.6742 14.7544 46.6722 14.7809 46.6765 14.8067L47.0105 16.8401C47.0154 16.8698 47.0119 16.9003 47.0003 16.928C46.9888 16.9558 46.9697 16.9798 46.9452 16.9973C46.9207 17.0147 46.8918 17.025 46.8618 17.0268C46.8317 17.0287 46.8018 17.0221 46.7753 17.0078L44.9559 16.0364C44.9329 16.024 44.9071 16.0175 44.8809 16.0175C44.8548 16.0175 44.829 16.024 44.806 16.0364L42.9791 16.9806C42.9524 16.9945 42.9224 17.0007 42.8924 16.9985C42.8625 16.9963 42.8337 16.9857 42.8094 16.9679C42.7851 16.9502 42.7663 16.926 42.7551 16.8981C42.7439 16.8702 42.7407 16.8397 42.7459 16.8101L43.0309 15.2164L43.1086 14.7815C43.1133 14.7558 43.1117 14.7294 43.1039 14.7046C43.096 14.6797 43.0822 14.6572 43.0636 14.639L42.6921 14.2709L41.6014 13.189C41.5803 13.1678 41.5656 13.1412 41.5589 13.1121C41.5521 13.083 41.5536 13.0526 41.5631 13.0243C41.5727 12.996 41.5899 12.9709 41.6129 12.9518C41.636 12.9328 41.6638 12.9205 41.6934 12.9164L43.7289 12.6335C43.7545 12.6297 43.7789 12.6199 43.8 12.6048C43.8211 12.5898 43.8383 12.5699 43.8502 12.5469L44.7746 10.7064C44.7881 10.6795 44.8088 10.657 44.8344 10.6413C44.86 10.6255 44.8894 10.6172 44.9195 10.6172C44.9495 10.6172 44.9789 10.6255 45.0045 10.6413C45.0301 10.657 45.0508 10.6795 45.0643 10.7064L45.5981 11.8093L45.6615 11.9395L45.9628 12.5619C45.9742 12.5852 45.991 12.6055 46.0119 12.6209C46.0328 12.6363 46.0571 12.6465 46.0828 12.6505L48.1203 12.9614C48.1496 12.966 48.1771 12.9786 48.1997 12.998C48.2222 13.0173 48.239 13.0425 48.248 13.0708C48.2571 13.0991 48.2581 13.1293 48.2509 13.1582C48.2438 13.187 48.2288 13.2133 48.2075 13.234L46.7235 14.6642Z" fill="#FCE897"/>
<path d="M37.7773 7.55762V7.91073L52.1029 8.61627V7.55762H37.7773Z" fill="#F9B13D"/>
<path d="M46.7687 5.76001C46.647 6.37679 46.4615 6.97923 46.2152 7.5576H37.5428C37.3439 7.5576 37.1532 7.4786 37.0126 7.33798C36.872 7.19735 36.793 7.00663 36.793 6.80775V6.50986C36.793 6.31099 36.872 6.12026 37.0126 5.97964C37.1532 5.83901 37.3439 5.76001 37.5428 5.76001H46.7687Z" fill="#FFD469"/>
<path d="M45.6642 11.9395C45.4647 12.6331 45.1291 13.2801 44.677 13.8427C44.2249 14.4053 43.6653 14.8723 43.0309 15.2164L43.1086 14.7815C43.1133 14.7558 43.1117 14.7294 43.1039 14.7046C43.096 14.6797 43.0822 14.6572 43.0636 14.639L42.6921 14.2709L41.6014 13.189C41.5803 13.1678 41.5656 13.1412 41.5589 13.1121C41.5521 13.083 41.5536 13.0526 41.5631 13.0243C41.5727 12.996 41.5899 12.9709 41.6129 12.9518C41.636 12.9328 41.6638 12.9205 41.6934 12.9164L43.7303 12.6335C43.7559 12.6297 43.7803 12.6199 43.8014 12.6048C43.8225 12.5898 43.8397 12.5699 43.8516 12.5469L44.776 10.7064C44.7895 10.6795 44.8102 10.657 44.8358 10.6413C44.8613 10.6255 44.8908 10.6172 44.9208 10.6172C44.9509 10.6172 44.9803 10.6255 45.0059 10.6413C45.0315 10.657 45.0522 10.6795 45.0657 10.7064L45.5994 11.8093L45.6642 11.9395Z" fill="#FFEEA4"/>
<path d="M47.7678 25.7925H42.1133V27.027H47.7678V25.7925Z" fill="#FFC15A"/>
<g style="mix-blend-mode:multiply" opacity="0.18">
<path d="M53.0911 6.50996V6.80718C53.0911 6.90565 53.0717 7.00315 53.034 7.09413C52.9963 7.18511 52.9411 7.26777 52.8715 7.3374C52.8018 7.40703 52.7192 7.46226 52.6282 7.49995C52.5372 7.53763 52.4397 7.55702 52.3412 7.55702H52.1067V15.26C52.1015 17.1582 51.345 18.9771 50.0026 20.3191C48.6602 21.6611 46.8411 22.4171 44.943 22.4218C44.147 22.4228 43.3566 22.2889 42.6055 22.0257C49.3896 20.9861 50.2171 12.3042 50.1496 7.55702C50.1496 7.23732 50.1387 6.93738 50.1271 6.65789C50.1142 6.32727 50.0985 6.02529 50.0808 5.76148H52.3392C52.4377 5.76121 52.5353 5.78036 52.6265 5.81784C52.7176 5.85532 52.8004 5.91038 52.8702 5.9799C52.9401 6.04941 52.9955 6.132 53.0334 6.22295C53.0713 6.31391 53.0909 6.41143 53.0911 6.50996Z" fill="#AF6215"/>
</g>
<g style="mix-blend-mode:multiply" opacity="0.25">
<path d="M40.4844 56.5991L43.6406 90.2401H40.4844V56.5991Z" fill="#325D9C"/>
</g>
<path d="M51.655 66.2592H51.4511V28.8813H28.6094V28.6775H51.655V66.2592Z" fill="#002E5D"/>
<path d="M8.18038 76.4217C8.15326 76.4217 8.12725 76.4109 8.10807 76.3917C8.0889 76.3726 8.07812 76.3466 8.07812 76.3194V56.5725C8.07831 56.5455 8.08916 56.5197 8.10831 56.5007C8.12747 56.4816 8.15338 56.4709 8.18038 56.4709H20.4438C20.4709 56.4709 20.4969 56.4817 20.5161 56.5009C20.5353 56.5201 20.5461 56.5461 20.5461 56.5732C20.5461 56.6003 20.5353 56.6263 20.5161 56.6455C20.4969 56.6647 20.4709 56.6755 20.4438 56.6755H8.28263V76.3201C8.28245 76.3471 8.2716 76.373 8.25244 76.392C8.23328 76.411 8.20738 76.4217 8.18038 76.4217Z" fill="#002E5D"/>
</g>
<defs>
<clipPath id="clip0_2620_28557">
<rect width="96" height="96" fill="white"/>
</clipPath>
</defs>
</svg>
