<svg width="96" height="96" viewBox="0 0 96 96" fill="none" xmlns="http://www.w3.org/2000/svg">
<g clip-path="url(#clip0_2620_28402)">
<path d="M96 49.018C96 63.6493 89.7225 76.7829 79.7685 85.7642C79.0332 86.429 78.279 87.0698 77.5056 87.6864C76.8919 88.1762 76.2655 88.6509 75.6263 89.1106C74.4639 89.9474 73.2644 90.7317 72.0278 91.4634L71.8432 91.5735H24.1597C23.3658 91.1089 22.5863 90.6224 21.8213 90.114C20.4361 89.1916 19.0982 88.1971 17.8131 87.1342C6.94744 78.1432 0 64.4101 0 49.018C0 21.947 21.4908 0 47.9991 0C74.5074 0 96 21.947 96 49.018Z" fill="#F3F8FF"/>
<path d="M71.2257 13.5159L37.6214 11.7054C36.7626 11.6591 36.0297 12.3326 35.9844 13.2096L32.3487 83.5841C32.3034 84.4612 32.9629 85.2097 33.8217 85.2559L67.426 87.0665C68.2848 87.1127 69.0178 86.4393 69.0631 85.5622L72.6987 15.1877C72.744 14.3106 72.0846 13.5622 71.2257 13.5159Z" fill="white"/>
<path d="M66.1789 17.7983H32.5279C31.6679 17.7983 30.9707 18.5103 30.9707 19.3886V89.861C30.9707 90.7392 31.6679 91.4512 32.5279 91.4512H66.1789C67.0389 91.4512 67.7361 90.7392 67.7361 89.861V19.3886C67.7361 18.5103 67.0389 17.7983 66.1789 17.7983Z" fill="#C9DAF4"/>
<path d="M65.0938 88.2399V21.01C65.0938 20.7262 64.8685 20.4961 64.5906 20.4961L34.1146 20.4961C33.8367 20.4961 33.6114 20.7262 33.6114 21.01V88.2399C33.6114 88.5237 33.8367 88.7537 34.1146 88.7537H64.5906C64.8685 88.7537 65.0938 88.5237 65.0938 88.2399Z" fill="white"/>
<path d="M64.8986 90.0562H31.2476C30.8094 90.0547 30.3896 89.8761 30.08 89.5594C29.7705 89.2427 29.5963 88.8137 29.5957 88.3662V17.8938C29.5962 17.4458 29.7707 17.0162 30.0809 16.6994C30.3912 16.3825 30.8118 16.2043 31.2505 16.2039H64.9016C65.3403 16.2043 65.761 16.3825 66.0712 16.6994C66.3815 17.0162 66.556 17.4458 66.5564 17.8938V88.3662C66.5558 88.8148 66.3808 89.2447 66.07 89.5616C65.7591 89.8784 65.3378 90.0563 64.8986 90.0562ZM31.2476 16.4033C30.8606 16.4038 30.4897 16.561 30.216 16.8404C29.9424 17.1198 29.7885 17.4987 29.788 17.8938V88.3662C29.7887 88.7613 29.9427 89.1399 30.2163 89.4192C30.4899 89.6985 30.8607 89.8556 31.2476 89.8561H64.8986C65.2855 89.8556 65.6563 89.6985 65.9299 89.4192C66.2035 89.1399 66.3575 88.7613 66.3581 88.3662V17.8938C66.3577 17.4987 66.2037 17.1198 65.9301 16.8404C65.6565 16.561 65.2856 16.4038 64.8986 16.4033H31.2476Z" fill="#002E5D"/>
<path d="M41.87 88.8533H34.1151C34.036 88.8533 33.9578 88.8373 33.8848 88.8063C33.8118 88.7753 33.7454 88.73 33.6896 88.6728C33.6337 88.6157 33.5895 88.5479 33.5593 88.4733C33.5291 88.3986 33.5136 88.3187 33.5137 88.2379V21.0104C33.5138 20.8476 33.5772 20.6915 33.69 20.5763C33.8028 20.4612 33.9556 20.3964 34.1151 20.3962H64.5905C64.7499 20.3964 64.9027 20.4612 65.0154 20.5764C65.128 20.6915 65.1913 20.8476 65.1913 21.0104V31.2773C65.1913 31.3038 65.181 31.3291 65.1627 31.3478C65.1444 31.3665 65.1196 31.377 65.0937 31.377C65.0678 31.377 65.0429 31.3665 65.0246 31.3478C65.0063 31.3291 64.996 31.3038 64.996 31.2773V21.0104C64.9958 20.9007 64.9531 20.7954 64.8771 20.7178C64.801 20.6402 64.698 20.5965 64.5905 20.5963H34.1151C34.0076 20.5963 33.9044 20.6399 33.8284 20.7176C33.7523 20.7953 33.7096 20.9006 33.7096 21.0104V88.2379C33.7097 88.3477 33.7525 88.4529 33.8285 88.5306C33.9045 88.6082 34.0076 88.6519 34.1151 88.6521H41.87C41.8959 88.6521 41.9208 88.6626 41.9391 88.6813C41.9574 88.7 41.9677 88.7253 41.9677 88.7518C41.9677 88.7782 41.9574 88.8036 41.9391 88.8223C41.9208 88.841 41.8959 88.8515 41.87 88.8515V88.8533Z" fill="#002E5D"/>
<path d="M45.6945 33.5115L44.416 40.16H53.768V42.7987L55.1882 41.8281L54.9042 36.3642L45.6945 33.5115Z" fill="#1F3A6F"/>
<path d="M45.5996 40.1121L46.1677 52.1765L47.766 53.3125C47.766 53.3125 48.8432 54.1347 50.1806 53.1793C51.5181 52.224 53.7535 50.52 53.7535 50.52L53.7654 40.1601L45.5996 40.1121Z" fill="#FDC8AA"/>
<path d="M48.9153 53.7413C48.5222 53.7421 48.1375 53.6249 47.8089 53.4044L44.1027 50.9056C44.0891 50.8967 44.0779 50.8843 44.0702 50.8697C44.0625 50.8552 44.0585 50.8389 44.0586 50.8223V40.1359C44.0586 40.1094 44.0689 40.084 44.0872 40.0653C44.1055 40.0466 44.1304 40.0361 44.1563 40.0361H53.7685C53.7943 40.0363 53.8191 40.0469 53.8373 40.0655C53.8556 40.0842 53.866 40.1095 53.8661 40.1359V50.5347C53.8661 50.5505 53.8625 50.566 53.8554 50.5801C53.8484 50.5942 53.8382 50.6063 53.8256 50.6156L50.089 53.36C49.7465 53.6095 49.336 53.7428 48.9153 53.7413ZM44.2539 50.7688L47.9167 53.2378C48.224 53.4433 48.5848 53.5492 48.952 53.5417C49.3192 53.5342 49.6757 53.4137 49.9747 53.1958L53.6702 50.4812V40.2362H44.2539V50.7688Z" fill="#002E5D"/>
<path d="M53.7678 43.0164C53.7477 43.016 53.7282 43.0094 53.7119 42.9973C53.6957 42.9853 53.6834 42.9684 53.6769 42.949C53.6704 42.9295 53.6699 42.9085 53.6755 42.8888C53.6811 42.8691 53.6926 42.8516 53.7083 42.8388L56.8548 40.244L55.9151 36.7102L43.5125 32.9599L41.8452 38.9341L44.2336 42.4253C44.241 42.436 44.2462 42.4481 44.249 42.4609C44.2517 42.4737 44.252 42.4869 44.2497 42.4998C44.2475 42.5127 44.2427 42.525 44.2358 42.536C44.2288 42.547 44.2198 42.5565 44.2092 42.5639C44.1879 42.5791 44.1617 42.585 44.1361 42.5804C44.1106 42.5759 44.0878 42.5612 44.0728 42.5396L41.6582 39.0125C41.6499 39.0004 41.6443 38.9865 41.6419 38.9718C41.6396 38.9572 41.6404 38.9422 41.6445 38.928L43.3505 32.8073C43.354 32.7944 43.3599 32.7824 43.368 32.772C43.3761 32.7615 43.3861 32.7528 43.3976 32.7465C43.4088 32.7399 43.4213 32.7357 43.4342 32.7342C43.4471 32.7328 43.4602 32.734 43.4726 32.7379L56.0205 36.5338C56.0364 36.5386 56.0508 36.5476 56.0624 36.5597C56.074 36.5718 56.0823 36.5868 56.0866 36.6031L57.0572 40.2519C57.0624 40.2706 57.0621 40.2904 57.0563 40.3089C57.0504 40.3274 57.0394 40.3437 57.0245 40.3558L53.8309 42.9939C53.8132 43.0088 53.7908 43.0167 53.7678 43.0164Z" fill="#002E5D"/>
<path d="M36.0729 35.4412C36.0469 35.4412 36.022 35.4307 36.0036 35.412C35.9852 35.3933 35.9748 35.368 35.9746 35.3414V27.8008C35.9746 27.7742 35.985 27.7486 36.0034 27.7298C36.0218 27.711 36.0468 27.7004 36.0729 27.7004H43.4264C43.4511 27.7024 43.4741 27.7138 43.4909 27.7323C43.5077 27.7509 43.517 27.7752 43.517 27.8005C43.517 27.8257 43.5077 27.8501 43.4909 27.8686C43.4741 27.8872 43.4511 27.8985 43.4264 27.9005H36.1705V35.3414C36.1704 35.3678 36.16 35.3931 36.1417 35.4118C36.1235 35.4305 36.0987 35.441 36.0729 35.4412Z" fill="#002E5D"/>
<path d="M56.965 56.6895H41.7422V86.2525H56.965V56.6895Z" fill="#F3F8FF"/>
<path d="M43.0807 58.7777H36.0732C36.0603 58.7778 36.0475 58.7752 36.0356 58.7703C36.0237 58.7653 36.0129 58.758 36.0037 58.7487C35.9946 58.7394 35.9873 58.7284 35.9824 58.7163C35.9775 58.7041 35.9749 58.6911 35.9749 58.678V50.0317C35.9739 50.0179 35.9756 50.0041 35.98 49.991C35.9845 49.9779 35.9915 49.9659 36.0007 49.9558C36.0099 49.9456 36.0211 49.9375 36.0335 49.932C36.0459 49.9264 36.0593 49.9236 36.0729 49.9236C36.0864 49.9236 36.0998 49.9264 36.1122 49.932C36.1246 49.9375 36.1358 49.9456 36.145 49.9558C36.1542 49.9659 36.1612 49.9779 36.1657 49.991C36.1701 50.0041 36.1719 50.0179 36.1708 50.0317V58.5782H43.0784C43.1043 58.5782 43.1291 58.5887 43.1474 58.6074C43.1657 58.6261 43.176 58.6515 43.176 58.678C43.176 58.7044 43.1657 58.7298 43.1474 58.7485C43.1291 58.7672 43.1043 58.7777 43.0784 58.7777H43.0807Z" fill="#002E5D"/>
<path d="M62.6309 58.7776H55.9824C55.9565 58.7776 55.9317 58.7671 55.9134 58.7484C55.8951 58.7297 55.8848 58.7043 55.8848 58.6779C55.8848 58.6514 55.8951 58.6261 55.9134 58.6074C55.9317 58.5886 55.9565 58.5781 55.9824 58.5781H62.5327V53.13C62.5327 53.1036 62.543 53.0782 62.5613 53.0595C62.5796 53.0408 62.6044 53.0303 62.6303 53.0303C62.6562 53.0303 62.6811 53.0408 62.6994 53.0595C62.7177 53.0782 62.728 53.1036 62.728 53.13V58.6779C62.7281 58.6909 62.7256 58.7039 62.7208 58.716C62.7159 58.7281 62.7088 58.7391 62.6998 58.7484C62.6908 58.7576 62.68 58.765 62.6682 58.77C62.6564 58.775 62.6437 58.7776 62.6309 58.7776Z" fill="#002E5D"/>
<path d="M62.6312 39.9844C62.6183 39.9845 62.6056 39.982 62.5937 39.977C62.5818 39.972 62.571 39.9647 62.5619 39.9554C62.5529 39.9461 62.5457 39.9351 62.5408 39.923C62.5359 39.9108 62.5334 39.8978 62.5335 39.8847V27.9005H58.3562C58.3316 27.8985 58.3086 27.8872 58.2918 27.8686C58.275 27.8501 58.2656 27.8257 58.2656 27.8005C58.2656 27.7752 58.275 27.7509 58.2918 27.7323C58.3086 27.7138 58.3316 27.7024 58.3562 27.7004H62.6324C62.6452 27.7004 62.658 27.703 62.6699 27.7081C62.6818 27.7131 62.6926 27.7205 62.7016 27.7299C62.7107 27.7392 62.7179 27.7503 62.7228 27.7624C62.7276 27.7746 62.7301 27.7876 62.73 27.8008V39.8847C62.7301 39.8979 62.7276 39.911 62.7226 39.9232C62.7177 39.9355 62.7104 39.9465 62.7012 39.9558C62.692 39.9651 62.681 39.9725 62.669 39.9774C62.657 39.9823 62.6441 39.9847 62.6312 39.9844Z" fill="#002E5D"/>
<path d="M56.3923 81.2494C60.2798 77.2794 60.2798 70.8427 56.3923 66.8726C52.5048 62.9026 46.2019 62.9026 42.3144 66.8726C38.4268 70.8427 38.4268 77.2794 42.3144 81.2494C46.2019 85.2195 52.5048 85.2195 56.3923 81.2494Z" fill="#325D9C"/>
<path d="M48.0718 83.5793C42.5291 83.5793 38.0195 78.974 38.0195 73.3136C38.0195 67.6532 42.5291 63.0474 48.0718 63.0474C48.0977 63.0474 48.1225 63.0579 48.1409 63.0766C48.1592 63.0953 48.1695 63.1206 48.1695 63.1471C48.1695 63.1735 48.1592 63.1989 48.1409 63.2176C48.1225 63.2363 48.0977 63.2468 48.0718 63.2468C42.6369 63.2468 38.2148 67.7627 38.2148 73.3136C38.2148 78.8645 42.6357 83.3798 48.0718 83.3798C53.5079 83.3798 57.9293 78.8639 57.9293 73.3136C57.9293 73.2872 57.9396 73.2618 57.9579 73.2431C57.9763 73.2244 58.0011 73.2139 58.027 73.2139C58.0529 73.2139 58.0777 73.2244 58.0961 73.2431C58.1144 73.2618 58.1247 73.2872 58.1247 73.3136C58.1247 78.974 53.6151 83.5793 48.0718 83.5793Z" fill="#002E5D"/>
<path d="M48.302 78.8182L43.1797 73.5872L45.6009 71.1146L48.302 73.873L59.4434 62.4951L61.8646 64.9677L48.302 78.8182Z" fill="white"/>
<path d="M46.141 77.5504C46.1273 77.5504 46.1138 77.5475 46.1013 77.5419C46.0887 77.5362 46.0775 77.5279 46.0684 77.5175L43.1059 74.1498C43.0971 74.14 43.0904 74.1287 43.0859 74.1163C43.0815 74.1039 43.0796 74.0907 43.0802 74.0775C43.0808 74.0643 43.084 74.0514 43.0895 74.0395C43.095 74.0276 43.1028 74.0169 43.1124 74.0081L45.6599 71.6711C45.6695 71.6623 45.6806 71.6555 45.6928 71.6512C45.7049 71.6468 45.7177 71.645 45.7306 71.6457C45.7434 71.6465 45.756 71.6498 45.7676 71.6555C45.7791 71.6612 45.7895 71.6692 45.798 71.679L48.2853 74.5061L52.7514 70.4062C52.771 70.3905 52.7958 70.3829 52.8206 70.3851C52.8455 70.3873 52.8686 70.3991 52.8852 70.4181C52.9019 70.437 52.9109 70.4617 52.9103 70.4872C52.9098 70.5126 52.8999 70.5369 52.8824 70.5552L48.3401 74.7214C48.3306 74.7302 48.3195 74.737 48.3074 74.7414C48.2952 74.7458 48.2824 74.7477 48.2696 74.747C48.2567 74.7463 48.2442 74.7431 48.2326 74.7374C48.221 74.7318 48.2106 74.7239 48.202 74.7141L45.7153 71.8863L43.3131 74.0896L46.2101 77.3831C46.2187 77.3929 46.2254 77.4042 46.2297 77.4166C46.234 77.429 46.2359 77.4421 46.2352 77.4552C46.2345 77.4683 46.2314 77.4811 46.2258 77.493C46.2203 77.5048 46.2125 77.5154 46.203 77.5242C46.1859 77.54 46.164 77.5492 46.141 77.5504Z" fill="#002E5D"/>
<path d="M50.0257 77.8458C50.0058 77.8459 49.9864 77.8398 49.9701 77.8283C49.9537 77.8168 49.9411 77.8005 49.9341 77.7815C49.927 77.7625 49.9258 77.7418 49.9306 77.7221C49.9354 77.7024 49.9459 77.6847 49.9608 77.6713L62.1502 66.4886L59.9273 63.9619C59.9119 63.9418 59.9046 63.9166 59.9067 63.8912C59.9089 63.8658 59.9204 63.8423 59.939 63.8252C59.9575 63.8082 59.9817 63.7991 60.0066 63.7996C60.0316 63.8001 60.0554 63.8103 60.0732 63.8281L62.3616 66.4296C62.3703 66.4393 62.377 66.4507 62.3813 66.4631C62.3856 66.4755 62.3874 66.4887 62.3867 66.5018C62.386 66.5149 62.3827 66.5278 62.3771 66.5396C62.3714 66.5514 62.3636 66.562 62.3539 66.5707L50.0912 77.8209C50.0732 77.8372 50.0498 77.8461 50.0257 77.8458Z" fill="#002E5D"/>
<path d="M58.0598 24.4373H40.6469C40.5429 24.4373 40.44 24.4164 40.344 24.3758C40.248 24.3352 40.1608 24.2756 40.0873 24.2006C40.0138 24.1255 39.9555 24.0364 39.9157 23.9384C39.8759 23.8403 39.8555 23.7352 39.8555 23.6291C39.8556 23.4149 39.9391 23.2095 40.0875 23.058C40.2359 22.9066 40.4371 22.8215 40.6469 22.8215H58.0598C58.2696 22.8215 58.4707 22.9066 58.619 23.0581C58.7673 23.2095 58.8506 23.4149 58.8506 23.6291C58.8507 23.7352 58.8303 23.8403 58.7906 23.9383C58.7509 24.0364 58.6927 24.1255 58.6192 24.2006C58.5458 24.2756 58.4586 24.3351 58.3626 24.3758C58.2666 24.4164 58.1637 24.4373 58.0598 24.4373Z" fill="#454E54"/>
<path d="M86.7011 91.6733H14.2368C14.2233 91.6744 14.2097 91.6726 14.1969 91.668C14.1841 91.6635 14.1723 91.6563 14.1624 91.6469C14.1524 91.6375 14.1445 91.6261 14.1391 91.6134C14.1337 91.6008 14.1309 91.5871 14.1309 91.5732C14.1309 91.5594 14.1337 91.5457 14.1391 91.533C14.1445 91.5204 14.1524 91.509 14.1624 91.4996C14.1723 91.4902 14.1841 91.483 14.1969 91.4785C14.2097 91.4739 14.2233 91.4721 14.2368 91.4732H86.7011C86.7257 91.4752 86.7488 91.4866 86.7656 91.5051C86.7824 91.5237 86.7917 91.548 86.7917 91.5732C86.7917 91.5985 86.7824 91.6228 86.7656 91.6414C86.7488 91.6599 86.7257 91.6713 86.7011 91.6733Z" fill="#002E5D"/>
<path d="M81.5202 93.728H51.4766C51.4507 93.728 51.4258 93.7175 51.4075 93.6988C51.3892 93.6801 51.3789 93.6547 51.3789 93.6283C51.3789 93.6018 51.3892 93.5765 51.4075 93.5578C51.4258 93.5391 51.4507 93.5286 51.4766 93.5286H81.5202C81.5461 93.5286 81.571 93.5391 81.5893 93.5578C81.6076 93.5765 81.6179 93.6018 81.6179 93.6283C81.6179 93.6547 81.6076 93.6801 81.5893 93.6988C81.571 93.7175 81.5461 93.728 81.5202 93.728Z" fill="#002E5D"/>
<path d="M53.9238 96H24.4863C24.4604 96 24.4356 95.9895 24.4173 95.9708C24.399 95.9521 24.3887 95.9267 24.3887 95.9003C24.3887 95.8738 24.399 95.8485 24.4173 95.8297C24.4356 95.811 24.4604 95.8005 24.4863 95.8005H53.9238C53.9497 95.8005 53.9745 95.811 53.9928 95.8297C54.0112 95.8485 54.0215 95.8738 54.0215 95.9003C54.0215 95.9267 54.0112 95.9521 53.9928 95.9708C53.9745 95.9895 53.9497 96 53.9238 96Z" fill="#002E5D"/>
<path d="M34.9645 35.1572C38.5137 31.5327 38.5137 25.6562 34.9645 22.0318C31.4153 18.4073 25.661 18.4073 22.1119 22.0318C18.5627 25.6562 18.5627 31.5327 22.1119 35.1572C25.661 38.7817 31.4153 38.7817 34.9645 35.1572Z" fill="#F70431"/>
<path d="M28.5394 34.1099C27.7486 34.109 26.9905 33.7877 26.4313 33.2167C25.8721 32.6457 25.5576 31.8714 25.5566 31.0639V26.039C25.5566 25.2311 25.8709 24.4563 26.4303 23.8851C26.9896 23.3138 27.7483 22.9929 28.5394 22.9929C29.3305 22.9929 30.0891 23.3138 30.6485 23.8851C31.2079 24.4563 31.5221 25.2311 31.5221 26.039V31.0639C31.5212 31.8714 31.2066 32.6457 30.6475 33.2167C30.0883 33.7877 29.3302 34.109 28.5394 34.1099ZM28.5394 24.0152C28.0142 24.0163 27.5109 24.2299 27.1397 24.6092C26.7685 24.9886 26.5596 25.5027 26.5588 26.039V31.0639C26.5588 31.6008 26.7677 32.1157 27.1394 32.4953C27.5112 32.875 28.0154 33.0883 28.5412 33.0883C29.0669 33.0883 29.5711 32.875 29.9429 32.4953C30.3147 32.1157 30.5235 31.6008 30.5235 31.0639V26.039C30.5229 25.502 30.3136 24.9871 29.9416 24.6076C29.5696 24.228 29.0653 24.0147 28.5394 24.0146V24.0152Z" fill="#454E54"/>
<path d="M24.4911 28.1918C24.2411 28.8618 24.1542 29.5838 24.238 30.2957C24.3218 31.0076 24.5737 31.6881 24.9721 32.2785C25.3705 32.8689 25.9034 33.3517 26.525 33.6851C27.1466 34.0186 27.8382 34.1928 28.5403 34.1928C29.2425 34.1928 29.9341 34.0186 30.5556 33.6851C31.1772 33.3517 31.7101 32.8689 32.1085 32.2785C32.5069 31.6881 32.7588 31.0076 32.8426 30.2957C32.9264 29.5838 32.8396 28.8618 32.5896 28.1918C32.5462 28.0743 32.469 27.973 32.3681 27.9012C32.2672 27.8294 32.1474 27.7906 32.0245 27.7898H25.0574C24.9342 27.7903 24.8141 27.8289 24.7129 27.9007C24.6118 27.9725 24.5344 28.074 24.4911 28.1918Z" fill="#F9F9F9"/>
<path d="M29.3744 30.0465C29.3741 29.895 29.3342 29.7463 29.2589 29.6158C29.1836 29.4853 29.0755 29.3777 28.9459 29.3041C28.8162 29.2305 28.6697 29.1935 28.5214 29.197C28.3731 29.2005 28.2284 29.2444 28.1023 29.324C27.9761 29.4037 27.873 29.5163 27.8037 29.6502C27.7344 29.7841 27.7013 29.9345 27.7078 30.0859C27.7144 30.2372 27.7604 30.384 27.8411 30.5111C27.9217 30.6383 28.0342 30.7411 28.1667 30.809V31.706C28.1667 31.8068 28.206 31.9035 28.2757 31.9748C28.3455 32.0461 28.4402 32.0861 28.5389 32.0861C28.6376 32.0861 28.7323 32.0461 28.8021 31.9748C28.8719 31.9035 28.9111 31.8068 28.9111 31.706V30.809C29.0502 30.7386 29.1673 30.6299 29.2491 30.4952C29.331 30.3604 29.3743 30.205 29.3744 30.0465Z" fill="#F70431"/>
<path d="M29.1131 34.8749C29.0113 34.8749 28.9089 34.8713 28.8065 34.864C28.1154 34.8156 27.4451 34.6025 26.8493 34.2418C26.2534 33.881 25.7487 33.3827 25.3756 32.7867C25.0025 32.1907 24.7714 31.5137 24.7008 30.8101C24.6302 30.1064 24.7222 29.3956 24.9692 28.7347C25.0189 28.598 25.1082 28.48 25.2252 28.3964C25.3422 28.3129 25.4814 28.2678 25.6242 28.2671H32.5913C32.734 28.2675 32.8732 28.3124 32.9902 28.3957C33.1073 28.4791 33.1966 28.5969 33.2464 28.7335C33.5029 29.4186 33.5925 30.157 33.5075 30.8853C33.4226 31.6135 33.1656 32.3098 32.7587 32.9141C32.3518 33.5184 31.8071 34.0127 31.1717 34.3544C30.5362 34.6961 29.8289 34.8749 29.1108 34.8755L29.1131 34.8749ZM25.626 28.4666C25.5221 28.4666 25.4207 28.4993 25.3355 28.5601C25.2503 28.6209 25.1855 28.7069 25.1496 28.8065C24.905 29.4614 24.82 30.1671 24.9017 30.863C24.9835 31.5589 25.2296 32.2241 25.6189 32.8013C26.0083 33.3785 26.5291 33.8504 27.1367 34.1764C27.7442 34.5025 28.4203 34.6728 29.1066 34.6728C29.7929 34.6728 30.4689 34.5025 31.0765 34.1764C31.6841 33.8504 32.2049 33.3785 32.5943 32.8013C32.9836 32.2241 33.2297 31.5589 33.3115 30.863C33.3932 30.1671 33.3081 29.4614 33.0635 28.8065C33.0277 28.7076 32.9632 28.6223 32.8786 28.5619C32.794 28.5015 32.6934 28.4689 32.5901 28.4684L25.626 28.4666Z" fill="#002E5D"/>
<path d="M36.6152 28.1736C36.5892 28.1734 36.5644 28.1628 36.5461 28.144C36.5278 28.1252 36.5175 28.0997 36.5175 28.0732C36.5175 23.0106 32.4844 18.8906 27.5258 18.8906C22.5673 18.8906 18.5341 23.0088 18.5341 28.0732C18.5352 28.087 18.5334 28.1009 18.529 28.1139C18.5245 28.127 18.5175 28.139 18.5083 28.1492C18.4991 28.1593 18.4879 28.1674 18.4755 28.173C18.4631 28.1785 18.4497 28.1814 18.4361 28.1814C18.4226 28.1814 18.4092 28.1785 18.3968 28.173C18.3844 28.1674 18.3732 28.1593 18.364 28.1492C18.3548 28.139 18.3478 28.127 18.3433 28.1139C18.3389 28.1009 18.3371 28.087 18.3382 28.0732C18.3382 22.9006 22.4589 18.6924 27.524 18.6924C32.5892 18.6924 36.7105 22.9006 36.7105 28.0732C36.7105 28.0993 36.7005 28.1244 36.6828 28.1431C36.665 28.1618 36.6407 28.1728 36.6152 28.1736Z" fill="#002E5D"/>
<path d="M92.6673 31.4484C94.3338 29.7465 94.3338 26.9873 92.6673 25.2855C91.0009 23.5837 88.299 23.5837 86.6326 25.2855C84.9662 26.9873 84.9662 29.7465 86.6326 31.4484C88.299 33.1502 91.0009 33.1502 92.6673 31.4484Z" fill="#C9DAF4"/>
<path d="M11.2119 34.2018C11.4069 33.3581 10.8952 32.5128 10.0691 32.3137C9.24299 32.1146 8.41522 32.6371 8.22024 33.4807C8.02525 34.3244 8.53689 35.1697 9.36302 35.3688C10.1891 35.568 11.0169 35.0455 11.2119 34.2018Z" fill="#C9DAF4"/>
<path d="M86.6658 86.5027C86.8037 85.9062 86.4419 85.3085 85.8577 85.1677C85.2736 85.0269 84.6883 85.3963 84.5504 85.9929C84.4125 86.5894 84.7743 87.1871 85.3585 87.3279C85.9426 87.4687 86.5279 87.0993 86.6658 86.5027Z" fill="#C9DAF4"/>
</g>
<defs>
<clipPath id="clip0_2620_28402">
<rect width="96" height="96" fill="white"/>
</clipPath>
</defs>
</svg>
