<svg width="96" height="96" viewBox="0 0 96 96" fill="none" xmlns="http://www.w3.org/2000/svg">
<g clip-path="url(#clip0_2620_28601)">
<path d="M96.0004 42.0368L7.86328 25.2078L0.00149386 66.3817L88.1386 83.2107L96.0004 42.0368Z" fill="#F3F8FF"/>
<path d="M53.759 85.5761C71.1135 85.5761 85.1821 71.5075 85.1821 54.153C85.1821 36.7986 71.1135 22.73 53.759 22.73C36.4045 22.73 22.3359 36.7986 22.3359 54.153C22.3359 71.5075 36.4045 85.5761 53.759 85.5761Z" fill="#D6E7FF"/>
<path d="M85.2526 54.153H85.1091C85.1091 36.8663 71.0452 22.8017 53.7578 22.8017V22.6582C57.8948 22.6546 61.9918 23.4668 65.8146 25.0483C69.6373 26.6298 73.1107 28.9496 76.036 31.8748C78.9613 34.8001 81.281 38.2735 82.8625 42.0962C84.444 45.919 85.2562 50.016 85.2526 54.153Z" fill="#002E5D"/>
<path d="M53.7609 72.4216C63.8504 72.4216 72.0295 64.2425 72.0295 54.1529C72.0295 44.0634 63.8504 35.8843 53.7609 35.8843C43.6714 35.8843 35.4922 44.0634 35.4922 54.1529C35.4922 64.2425 43.6714 72.4216 53.7609 72.4216Z" fill="white"/>
<path d="M92.066 14.8527L73.7027 7.18986C73.2243 6.99108 72.6867 6.99007 72.2076 7.18705C71.7285 7.38403 71.3471 7.76293 71.147 8.24069L66.6079 19.1177C66.4094 19.5958 66.4085 20.1332 66.6055 20.612C66.8025 21.0908 67.1812 21.4719 67.6588 21.672L75.5145 24.95L63.5917 53.5247C63.5189 53.6987 63.4811 53.8854 63.4805 54.0741C63.4799 54.2628 63.5165 54.4497 63.5883 54.6242C63.66 54.7987 63.7655 54.9574 63.8987 55.091C64.0318 55.2247 64.19 55.3308 64.3643 55.4033L71.5121 58.3865C71.864 58.5331 72.2598 58.534 72.6124 58.3888C72.9649 58.2437 73.2454 57.9644 73.3921 57.6125C73.5388 57.2606 73.5396 56.8648 73.3945 56.5122C73.2493 56.1596 72.9701 55.8792 72.6181 55.7325L66.7959 53.3045L68.7146 48.7002L72.8032 50.4037C73.1551 50.5504 73.5509 50.5513 73.9035 50.4061C74.2561 50.261 74.5365 49.9817 74.6832 49.6298C74.8299 49.2778 74.8307 48.8821 74.6856 48.5295C74.5404 48.1769 74.2612 47.8964 73.9092 47.7498L69.8264 46.0462L78.1685 26.056L86.025 29.3341C86.5033 29.5332 87.0411 29.5344 87.5203 29.3374C87.9995 29.1404 88.3808 28.7612 88.5807 28.2832L93.1197 17.4062C93.3177 16.9278 93.3179 16.3904 93.1204 15.9118C92.9229 15.4331 92.5438 15.0523 92.066 14.8527ZM86.2804 26.3293L69.6127 19.3766L73.4444 10.1953L90.1121 17.153L86.2804 26.3293Z" fill="#C9DAF4"/>
<path d="M33.3792 81.0701H25.3033C25.0042 81.0701 24.7617 81.3125 24.7617 81.6116V83.4027C24.7617 83.7018 25.0042 83.9443 25.3033 83.9443H33.3792C33.6783 83.9443 33.9208 83.7018 33.9208 83.4027V81.6116C33.9208 81.3125 33.6783 81.0701 33.3792 81.0701Z" fill="#002E5D"/>
<path d="M60.2668 39.1953H23.3658C21.9923 39.1953 20.8789 40.3087 20.8789 41.6822V78.5832C20.8789 79.9566 21.9923 81.07 23.3658 81.07H60.2668C61.6402 81.07 62.7536 79.9566 62.7536 78.5832V41.6822C62.7536 40.3087 61.6402 39.1953 60.2668 39.1953Z" fill="#325D9C"/>
<path d="M59.0156 76.7526V43.5133C59.0156 43.1913 58.7545 42.9302 58.4325 42.9302H25.1932C24.8712 42.9302 24.6101 43.1913 24.6101 43.5133V76.7526C24.6101 77.0746 24.8712 77.3357 25.1932 77.3357H58.4325C58.7545 77.3357 59.0156 77.0746 59.0156 76.7526Z" fill="#002E5D"/>
<path d="M59.0887 65.7036H58.9452V43.5128C58.9452 43.3774 58.8914 43.2475 58.7956 43.1517C58.6999 43.0559 58.57 43.0021 58.4345 43.0021H44.0234V42.8586H58.4345C58.608 42.859 58.7743 42.9282 58.8969 43.0509C59.0195 43.1737 59.0885 43.34 59.0887 43.5135V65.7036Z" fill="white"/>
<path d="M59.2181 83.0168H48.793V84.3998H59.2181V83.0168Z" fill="#FFC15A"/>
<g style="mix-blend-mode:multiply" opacity="0.25">
<path d="M59.2167 83.0168H55.0938V84.3998H59.2167V83.0168Z" fill="#AF6215"/>
</g>
<path d="M59.2181 82.6997H48.793V83.016H59.2181V82.6997Z" fill="#FFD469"/>
<path d="M59.2181 84.3997H48.793V84.716H59.2181V84.3997Z" fill="#DD872A"/>
<path opacity="0.4" d="M53.5196 82.6997H51.0234V84.716H53.5196V82.6997Z" fill="white"/>
<path d="M59.2156 84.7877H48.7905C48.7715 84.7877 48.7532 84.7801 48.7398 84.7666C48.7263 84.7532 48.7188 84.735 48.7188 84.7159V84.0761C48.7188 84.0571 48.7263 84.0388 48.7398 84.0254C48.7532 84.0119 48.7715 84.0044 48.7905 84.0044C48.8095 84.0044 48.8277 84.0119 48.8412 84.0254C48.8546 84.0388 48.8622 84.0571 48.8622 84.0761V84.6449H59.1431V83.1494C59.1431 83.1303 59.1507 83.1121 59.1641 83.0987C59.1776 83.0852 59.1958 83.0776 59.2149 83.0776C59.2339 83.0776 59.2521 83.0852 59.2656 83.0987C59.279 83.1121 59.2866 83.1303 59.2866 83.1494V84.7167C59.2864 84.7354 59.2789 84.7534 59.2656 84.7667C59.2523 84.7799 59.2344 84.7875 59.2156 84.7877Z" fill="#002E5D"/>
<path d="M59.7415 80.9998H49.3164V82.3827H59.7415V80.9998Z" fill="#FFC15A"/>
<g style="mix-blend-mode:multiply" opacity="0.25">
<path d="M59.7402 80.9998H55.6172V82.3827H59.7402V80.9998Z" fill="#AF6215"/>
</g>
<path d="M59.7415 80.6833H49.3164V80.9997H59.7415V80.6833Z" fill="#FFD469"/>
<path d="M59.7415 82.3828H49.3164V82.6999H59.7415V82.3828Z" fill="#DD872A"/>
<path opacity="0.4" d="M54.043 80.6833H51.5469V82.6997H54.043V80.6833Z" fill="white"/>
<path d="M59.739 82.7716H49.3139C49.2949 82.7716 49.2766 82.764 49.2632 82.7506C49.2497 82.7371 49.2422 82.7189 49.2422 82.6999V82.0593C49.2422 82.0403 49.2497 82.022 49.2632 82.0086C49.2766 81.9951 49.2949 81.9876 49.3139 81.9876C49.3329 81.9876 49.3512 81.9951 49.3646 82.0086C49.3781 82.022 49.3856 82.0403 49.3856 82.0593V82.6281H59.6673V81.1354C59.6673 81.1164 59.6748 81.0982 59.6883 81.0847C59.7017 81.0713 59.72 81.0637 59.739 81.0637C59.758 81.0637 59.7763 81.0713 59.7897 81.0847C59.8032 81.0982 59.8107 81.1164 59.8107 81.1354V82.7027C59.81 82.7212 59.8021 82.7388 59.7887 82.7516C59.7754 82.7644 59.7576 82.7716 59.739 82.7716Z" fill="#002E5D"/>
<path d="M58.6282 78.9834H48.2031V80.3671H58.6282V78.9834Z" fill="#FFC15A"/>
<g style="mix-blend-mode:multiply" opacity="0.25">
<path d="M58.6269 78.9834H54.5039V80.3663H58.6269V78.9834Z" fill="#AF6215"/>
</g>
<path d="M58.6282 78.6672H48.2031V78.9836H58.6282V78.6672Z" fill="#FFD469"/>
<path d="M58.6282 80.3672H48.2031V80.6835H58.6282V80.3672Z" fill="#DD872A"/>
<path opacity="0.4" d="M52.9298 78.6672H50.4336V80.6835H52.9298V78.6672Z" fill="white"/>
<path d="M58.6296 80.7552H48.2045C48.1855 80.7552 48.1673 80.7476 48.1538 80.7342C48.1404 80.7207 48.1328 80.7025 48.1328 80.6834V80.0422C48.1328 80.0232 48.1404 80.0049 48.1538 79.9915C48.1673 79.978 48.1855 79.9705 48.2045 79.9705C48.2236 79.9705 48.2418 79.978 48.2553 79.9915C48.2687 80.0049 48.2763 80.0232 48.2763 80.0422V80.6117H58.5579V79.1162C58.5579 79.0971 58.5655 79.0789 58.5789 79.0654C58.5924 79.052 58.6106 79.0444 58.6296 79.0444C58.6487 79.0444 58.6669 79.052 58.6804 79.0654C58.6938 79.0789 58.7014 79.0971 58.7014 79.1162V80.6834C58.7014 80.7025 58.6938 80.7207 58.6804 80.7342C58.6669 80.7476 58.6487 80.7552 58.6296 80.7552Z" fill="#002E5D"/>
<path d="M59.8196 76.967H49.3945V78.35H59.8196V76.967Z" fill="#FFC15A"/>
<g style="mix-blend-mode:multiply" opacity="0.25">
<path d="M59.8183 76.967H55.6953V78.35H59.8183V76.967Z" fill="#AF6215"/>
</g>
<path d="M59.8196 76.6501H49.3945V76.9672H59.8196V76.6501Z" fill="#FFD469"/>
<path d="M59.8196 78.3501H49.3945V78.6664H59.8196V78.3501Z" fill="#DD872A"/>
<path opacity="0.4" d="M54.1212 76.6501H51.625V78.6665H54.1212V76.6501Z" fill="white"/>
<path d="M59.8189 78.7388H49.3959C49.3769 78.7388 49.3587 78.7312 49.3452 78.7178C49.3318 78.7043 49.3242 78.6861 49.3242 78.6671V78.0258C49.3242 78.0068 49.3318 77.9885 49.3452 77.9751C49.3587 77.9616 49.3769 77.9541 49.3959 77.9541C49.415 77.9541 49.4332 77.9616 49.4467 77.9751C49.4601 77.9885 49.4677 78.0068 49.4677 78.0258V78.5946H59.7472V77.0991C59.7472 77.08 59.7547 77.0618 59.7682 77.0484C59.7816 77.0349 59.7999 77.0273 59.8189 77.0273C59.8379 77.0273 59.8562 77.0349 59.8696 77.0484C59.8831 77.0618 59.8906 77.08 59.8906 77.0991V78.6671C59.8906 78.6861 59.8831 78.7043 59.8696 78.7178C59.8562 78.7312 59.8379 78.7388 59.8189 78.7388Z" fill="#002E5D"/>
<path d="M59.2564 74.9509H48.832V76.3339H59.2564V74.9509Z" fill="#FFC15A"/>
<g style="mix-blend-mode:multiply" opacity="0.25">
<path d="M59.2558 74.9509H55.1328V76.3339H59.2558V74.9509Z" fill="#AF6215"/>
</g>
<path d="M59.2564 74.6345H48.832V74.9508H59.2564V74.6345Z" fill="#FFD469"/>
<path d="M59.2564 76.3337H48.832V76.6501H59.2564V76.3337Z" fill="#DD872A"/>
<path opacity="0.4" d="M53.5587 74.6338H51.0625V76.6501H53.5587V74.6338Z" fill="white"/>
<path d="M59.2539 76.7217H48.8295C48.8105 76.7217 48.7923 76.7142 48.7788 76.7007C48.7654 76.6873 48.7578 76.669 48.7578 76.65V76.0095C48.7578 75.9904 48.7654 75.9722 48.7788 75.9587C48.7923 75.9453 48.8105 75.9377 48.8295 75.9377C48.8486 75.9377 48.8668 75.9453 48.8803 75.9587C48.8937 75.9722 48.9013 75.9904 48.9013 76.0095V76.5783H59.1822V75.0827C59.1822 75.0637 59.1898 75.0454 59.2032 75.032C59.2167 75.0185 59.2349 75.011 59.2539 75.011C59.2729 75.011 59.2912 75.0185 59.3046 75.032C59.3181 75.0454 59.3257 75.0637 59.3257 75.0827V76.65C59.3257 76.669 59.3181 76.6873 59.3046 76.7007C59.2912 76.7142 59.2729 76.7217 59.2539 76.7217Z" fill="#002E5D"/>
<path d="M60.6478 72.9338H50.2227V74.3168H60.6478V72.9338Z" fill="#FFC15A"/>
<g style="mix-blend-mode:multiply" opacity="0.25">
<path d="M60.6464 72.9338H56.5234V74.3168H60.6464V72.9338Z" fill="#AF6215"/>
</g>
<path d="M60.6478 72.6174H50.2227V72.9338H60.6478V72.6174Z" fill="#FFD469"/>
<path d="M60.6478 74.3167H50.2227V74.6337H60.6478V74.3167Z" fill="#DD872A"/>
<path opacity="0.4" d="M54.9493 72.6174H52.4531V74.6337H54.9493V72.6174Z" fill="white"/>
<path d="M60.6445 74.7063H50.2202C50.2011 74.7063 50.1829 74.6988 50.1694 74.6853C50.156 74.6719 50.1484 74.6536 50.1484 74.6346V73.9941C50.1484 73.975 50.156 73.9568 50.1694 73.9433C50.1829 73.9299 50.2011 73.9223 50.2202 73.9223C50.2392 73.9223 50.2574 73.9299 50.2709 73.9433C50.2843 73.9568 50.2919 73.975 50.2919 73.9941V74.5629H60.5728V73.0666C60.5728 73.0476 60.5804 73.0293 60.5938 73.0159C60.6073 73.0024 60.6255 72.9949 60.6445 72.9949C60.6636 72.9949 60.6818 73.0024 60.6953 73.0159C60.7087 73.0293 60.7163 73.0476 60.7163 73.0666V74.6339C60.7164 74.6434 60.7146 74.6528 60.711 74.6615C60.7075 74.6703 60.7022 74.6783 60.6955 74.6851C60.6889 74.6918 60.6809 74.6971 60.6722 74.7008C60.6634 74.7044 60.654 74.7063 60.6445 74.7063Z" fill="#002E5D"/>
<path d="M59.3353 70.9175H48.9102V72.3011H59.3353V70.9175Z" fill="#FFC15A"/>
<g style="mix-blend-mode:multiply" opacity="0.25">
<path d="M59.3339 70.9175H55.2109V72.3004H59.3339V70.9175Z" fill="#AF6215"/>
</g>
<path d="M59.3353 70.6013H48.9102V70.9176H59.3353V70.6013Z" fill="#FFD469"/>
<path d="M59.3353 72.3013H48.9102V72.6176H59.3353V72.3013Z" fill="#DD872A"/>
<path opacity="0.4" d="M53.6368 70.6013H51.1406V72.6176H53.6368V70.6013Z" fill="white"/>
<path d="M59.336 72.6892H48.9116C48.8925 72.6892 48.8743 72.6817 48.8609 72.6682C48.8474 72.6548 48.8398 72.6365 48.8398 72.6175V71.9763C48.8398 71.9572 48.8474 71.939 48.8609 71.9255C48.8743 71.9121 48.8925 71.9045 48.9116 71.9045C48.9306 71.9045 48.9488 71.9121 48.9623 71.9255C48.9757 71.939 48.9833 71.9572 48.9833 71.9763V72.5458H59.2642V71.0495C59.2642 71.0305 59.2718 71.0122 59.2852 70.9988C59.2987 70.9853 59.3169 70.9778 59.336 70.9778C59.355 70.9778 59.3732 70.9853 59.3867 70.9988C59.4001 71.0122 59.4077 71.0305 59.4077 71.0495V72.6175C59.4077 72.6365 59.4001 72.6548 59.3867 72.6682C59.3732 72.6817 59.355 72.6892 59.336 72.6892Z" fill="#002E5D"/>
<path d="M67.0689 84.249H56.6445V85.632H67.0689V84.249Z" fill="#FFC15A"/>
<g style="mix-blend-mode:multiply" opacity="0.25">
<path d="M67.0683 84.249H62.9453V85.632H67.0683V84.249Z" fill="#AF6215"/>
</g>
<path d="M67.0689 83.9329H56.6445V84.2499H67.0689V83.9329Z" fill="#FFD469"/>
<path d="M67.0689 85.6321H56.6445V85.9491H67.0689V85.6321Z" fill="#DD872A"/>
<path opacity="0.4" d="M61.3712 83.9329H58.875V85.9492H61.3712V83.9329Z" fill="white"/>
<path d="M67.0664 86.0208H56.642C56.623 86.0208 56.6048 86.0132 56.5913 85.9998C56.5779 85.9863 56.5703 85.9681 56.5703 85.9491V85.3078C56.5703 85.2888 56.5779 85.2705 56.5913 85.2571C56.6048 85.2436 56.623 85.2361 56.642 85.2361C56.6611 85.2361 56.6793 85.2436 56.6928 85.2571C56.7062 85.2705 56.7138 85.2888 56.7138 85.3078V85.8773H66.9947V84.3818C66.9947 84.3628 67.0023 84.3445 67.0157 84.3311C67.0292 84.3176 67.0474 84.3101 67.0664 84.3101C67.0854 84.3101 67.1037 84.3176 67.1171 84.3311C67.1306 84.3445 67.1382 84.3628 67.1382 84.3818V85.9491C67.1382 85.9681 67.1306 85.9863 67.1171 85.9998C67.1037 86.0132 67.0854 86.0208 67.0664 86.0208Z" fill="#002E5D"/>
<path d="M67.5923 82.2329H57.168V83.6158H67.5923V82.2329Z" fill="#FFC15A"/>
<g style="mix-blend-mode:multiply" opacity="0.25">
<path d="M67.5917 82.2329H63.4688V83.6158H67.5917V82.2329Z" fill="#AF6215"/>
</g>
<path d="M67.5923 81.9158H57.168V82.2328H67.5923V81.9158Z" fill="#FFD469"/>
<path d="M67.5923 83.6157H57.168V83.9328H67.5923V83.6157Z" fill="#DD872A"/>
<path opacity="0.4" d="M61.8946 81.9158H59.3984V83.9321H61.8946V81.9158Z" fill="white"/>
<path d="M67.5927 84.0044H57.1655C57.1465 84.0044 57.1282 83.9969 57.1148 83.9834C57.1013 83.97 57.0938 83.9517 57.0938 83.9327V83.2914C57.0938 83.2724 57.1013 83.2542 57.1148 83.2407C57.1282 83.2273 57.1465 83.2197 57.1655 83.2197C57.1845 83.2197 57.2027 83.2273 57.2162 83.2407C57.2296 83.2542 57.2372 83.2724 57.2372 83.2914V83.861H67.521V82.3647C67.521 82.3457 67.5286 82.3274 67.542 82.314C67.5555 82.3005 67.5737 82.293 67.5927 82.293C67.6118 82.293 67.63 82.3005 67.6434 82.314C67.6569 82.3274 67.6645 82.3457 67.6645 82.3647V83.9327C67.6645 83.9517 67.6569 83.97 67.6434 83.9834C67.63 83.9969 67.6118 84.0044 67.5927 84.0044Z" fill="#002E5D"/>
<path d="M66.4791 80.2166H56.0547V81.5995H66.4791V80.2166Z" fill="#FFC15A"/>
<g style="mix-blend-mode:multiply" opacity="0.25">
<path d="M66.4785 80.2166H62.3555V81.5995H66.4785V80.2166Z" fill="#AF6215"/>
</g>
<path d="M66.4791 79.8994H56.0547V80.2165H66.4791V79.8994Z" fill="#FFD469"/>
<path d="M66.4791 81.5994H56.0547V81.9164H66.4791V81.5994Z" fill="#DD872A"/>
<path opacity="0.4" d="M60.7813 79.8994H58.2852V81.9157H60.7813V79.8994Z" fill="white"/>
<path d="M66.4812 81.9883H56.0561C56.0371 81.9883 56.0188 81.9807 56.0054 81.9673C55.9919 81.9538 55.9844 81.9356 55.9844 81.9165V81.2789C55.9844 81.2598 55.9919 81.2416 56.0054 81.2281C56.0188 81.2147 56.0371 81.2071 56.0561 81.2071C56.0751 81.2071 56.0934 81.2147 56.1068 81.2281C56.1203 81.2416 56.1278 81.2598 56.1278 81.2789V81.8477H66.4095V80.3464C66.4095 80.3274 66.417 80.3091 66.4305 80.2957C66.4439 80.2822 66.4622 80.2747 66.4812 80.2747C66.5002 80.2747 66.5185 80.2822 66.5319 80.2957C66.5454 80.3091 66.5529 80.3274 66.5529 80.3464V81.9144C66.5532 81.924 66.5516 81.9335 66.5481 81.9425C66.5446 81.9515 66.5394 81.9596 66.5327 81.9665C66.526 81.9734 66.518 81.9789 66.5092 81.9826C66.5003 81.9863 66.4908 81.9883 66.4812 81.9883Z" fill="#002E5D"/>
<path d="M67.6705 78.2002H57.2461V79.5831H67.6705V78.2002Z" fill="#FFC15A"/>
<g style="mix-blend-mode:multiply" opacity="0.25">
<path d="M67.6699 78.2002H63.5469V79.5831H67.6699V78.2002Z" fill="#AF6215"/>
</g>
<path d="M67.6705 77.8831H57.2461V78.2001H67.6705V77.8831Z" fill="#FFD469"/>
<path d="M67.6705 79.583H57.2461V79.9001H67.6705V79.583Z" fill="#DD872A"/>
<path opacity="0.4" d="M61.9727 77.8831H59.4766V79.8994H61.9727V77.8831Z" fill="white"/>
<path d="M67.6719 79.9712H57.2475C57.2285 79.9712 57.2102 79.9637 57.1968 79.9502C57.1833 79.9368 57.1758 79.9185 57.1758 79.8995V79.259C57.1758 79.2399 57.1833 79.2217 57.1968 79.2082C57.2102 79.1948 57.2285 79.1872 57.2475 79.1872C57.2665 79.1872 57.2848 79.1948 57.2982 79.2082C57.3117 79.2217 57.3192 79.2399 57.3192 79.259V79.8278H67.6002V78.3322C67.6002 78.3132 67.6077 78.295 67.6212 78.2815C67.6346 78.2681 67.6529 78.2605 67.6719 78.2605C67.6909 78.2605 67.7092 78.2681 67.7226 78.2815C67.7361 78.295 67.7436 78.3132 67.7436 78.3322V79.8995C67.7436 79.9185 67.7361 79.9368 67.7226 79.9502C67.7092 79.9637 67.6909 79.9712 67.6719 79.9712Z" fill="#002E5D"/>
<g style="mix-blend-mode:multiply" opacity="0.4">
<path d="M53.09 84.7162H48.7906V82.6999H49.3142V80.6835H48.2031V78.6672H49.3945V76.6502H48.8293V74.6346H50.2201V72.6176H48.9097V70.6013H51.9718L51.9969 70.9176L52.1059 72.3013L52.1568 72.9339L52.2659 74.3169L52.291 74.6346L52.3161 74.951L52.4258 76.3339L52.4509 76.6502L52.476 76.9673L52.585 78.3502L52.6102 78.6672L52.636 78.9836L52.7457 80.3672L52.7701 80.6835L52.7959 80.9999L52.905 82.3828L52.9301 82.6999L52.9552 83.0169L53.0649 84.3998L53.09 84.7162Z" fill="#AF6215"/>
</g>
<path d="M51.0547 37.8964V82.3684C51.0547 82.7637 50.8632 83.0398 50.6172 83.0269H46.6133V37.2372H50.6172C50.8632 37.2243 51.0547 37.5012 51.0547 37.8964Z" fill="#325D9C"/>
<path d="M47.0053 37.8964V82.3684C47.0053 82.7987 46.778 83.0856 46.5032 83.0139L24.8963 77.4097C24.7385 77.3688 24.6094 77.0748 24.6094 76.7527V43.5127C24.6094 43.1914 24.7363 42.8966 24.8963 42.8564L46.5004 37.2472C46.778 37.1755 47.0053 37.466 47.0053 37.8964Z" fill="#C9DAF4"/>
<g style="mix-blend-mode:multiply" opacity="0.25">
<path d="M51.0544 55.9663V82.3698C51.0544 82.765 50.8629 83.0412 50.6169 83.0282H46.613C46.5752 83.0318 46.537 83.0287 46.5004 83.0189L24.8963 77.4097C24.7385 77.3688 24.6094 77.0747 24.6094 76.7527V70.5036L46.613 56.2209L47.0053 55.9663H51.0544Z" fill="#325D9C"/>
</g>
<path d="M34.7653 65.7035C36.4608 65.7035 37.8353 63.2095 37.8353 60.133C37.8353 57.0565 36.4608 54.5625 34.7653 54.5625C33.0698 54.5625 31.6953 57.0565 31.6953 60.133C31.6953 63.2095 33.0698 65.7035 34.7653 65.7035Z" fill="#002E5D"/>
<path d="M34.7026 56.8687H32.6992V63.396H34.7026C35.6961 63.396 36.5009 61.9349 36.5009 60.1323C36.5009 58.3298 35.6961 56.8687 34.7026 56.8687Z" fill="#C9DAF4"/>
<path d="M32.6974 63.3967C33.6909 63.3967 34.4964 61.9355 34.4964 60.1331C34.4964 58.3306 33.6909 56.8694 32.6974 56.8694C31.7039 56.8694 30.8984 58.3306 30.8984 60.1331C30.8984 61.9355 31.7039 63.3967 32.6974 63.3967Z" fill="#325D9C"/>
<path d="M24.6825 62.0124H24.5391V43.5128C24.5391 43.1491 24.6825 42.8363 24.8776 42.7869L46.481 37.1784C46.5396 37.1621 46.6012 37.1602 46.6608 37.1727C46.7203 37.1851 46.776 37.2117 46.8231 37.2501C46.9816 37.372 47.0763 37.6145 47.0763 37.8957V51.4668H46.9329V37.8964C46.9329 37.6575 46.8611 37.4581 46.7356 37.3627C46.7059 37.3387 46.6709 37.322 46.6335 37.314C46.5961 37.306 46.5574 37.307 46.5204 37.3168L24.9135 42.9253C24.8045 42.954 24.6825 43.2022 24.6825 43.5128V62.0124Z" fill="#002E5D"/>
<path d="M25.6693 48.7804C25.6693 48.1965 25.1959 47.7231 24.612 47.7231C24.0281 47.7231 23.5547 48.1965 23.5547 48.7804V54.1551C23.5547 54.739 24.0281 55.2124 24.612 55.2124C25.1959 55.2124 25.6693 54.739 25.6693 54.1551V48.7804Z" fill="#002E5D"/>
<path d="M25.6693 66.1103C25.6693 65.5263 25.1959 65.053 24.612 65.053C24.0281 65.053 23.5547 65.5263 23.5547 66.1103V71.4849C23.5547 72.0688 24.0281 72.5422 24.612 72.5422C25.1959 72.5422 25.6693 72.0688 25.6693 71.4849V66.1103Z" fill="#002E5D"/>
<path d="M20.9481 50.2095H20.8047V77.8833H20.9481V50.2095Z" fill="#002E5D"/>
<path d="M50.838 29.5629C50.9948 28.8986 50.5834 28.233 49.9191 28.0762C49.2548 27.9194 48.5891 28.3308 48.4323 28.9952C48.2755 29.6595 48.687 30.3251 49.3513 30.4819C50.0156 30.6387 50.6812 30.2273 50.838 29.5629Z" fill="#C9DAF4"/>
<path d="M91.6893 75.6701C92.6935 74.6659 92.6935 73.0377 91.6893 72.0335C90.6851 71.0293 89.0569 71.0293 88.0527 72.0335C87.0485 73.0377 87.0485 74.6659 88.0527 75.6701C89.0569 76.6744 90.6851 76.6744 91.6893 75.6701Z" fill="#C9DAF4"/>
<path d="M79.1161 87.0968H62.1342C62.1152 87.0968 62.097 87.0893 62.0835 87.0758C62.0701 87.0624 62.0625 87.0441 62.0625 87.0251C62.0625 87.0061 62.0701 86.9878 62.0835 86.9744C62.097 86.9609 62.1152 86.9534 62.1342 86.9534H79.1161C79.1351 86.9534 79.1533 86.9609 79.1668 86.9744C79.1803 86.9878 79.1878 87.0061 79.1878 87.0251C79.1878 87.0441 79.1803 87.0624 79.1668 87.0758C79.1533 87.0893 79.1351 87.0968 79.1161 87.0968Z" fill="#002E5D"/>
<path d="M68.8796 88.456H33.0717C33.0527 88.456 33.0345 88.4484 33.021 88.4349C33.0076 88.4215 33 88.4033 33 88.3842C33 88.3652 33.0076 88.347 33.021 88.3335C33.0345 88.3201 33.0527 88.3125 33.0717 88.3125H68.8796C68.8986 88.3125 68.9169 88.3201 68.9303 88.3335C68.9438 88.347 68.9513 88.3652 68.9513 88.3842C68.9513 88.4033 68.9438 88.4215 68.9303 88.4349C68.9169 88.4484 68.8986 88.456 68.8796 88.456Z" fill="#002E5D"/>
</g>
<defs>
<clipPath id="clip0_2620_28601">
<rect width="96" height="96" fill="white"/>
</clipPath>
</defs>
</svg>
