<svg width="96" height="96" viewBox="0 0 96 96" fill="none" xmlns="http://www.w3.org/2000/svg">
<g clip-path="url(#clip0_2620_28695)">
<path d="M95.9168 69.6936L87.0349 71.1008L79.3368 72.3194L5.70022 83.9824L0 59.2564L86.7389 32.6562L95.9168 69.6936Z" fill="#F3F8FF"/>
<path d="M32.615 25.9744L34.1067 23.5745L31.287 20.0385L28.6147 20.9552L25.4964 19.2344L24.8541 16.4841L20.3594 15.9773L19.1191 18.5141L15.6951 19.5002L13.2945 18.0092L9.75848 20.8289L10.6752 23.5005L8.95632 26.6208L6.20607 27.2638C5.95135 29.5079 5.95069 29.5151 5.69531 31.7585L8.23471 32.9967L9.22152 36.4208L7.72984 38.8207L10.5502 42.3567L13.2218 41.44L16.3401 43.1628L16.9831 45.9131L21.4771 46.4193L22.7207 43.8799L26.1447 42.8937L28.5446 44.3847L32.0807 41.5651L31.1606 38.8934L32.8841 35.7745L35.6344 35.1321L36.1445 30.6374L33.6051 29.3985L32.615 25.9744ZM22.5373 36.813C21.4267 37.133 20.2461 37.1164 19.145 36.7654C18.0438 36.4144 17.0714 35.7448 16.3508 34.8411C15.6302 33.9375 15.1938 32.8404 15.0967 31.6887C14.9995 30.5371 15.2461 29.3824 15.8053 28.3709C16.3644 27.3594 17.2109 26.5363 18.2378 26.0059C19.2647 25.4755 20.4258 25.2615 21.5743 25.391C22.7228 25.5204 23.8071 25.9876 24.6901 26.7333C25.5731 27.4791 26.2151 28.4699 26.535 29.5805C26.9639 31.0698 26.7837 32.6683 26.034 34.0247C25.2843 35.381 24.0265 36.384 22.5373 36.813Z" fill="#F3F8FF"/>
<path d="M20.126 44.7286H20.1168L15.6228 44.2217C15.6055 44.2197 15.5893 44.2123 15.5765 44.2006C15.5636 44.1888 15.5549 44.1733 15.5514 44.1563L14.9169 41.4407L11.8628 39.7526L9.22582 40.6602C9.20971 40.6658 9.19224 40.6663 9.17582 40.6616C9.1594 40.657 9.14484 40.6473 9.13415 40.634L6.31384 37.0979C6.3033 37.0844 6.29716 37.068 6.29622 37.051C6.29529 37.0339 6.2996 37.0169 6.3086 37.0023L7.78063 34.6338L6.81477 31.2831L4.30812 30.0586C4.29273 30.0511 4.28005 30.039 4.27184 30.024C4.26362 30.009 4.26029 29.9918 4.26228 29.9748L4.76846 25.4801C4.77064 25.4629 4.77812 25.4468 4.78985 25.434C4.80157 25.4212 4.81698 25.4124 4.83394 25.4087L7.55014 24.7742L9.23565 21.7227L8.32806 19.0838C8.32258 19.0676 8.32221 19.0501 8.32701 19.0337C8.33182 19.0173 8.34156 19.0028 8.35491 18.9921L11.8909 16.1718C11.9043 16.1614 11.9206 16.1552 11.9376 16.1543C11.9546 16.1534 11.9714 16.1577 11.9859 16.1666L14.355 17.6386L17.7084 16.6728L18.9309 14.1661C18.9384 14.1507 18.9505 14.1379 18.9655 14.1296C18.9805 14.1213 18.9977 14.1178 19.0147 14.1196L23.5094 14.6265C23.5267 14.6285 23.5428 14.636 23.5556 14.6477C23.5684 14.6595 23.5772 14.6749 23.5808 14.6919L24.2232 17.4422C24.2257 17.4528 24.2261 17.4637 24.2244 17.4745C24.2227 17.4852 24.2188 17.4955 24.2131 17.5048C24.2074 17.514 24.1999 17.522 24.1911 17.5284C24.1822 17.5347 24.1722 17.5393 24.1616 17.5417C24.151 17.5443 24.14 17.5448 24.1293 17.5431C24.1185 17.5414 24.1082 17.5376 24.0989 17.5319C24.0896 17.5261 24.0816 17.5186 24.0753 17.5097C24.069 17.5009 24.0645 17.4908 24.0621 17.4802L23.4328 14.7816L19.0534 14.2912L17.8393 16.7795C17.8343 16.7899 17.8272 16.7991 17.8184 16.8066C17.8096 16.814 17.7993 16.8195 17.7883 16.8227L14.3642 17.8089C14.3532 17.8119 14.3418 17.8127 14.3305 17.8111C14.3192 17.8095 14.3084 17.8056 14.2987 17.7997L11.9486 16.3395L8.50356 19.0864L9.40459 21.7057C9.40803 21.7165 9.40929 21.7278 9.40828 21.7391C9.40726 21.7503 9.40401 21.7612 9.3987 21.7712L7.67521 24.8895C7.66972 24.8997 7.66207 24.9086 7.65281 24.9156C7.64354 24.9226 7.63286 24.9276 7.62151 24.9301L4.92693 25.56L4.43319 29.9381L6.92151 31.1509C6.93186 31.1561 6.94103 31.1634 6.94846 31.1723C6.95589 31.1812 6.96143 31.1915 6.96473 31.2026L7.94958 34.6227C7.95273 34.6337 7.95354 34.6451 7.95196 34.6564C7.95038 34.6677 7.94645 34.6785 7.94041 34.6882L6.48082 37.041L9.23106 40.486L11.8503 39.5856C11.861 39.5819 11.8724 39.5805 11.8836 39.5814C11.8949 39.5823 11.9059 39.5855 11.9158 39.5908L15.0341 41.3143C15.0442 41.32 15.053 41.3277 15.06 41.3369C15.067 41.3462 15.072 41.3568 15.0747 41.368L15.7046 44.0633L20.0821 44.5563L21.2955 42.068C21.3007 42.0577 21.308 42.0485 21.3169 42.0411C21.3258 42.0336 21.3361 42.0281 21.3472 42.0248L24.766 41.04C24.777 41.0369 24.7885 41.0362 24.7997 41.0378C24.811 41.0393 24.8218 41.0432 24.8315 41.0491L27.1817 42.5094L30.6267 39.7591L29.7256 37.1398C29.7222 37.1291 29.721 37.1178 29.722 37.1065C29.723 37.0953 29.7263 37.0843 29.7315 37.0744L31.4557 33.9561C31.4609 33.9466 31.468 33.9382 31.4765 33.9315C31.485 33.9247 31.4947 33.9197 31.5051 33.9166C31.5155 33.9136 31.5265 33.9127 31.5372 33.9139C31.548 33.9151 31.5585 33.9184 31.568 33.9237C31.5775 33.9289 31.5859 33.936 31.5926 33.9445C31.5994 33.953 31.6044 33.9627 31.6074 33.9731C31.6105 33.9836 31.6114 33.9945 31.6102 34.0053C31.609 34.0161 31.6056 34.0265 31.6004 34.036L29.8946 37.1222L30.8028 39.7591C30.8083 39.7754 30.8086 39.793 30.8038 39.8095C30.799 39.826 30.7893 39.8406 30.776 39.8515L27.2386 42.677C27.2253 42.6877 27.209 42.6939 27.192 42.6948C27.175 42.6958 27.1581 42.6914 27.1437 42.6822L24.7765 41.2096L21.4232 42.1754L20.2006 44.6821C20.1936 44.6959 20.183 44.7076 20.1698 44.7158C20.1567 44.724 20.1415 44.7284 20.126 44.7286ZM19.5681 35.3515C18.1395 35.3519 16.7588 34.8363 15.6802 33.8996C14.6015 32.963 13.8974 31.6682 13.6975 30.2537C13.4975 28.8392 13.8152 27.4 14.5919 26.2011C15.3687 25.0021 16.5524 24.1241 17.9251 23.7285C17.946 23.7233 17.9681 23.7264 17.9868 23.7371C18.0055 23.7479 18.0192 23.7655 18.0252 23.7862C18.0311 23.8069 18.0288 23.8292 18.0187 23.8482C18.0085 23.8672 17.9914 23.8816 17.971 23.8882C17.1536 24.1231 16.3984 24.5359 15.7595 25.0971C15.1206 25.6583 14.6138 26.354 14.2755 27.1342C13.9372 27.9144 13.7758 28.7598 13.8028 29.6098C13.8299 30.4598 14.0447 31.2932 14.4319 32.0503C14.8191 32.8075 15.3691 33.4695 16.0424 33.989C16.7157 34.5084 17.4956 34.8724 18.3262 35.0548C19.1568 35.2373 20.0175 35.2336 20.8465 35.0441C21.6755 34.8546 22.4523 34.4839 23.1211 33.9587C23.1297 33.952 23.1396 33.947 23.1501 33.944C23.1606 33.9411 23.1716 33.9403 23.1825 33.9416C23.1933 33.9429 23.2038 33.9463 23.2133 33.9517C23.2229 33.957 23.2313 33.9642 23.238 33.9728C23.2448 33.9814 23.2497 33.9912 23.2527 34.0018C23.2556 34.0123 23.2565 34.0233 23.2552 34.0342C23.2539 34.045 23.2504 34.0555 23.2451 34.065C23.2397 34.0746 23.2325 34.0829 23.2239 34.0897C22.18 34.906 20.8933 35.3503 19.5681 35.3522V35.3515Z" fill="#002E5D"/>
<path d="M66.797 6.48315H62.9336V86.3536H66.797C67.102 86.3537 67.404 86.2937 67.6857 86.177C67.9675 86.0604 68.2235 85.8893 68.4391 85.6737C68.6548 85.4581 68.8258 85.2021 68.9424 84.9203C69.0591 84.6385 69.1191 84.3366 69.119 84.0316V8.80515C69.1191 8.5002 69.0591 8.19821 68.9424 7.91646C68.8258 7.6347 68.6548 7.37869 68.4391 7.16306C68.2235 6.94742 67.9675 6.77639 67.6857 6.65973C67.404 6.54307 67.102 6.48307 66.797 6.48315Z" fill="#454E54"/>
<path d="M64.4342 6.48315H28.8689C27.5865 6.48315 26.5469 7.52275 26.5469 8.80515V84.0349C26.5469 85.3173 27.5865 86.3569 28.8689 86.3569H64.4342C65.7166 86.3569 66.7561 85.3173 66.7561 84.0349V8.80515C66.7561 7.52275 65.7166 6.48315 64.4342 6.48315Z" fill="#C9DAF4"/>
<path d="M63.5117 82.05L63.5117 10.7898C63.5117 10.2029 63.0359 9.72705 62.4489 9.72705L30.8532 9.72705C30.2662 9.72705 29.7904 10.2029 29.7904 10.7898L29.7904 82.05C29.7904 82.637 30.2662 83.1128 30.8532 83.1128H62.4489C63.0359 83.1128 63.5117 82.637 63.5117 82.05Z" fill="white"/>
<path d="M62.5951 86.4393H39.7347C39.7232 86.4403 39.7116 86.4389 39.7006 86.4352C39.6897 86.4315 39.6797 86.4256 39.6712 86.4178C39.6626 86.41 39.6558 86.4005 39.6512 86.39C39.6465 86.3794 39.6441 86.368 39.6441 86.3565C39.6441 86.3449 39.6465 86.3335 39.6512 86.3229C39.6558 86.3124 39.6626 86.3029 39.6712 86.2951C39.6797 86.2873 39.6897 86.2814 39.7006 86.2777C39.7116 86.274 39.7232 86.2726 39.7347 86.2736H62.5951C63.1888 86.2729 63.7581 86.0368 64.1779 85.6169C64.5977 85.1971 64.8339 84.6279 64.8346 84.0341V8.80506C64.8339 8.21132 64.5977 7.6421 64.1779 7.22227C63.7581 6.80243 63.1888 6.56627 62.5951 6.56557H27.0305C26.4367 6.56627 25.8675 6.80243 25.4477 7.22227C25.0279 7.6421 24.7917 8.21132 24.791 8.80506V65.8321C24.792 65.8436 24.7906 65.8552 24.7869 65.8661C24.7832 65.877 24.7773 65.8871 24.7695 65.8956C24.7617 65.9041 24.7522 65.9109 24.7417 65.9156C24.7311 65.9202 24.7197 65.9226 24.7082 65.9226C24.6966 65.9226 24.6852 65.9202 24.6746 65.9156C24.6641 65.9109 24.6546 65.9041 24.6468 65.8956C24.639 65.8871 24.6331 65.877 24.6294 65.8661C24.6257 65.8552 24.6243 65.8436 24.6253 65.8321V8.80506C24.6262 8.16744 24.8799 7.55618 25.3307 7.10531C25.7816 6.65445 26.3929 6.40077 27.0305 6.3999L62.5951 6.3999C63.2327 6.40077 63.844 6.65445 64.2949 7.10531C64.7457 7.55618 64.9994 8.16744 65.0003 8.80506V84.0341C64.9994 84.6717 64.7457 85.283 64.2949 85.7339C63.844 86.1847 63.2327 86.4384 62.5951 86.4393Z" fill="#002E5D"/>
<path d="M31.2479 86.4393H27.0302C26.3925 86.4384 25.7813 86.1848 25.3304 85.7339C24.8795 85.283 24.6259 84.6718 24.625 84.0341V73.1163C24.6268 73.0956 24.6364 73.0764 24.6517 73.0623C24.667 73.0483 24.6871 73.0405 24.7078 73.0405C24.7286 73.0405 24.7486 73.0483 24.764 73.0623C24.7793 73.0764 24.7888 73.0956 24.7907 73.1163V84.0341C24.7914 84.6279 25.0275 85.1971 25.4474 85.6169C25.8672 86.0368 26.4364 86.2729 27.0302 86.2736H31.2479C31.2594 86.2726 31.2709 86.274 31.2819 86.2777C31.2928 86.2814 31.3029 86.2873 31.3114 86.2951C31.3199 86.3029 31.3267 86.3124 31.3313 86.3229C31.336 86.3335 31.3384 86.3449 31.3384 86.3565C31.3384 86.368 31.336 86.3794 31.3313 86.39C31.3267 86.4005 31.3199 86.41 31.3114 86.4178C31.3029 86.4256 31.2928 86.4315 31.2819 86.4352C31.2709 86.4389 31.2594 86.4403 31.2479 86.4393Z" fill="#002E5D"/>
<path d="M12.4656 89.7979H9.73438L15.5616 69.6936H18.2935L12.4656 89.7979Z" fill="#454E54"/>
<path d="M27.157 89.7979H24.4258L30.253 69.6936H32.9849L27.157 89.7979Z" fill="#454E54"/>
<path d="M23.6543 89.798H20.4313L15.9766 70.0217H19.1996L23.6543 89.798Z" fill="white"/>
<path d="M38.0534 89.798H34.8297L30.375 70.0217H33.598L38.0534 89.798Z" fill="white"/>
<path d="M32.8789 80.2375H35.8996L36.4038 82.4777L32.8789 80.2375Z" fill="#C9DAF4"/>
<path d="M18.4805 80.2375H21.5005L22.0054 82.4777L18.4805 80.2375Z" fill="#C9DAF4"/>
<path d="M16.3867 71.387H19.4074L19.9123 73.6271L16.3867 71.387Z" fill="#C9DAF4"/>
<path d="M30.8828 71.387H33.9035L34.4084 73.6271L30.8828 71.387Z" fill="#C9DAF4"/>
<path d="M23.6554 89.881H20.4297C20.4077 89.881 20.3865 89.8722 20.3709 89.8566C20.3553 89.841 20.3466 89.8199 20.3466 89.7978C20.3466 89.7758 20.3553 89.7546 20.3709 89.739C20.3865 89.7234 20.4077 89.7147 20.4297 89.7147H23.5493L19.1345 70.1041H16.0811L19.0638 83.3465C19.0663 83.3571 19.0667 83.3682 19.0649 83.3789C19.0631 83.3897 19.0592 83.4 19.0534 83.4093C19.0477 83.4185 19.0401 83.4266 19.0312 83.4329C19.0223 83.4392 19.0122 83.4437 19.0016 83.4461C18.9907 83.4484 18.9795 83.4485 18.9686 83.4464C18.9578 83.4444 18.9474 83.4402 18.9381 83.4341C18.9289 83.428 18.9209 83.4201 18.9147 83.4109C18.9085 83.4018 18.9042 83.3914 18.902 83.3806L15.8964 70.0366C15.8938 70.0245 15.8939 70.0119 15.8967 69.9998C15.8996 69.9877 15.905 69.9763 15.9128 69.9666C15.9206 69.9568 15.9306 69.949 15.942 69.9436C15.9533 69.9383 15.9657 69.9356 15.9782 69.9358H19.2013C19.2202 69.9359 19.2386 69.9425 19.2533 69.9544C19.268 69.9663 19.2783 69.9828 19.2825 70.0013L23.7353 89.7769C23.7379 89.789 23.7378 89.8016 23.735 89.8137C23.7321 89.8259 23.7266 89.8372 23.7189 89.8469C23.7115 89.857 23.702 89.8653 23.691 89.8712C23.68 89.8771 23.6678 89.8804 23.6554 89.881Z" fill="#002E5D"/>
<path d="M38.0518 89.8811H34.8282C34.8093 89.8811 34.791 89.8746 34.7763 89.8626C34.7616 89.8507 34.7515 89.8341 34.7476 89.8156L30.2948 70.0401C30.2922 70.0279 30.2924 70.0153 30.2952 70.0032C30.298 69.9911 30.3035 69.9797 30.3112 69.97C30.3191 69.9602 30.329 69.9524 30.3404 69.947C30.3517 69.9417 30.3641 69.939 30.3767 69.9392H33.5997C33.6187 69.9392 33.6371 69.9457 33.6519 69.9576C33.6666 69.9696 33.6769 69.9862 33.6809 70.0047L38.1337 89.7803C38.1363 89.7924 38.1362 89.8049 38.1334 89.817C38.1306 89.8291 38.1251 89.8404 38.1174 89.8501C38.1097 89.8598 38.1 89.8677 38.0888 89.8731C38.0777 89.8786 38.0655 89.8816 38.0531 89.8818L38.0518 89.8811ZM34.8949 89.7148H37.9477L33.5303 70.1042H30.4769L34.8949 89.7148Z" fill="#002E5D"/>
<path d="M39.5803 68.0002L40.3438 71.387H9.8449L9.08203 68.0002H39.5803Z" fill="white"/>
<path d="M41.5764 76.8501L42.3393 80.2375H11.841L11.0781 76.8501H41.5764Z" fill="white"/>
<path d="M13.5178 68.6558L12.8086 71.387H16.9791L17.6883 68.6558H13.5178Z" fill="#325D9C"/>
<path d="M22.37 68.6558L21.6602 71.387H25.8314L26.5399 68.6558H22.37Z" fill="#325D9C"/>
<path d="M31.2209 68.6558L30.5117 71.387H34.6823L35.3914 68.6558H31.2209Z" fill="#325D9C"/>
<path d="M15.7947 77.3418L15.043 80.2374H19.2135L19.9653 77.3418H15.7947Z" fill="#325D9C"/>
<path d="M24.643 77.3418L23.8906 80.2374H28.0618L28.8136 77.3418H24.643Z" fill="#325D9C"/>
<path d="M33.4946 77.3418L32.7422 80.2374H36.9127L37.6651 77.3418H33.4946Z" fill="#325D9C"/>
<path d="M40.3461 71.47H9.84783C9.82882 71.4702 9.81036 71.4637 9.79557 71.4518C9.78077 71.4398 9.77055 71.4232 9.76663 71.4046L9.55447 70.4623C9.5511 70.4513 9.55002 70.4398 9.55131 70.4284C9.5526 70.417 9.55623 70.4061 9.56196 70.3961C9.5677 70.3862 9.57542 70.3776 9.58464 70.3708C9.59386 70.364 9.60439 70.3592 9.61556 70.3567C9.62672 70.3542 9.6383 70.354 9.64955 70.3561C9.66079 70.3583 9.67148 70.3627 9.68093 70.3692C9.69038 70.3756 9.69839 70.384 9.70446 70.3937C9.71053 70.4034 9.71453 70.4143 9.71621 70.4256L9.91265 71.3037H40.2426L39.5171 68.084H19.7192C19.7078 68.085 19.6962 68.0836 19.6852 68.0799C19.6743 68.0762 19.6643 68.0703 19.6557 68.0625C19.6472 68.0547 19.6404 68.0452 19.6358 68.0347C19.6311 68.0241 19.6287 68.0127 19.6287 68.0011C19.6287 67.9896 19.6311 67.9782 19.6358 67.9676C19.6404 67.957 19.6472 67.9476 19.6557 67.9398C19.6643 67.932 19.6743 67.9261 19.6852 67.9224C19.6962 67.9187 19.7078 67.9173 19.7192 67.9183H39.5832C39.6021 67.9183 39.6204 67.9249 39.6351 67.9368C39.6498 67.9487 39.6599 67.9653 39.6638 67.9838L40.4273 71.3705C40.4299 71.3827 40.4298 71.3953 40.427 71.4074C40.4242 71.4195 40.4187 71.4308 40.4109 71.4406C40.403 71.45 40.393 71.4575 40.3818 71.4626C40.3706 71.4677 40.3584 71.4702 40.3461 71.47Z" fill="#002E5D"/>
<path d="M42.3371 80.3199H11.8382C11.8193 80.3199 11.801 80.3133 11.7863 80.3014C11.7716 80.2895 11.7615 80.2729 11.7576 80.2544L10.9941 76.867C10.9915 76.8549 10.9916 76.8423 10.9944 76.8302C10.9972 76.818 11.0027 76.8067 11.0105 76.797C11.0183 76.7872 11.0283 76.7794 11.0397 76.774C11.051 76.7687 11.0634 76.766 11.076 76.7662H21.7233C21.7348 76.7652 21.7464 76.7666 21.7574 76.7703C21.7683 76.774 21.7783 76.7799 21.7868 76.7877C21.7954 76.7955 21.8022 76.8049 21.8068 76.8155C21.8115 76.8261 21.8139 76.8375 21.8139 76.849C21.8139 76.8606 21.8115 76.872 21.8068 76.8826C21.8022 76.8931 21.7954 76.9026 21.7868 76.9104C21.7783 76.9182 21.7683 76.9241 21.7574 76.9278C21.7464 76.9315 21.7348 76.9329 21.7233 76.9319H11.1807L11.9063 80.1529H42.2343L41.5087 76.9319H26.9816C26.9609 76.93 26.9416 76.9205 26.9276 76.9052C26.9135 76.8898 26.9058 76.8698 26.9058 76.849C26.9058 76.8283 26.9135 76.8082 26.9276 76.7929C26.9416 76.7776 26.9609 76.768 26.9816 76.7662H41.5736C41.5926 76.7662 41.611 76.7727 41.6257 76.7846C41.6405 76.7965 41.6507 76.8131 41.6548 76.8317L42.4176 80.2191C42.4206 80.2312 42.4206 80.2439 42.4178 80.2561C42.4149 80.2682 42.4093 80.2796 42.4013 80.2891C42.3936 80.2988 42.3838 80.3065 42.3727 80.3119C42.3616 80.3172 42.3494 80.3199 42.3371 80.3199Z" fill="#002E5D"/>
<path d="M95.917 86.4392H71.4968C71.4853 86.4402 71.4737 86.4388 71.4628 86.4351C71.4518 86.4314 71.4418 86.4255 71.4333 86.4177C71.4248 86.4099 71.418 86.4004 71.4133 86.3899C71.4087 86.3793 71.4062 86.3679 71.4062 86.3564C71.4062 86.3448 71.4087 86.3334 71.4133 86.3228C71.418 86.3123 71.4248 86.3028 71.4333 86.295C71.4418 86.2872 71.4518 86.2813 71.4628 86.2776C71.4737 86.2739 71.4853 86.2725 71.4968 86.2735H95.917C95.9285 86.2725 95.9401 86.2739 95.951 86.2776C95.962 86.2813 95.972 86.2872 95.9805 86.295C95.989 86.3028 95.9958 86.3123 96.0005 86.3228C96.0051 86.3334 96.0076 86.3448 96.0076 86.3564C96.0076 86.3679 96.0051 86.3793 96.0005 86.3899C95.9958 86.4004 95.989 86.4099 95.9805 86.4177C95.972 86.4255 95.962 86.4314 95.951 86.4351C95.9401 86.4388 95.9285 86.4402 95.917 86.4392Z" fill="#002E5D"/>
<path d="M66.7217 89.8809H3.23941C3.21736 89.8809 3.1962 89.8722 3.18061 89.8566C3.16501 89.841 3.15625 89.8198 3.15625 89.7978C3.15625 89.7757 3.16501 89.7546 3.18061 89.739C3.1962 89.7234 3.21736 89.7146 3.23941 89.7146H66.7217C66.7437 89.7146 66.7649 89.7234 66.7805 89.739C66.7961 89.7546 66.8048 89.7757 66.8048 89.7978C66.8048 89.8198 66.7961 89.841 66.7805 89.8566C66.7649 89.8722 66.7437 89.8809 66.7217 89.8809Z" fill="#002E5D"/>
<path d="M59.4881 89.8293H48.3594L48.6167 88.8681L49.4431 85.7754L49.9224 83.9831L50.3134 82.5209L50.7495 80.8904L51.1411 79.4275L52.0702 75.9524H55.7772L56.6324 79.1499L57.3376 81.7888L58.1398 84.7892L58.8457 87.4281L59.4881 89.8293Z" fill="white"/>
<path d="M57.341 81.7888L49.9258 83.9831L50.3167 82.5209L50.7528 80.8904L56.6357 79.1499L57.341 81.7888Z" fill="#F3F8FF"/>
<path d="M58.8456 87.428L52.9961 89.1593L53.387 87.6971L53.8231 86.0666L58.1397 84.7891L58.8456 87.428Z" fill="#F3F8FF"/>
<path d="M55.9315 80.8582L50.3164 82.5208L51.1434 79.4275L55.2256 78.22L55.9315 80.8582Z" fill="#F70431"/>
<path d="M57.3774 86.275L48.6172 88.8681L49.4436 85.7754L56.6715 83.6367L57.3774 86.275Z" fill="#F70431"/>
<path d="M59.4888 89.9118H48.3569C48.3441 89.912 48.3315 89.9092 48.32 89.9036C48.3085 89.8981 48.2985 89.8899 48.2907 89.8798C48.2829 89.8697 48.2775 89.858 48.275 89.8455C48.2725 89.833 48.273 89.82 48.2763 89.8077L51.9918 75.9314C51.9964 75.9138 52.0068 75.8982 52.0212 75.887C52.0357 75.8759 52.0534 75.8699 52.0717 75.8699H55.7793C55.7976 75.8697 55.8155 75.8757 55.8301 75.8868C55.8447 75.898 55.8551 75.9137 55.8598 75.9314L59.57 89.8077C59.5733 89.82 59.5738 89.8329 59.5713 89.8453C59.5689 89.8578 59.5636 89.8695 59.5558 89.8796C59.5481 89.8896 59.5382 89.8978 59.5268 89.9034C59.5154 89.909 59.5028 89.9119 59.4901 89.9118H59.4888ZM48.4675 89.7462H59.3808L55.7138 76.0355H52.1339L48.4675 89.7462Z" fill="#002E5D"/>
<path d="M51.1434 79.5113C51.1238 79.5108 51.1049 79.5033 51.0903 79.4902C51.0756 79.4771 51.0661 79.4592 51.0633 79.4398C51.0606 79.4203 51.0648 79.4005 51.0753 79.3839C51.0857 79.3672 51.1018 79.3548 51.1205 79.3489L54.8759 78.2337C54.8965 78.2291 54.9181 78.2324 54.9363 78.2431C54.9545 78.2538 54.9679 78.271 54.9739 78.2912C54.9799 78.3115 54.978 78.3332 54.9686 78.3521C54.9591 78.371 54.9428 78.3855 54.923 78.3929L51.165 79.506C51.158 79.5086 51.1508 79.5104 51.1434 79.5113Z" fill="#002E5D"/>
<path d="M50.3162 82.6034C50.2958 82.6042 50.2759 82.5974 50.2602 82.5844C50.2445 82.5714 50.2343 82.553 50.2313 82.5328C50.2284 82.5127 50.233 82.4921 50.2443 82.4752C50.2557 82.4582 50.2728 82.4461 50.2926 82.441L53.496 81.4935C53.5166 81.4889 53.5381 81.4922 53.5563 81.5029C53.5745 81.5136 53.588 81.5308 53.594 81.551C53.6 81.5712 53.5981 81.593 53.5886 81.6119C53.5792 81.6307 53.5629 81.6453 53.5431 81.6526L50.3397 82.6001C50.3321 82.6025 50.3242 82.6036 50.3162 82.6034Z" fill="#002E5D"/>
<path d="M49.4448 85.8591C49.4251 85.8587 49.4062 85.8513 49.3914 85.8383C49.3766 85.8252 49.367 85.8074 49.3641 85.7879C49.3613 85.7684 49.3655 85.7485 49.376 85.7318C49.3864 85.7151 49.4025 85.7026 49.4212 85.6967L55.7789 83.8147C55.7893 83.8116 55.8002 83.8106 55.811 83.8117C55.8218 83.8128 55.8323 83.8161 55.8418 83.8213C55.8514 83.8264 55.8598 83.8334 55.8666 83.8418C55.8735 83.8503 55.8786 83.86 55.8817 83.8704C55.8848 83.8808 55.8858 83.8917 55.8847 83.9025C55.8836 83.9133 55.8803 83.9238 55.8752 83.9333C55.87 83.9428 55.863 83.9513 55.8546 83.9581C55.8461 83.965 55.8364 83.9701 55.826 83.9732L49.4684 85.8558C49.4607 85.8578 49.4528 85.8589 49.4448 85.8591Z" fill="#002E5D"/>
<path d="M48.6161 88.9506C48.5964 88.9501 48.5776 88.9426 48.5629 88.9295C48.5483 88.9164 48.5387 88.8986 48.536 88.8791C48.5332 88.8596 48.5375 88.8398 48.5479 88.8232C48.5584 88.8065 48.5744 88.7942 48.5932 88.7882L54.1886 87.1328C54.199 87.1297 54.2099 87.1287 54.2207 87.1298C54.2315 87.131 54.242 87.1342 54.2515 87.1394C54.2611 87.1445 54.2695 87.1515 54.2764 87.16C54.2832 87.1684 54.2883 87.1781 54.2914 87.1885C54.2945 87.1989 54.2955 87.2098 54.2944 87.2206C54.2933 87.2314 54.29 87.2419 54.2849 87.2514C54.2797 87.261 54.2727 87.2694 54.2643 87.2762C54.2558 87.2831 54.2462 87.2882 54.2357 87.2913L48.6396 88.9473C48.632 88.9497 48.6241 88.9508 48.6161 88.9506Z" fill="#002E5D"/>
<path d="M75.8955 31.9798C75.6805 31.9802 75.4676 31.9382 75.2689 31.856C75.0702 31.7739 74.8897 31.6533 74.7378 31.5011C74.7243 31.4852 74.7173 31.4648 74.7182 31.4439C74.719 31.4231 74.7277 31.4033 74.7424 31.3885C74.7572 31.3738 74.777 31.3651 74.7978 31.3642C74.8187 31.3634 74.8391 31.3704 74.855 31.3839C74.9916 31.5206 75.1538 31.6289 75.3324 31.7026C75.511 31.7763 75.7024 31.814 75.8955 31.8135C75.9177 31.8135 75.9389 31.8222 75.9546 31.8378C75.9703 31.8534 75.9792 31.8745 75.9794 31.8966C75.9795 31.9077 75.9775 31.9186 75.9733 31.9288C75.9692 31.939 75.963 31.9483 75.9552 31.9561C75.9473 31.9638 75.938 31.9699 75.9278 31.974C75.9175 31.9781 75.9066 31.9801 75.8955 31.9798ZM76.995 31.5214C76.9841 31.5214 76.9733 31.5192 76.9633 31.5149C76.9533 31.5106 76.9443 31.5044 76.9367 31.4965C76.929 31.4889 76.9228 31.4797 76.9186 31.4697C76.9144 31.4596 76.9123 31.4488 76.9123 31.4379C76.9123 31.427 76.9144 31.4162 76.9186 31.4062C76.9228 31.3961 76.929 31.387 76.9367 31.3793C77.0739 31.243 77.1827 31.0807 77.2568 30.902C77.3309 30.7233 77.3688 30.5316 77.3682 30.3382C77.3682 30.3158 77.3769 30.2943 77.3924 30.2782C77.4079 30.2621 77.429 30.2526 77.4514 30.2517C77.4621 30.2515 77.4727 30.2533 77.4827 30.2572C77.4926 30.2611 77.5017 30.2669 77.5094 30.2744C77.5171 30.2818 77.5232 30.2907 77.5274 30.3005C77.5316 30.3104 77.5338 30.3209 77.5339 30.3316V30.3382C77.5345 30.5533 77.4925 30.7665 77.4102 30.9653C77.328 31.1642 77.2071 31.3447 77.0546 31.4965C77.0398 31.5126 77.0194 31.5222 76.9976 31.5234L76.995 31.5214ZM74.3371 30.4226C74.3263 30.4228 74.3155 30.4208 74.3055 30.4168C74.2955 30.4129 74.2863 30.4069 74.2786 30.3994C74.2708 30.3918 74.2647 30.3828 74.2605 30.3729C74.2562 30.3629 74.254 30.3522 74.2539 30.3414C74.2533 30.1267 74.2952 29.914 74.3771 29.7156C74.459 29.5171 74.5794 29.3368 74.7313 29.185C74.7467 29.1695 74.7677 29.1607 74.7896 29.1607C74.8116 29.1606 74.8326 29.1692 74.8482 29.1847C74.8637 29.2002 74.8725 29.2212 74.8725 29.2431C74.8726 29.265 74.8639 29.286 74.8485 29.3016C74.7121 29.4382 74.604 29.6003 74.5304 29.7788C74.4568 29.9572 74.4191 30.1484 74.4196 30.3414C74.4194 30.3629 74.4111 30.3835 74.3962 30.3989C74.3813 30.4144 74.3611 30.4236 74.3397 30.4246L74.3371 30.4226ZM76.9904 29.316C76.9796 29.316 76.9688 29.3139 76.9588 29.3097C76.9488 29.3056 76.9398 29.2995 76.9321 29.2918C76.7956 29.1558 76.6336 29.048 76.4554 28.9746C76.2772 28.9013 76.0863 28.8637 75.8936 28.8642C75.8713 28.8642 75.85 28.8555 75.8341 28.8399C75.8182 28.8244 75.809 28.8032 75.8085 28.781C75.8083 28.7703 75.8102 28.7596 75.8142 28.7497C75.8182 28.7397 75.8241 28.7306 75.8315 28.723C75.839 28.7153 75.848 28.7092 75.8578 28.705C75.8677 28.7008 75.8783 28.6986 75.889 28.6985H75.8936C76.108 28.6979 76.3204 28.7396 76.5186 28.8213C76.7169 28.903 76.897 29.023 77.0487 29.1745C77.0604 29.186 77.0685 29.2008 77.0718 29.2169C77.0751 29.233 77.0735 29.2497 77.0672 29.2649C77.061 29.2801 77.0503 29.2931 77.0366 29.3022C77.0229 29.3113 77.0068 29.3161 76.9904 29.316Z" fill="#002E5D"/>
<path d="M93.2699 77.5919C93.0547 77.5928 92.8415 77.551 92.6425 77.4689C92.4436 77.3869 92.2629 77.2662 92.1109 77.1139C92.1027 77.1063 92.0961 77.0972 92.0916 77.087C92.087 77.0768 92.0845 77.0658 92.0843 77.0546C92.0841 77.0435 92.0861 77.0324 92.0903 77.022C92.0944 77.0117 92.1006 77.0023 92.1085 76.9943C92.1164 76.9864 92.1258 76.9802 92.1361 76.976C92.1464 76.9718 92.1575 76.9697 92.1687 76.9698C92.1798 76.97 92.1908 76.9724 92.201 76.9769C92.2112 76.9814 92.2204 76.9879 92.2281 76.996C92.3644 77.1329 92.5265 77.2414 92.7049 77.3153C92.8834 77.3891 93.0748 77.4268 93.2679 77.4263C93.2901 77.4263 93.3113 77.435 93.327 77.4506C93.3427 77.4662 93.3516 77.4873 93.3518 77.5094C93.3518 77.5202 93.3498 77.5309 93.3457 77.541C93.3416 77.551 93.3356 77.5601 93.328 77.5677C93.3204 77.5754 93.3114 77.5815 93.3014 77.5856C93.2914 77.5898 93.2807 77.5919 93.2699 77.5919ZM94.3694 77.1336C94.3531 77.1334 94.3372 77.1284 94.3237 77.1192C94.3102 77.1101 94.2997 77.0972 94.2935 77.0821C94.2873 77.067 94.2856 77.0505 94.2888 77.0345C94.2919 77.0185 94.2997 77.0037 94.3111 76.9921C94.4481 76.8555 94.5567 76.6931 94.6307 76.5143C94.7047 76.3355 94.7425 76.1438 94.7419 75.9503C94.7419 75.928 94.7506 75.9066 94.7661 75.8906C94.7817 75.8745 94.8028 75.8652 94.8251 75.8645C94.8358 75.8642 94.8465 75.866 94.8565 75.8698C94.8665 75.8737 94.8756 75.8795 94.8833 75.887C94.891 75.8944 94.8971 75.9034 94.9013 75.9132C94.9055 75.9231 94.9076 75.9337 94.9076 75.9444V75.9503C94.9082 76.1656 94.8662 76.3788 94.7839 76.5778C94.7016 76.7767 94.5808 76.9574 94.4283 77.1093C94.4207 77.1174 94.4116 77.1239 94.4015 77.1284C94.3914 77.1329 94.3804 77.1353 94.3694 77.1355V77.1336ZM91.7114 76.0348C91.7007 76.035 91.69 76.033 91.68 76.029C91.67 76.025 91.6608 76.019 91.6532 76.0115C91.6455 76.0039 91.6394 75.9949 91.6352 75.985C91.6311 75.975 91.6289 75.9644 91.6289 75.9536C91.6279 75.7385 91.6696 75.5253 91.7514 75.3264C91.8332 75.1275 91.9536 74.9467 92.1056 74.7945C92.113 74.7857 92.1222 74.7786 92.1325 74.7735C92.1428 74.7684 92.154 74.7654 92.1655 74.7649C92.177 74.7644 92.1884 74.7662 92.1992 74.7703C92.2099 74.7745 92.2197 74.7808 92.2278 74.7889C92.236 74.7969 92.2424 74.8066 92.2467 74.8173C92.2509 74.828 92.2529 74.8394 92.2525 74.8509C92.2521 74.8624 92.2493 74.8737 92.2443 74.884C92.2393 74.8944 92.2322 74.9036 92.2235 74.9111C92.087 75.0475 91.9788 75.2095 91.9052 75.3879C91.8316 75.5662 91.794 75.7574 91.7946 75.9503C91.7949 75.9615 91.7929 75.9725 91.7889 75.9829C91.7848 75.9933 91.7788 76.0028 91.771 76.0108C91.7633 76.0189 91.754 76.0253 91.7438 76.0297C91.7336 76.0342 91.7226 76.0366 91.7114 76.0367V76.0348ZM94.3648 74.9288C94.3539 74.9288 94.3432 74.9267 94.3332 74.9225C94.3232 74.9184 94.3141 74.9123 94.3065 74.9046C94.17 74.7684 94.0081 74.6606 93.8298 74.5872C93.6516 74.5138 93.4607 74.4764 93.2679 74.477C93.2457 74.477 93.2243 74.4683 93.2084 74.4527C93.1925 74.4372 93.1833 74.416 93.1828 74.3938C93.1826 74.3831 93.1844 74.3724 93.1884 74.3624C93.1923 74.3524 93.1982 74.3433 93.2057 74.3356C93.2132 74.3279 93.2222 74.3218 93.2321 74.3176C93.242 74.3134 93.2526 74.3113 93.2634 74.3113H93.2679C93.4824 74.3107 93.6948 74.3524 93.8931 74.434C94.0914 74.5156 94.2717 74.6354 94.4237 74.7867C94.4314 74.7944 94.4376 74.8035 94.4418 74.8135C94.446 74.8236 94.4481 74.8344 94.4481 74.8453C94.4481 74.8562 94.446 74.867 94.4418 74.877C94.4376 74.8871 94.4314 74.8962 94.4237 74.9039C94.4162 74.9121 94.4071 74.9188 94.397 74.9234C94.3869 74.928 94.3759 74.9305 94.3648 74.9308V74.9288Z" fill="#002E5D"/>
<path d="M12.8129 63.2383C12.5976 63.2391 12.3844 63.1971 12.1855 63.115C11.9865 63.0328 11.8058 62.9121 11.6538 62.7597C11.6461 62.752 11.64 62.7429 11.6358 62.7328C11.6316 62.7228 11.6294 62.712 11.6294 62.7011C11.6294 62.6902 11.6316 62.6794 11.6358 62.6693C11.64 62.6593 11.6461 62.6501 11.6538 62.6425C11.6694 62.627 11.6905 62.6183 11.7124 62.6183C11.7344 62.6183 11.7555 62.627 11.7711 62.6425C11.9075 62.7793 12.0697 62.8877 12.2483 62.9615C12.4269 63.0354 12.6183 63.0731 12.8116 63.0727C12.8323 63.0745 12.8515 63.084 12.8655 63.0994C12.8796 63.1147 12.8874 63.1347 12.8874 63.1555C12.8874 63.1763 12.8796 63.1963 12.8655 63.2116C12.8515 63.227 12.8323 63.2365 12.8116 63.2383H12.8129ZM13.913 62.78C13.8909 62.7798 13.8698 62.7711 13.854 62.7557C13.8386 62.7402 13.8299 62.7191 13.8299 62.6971C13.8299 62.6752 13.8386 62.6541 13.854 62.6385C13.9906 62.5025 14.0989 62.3409 14.1729 62.1629C14.2468 61.9849 14.2849 61.794 14.2849 61.6013C14.2849 61.5789 14.2936 61.5574 14.3091 61.5413C14.3246 61.5252 14.3457 61.5157 14.3681 61.5149C14.3788 61.5145 14.3895 61.5163 14.3995 61.5202C14.4096 61.524 14.4187 61.5298 14.4265 61.5373C14.4342 61.5447 14.4404 61.5536 14.4447 61.5635C14.4489 61.5734 14.4512 61.584 14.4512 61.5947V61.6013C14.4517 61.8165 14.4096 62.0297 14.3272 62.2285C14.2448 62.4274 14.1238 62.6079 13.9713 62.7597C13.9552 62.7737 13.9343 62.781 13.913 62.78ZM11.2544 61.6812C11.2436 61.6814 11.2329 61.6794 11.2229 61.6754C11.2129 61.6714 11.2038 61.6654 11.1961 61.6579C11.1885 61.6503 11.1824 61.6413 11.1782 61.6314C11.174 61.6214 11.1719 61.6108 11.1719 61.6C11.1709 61.3849 11.2125 61.1717 11.2943 60.9728C11.3762 60.7739 11.4966 60.5931 11.6486 60.441C11.656 60.4321 11.6651 60.425 11.6754 60.4199C11.6857 60.4148 11.697 60.4118 11.7085 60.4113C11.7199 60.4108 11.7314 60.4126 11.7421 60.4168C11.7529 60.4209 11.7626 60.4272 11.7708 60.4353C11.779 60.4433 11.7854 60.453 11.7896 60.4637C11.7939 60.4744 11.7958 60.4858 11.7954 60.4973C11.795 60.5088 11.7922 60.5201 11.7873 60.5305C11.7823 60.5408 11.7752 60.55 11.7665 60.5575C11.6296 60.6946 11.5212 60.8573 11.4476 61.0365C11.374 61.2157 11.3366 61.4076 11.3376 61.6013C11.3369 61.623 11.3279 61.6436 11.3124 61.6589C11.2969 61.6741 11.2761 61.6828 11.2544 61.6831V61.6812ZM13.9084 60.5745C13.8974 60.5746 13.8866 60.5725 13.8765 60.5683C13.8664 60.5642 13.8572 60.558 13.8495 60.5503C13.7131 60.4143 13.5512 60.3065 13.3731 60.2331C13.195 60.1597 13.0042 60.1222 12.8116 60.1227C12.7893 60.1227 12.7678 60.114 12.7518 60.0985C12.7358 60.083 12.7265 60.0618 12.7258 60.0395C12.7256 60.0288 12.7276 60.0182 12.7315 60.0082C12.7355 59.9983 12.7414 59.9892 12.7489 59.9815C12.7564 59.9738 12.7653 59.9677 12.7751 59.9635C12.785 59.9593 12.7956 59.9571 12.8063 59.957H12.8116C13.026 59.9565 13.2383 59.9982 13.4366 60.0799C13.6348 60.1616 13.8149 60.2816 13.9667 60.4331C13.9744 60.4408 13.9806 60.4499 13.9847 60.46C13.9889 60.47 13.9911 60.4808 13.9911 60.4917C13.9911 60.5026 13.9889 60.5134 13.9847 60.5234C13.9806 60.5335 13.9744 60.5426 13.9667 60.5503C13.9593 60.5584 13.9503 60.5649 13.9402 60.5694C13.9302 60.5739 13.9194 60.5763 13.9084 60.5765V60.5745Z" fill="#002E5D"/>
<path d="M25.7344 56.6848V34.9265L25.9 34.6953V56.7019L25.7344 56.6848Z" fill="#B50223"/>
<path d="M62.0419 56.8211C61.25 57.2081 60.3636 57.3597 59.4881 57.2579C59.4226 57.25 59.363 57.2415 59.2995 57.231L26.6665 51.8798C23.3551 51.337 22.2687 47.3504 24.7093 44.7043L36.775 31.6223L37.2556 31.0984L40.2128 27.8898L40.6941 27.3659L48.7733 18.6136C51.2138 15.9675 55.3523 16.6452 56.2219 19.8342L62.9357 44.4555L64.1609 48.9475L64.7941 51.2715C65.4103 53.5319 64.0581 55.8513 62.0419 56.8211Z" fill="#F3F8FF"/>
<path d="M59.5148 54.6563C58.7673 55.0938 57.9066 55.2989 57.0422 55.2456C56.9767 55.2423 56.9112 55.2371 56.8497 55.2306L23.3687 51.9407C19.9721 51.6074 18.2107 47.7191 20.198 44.9479L30.0204 31.234L30.4132 30.6879L32.8204 27.3267L33.2133 26.7799L39.7883 17.5974C41.775 14.8229 46.0209 15.24 47.4294 18.3484L58.3099 42.3496L60.2947 46.7271L61.3214 48.9921C62.3194 51.1897 61.3633 53.5726 59.5148 54.6563Z" fill="#F70431"/>
<path d="M41.9151 47.772C43.2069 47.765 44.2484 46.7121 44.2414 45.4204C44.2344 44.1286 43.1816 43.087 41.8898 43.094C40.598 43.101 39.5564 44.1539 39.5634 45.4457C39.5704 46.7375 40.6233 47.779 41.9151 47.772Z" fill="#B50223"/>
<path d="M43.8951 41.7229L41.2208 41.2796C40.8587 41.2193 40.5882 40.9522 40.6197 40.6824L42.294 26.3536C42.308 26.2368 42.3457 26.124 42.4048 26.0223C42.4638 25.9205 42.5431 25.8319 42.6376 25.7619C42.7322 25.6919 42.84 25.6419 42.9546 25.6151C43.0691 25.5882 43.188 25.5851 43.3038 25.6058L46.9813 26.2154C47.0976 26.2332 47.2091 26.2745 47.3089 26.3369C47.4087 26.3993 47.4948 26.4814 47.5617 26.5782C47.6287 26.675 47.6751 26.7845 47.6983 26.8999C47.7214 27.0153 47.7208 27.1342 47.6963 27.2494L44.6599 41.3516C44.5997 41.6168 44.2572 41.7825 43.8951 41.7229Z" fill="#B50223"/>
<path d="M41.1417 47.1612C42.4302 47.0684 43.3995 45.9487 43.3067 44.6602C43.2138 43.3717 42.0941 42.4025 40.8056 42.4953C39.5172 42.5881 38.5479 43.7078 38.6407 44.9963C38.7335 46.2848 39.8533 47.254 41.1417 47.1612Z" fill="#454E54"/>
<path d="M42.7093 41.0012L40.0108 40.7392C39.6454 40.7032 39.356 40.4544 39.3717 40.1833L40.092 25.7772C40.0983 25.6597 40.1286 25.5448 40.1809 25.4393C40.2332 25.3339 40.3064 25.2403 40.3962 25.1641C40.4859 25.088 40.5902 25.031 40.7028 24.9966C40.8153 24.9621 40.9337 24.9511 41.0507 24.964L44.7602 25.3241C44.8773 25.3341 44.9912 25.3678 45.0948 25.4233C45.1984 25.4788 45.2895 25.5549 45.3627 25.6468C45.4359 25.7388 45.4896 25.8447 45.5204 25.9581C45.5513 26.0715 45.5586 26.19 45.5421 26.3063L43.4467 40.5814C43.4047 40.8493 43.0741 41.0398 42.7093 41.0012Z" fill="#454E54"/>
</g>
<defs>
<clipPath id="clip0_2620_28695">
<rect width="96" height="96" fill="white"/>
</clipPath>
</defs>
</svg>
