<svg width="96" height="96" viewBox="0 0 96 96" fill="none" xmlns="http://www.w3.org/2000/svg">
<g clip-path="url(#clip0_2620_28493)">
<path d="M92.8936 24.6431L95.9996 66.1011L5.19531 76.491V43.3702L92.8936 24.6431Z" fill="#F3F8FF"/>
<path d="M57.8427 11.7648L40.8711 13.0796L41.4109 20.0471L58.3825 18.7322L57.8427 11.7648Z" fill="#C9DAF4"/>
<path d="M55.4497 17.3307L52.6292 13.2396C53.1243 12.5837 53.4196 11.7988 53.4795 10.9791C53.5394 10.1595 53.3614 9.34003 52.9669 8.6191C52.5724 7.89818 51.9782 7.30648 51.2556 6.91507C50.5329 6.52367 49.7127 6.3492 48.8933 6.41264C48.074 6.47607 47.2904 6.77471 46.6366 7.27267C45.9828 7.77063 45.4867 8.44675 45.2079 9.2198C44.9291 9.99286 44.8793 10.83 45.0647 11.6306C45.25 12.4312 45.6626 13.1613 46.2528 13.7332L44.093 18.2101C44.0845 18.2278 44.0795 18.247 44.0784 18.2666C44.0773 18.2862 44.08 18.3058 44.0865 18.3244C44.093 18.3429 44.1031 18.36 44.1162 18.3746C44.1293 18.3892 44.1452 18.4011 44.163 18.4096C44.1837 18.4199 44.2066 18.425 44.2298 18.4245C44.2576 18.4242 44.2847 18.4161 44.3082 18.4012C44.3316 18.3863 44.3504 18.3652 44.3625 18.3402L46.5665 13.7635C46.5665 13.7635 46.5665 13.7594 46.5665 13.7569C46.5685 13.7518 46.5702 13.7467 46.5716 13.7414C46.5731 13.7371 46.5743 13.7326 46.5752 13.7281C46.5754 13.7233 46.5754 13.7185 46.5752 13.7137C46.5765 13.7041 46.5765 13.6944 46.5752 13.6849C46.5754 13.6802 46.5754 13.6756 46.5752 13.671C46.5752 13.6658 46.5726 13.6612 46.5716 13.6566L46.567 13.6437C46.567 13.6391 46.5629 13.6345 46.5608 13.6299C46.5587 13.6252 46.5562 13.6216 46.5536 13.6175C46.551 13.6134 46.5485 13.6098 46.5454 13.6062C46.542 13.602 46.5384 13.5981 46.5346 13.5944L46.5299 13.5887C45.9613 13.0656 45.5577 12.3877 45.3688 11.6384C45.18 10.8892 45.214 10.101 45.4667 9.37082C45.7195 8.6406 46.18 8.00008 46.7916 7.52788C47.4033 7.05568 48.1395 6.77236 48.9099 6.71269C49.6803 6.65303 50.4514 6.81963 51.1285 7.19202C51.8055 7.56442 52.3591 8.12641 52.7213 8.80901C53.0834 9.49161 53.2384 10.2651 53.1671 11.0345C53.0959 11.804 52.8015 12.5358 52.3201 13.1403C52.3187 13.1422 52.3175 13.1443 52.3165 13.1465C52.3135 13.1511 52.3104 13.1552 52.3078 13.1598C52.3053 13.164 52.303 13.1683 52.3011 13.1727C52.3011 13.1768 52.2975 13.1814 52.296 13.1861C52.2944 13.1906 52.293 13.1953 52.2919 13.2C52.2916 13.2046 52.2916 13.2092 52.2919 13.2138C52.2916 13.2186 52.2916 13.2234 52.2919 13.2282C52.2916 13.233 52.2916 13.2378 52.2919 13.2426C52.2913 13.2473 52.2913 13.2519 52.2919 13.2565C52.2916 13.2613 52.2916 13.2661 52.2919 13.2709L52.2965 13.2848C52.2965 13.2894 52.3001 13.2935 52.3016 13.2977C52.3041 13.3026 52.3068 13.3074 52.3099 13.3121L52.3129 13.3182L55.1926 17.4984C55.2151 17.5304 55.2491 17.5524 55.2876 17.5596C55.326 17.5668 55.3658 17.5587 55.3983 17.5369C55.4153 17.5268 55.4301 17.5135 55.4419 17.4976C55.4537 17.4818 55.4622 17.4637 55.467 17.4446C55.4718 17.4254 55.4727 17.4055 55.4697 17.3859C55.4668 17.3664 55.46 17.3476 55.4497 17.3307Z" fill="#C9DAF4"/>
<path d="M73.6248 80.0022L25.7539 78.3839C30.4365 58.1948 31.7339 37.4638 29.5936 17.0417L77.4646 18.66C79.6048 39.0795 78.3069 59.8136 73.6248 80.0022Z" fill="#C9DAF4"/>
<path d="M69.6052 77.049H21.707C24.4831 67.887 26.553 58.5256 27.8983 49.0473C28.9397 41.7031 29.5197 34.3008 29.6349 26.8841C29.6842 23.6177 29.6409 20.3609 29.5048 17.1138H77.4024C78.235 36.9496 75.5996 57.2101 69.6052 77.049Z" fill="white"/>
<path d="M25.8018 61.0714C25.797 61.0719 25.7922 61.0719 25.7874 61.0714C25.7698 61.0671 25.7545 61.0561 25.7449 61.0407C25.7353 61.0254 25.7321 61.0068 25.736 60.9891C26.3433 58.0838 26.8863 55.1341 27.3501 52.2216C27.3516 52.2125 27.3548 52.2039 27.3596 52.1961C27.3644 52.1884 27.3707 52.1816 27.3781 52.1763C27.3855 52.1709 27.3938 52.1671 27.4027 52.165C27.4116 52.1629 27.4208 52.1625 27.4298 52.164C27.4389 52.1654 27.4475 52.1686 27.4553 52.1734C27.463 52.1782 27.4698 52.1845 27.4751 52.1919C27.4805 52.1993 27.4843 52.2077 27.4864 52.2166C27.4885 52.2254 27.4889 52.2347 27.4874 52.2437C27.0246 55.1583 26.4795 58.11 25.8712 61.0174C25.8678 61.0331 25.859 61.0472 25.8463 61.0571C25.8336 61.0669 25.8179 61.072 25.8018 61.0714Z" fill="#002E5D"/>
<path d="M69.6032 77.119H49.628C49.6096 77.119 49.5919 77.1117 49.5789 77.0987C49.5659 77.0856 49.5586 77.068 49.5586 77.0496C49.5586 77.0312 49.5659 77.0135 49.5789 77.0005C49.5919 76.9875 49.6096 76.9801 49.628 76.9801H69.5517C75.5399 57.1387 78.1589 37.019 77.334 17.1786H60.0529C60.0434 17.1795 60.0337 17.1783 60.0246 17.1752C60.0155 17.1721 60.0071 17.1671 60 17.1606C59.9929 17.1541 59.9873 17.1462 59.9834 17.1374C59.9795 17.1286 59.9775 17.1191 59.9775 17.1095C59.9775 17.0998 59.9795 17.0903 59.9834 17.0815C59.9873 17.0727 59.9929 17.0648 60 17.0583C60.0071 17.0518 60.0155 17.0468 60.0246 17.0437C60.0337 17.0406 60.0434 17.0395 60.0529 17.0403H77.4004C77.4183 17.0403 77.4355 17.0472 77.4484 17.0595C77.4613 17.0719 77.469 17.0888 77.4698 17.1066C77.8843 26.9839 77.4338 37.0715 76.1328 47.0886C74.8318 57.1058 72.6556 67.1923 69.6716 77.0681C69.6674 77.083 69.6585 77.096 69.6461 77.1053C69.6337 77.1145 69.6186 77.1193 69.6032 77.119Z" fill="#002E5D"/>
<path d="M29.5982 20.0285C29.5801 20.0285 29.5628 20.0214 29.5499 20.0087C29.537 19.996 29.5296 19.9787 29.5293 19.9606C29.5052 19.0144 29.4733 18.058 29.4337 17.1123C29.4332 17.1029 29.4346 17.0935 29.4379 17.0846C29.4412 17.0758 29.4462 17.0677 29.4527 17.0609C29.4594 17.0541 29.4674 17.0487 29.4763 17.0451C29.4851 17.0415 29.4946 17.0397 29.5041 17.0398H37.2818C37.2991 17.0413 37.3153 17.0492 37.327 17.062C37.3388 17.0748 37.3453 17.0916 37.3453 17.109C37.3453 17.1263 37.3388 17.1431 37.327 17.1559C37.3153 17.1687 37.2991 17.1766 37.2818 17.1781H29.5751C29.6132 18.0991 29.6445 19.0335 29.6677 19.955C29.6681 19.9733 29.6612 19.991 29.6486 20.0043C29.636 20.0176 29.6186 20.0254 29.6003 20.0259L29.5982 20.0285Z" fill="#002E5D"/>
<path d="M45.84 47.2793L28.1465 50.7046C28.0574 50.1523 27.9734 49.5998 27.8945 49.0472C28.9359 41.703 29.5159 34.3008 29.6311 26.884C33.8758 26.9221 38.1213 26.9598 42.3674 26.9972C42.5931 33.8848 43.7615 40.7089 45.84 47.2793Z" fill="#C9DAF4"/>
<path d="M44.0173 46.6346L26.0857 48.4344C25.5307 40.467 26.0735 32.4612 27.6988 24.6416L42.4057 26.1169C42.003 32.9976 42.5453 39.9011 44.0173 46.6346Z" fill="white"/>
<path d="M41.7801 26.7405C41.7002 28.1621 41.6575 29.5848 41.652 31.0085C36.7158 31.8704 31.8018 32.8479 26.9102 33.9412C27.1817 31.0958 27.5881 28.2715 28.1294 25.4683L41.7801 26.7405Z" fill="#F3F8FF"/>
<path d="M26.8699 34.3692C31.7722 33.2619 36.6992 32.2665 41.6508 31.3831C41.6508 31.6916 41.6508 31.8489 41.658 32.1595C36.6803 33.0752 31.7266 34.1074 26.7969 35.2562C26.8236 34.9014 26.8411 34.724 26.8699 34.3692Z" fill="#F3F8FF"/>
<path d="M41.6817 33.1472C41.705 33.9042 41.7374 34.6604 41.7789 35.416C36.6904 36.4863 31.6287 37.6752 26.5938 38.9827C26.6246 38.1157 26.6666 37.2495 26.7197 36.3843C31.682 35.1923 36.6693 34.1133 41.6817 33.1472Z" fill="#F3F8FF"/>
<path d="M26.5586 43.2812C31.7039 41.7886 36.8805 40.4132 42.0882 39.155C42.3467 41.4656 42.7067 43.7598 43.1681 46.0374L26.7406 47.5848C26.6474 46.1511 26.5867 44.7166 26.5586 43.2812Z" fill="#F3F8FF"/>
<path d="M26.0188 37.2524H26.0141C25.9958 37.2512 25.9787 37.2428 25.9666 37.229C25.9544 37.2152 25.9482 37.1972 25.9493 37.1788C26.2125 32.9607 26.7756 28.7667 27.6345 24.6286C27.6379 24.6119 27.6475 24.5971 27.6613 24.587C27.675 24.5769 27.6921 24.5723 27.709 24.5741L42.4159 26.0489C42.4337 26.0507 42.4501 26.0593 42.4617 26.0729C42.4733 26.0865 42.4792 26.1041 42.4781 26.1219C42.3537 28.2477 42.3157 30.4049 42.364 32.5343C42.3643 32.5527 42.3573 32.5705 42.3446 32.5837C42.3319 32.597 42.3145 32.6048 42.2961 32.6053C42.287 32.6056 42.2778 32.6041 42.2693 32.6009C42.2607 32.5976 42.2529 32.5927 42.2463 32.5864C42.2396 32.58 42.2344 32.5724 42.2307 32.564C42.2271 32.5556 42.2252 32.5466 42.2251 32.5374C42.1773 30.4265 42.2143 28.2884 42.3357 26.1805L27.7574 24.7181C26.9072 28.83 26.3493 32.9969 26.0877 37.1876C26.0865 37.2051 26.0787 37.2215 26.066 37.2335C26.0532 37.2455 26.0363 37.2523 26.0188 37.2524Z" fill="#002E5D"/>
<path d="M26.0855 48.5053C26.069 48.5054 26.0532 48.4996 26.0407 48.4889C26.0336 48.4829 26.0278 48.4757 26.0236 48.4674C26.0193 48.4592 26.0168 48.4503 26.016 48.441C25.9055 46.8526 25.8345 45.241 25.8047 43.65C25.8047 43.6316 25.812 43.6139 25.825 43.6009C25.838 43.5879 25.8557 43.5806 25.8741 43.5806C25.8925 43.5806 25.9102 43.5879 25.9232 43.6009C25.9362 43.6139 25.9435 43.6316 25.9435 43.65C25.9723 45.2148 26.0417 46.7996 26.1492 48.3624L40.3738 46.9308C40.392 46.929 40.4102 46.9346 40.4244 46.9463C40.4386 46.9579 40.4475 46.9747 40.4494 46.993C40.4504 47.002 40.4495 47.0111 40.447 47.0199C40.4444 47.0286 40.4401 47.0367 40.4344 47.0437C40.4286 47.0508 40.4215 47.0566 40.4135 47.0608C40.4055 47.0651 40.3967 47.0677 40.3876 47.0686L26.0921 48.5048L26.0855 48.5053Z" fill="#002E5D"/>
<path d="M35.7374 30.7382L29.1553 30.4081C29.1462 30.4076 29.1373 30.4054 29.1291 30.4015C29.121 30.3976 29.1136 30.3921 29.1076 30.3854C29.1015 30.3787 29.0968 30.3708 29.0938 30.3622C29.0908 30.3537 29.0895 30.3446 29.0899 30.3356C29.0901 30.3264 29.0921 30.3173 29.0958 30.309C29.0996 30.3006 29.1051 30.2931 29.1119 30.2869C29.1187 30.2807 29.1267 30.276 29.1354 30.2731C29.1441 30.2701 29.1533 30.269 29.1625 30.2698L35.7446 30.5999C35.763 30.6004 35.7804 30.6082 35.7931 30.6215C35.8058 30.6349 35.8127 30.6527 35.8122 30.6711C35.8117 30.6895 35.8039 30.707 35.7906 30.7197C35.7772 30.7324 35.7594 30.7392 35.741 30.7387L35.7374 30.7382Z" fill="#002E5D"/>
<path d="M39.969 34.5559L28.7676 34.3857C28.7585 34.3855 28.7495 34.3836 28.7411 34.38C28.7328 34.3764 28.7252 34.3712 28.7188 34.3646C28.7125 34.3581 28.7075 34.3503 28.7041 34.3419C28.7008 34.3334 28.6991 34.3243 28.6992 34.3152C28.7001 34.297 28.7079 34.2798 28.721 34.2671C28.7341 34.2545 28.7515 34.2472 28.7697 34.2468L39.9711 34.4175C39.9884 34.419 40.0045 34.427 40.0163 34.4398C40.028 34.4526 40.0345 34.4693 40.0345 34.4867C40.0345 34.5041 40.028 34.5208 40.0163 34.5336C40.0045 34.5464 39.9884 34.5544 39.9711 34.5559H39.969Z" fill="#002E5D"/>
<path d="M28.5694 38.376C28.551 38.376 28.5334 38.3687 28.5203 38.3556C28.5073 38.3426 28.5 38.325 28.5 38.3065C28.5 38.2881 28.5073 38.2705 28.5203 38.2575C28.5334 38.2444 28.551 38.2371 28.5694 38.2371L40.1555 38.0181C40.1739 38.0181 40.1915 38.0252 40.2048 38.0379C40.218 38.0507 40.2258 38.0681 40.2264 38.0865C40.2266 38.1048 40.2195 38.1225 40.2067 38.1357C40.1939 38.1489 40.1764 38.1565 40.158 38.1569L28.572 38.376H28.5694Z" fill="#002E5D"/>
<path d="M28.5655 42.3714C28.5481 42.3705 28.5317 42.363 28.5196 42.3505C28.5075 42.338 28.5005 42.3214 28.5 42.3039C28.4996 42.2865 28.5057 42.2696 28.5172 42.2564C28.5286 42.2433 28.5446 42.235 28.5619 42.2331L40.5141 41.6073C40.5232 41.6067 40.5323 41.608 40.541 41.611C40.5496 41.6141 40.5575 41.6188 40.5642 41.6249C40.571 41.6311 40.5765 41.6385 40.5803 41.6468C40.5841 41.655 40.5863 41.664 40.5866 41.6731C40.5876 41.6915 40.5813 41.7094 40.569 41.7231C40.5568 41.7368 40.5396 41.7451 40.5213 41.7461L28.5691 42.3714H28.5655Z" fill="#002E5D"/>
<path d="M35.7604 24.7505L34.1421 27.5819L33.5703 24.1736L35.7604 24.7505Z" fill="#454E54"/>
<path d="M36.248 24.7121C36.3933 24.1481 35.7599 23.4974 34.8332 23.2585C33.9065 23.0197 33.0374 23.2832 32.8921 23.8471C32.7467 24.411 33.3802 25.0618 34.3069 25.3006C35.2336 25.5395 36.1027 25.276 36.248 24.7121Z" fill="#454E54"/>
<path d="M47.1562 68.0401L64.8503 71.4654C66.1284 63.5815 66.3171 55.5595 65.4113 47.6243L50.6324 47.7554C50.4061 54.644 49.2365 61.4692 47.1562 68.0401Z" fill="#C9DAF4"/>
<path d="M48.9805 67.3953L66.9126 69.1951C67.4671 61.2277 66.9243 53.222 65.2995 45.4023L50.5926 46.8771C50.9953 53.7581 50.4529 60.6617 48.9805 67.3953Z" fill="white"/>
<path d="M51.2188 47.5014C51.2983 48.9231 51.341 50.3458 51.3468 51.7695C56.2834 52.6313 61.1975 53.6092 66.0892 54.7031C65.8177 51.8578 65.4112 49.0334 64.8699 46.2302L51.2188 47.5014Z" fill="#F3F8FF"/>
<path d="M66.128 55.1299C61.2236 54.023 56.2966 53.0276 51.347 52.1438C51.347 52.4523 51.347 52.6097 51.3398 52.9203C56.3176 53.836 61.2713 54.8682 66.201 56.017C66.1737 55.6621 66.1593 55.4847 66.128 55.1299Z" fill="#F3F8FF"/>
<path d="M51.3198 53.9082C51.2965 54.6651 51.2641 55.4214 51.2227 56.177C56.3114 57.2472 61.3732 58.436 66.4078 59.7431C66.3769 58.8765 66.3348 58.0105 66.2813 57.1453C61.3176 55.9543 56.3305 54.8753 51.3198 53.9082Z" fill="#F3F8FF"/>
<path d="M66.4377 64.0422C61.2916 62.5495 56.1151 61.1742 50.908 59.916C50.6495 62.2263 50.2896 64.5204 49.8281 66.7984L66.2551 68.3457C66.3497 66.9121 66.4106 65.4776 66.4377 64.0422Z" fill="#F3F8FF"/>
<path d="M66.9819 58.0133C66.9643 58.0134 66.9474 58.0067 66.9346 57.9946C66.9218 57.9826 66.914 57.9661 66.913 57.9486C66.6511 53.7579 66.0932 49.591 65.2433 45.4791L50.6655 46.9415C50.7868 49.0499 50.8244 51.1875 50.776 53.2984C50.776 53.3075 50.7742 53.3166 50.7706 53.325C50.7671 53.3334 50.7618 53.341 50.7553 53.3473C50.7487 53.3537 50.7409 53.3586 50.7324 53.3619C50.7238 53.3651 50.7147 53.3666 50.7056 53.3663C50.6965 53.3661 50.6875 53.3641 50.6791 53.3604C50.6708 53.3567 50.6633 53.3515 50.6569 53.3449C50.6506 53.3383 50.6457 53.3305 50.6424 53.322C50.6391 53.3135 50.6375 53.3044 50.6377 53.2953C50.686 51.1659 50.6475 49.0087 50.5236 46.8829C50.5225 46.8651 50.5284 46.8475 50.54 46.8339C50.5516 46.8203 50.568 46.8117 50.5858 46.8099L65.2927 45.3351C65.3096 45.3333 65.3267 45.3379 65.3404 45.348C65.3542 45.3581 65.3638 45.3729 65.3672 45.3896C66.2258 49.5278 66.7889 53.7217 67.0524 57.9398C67.0533 57.9581 67.0471 57.9761 67.035 57.9898C67.0229 58.0036 67.0058 58.012 66.9876 58.0133H66.9819Z" fill="#002E5D"/>
<path d="M66.9124 69.266H66.9057L52.6102 67.8298C52.6007 67.8295 52.5913 67.8272 52.5827 67.8232C52.5741 67.8191 52.5665 67.8133 52.5602 67.8062C52.5539 67.799 52.5492 67.7906 52.5463 67.7816C52.5434 67.7725 52.5424 67.7629 52.5433 67.7535C52.5443 67.744 52.5472 67.7348 52.5518 67.7265C52.5565 67.7182 52.5628 67.7109 52.5704 67.7052C52.5779 67.6994 52.5866 67.6953 52.5959 67.693C52.6051 67.6907 52.6147 67.6904 52.6241 67.692L66.8481 69.121C66.9561 67.5583 67.025 65.9734 67.0538 64.4086C67.053 64.3991 67.0542 64.3894 67.0573 64.3803C67.0604 64.3712 67.0653 64.3628 67.0718 64.3557C67.0783 64.3487 67.0862 64.343 67.095 64.3391C67.1038 64.3352 67.1134 64.3333 67.123 64.3333C67.1326 64.3333 67.1421 64.3352 67.1509 64.3391C67.1597 64.343 67.1676 64.3487 67.1741 64.3557C67.1806 64.3628 67.1856 64.3712 67.1887 64.3803C67.1918 64.3894 67.193 64.3991 67.1921 64.4086C67.1628 65.9997 67.0893 67.6112 66.9808 69.1992C66.9804 69.2085 66.978 69.2176 66.9738 69.2259C66.9697 69.2342 66.9638 69.2416 66.9566 69.2475C66.9446 69.2588 66.9289 69.2653 66.9124 69.266Z" fill="#002E5D"/>
<path d="M57.2587 51.499C57.2403 51.4995 57.2225 51.4926 57.2091 51.4799C57.1958 51.4673 57.188 51.4498 57.1875 51.4314C57.187 51.413 57.1939 51.3951 57.2066 51.3818C57.2193 51.3684 57.2367 51.3606 57.2551 51.3602L63.8373 51.03C63.8548 51.0304 63.8715 51.0375 63.8841 51.0497C63.8967 51.062 63.9041 51.0785 63.905 51.0961C63.9058 51.1136 63.9 51.1308 63.8887 51.1442C63.8774 51.1576 63.8614 51.1663 63.8439 51.1684L57.2618 51.4985L57.2587 51.499Z" fill="#002E5D"/>
<path d="M53.0283 55.3166C53.011 55.3151 52.9949 55.3072 52.9831 55.2944C52.9714 55.2816 52.9648 55.2648 52.9648 55.2475C52.9648 55.2301 52.9714 55.2133 52.9831 55.2005C52.9949 55.1877 53.011 55.1798 53.0283 55.1783L64.2276 55.0076C64.2461 55.0076 64.2637 55.0149 64.2767 55.0279C64.2898 55.0409 64.2971 55.0586 64.2971 55.077C64.2971 55.0954 64.2898 55.1131 64.2767 55.1261C64.2637 55.1391 64.2461 55.1464 64.2276 55.1464L53.0262 55.3166H53.0283Z" fill="#002E5D"/>
<path d="M64.4274 59.137L52.8413 58.9179C52.8322 58.9177 52.8232 58.9157 52.8149 58.9121C52.8065 58.9084 52.799 58.9031 52.7927 58.8965C52.7864 58.8899 52.7814 58.8821 52.7781 58.8736C52.7748 58.8651 52.7733 58.8561 52.7735 58.847C52.7735 58.8378 52.7754 58.8288 52.779 58.8205C52.7826 58.8121 52.7878 58.8045 52.7944 58.7982C52.801 58.7919 52.8087 58.7869 52.8172 58.7836C52.8257 58.7804 52.8348 58.7788 52.8439 58.7791L64.4299 58.9981C64.4484 58.9981 64.466 59.0055 64.479 59.0185C64.4921 59.0315 64.4994 59.0492 64.4994 59.0676C64.4994 59.086 64.4921 59.1036 64.479 59.1167C64.466 59.1297 64.4484 59.137 64.4299 59.137H64.4274Z" fill="#002E5D"/>
<path d="M64.4311 63.1323L52.4768 62.5065C52.4673 62.5067 52.4579 62.5049 52.4491 62.5012C52.4403 62.4976 52.4323 62.4922 52.4257 62.4853C52.4191 62.4785 52.414 62.4703 52.4106 62.4614C52.4073 62.4525 52.4058 62.443 52.4063 62.4335C52.4068 62.424 52.4093 62.4147 52.4135 62.4062C52.4178 62.3976 52.4237 62.3901 52.431 62.384C52.4383 62.3778 52.4467 62.3733 52.4559 62.3706C52.465 62.3678 52.4746 62.367 52.484 62.3682L64.4362 62.994C64.4535 62.9959 64.4695 63.0042 64.481 63.0173C64.4925 63.0304 64.4986 63.0474 64.4981 63.0648C64.4977 63.0822 64.4907 63.0988 64.4785 63.1113C64.4664 63.1239 64.45 63.1313 64.4326 63.1323H64.4311Z" fill="#002E5D"/>
<path d="M57.2383 45.5113L58.8571 48.3426L59.4289 44.9343L57.2383 45.5113Z" fill="#454E54"/>
<path d="M58.5793 46.6289C59.506 46.3901 60.1394 45.7393 59.9941 45.1754C59.8487 44.6115 58.9797 44.348 58.053 44.5868C57.1262 44.8257 56.4928 45.4764 56.6382 46.0403C56.7835 46.6042 57.6526 46.8678 58.5793 46.6289Z" fill="#454E54"/>
<path d="M64.3444 22.7741L47.1562 25.6504L47.8347 29.7047L65.0229 26.8284L64.3444 22.7741Z" fill="#F3F8FF"/>
<path d="M68.142 32.4309H50.7148V36.5416H68.142V32.4309Z" fill="#F3F8FF"/>
<path d="M47.3429 52.7177L31.6602 53.6797L31.9118 57.7827L47.5946 56.8208L47.3429 52.7177Z" fill="#F3F8FF"/>
<path d="M48.0806 29.9982L47.5967 29.4094L47.2156 30.0779C47.1754 30.1505 47.1271 30.2183 47.0717 30.28C47.0282 30.3228 46.9706 30.3483 46.9097 30.3515C46.8397 30.36 46.7691 30.3416 46.7122 30.3001C46.6863 30.2828 46.6645 30.26 46.6484 30.2333C46.6323 30.2067 46.6223 30.1768 46.6191 30.1458C46.6137 30.0837 46.6459 29.9915 46.7158 29.8691L47.1786 29.0577L46.6484 28.4637C46.5569 28.3666 46.5075 28.2786 46.5009 28.201C46.4981 28.171 46.502 28.1407 46.5122 28.1124C46.5224 28.084 46.5387 28.0583 46.56 28.0369C46.6079 27.9858 46.6736 27.9549 46.7436 27.9506C46.8058 27.9427 46.8687 27.9579 46.9205 27.9932C46.9849 28.043 47.0437 28.0998 47.0958 28.1624L47.5247 28.6499L47.8487 28.094C47.8884 28.0219 47.9366 27.9548 47.9921 27.894C48.0368 27.8515 48.0951 27.8262 48.1567 27.8225C48.2267 27.8138 48.2974 27.831 48.3557 27.8708C48.3812 27.8878 48.4026 27.9102 48.4183 27.9364C48.4341 27.9627 48.4438 27.9921 48.4467 28.0225C48.4508 28.0672 48.4439 28.1123 48.4266 28.1537C48.4039 28.2076 48.3762 28.2592 48.3439 28.3079L47.9294 28.9872L48.531 29.7025C48.6256 29.8146 48.675 29.9005 48.6807 29.9596C48.6834 29.9905 48.6791 30.0215 48.6681 30.0504C48.6572 30.0794 48.6399 30.1055 48.6174 30.1268C48.5679 30.1765 48.5019 30.2065 48.4318 30.2111C48.3695 30.2184 48.3068 30.203 48.2549 30.1679C48.19 30.1187 48.1315 30.0617 48.0806 29.9982Z" fill="#454E54"/>
<path d="M50.3814 29.7899L49.8975 29.2006L49.516 29.8691C49.4761 29.9418 49.4279 30.0096 49.3725 30.0712C49.329 30.1141 49.2714 30.1395 49.2105 30.1427C49.1405 30.1512 49.0699 30.1329 49.013 30.0913C48.9871 30.074 48.9653 30.0513 48.9492 30.0246C48.9331 29.9979 48.9231 29.968 48.92 29.937C48.9145 29.8753 48.9467 29.7833 49.0166 29.6609L49.4794 28.8489L48.9493 28.2555C48.8577 28.1578 48.8085 28.0702 48.8017 27.9927C48.7989 27.9628 48.8026 27.9325 48.8128 27.9042C48.8229 27.8759 48.8391 27.8501 48.8603 27.8287C48.9094 27.7779 48.9759 27.7477 49.0465 27.7444C49.1087 27.7365 49.1716 27.7517 49.2234 27.787C49.2878 27.8367 49.3464 27.8935 49.3982 27.9562L49.8276 28.4437L50.151 27.8878C50.1908 27.8156 50.2391 27.7484 50.295 27.6878C50.3395 27.645 50.3979 27.6196 50.4596 27.6163C50.5296 27.6074 50.6004 27.6246 50.6586 27.6646C50.6844 27.6818 50.706 27.7046 50.7217 27.7314C50.7375 27.7581 50.747 27.788 50.7496 27.8189C50.7534 27.8636 50.7466 27.9086 50.7295 27.95C50.7067 28.0039 50.679 28.0555 50.6467 28.1043L50.2323 28.7836L50.8349 29.4932C50.929 29.6048 50.9789 29.6912 50.9846 29.7504C50.9872 29.7811 50.9829 29.812 50.9719 29.8409C50.961 29.8697 50.9437 29.8957 50.9213 29.917C50.8721 29.9671 50.8059 29.9972 50.7357 30.0013C50.6735 30.0087 50.6107 29.9936 50.5588 29.9586C50.4929 29.9099 50.4333 29.8533 50.3814 29.7899Z" fill="#454E54"/>
<path d="M52.6822 29.5812L52.1978 28.9924L51.8168 29.6609C51.7768 29.7335 51.7286 29.8013 51.6733 29.863C51.6297 29.9056 51.5722 29.931 51.5113 29.9345C51.4414 29.9427 51.3709 29.9244 51.3139 29.883C51.2879 29.8658 51.2661 29.843 51.25 29.8163C51.2339 29.7897 51.2239 29.7598 51.2208 29.7288C51.2153 29.6671 51.2475 29.575 51.3175 29.4526L51.7803 28.6407L51.2501 28.0472C51.1586 27.9495 51.1094 27.8619 51.1025 27.7845C51.0996 27.7544 51.1034 27.7241 51.1135 27.6957C51.1236 27.6672 51.1399 27.6414 51.1611 27.6199C51.2102 27.5693 51.2768 27.5393 51.3473 27.5361C51.4095 27.5278 51.4726 27.5431 51.5242 27.5788C51.5886 27.6283 51.6472 27.6849 51.699 27.7474L52.1284 28.2349L52.4518 27.6796C52.4916 27.6073 52.54 27.5402 52.5958 27.4795C52.6403 27.4367 52.6987 27.4114 52.7604 27.4081C52.8304 27.3991 52.9013 27.4164 52.9594 27.4564C52.985 27.4732 53.0066 27.4955 53.0223 27.5218C53.0381 27.5481 53.0477 27.5776 53.0504 27.6081C53.0542 27.6528 53.0473 27.6977 53.0304 27.7392C53.0074 27.793 52.9797 27.8446 52.9476 27.8935L52.5331 28.5728L53.1358 29.2876C53.23 29.399 53.2799 29.4847 53.2854 29.5447C53.288 29.5754 53.2837 29.6063 53.2728 29.6352C53.2618 29.664 53.2445 29.69 53.2222 29.7113C53.1729 29.7615 53.1067 29.7915 53.0365 29.7956C52.9743 29.8031 52.9115 29.788 52.8596 29.7529C52.7935 29.7034 52.7339 29.6457 52.6822 29.5812Z" fill="#454E54"/>
<path d="M54.9822 29.3728L54.4984 28.784L54.1173 29.4525C54.0772 29.525 54.029 29.5928 53.9738 29.6546C53.9302 29.6971 53.8727 29.7223 53.8119 29.7256C53.7419 29.7339 53.6714 29.7155 53.6144 29.6742C53.5885 29.6569 53.5667 29.6341 53.5506 29.6074C53.5345 29.5808 53.5245 29.5509 53.5213 29.5199C53.5157 29.4582 53.5476 29.3656 53.618 29.2437L54.0808 28.4318L53.5512 27.8384C53.4596 27.7407 53.4103 27.6532 53.4031 27.5751C53.4006 27.5451 53.4046 27.5149 53.4148 27.4866C53.425 27.4583 53.4412 27.4325 53.4622 27.411C53.5112 27.3602 53.5778 27.33 53.6483 27.3267C53.7106 27.319 53.7735 27.3344 53.8252 27.3699C53.8897 27.4194 53.9483 27.476 54.0001 27.5386L54.4295 28.0261L54.7529 27.4707C54.7925 27.3984 54.8409 27.3312 54.8969 27.2707C54.9412 27.228 54.9995 27.2026 55.0609 27.1992C55.131 27.19 55.2019 27.2072 55.2599 27.2475C55.2856 27.2641 55.3071 27.2864 55.3229 27.3126C55.3387 27.3388 55.3483 27.3682 55.351 27.3987C55.355 27.4435 55.3483 27.4886 55.3314 27.5303C55.3085 27.5841 55.2808 27.6358 55.2486 27.6846L54.8336 28.3634L55.4358 29.0787C55.5299 29.1908 55.5798 29.2767 55.5854 29.3358C55.5881 29.3665 55.5837 29.3975 55.5728 29.4263C55.5618 29.4551 55.5445 29.4812 55.5222 29.5024C55.4726 29.5525 55.4064 29.5825 55.336 29.5867C55.274 29.5942 55.2114 29.579 55.1597 29.5441C55.0938 29.4944 55.0342 29.4369 54.9822 29.3728Z" fill="#454E54"/>
<path d="M54.02 36.6636L53.6667 35.9884L53.1571 36.5638C53.103 36.6267 53.0419 36.6833 52.975 36.7325C52.9239 36.7655 52.8624 36.7785 52.8023 36.769C52.7319 36.7627 52.6666 36.7298 52.6197 36.677C52.5979 36.6549 52.5813 36.6283 52.5709 36.599C52.5605 36.5698 52.5566 36.5387 52.5595 36.5078C52.5667 36.4461 52.6171 36.3624 52.7107 36.2568L53.3304 35.557L52.9329 34.8674C52.8643 34.7532 52.834 34.6574 52.8419 34.5799C52.8455 34.55 52.8555 34.5213 52.8713 34.4956C52.8871 34.47 52.9083 34.448 52.9334 34.4313C52.9916 34.3916 53.0628 34.3758 53.1324 34.3871C53.195 34.3919 53.2537 34.4197 53.2969 34.4653C53.3501 34.5268 53.396 34.5943 53.4337 34.6663L53.7541 35.232L54.1845 34.7543C54.2382 34.6915 54.2993 34.6356 54.3665 34.5876C54.4187 34.5549 54.481 34.5419 54.5419 34.5511C54.6121 34.557 54.6777 34.5883 54.7265 34.6391C54.7482 34.6607 54.7647 34.687 54.7748 34.7159C54.7849 34.7449 54.7882 34.7758 54.7846 34.8062C54.7794 34.8507 54.7637 34.8934 54.7388 34.9306C54.7053 34.9786 54.6676 35.0235 54.6262 35.0648L54.0817 35.6449L54.5244 36.4677C54.593 36.5962 54.6243 36.6907 54.6185 36.751C54.6148 36.7816 54.6042 36.811 54.5875 36.837C54.5709 36.863 54.5486 36.8849 54.5224 36.9012C54.4638 36.9401 54.3929 36.9561 54.3233 36.9459C54.2609 36.9405 54.2025 36.9127 54.1588 36.8677C54.1043 36.8056 54.0577 36.7371 54.02 36.6636Z" fill="#325D9C"/>
<path d="M56.3164 36.93L55.9632 36.2543L55.4541 36.8297C55.3997 36.8924 55.3387 36.9489 55.272 36.9984C55.2207 37.0313 55.159 37.0443 55.0988 37.0349C55.0284 37.0284 54.9632 36.9955 54.9162 36.9428C54.8944 36.9208 54.8777 36.8942 54.8674 36.8649C54.8571 36.8357 54.8534 36.8045 54.8566 36.7736C54.8638 36.7119 54.9141 36.6286 55.0077 36.5227L55.6248 35.8228L55.2268 35.1338C55.1574 35.0196 55.127 34.9235 55.1358 34.8463C55.1392 34.8164 55.1492 34.7875 55.165 34.7618C55.1808 34.7361 55.2021 34.7143 55.2273 34.6977C55.2854 34.6577 55.3567 34.6416 55.4263 34.653C55.4889 34.6581 55.5474 34.6859 55.5909 34.7311C55.6439 34.7928 55.6898 34.8602 55.7277 34.9322L56.0485 35.4978L56.4789 35.0201C56.5325 34.9575 56.5934 34.9015 56.6605 34.8535C56.7126 34.8207 56.7749 34.8078 56.8358 34.817C56.9063 34.8227 56.9722 34.8542 57.0209 34.9055C57.0426 34.927 57.0591 34.9532 57.0691 34.9821C57.0792 35.0109 57.0826 35.0417 57.079 35.0721C57.0739 35.1167 57.058 35.1594 57.0328 35.1965C56.9992 35.2445 56.9616 35.2894 56.9201 35.3307L56.3756 35.9108L56.8188 36.7335C56.8874 36.8621 56.9186 36.9565 56.9124 37.0169C56.9087 37.0475 56.8981 37.0769 56.8815 37.1029C56.8648 37.1289 56.8425 37.1508 56.8163 37.167C56.7578 37.206 56.6869 37.222 56.6173 37.2118C56.5548 37.2063 56.4964 37.1786 56.4527 37.1336C56.3993 37.0714 56.3536 37.003 56.3164 36.93Z" fill="#325D9C"/>
<path d="M60.9106 37.4637L60.5573 36.788L60.0477 37.3608C59.9937 37.4239 59.9326 37.4805 59.8657 37.5295C59.8146 37.5626 59.7531 37.5758 59.6929 37.5665C59.6226 37.56 59.5574 37.5271 59.5103 37.4745C59.4886 37.4522 59.4719 37.4256 59.4615 37.3963C59.4511 37.3669 59.4472 37.3357 59.4502 37.3048C59.4574 37.2431 59.5078 37.1596 59.6013 37.0543L60.2184 36.354L59.8209 35.6649C59.7524 35.5507 59.722 35.4549 59.7299 35.3774C59.7333 35.3475 59.7433 35.3186 59.7591 35.2929C59.7749 35.2673 59.7962 35.2454 59.8214 35.2288C59.8796 35.189 59.9508 35.173 60.0204 35.1841C60.083 35.1892 60.1415 35.217 60.185 35.2623C60.238 35.3239 60.2839 35.3914 60.3218 35.4633L60.6421 36.029L61.0725 35.5513C61.1262 35.4887 61.1874 35.4329 61.2546 35.3852C61.3068 35.3524 61.369 35.3394 61.4299 35.3486C61.5002 35.3541 61.566 35.3854 61.6145 35.4366C61.6363 35.4582 61.6528 35.4845 61.6629 35.5134C61.673 35.5424 61.6763 35.5733 61.6726 35.6037C61.6674 35.6481 61.6517 35.6905 61.6269 35.7276C61.5934 35.7756 61.5557 35.8205 61.5143 35.8618L60.9697 36.4424L61.413 37.2652C61.4819 37.3942 61.5158 37.4883 61.5066 37.5485C61.5029 37.5792 61.4923 37.6087 61.4757 37.6348C61.459 37.6609 61.4367 37.6829 61.4104 37.6992C61.3517 37.7378 61.2809 37.7536 61.2114 37.7434C61.149 37.7379 61.0907 37.7104 61.0468 37.6658C60.9934 37.6042 60.9476 37.5363 60.9106 37.4637Z" fill="#325D9C"/>
<path d="M35.0574 58.1711L34.5493 57.6028L34.1955 58.2857C34.1584 58.36 34.113 58.4299 34.0603 58.494C34.0186 58.5386 33.9621 58.5664 33.9014 58.5722C33.8318 58.583 33.7606 58.567 33.7024 58.5274C33.6758 58.5113 33.6531 58.4896 33.6358 58.4637C33.6186 58.4378 33.6072 58.4085 33.6026 58.3778C33.5944 58.3166 33.6227 58.2235 33.6875 58.098L34.1163 57.267L33.563 56.6957C33.4674 56.6022 33.4144 56.5163 33.4041 56.4386C33.4002 56.4088 33.4028 56.3785 33.4117 56.3497C33.4205 56.321 33.4355 56.2945 33.4555 56.272C33.5022 56.2192 33.5674 56.1862 33.6376 56.18C33.6994 56.1697 33.7628 56.1823 33.816 56.2155C33.8827 56.2621 33.9437 56.3163 33.998 56.3769L34.4475 56.8459L34.7473 56.2772C34.784 56.2034 34.8294 56.1344 34.8825 56.0715C34.9252 56.0269 34.9825 55.9991 35.044 55.9933C35.1134 55.9815 35.1848 55.9956 35.2445 56.0329C35.2709 56.0486 35.2933 56.0701 35.3102 56.0958C35.327 56.1214 35.3378 56.1506 35.3417 56.181C35.3479 56.2254 35.3431 56.2705 35.3278 56.3126C35.3072 56.3674 35.2817 56.4202 35.2517 56.4705L34.8661 57.1663L35.4975 57.8558C35.5963 57.9631 35.6497 58.047 35.658 58.1073C35.6619 58.1379 35.6588 58.169 35.649 58.1983C35.6392 58.2276 35.6229 58.2543 35.6014 58.2765C35.5544 58.3289 35.4894 58.3617 35.4194 58.3685C35.3576 58.379 35.2942 58.3666 35.2409 58.3336C35.1734 58.2871 35.1117 58.2325 35.0574 58.1711Z" fill="#F70431"/>
<path d="M37.3481 57.8657L36.84 57.3001L36.4873 57.9814C36.4502 58.0549 36.4048 58.1239 36.352 58.1871C36.3104 58.2317 36.2539 58.2595 36.1931 58.2653C36.1235 58.2761 36.0524 58.2601 35.9941 58.2205C35.9674 58.2047 35.9446 58.1831 35.9274 58.1573C35.9101 58.1315 35.8988 58.1021 35.8944 58.0714C35.8861 58.0097 35.9144 57.9163 35.9792 57.7911L36.4065 56.9622L35.8522 56.3914C35.7566 56.2978 35.7036 56.2121 35.6933 56.1343C35.6892 56.1046 35.6917 56.0743 35.7006 56.0456C35.7095 56.0169 35.7246 55.9905 35.7447 55.9682C35.7915 55.9153 35.8569 55.8823 35.9273 55.8762C35.989 55.8657 36.0525 55.8781 36.1057 55.9111C36.1721 55.9581 36.2332 56.0123 36.2878 56.0726L36.7372 56.5416L37.039 55.9759C37.0756 55.9021 37.121 55.833 37.1743 55.7702C37.2168 55.7258 37.274 55.698 37.3352 55.6921C37.4049 55.6802 37.4765 55.6945 37.5363 55.7322C37.5626 55.7478 37.585 55.7692 37.6019 55.7948C37.6187 55.8204 37.6295 55.8494 37.6335 55.8798C37.6397 55.9241 37.6349 55.9693 37.6196 56.0114C37.599 56.0662 37.5735 56.119 37.5435 56.1693L37.1573 56.865L37.7893 57.5546C37.888 57.6623 37.9413 57.7461 37.9492 57.8061C37.9532 57.8367 37.9502 57.8678 37.9405 57.897C37.9308 57.9263 37.9146 57.9531 37.8932 57.9752C37.8461 58.0276 37.7812 58.0604 37.7111 58.0673C37.6494 58.0778 37.5859 58.0653 37.5327 58.0323C37.4645 57.9846 37.4025 57.9286 37.3481 57.8657Z" fill="#F70431"/>
<path d="M41.9325 57.2553L41.424 56.6897L41.0712 57.3726C41.0341 57.4459 40.9889 57.5149 40.9365 57.5783C40.8948 57.6227 40.8383 57.6503 40.7776 57.6559C40.7079 57.6672 40.6365 57.6513 40.5781 57.6117C40.5515 57.5956 40.5288 57.5738 40.5115 57.548C40.4943 57.5221 40.4829 57.4928 40.4783 57.462C40.4701 57.4003 40.4984 57.3078 40.5637 57.1818L40.9925 56.3513L40.4377 55.7805C40.3427 55.6869 40.2899 55.6012 40.2793 55.5234C40.2752 55.4936 40.2776 55.4632 40.2865 55.4344C40.2954 55.4056 40.3105 55.3791 40.3307 55.3568C40.3773 55.3038 40.4425 55.2708 40.5128 55.2648C40.5746 55.254 40.6382 55.2667 40.6912 55.3002C40.7578 55.347 40.819 55.4009 40.8738 55.4612L41.3227 55.9302L41.623 55.3614C41.6594 55.2876 41.7049 55.2185 41.7582 55.1557C41.8007 55.1111 41.8578 55.0831 41.9192 55.0771C41.9889 55.0652 42.0604 55.0795 42.1202 55.1172C42.1464 55.133 42.1687 55.1545 42.1855 55.18C42.2023 55.2055 42.2132 55.2345 42.2174 55.2648C42.2231 55.3093 42.2182 55.3546 42.203 55.3969C42.1826 55.4516 42.1571 55.5043 42.1269 55.5543L41.7413 56.2505L42.3743 56.9406C42.473 57.0486 42.5265 57.1326 42.5347 57.1926C42.5389 57.2237 42.5358 57.2554 42.5258 57.2851C42.5159 57.3149 42.4992 57.342 42.4771 57.3643C42.4297 57.4162 42.365 57.4489 42.2951 57.4564C42.2333 57.4663 42.17 57.4537 42.1166 57.4209C42.0486 57.3736 41.9867 57.318 41.9325 57.2553Z" fill="#F70431"/>
<path d="M55.9671 12.7943L38.9766 13.8364L39.4044 20.8117L56.3949 19.7695L55.9671 12.7943Z" fill="#325D9C"/>
<path d="M44.5262 14.6928C44.4879 14.693 44.451 14.6782 44.4234 14.6516C43.8204 14.0793 43.3978 13.3433 43.2073 12.5341C43.0168 11.7249 43.0668 10.8777 43.3511 10.0965C43.6354 9.31529 44.1417 8.63413 44.8077 8.13665C45.4738 7.63917 46.2706 7.34703 47.1004 7.2961C47.9301 7.24518 48.7567 7.43768 49.4786 7.84997C50.2005 8.26227 50.7862 8.8764 51.1639 9.61696C51.5417 10.3575 51.6949 11.1923 51.6048 12.0187C51.5147 12.8451 51.1852 13.6273 50.6568 14.269C50.6448 14.2855 50.6295 14.2993 50.6119 14.3096C50.5943 14.3199 50.5748 14.3265 50.5546 14.329C50.5344 14.3316 50.5139 14.3299 50.4943 14.3242C50.4748 14.3185 50.4566 14.3089 50.4409 14.2959C50.4251 14.2829 50.4122 14.2669 50.403 14.2488C50.3937 14.2306 50.3882 14.2108 50.3868 14.1905C50.3855 14.1701 50.3883 14.1497 50.3951 14.1305C50.4019 14.1113 50.4126 14.0937 50.4264 14.0788C50.9172 13.482 51.2231 12.7549 51.3065 11.9867C51.3899 11.2186 51.2471 10.4428 50.8959 9.7546C50.5446 9.0664 50 8.49575 49.329 8.11269C48.6579 7.72962 47.8896 7.55082 47.1184 7.59823C46.3472 7.64563 45.6066 7.91718 44.9876 8.37955C44.3685 8.84191 43.8979 9.47497 43.6335 10.201C43.3692 10.927 43.3226 11.7145 43.4994 12.4666C43.6763 13.2188 44.0689 13.903 44.629 14.4351C44.6506 14.4557 44.6656 14.4822 44.6719 14.5114C44.6783 14.5405 44.6757 14.5708 44.6647 14.5985C44.6536 14.6262 44.6345 14.6499 44.6098 14.6666C44.5851 14.6833 44.556 14.6923 44.5262 14.6923V14.6928Z" fill="#002E5D"/>
<path d="M53.359 18.5495C53.3343 18.5494 53.3101 18.5433 53.2884 18.5317C53.2667 18.52 53.2482 18.5032 53.2345 18.4826L50.4196 14.2567C50.3999 14.2237 50.3936 14.1844 50.4021 14.1469C50.4106 14.1094 50.4332 14.0766 50.4652 14.0553C50.4972 14.034 50.5362 14.0259 50.574 14.0325C50.6119 14.0392 50.6457 14.0602 50.6685 14.0911L53.4834 18.317C53.505 18.3499 53.5127 18.3899 53.5049 18.4285C53.4971 18.467 53.4744 18.5009 53.4418 18.5227C53.4175 18.5398 53.3886 18.5491 53.359 18.5495Z" fill="#002E5D"/>
<path d="M42.2505 19.2312C42.2251 19.2311 42.2001 19.2245 42.1779 19.212C42.1557 19.1996 42.1371 19.1817 42.1238 19.16C42.1104 19.1383 42.1028 19.1136 42.1017 19.0882C42.1006 19.0628 42.106 19.0375 42.1173 19.0147L44.3938 14.4777C44.4122 14.4432 44.4433 14.4173 44.4805 14.4055C44.5177 14.3936 44.5581 14.3968 44.593 14.4143C44.6279 14.4319 44.6546 14.4623 44.6673 14.4992C44.6801 14.5362 44.6779 14.5766 44.6612 14.6119L42.3847 19.15C42.3721 19.1746 42.3528 19.1952 42.3291 19.2096C42.3054 19.2239 42.2782 19.2314 42.2505 19.2312Z" fill="#002E5D"/>
<path d="M56.5655 87.0048H7.25117C7.24159 87.0056 7.23194 87.0045 7.22283 87.0014C7.21372 86.9983 7.20536 86.9933 7.19827 86.9868C7.19118 86.9803 7.18552 86.9724 7.18165 86.9636C7.17778 86.9548 7.17578 86.9452 7.17578 86.9356C7.17578 86.926 7.17778 86.9165 7.18165 86.9077C7.18552 86.8989 7.19118 86.891 7.19827 86.8845C7.20536 86.878 7.21372 86.873 7.22283 86.8699C7.23194 86.8668 7.24159 86.8656 7.25117 86.8665H56.5655C56.5751 86.8656 56.5848 86.8668 56.5939 86.8699C56.603 86.873 56.6113 86.878 56.6184 86.8845C56.6255 86.891 56.6312 86.8989 56.6351 86.9077C56.6389 86.9165 56.6409 86.926 56.6409 86.9356C56.6409 86.9452 56.6389 86.9548 56.6351 86.9636C56.6312 86.9724 56.6255 86.9803 56.6184 86.9868C56.6113 86.9933 56.603 86.9983 56.5939 87.0014C56.5848 87.0045 56.5751 87.0056 56.5655 87.0048Z" fill="#002E5D"/>
<path d="M88.6025 89.4306H50.5929C50.5744 89.4306 50.5568 89.4233 50.5438 89.4103C50.5308 89.3972 50.5234 89.3796 50.5234 89.3612C50.5234 89.3428 50.5308 89.3251 50.5438 89.3121C50.5568 89.2991 50.5744 89.2917 50.5929 89.2917H88.6025C88.6209 89.2917 88.6385 89.2991 88.6515 89.3121C88.6646 89.3251 88.6719 89.3428 88.6719 89.3612C88.6719 89.3796 88.6646 89.3972 88.6515 89.4103C88.6385 89.4233 88.6209 89.4306 88.6025 89.4306Z" fill="#002E5D"/>
<path d="M12.6634 49.9277L11.4468 51.929L10.1406 49.9277L11.4468 47.9258L12.6634 49.9277Z" fill="#C9DAF4"/>
<path d="M84.8392 21.0837L83.6231 23.0856L82.3164 21.0837L83.6231 19.0818L84.8392 21.0837Z" fill="#C9DAF4"/>
<path d="M30.5977 64.0293L33.1642 64.4042C33.2265 64.4137 33.2903 64.4088 33.3505 64.3897C33.4106 64.3707 33.4656 64.3381 33.5112 64.2944C33.5567 64.2507 33.5916 64.1971 33.6131 64.1377C33.6346 64.0784 33.6422 64.0149 33.6352 63.9522L33.3663 61.3723L30.5977 64.0293Z" fill="#002E5D"/>
<path d="M2.83809 29.5645L1.28906 31.051L31.8149 62.8608L33.3639 61.3743L2.83809 29.5645Z" fill="white"/>
<path d="M1.61934 30.7349L0.0703125 32.2214L30.5961 64.0312L32.1451 62.5447L1.61934 30.7349Z" fill="#F70431"/>
<path d="M30.5966 64.1006C30.587 64.1009 30.5775 64.0992 30.5686 64.0956C30.5598 64.0919 30.5518 64.0865 30.5452 64.0795L0.0196286 32.27C0.0129891 32.2632 0.00782395 32.2552 0.0044603 32.2463C0.00109664 32.2375 -0.000392218 32.228 8.80122e-05 32.2186C0.000619696 32.2002 0.00816316 32.1827 0.0211713 32.1697L2.78977 29.5137C2.79617 29.5073 2.80378 29.5022 2.81217 29.4987C2.82055 29.4952 2.82954 29.4934 2.83862 29.4934C2.8477 29.4934 2.85669 29.4952 2.86507 29.4987C2.87346 29.5022 2.88107 29.5073 2.88747 29.5137L33.4146 61.3238C33.421 61.3302 33.4261 61.3378 33.4296 61.3462C33.4331 61.3546 33.4349 61.3636 33.4349 61.3726C33.4349 61.3817 33.4331 61.3907 33.4296 61.3991C33.4261 61.4075 33.421 61.4151 33.4146 61.4215L30.6465 64.0785C30.6401 64.0854 30.6323 64.0908 30.6238 64.0946C30.6152 64.0984 30.606 64.1005 30.5966 64.1006ZM0.167212 32.2227L30.5966 63.9309L33.2649 61.3701L2.83554 29.6618L0.167212 32.2227Z" fill="#002E5D"/>
</g>
<defs>
<clipPath id="clip0_2620_28493">
<rect width="96" height="96" fill="white"/>
</clipPath>
</defs>
</svg>
