<svg width="167" height="143" fill="none" xmlns="http://www.w3.org/2000/svg"><g clip-path="url(#a)"><path d="M153.826 10.66 14.875 2.373 9.962 85.385l138.952 8.287 4.912-83.012Z" fill="#F3F8FF"/><path d="M20.271 18.491 4.711 20.44l.4 3.205 15.558-1.948-.398-3.206Zm.665 5.343L5.377 25.783l.398 3.205 15.56-1.948-.399-3.206ZM117.649-.001l-4.587 15.051 3.078.945L120.727.944l-3.078-.945Zm5.13 1.575-4.587 15.051 3.078.945 4.587-15.051-3.078-.945Z" fill="#BBD1DC"/><path d="M159.01 71.124c2.429 0 4.399-1.977 4.399-4.416s-1.97-4.416-4.399-4.416c-2.429 0-4.399 1.977-4.399 4.416s1.97 4.416 4.399 4.416Z" fill="#F0F0FF"/><path d="M122.414 102.322c-14.101 19.466-44.968 21.057-68.943 3.553-23.975-17.504-31.98-47.472-17.878-66.94 14.1-19.47 44.967-21.057 68.942-3.553a74.752 74.752 0 0 1 2.552 1.957c5.665 4.566 10.331 9.85 13.902 15.497.417.659.819 1.322 1.205 1.99 9.165 15.833 9.897 34.138.22 47.496Z" fill="#6FA0FF"/><path d="M109.521 92.919c9.914-13.683 4.289-34.752-12.565-47.058-16.853-12.306-38.553-11.189-48.467 2.495-9.914 13.683-4.288 34.752 12.565 47.058 16.853 12.305 38.553 11.189 48.467-2.495Z" fill="#fff"/><path d="M103.003 51.516a.393.393 0 0 1-.284-.12 46.559 46.559 0 0 0-11.957-8.918.397.397 0 0 1 .363-.706 47.349 47.349 0 0 1 12.162 9.069.397.397 0 0 1-.284.673v.002ZM46.485 77.842a.395.395 0 0 1-.364-.24c-2.175-5.075-3.165-10.404-2.871-15.413.306-5.19 2.005-10.055 4.917-14.072 3.408-4.703 8.335-8.116 14.255-9.867 5.74-1.694 12.186-1.782 18.64-.246a.396.396 0 0 1 .117.725.394.394 0 0 1-.3.049c-13.134-3.13-25.427.629-32.074 9.807-5.61 7.743-6.342 18.474-1.96 28.703a.4.4 0 0 1-.362.554h.002Z" fill="#002E5D"/><path d="M93.252 81.04c4.629-6.388 2.002-16.225-5.866-21.97-7.868-5.745-17.999-5.224-22.627 1.165-4.629 6.388-2.002 16.224 5.866 21.97 7.868 5.745 17.999 5.223 22.627-1.165Z" fill="#BBD1DC"/><path d="M122.195 54.83 78.761 69.386a1.127 1.127 0 0 1-1.463-.707 1.141 1.141 0 0 1 .351-1.233 1.12 1.12 0 0 1 .396-.213l42.942-14.392c.419.66.822 1.323 1.208 1.99Zm-15.103-17.487L72.438 69.31a1.128 1.128 0 0 1-1.572-.091 1.138 1.138 0 0 1 .043-1.58l34.366-31.706c.615.464 1.221.934 1.817 1.41Z" fill="#5C76CC" style="mix-blend-mode:multiply" opacity=".38"/><path d="m119.47 46.073 3.111-10.081 7.835-4.174-.307 4.375 3.941-6.31 2.158-1.15-2.317 9.66-14.421 7.68Z" fill="#325D9C"/><path d="m119.47 46.073 10.06 3.066 3.52-1.875-2.645-2.804 5.029 1.534 7.722-4.114-9.265-3.488-14.421 7.681Z" fill="#325D9C"/><path d="M78.025 69.285a1.128 1.128 0 0 1-1.095-.862 1.14 1.14 0 0 1 .567-1.276l56.624-30.162a1.126 1.126 0 0 1 1.482.498 1.142 1.142 0 0 1-.427 1.509l-56.622 30.16a1.12 1.12 0 0 1-.529.133Z" fill="#002E5D"/><path d="m92.983 26.504-3.236-10.042 4.015-7.94 2.258 3.756-.396-7.438 1.105-2.187 3.643 9.237-7.389 14.614Z" fill="#325D9C"/><path d="m92.983 26.504 9.985-3.306 1.804-3.567-3.771-.764 4.993-1.652 3.955-7.825-9.577 2.5-7.389 14.614Z" fill="#325D9C"/><path d="M71.746 69.641a1.128 1.128 0 0 1-.961-.543 1.14 1.14 0 0 1-.045-1.106L99.755 10.61a1.14 1.14 0 0 1 .656-.59 1.128 1.128 0 0 1 1.447.737 1.136 1.136 0 0 1-.087.88L72.756 69.02a1.136 1.136 0 0 1-1.01.622Zm-9.19-.166a.394.394 0 0 1-.392-.355c-.37-3.408.422-6.567 2.272-9.125 1.825-2.517 4.52-4.23 7.792-4.948a.394.394 0 0 1 .471.303.398.398 0 0 1-.302.473c-3.08.677-5.612 2.282-7.321 4.64-1.738 2.398-2.472 5.363-2.125 8.571a.4.4 0 0 1-.352.439l-.043.002Z" fill="#002E5D"/><path d="M143.157 73.59v37.153l-8.483-1.427-.253-5.265-13.692 1.561 4.366 3.968c1.477 1.325 3.017 3.55 3.13 5.535.009.193-.003.386-.036.576l.062-.065s-.404 2.262-2.237 3.65a4.791 4.791 0 0 1-.613.458 2.26 2.26 0 0 1-.805.295c-.844.288-2.216-.038-3.766-.657-2.573-.979-5.736-2.86-8.836-4.945-.373-.248-.585-.397-.585-.397a138.882 138.882 0 0 1-5.394-3.906c.422.346 7.145 5.98 8.292 10.433 0 0 .993 2.262-1.055 3.743-.607.488-1.434.707-2.421.713-1.647.048-3.205-.507-3.205-.507l-.029-.008c-1.662-.468-3.507-1.218-5.381-2.118a43.28 43.28 0 0 1-1.548-.766c-2.638-1.35-5.262-2.907-7.45-4.284l-.145.081c2.701 2.119 8.25 6.825 9.542 10.656 0 0 1.15 2.321-.837 3.862-.772.659-1.786.906-2.955.848a7.264 7.264 0 0 1-1.973-.328s-.05-.011-.148-.04c-4.65-1.282-10.606-5.625-14.088-8.396 1.867 1.523 8.427 7.124 9.308 11.321 0 0 .844 2.418-1.688 3.707 0 0-1.718 1.3-3.798.605-2.713-.817-5.903-4.15-13.436-8.526-1.377 2.796-3.11 5.179-3.817 5.289-1.49.23-4.156-.008-4.617-3.67a2.06 2.06 0 0 1 .22-1.214 50.568 50.568 0 0 1 2.1-3.658c-.307-.149-.616-.299-.933-.449a32.907 32.907 0 0 1-3.06 4.282s-2.963 3.251-6.096 1.545c-3.074-1.679-1.985-5.272-1.697-6.067.035-.098.08-.191.132-.281.234-.392.974-1.654 2.005-3.177l-1.831-.7a38.02 38.02 0 0 1-2.085 3.05s-2.05 2.34-5.803 1.094c-3.754-1.245-2.622-6.165-2.622-6.165s.395-.699 1.055-1.755a104.09 104.09 0 0 1-1.153-.501 33.504 33.504 0 0 1-1.583 2.044s-2.145 2.239-5.84.847-2.364-6.229-2.364-6.229.258-.414.709-1.082a98.316 98.316 0 0 1-3.271-1.835c-1.62-.92-2.97-1.755-3.832-2.407l.237 3.614-12.921 5.725V77.647l10.605.594.338 5.135 31.471-1.526.038.007 12.744-8.04 25.493-3.495 29.543 7.867 6.992-.338-.11-2.383 10.11-1.877Z" fill="#325D9C" style="mix-blend-mode:multiply" opacity=".24"/><path d="m156.859 77.445-22.428 3.05v33.888l32.173 7.029-9.745-43.967Z" fill="#002E5D"/><path d="m27.91 78.11.626 35.52-28.14 10.872 4.247-48.827L27.91 78.11Z" fill="#6FA0FF"/><path d="m124.849 114.18-23.79-23.514-26.986-4.414-14.558-3H28l.47 26.751c4.784 3.573 12.79 8.497 26.061 14.165 27.42 11.719 27.67 21.258 34.256 17.656 5.852-3.197-4.659-13.119-7.07-15.284 4.83 4.237 14.666 12.002 18.763 8.841 4.456-3.438-4.392-11.802-7.997-14.921l.15-.076c6.242 4.364 16.178 10.478 19.677 7.927 5.251-3.828-6.57-14.526-6.57-14.526 6.378 5.35 15.694 12.343 18.927 10.551 1.5-.831 3.06-3.003 3.042-4.476-.015-1.986-1.448-4.282-2.86-5.68Z" fill="#fff"/><path d="M57.791 84.26s.317 3.072 7.752 4.644l8.583-2.647 26.987 4.409 19.567 19.347 13.751-.896V82.88h-7l-29.132-9.288-25.63 2.26L57.79 84.26Z" fill="#DCF3FF"/><path d="m59.252 86.323 17.793-6.435 22.63-.916 23 14.405h11.752v15.731l-13.751.896-19.616-19.338-26.934-4.414-8.584 2.648s-3.503-.544-6.29-2.577Z" fill="#BBD1DC"/><path d="m134.431 93.38 27.11 5.188 5.063 22.844-32.173-7.029V93.381ZM28.158 92.166l.378 21.464-28.14 10.872 2.313-26.59 25.449-5.746Z" fill="#325D9C"/><path d="m28.157 92.166 29.633 1.507 43.153 6.15s22.297 25.226 26.767 20.549c0 0-.759 3.331-3.865 4.223-3.106.891-12.883-6.632-12.883-6.632l-5.221-4.178-6.302-5.587-12.078-2.099s24.55 25.13 26.184 18.527c0 0 .884 2.307-1.231 3.688-2.115 1.382-5.628-.067-5.628-.067s-4.385-1.522-8.652-4.367l-5.393-3.496-5.276-3.933-12.53-4.284s26.041 26.545 26.67 19.402c0 0 1.037 2.375-1.023 3.813-2.06 1.439-4.946.285-4.946.285s-5.109-1.514-13.822-9.126l-2.716-2.542-3.303-.381s12.872 19.1 14.771 14.678c0 0 .727 2.455-1.86 3.618 0 0-1.78 1.216-3.825.424-2.046-.792-6.807-5.01-7.516-5.345 0 0-3.188-2.426-6.189-4.288-3-1.862-6.555-4.089-11.555-6.312s-12.605-5.418-17.768-8.229c-5.163-2.811-11.01-6.257-13.294-8.155l-.302-17.843Z" fill="#BBD1DC"/><path d="M34.599 115.635s-1.563 4.766 2.061 6.337c3.625 1.571 5.875-.564 5.875-.564s9.562-10.169 5.875-15.246c-3.688-5.078-13.811 9.473-13.811 9.473Zm9.598 6.065s-1.363 4.858 2.32 6.285c3.685 1.427 5.845-.812 5.845-.812s9.129-10.617 5.235-15.57c-3.893-4.954-13.4 10.097-13.4 10.097Zm10.041 6.395a1.583 1.583 0 0 0-.146.275c-.326.781-1.583 4.316 1.404 6.143 3.046 1.859 6.164-1.247 6.164-1.247s8.806-9.166 5.156-14.305c-3.458-4.867-11.66 7.752-12.578 9.134Zm9.037 6.287a2.08 2.08 0 0 1 .278-1.201c1.31-2.249 6.558-10.794 9.532-8.679 3.418 2.437-3.79 13.602-5.374 13.77-1.498.163-4.151-.208-4.436-3.89Z" fill="#BBD1DC"/><path d="M48.007 105.645c1.84 1.36 1.707 5.351-.712 8.65-2.418 3.299-6.205 4.661-8.046 3.295-1.84-1.365-1.371-5.136 1.046-8.435 2.417-3.299 5.87-4.87 7.712-3.51Zm9.06 5.416c1.927 1.234 2.11 5.455-.09 8.908-2.2 3.453-5.932 4.829-7.858 3.595-1.927-1.234-1.71-5.034.485-8.487 2.195-3.453 5.536-5.251 7.463-4.016Zm9.176 7.256c1.928 1.235 2.079 5.084-.116 8.534-2.194 3.449-5.908 5.203-7.832 3.968-1.923-1.235-1.718-4.845.476-8.298 2.195-3.453 5.546-5.438 7.472-4.204Zm6.737 6.106c1.128.786 1.5 3.209.105 5.231-1.394 2.022-4.037 2.875-5.17 2.089-1.132-.786-.919-2.95.48-4.972 1.398-2.022 3.457-3.135 4.585-2.348Z" fill="#fff"/><path d="M166.605 121.806a.347.347 0 0 1-.085-.01l-16.087-3.514a.398.398 0 0 1 .169-.776l15.483 3.381-3.812-17.187a.39.39 0 0 1 .055-.296.394.394 0 0 1 .717.124l3.945 17.794a.397.397 0 0 1-.386.484h.001Zm-32.174-7.026a.397.397 0 0 1-.396-.397V80.498a.399.399 0 0 1 .343-.394l5.098-.693a.395.395 0 0 1 .446.496.394.394 0 0 1-.19.244.403.403 0 0 1-.15.047l-4.756.647v33.541a.393.393 0 0 1-.395.394ZM65.542 89.302a.36.36 0 0 1-.083-.01c-7.702-1.674-8.052-4.864-8.063-5a.398.398 0 0 1 .2-.378l14.877-8.41a.403.403 0 0 1 .16-.049l25.63-2.26a.4.4 0 0 1 .155.018l16.881 5.38a.391.391 0 0 1 .232.196.402.402 0 0 1-.318.579.396.396 0 0 1-.154-.017l-16.804-5.357L72.79 76.24l-14.536 8.216c.263.687 1.522 2.766 7.272 4.038l11.278-3.483a.376.376 0 0 1 .128-.017l21.755.627a.395.395 0 0 1 .384.409.398.398 0 0 1-.408.385l-21.689-.62-11.315 3.495a.392.392 0 0 1-.116.013Z" fill="#002E5D"/><path d="M62.5 85.582a.395.395 0 0 1-.39-.33.398.398 0 0 1 .259-.442c1.154-.41 2.97-1.06 3.481-1.262.15-.562.559-2.718.901-4.641a.397.397 0 0 1 .715-.158.397.397 0 0 1 .065.298c0 .011-.216 1.212-.443 2.407-.488 2.578-.527 2.606-.705 2.722-.05.034-.166.106-3.756 1.383a.401.401 0 0 1-.127.023Zm-34.413 3.011a.396.396 0 0 1-.395-.39l-.171-9.735-13.096-1.37a.396.396 0 0 1-.353-.437.398.398 0 0 1 .435-.353l13.444 1.407a.393.393 0 0 1 .355.388l.182 10.086a.398.398 0 0 1-.388.404h-.013ZM.396 124.9a.4.4 0 0 1-.376-.269.398.398 0 0 1-.02-.162l1.527-17.552a.397.397 0 0 1 .698-.221.4.4 0 0 1 .091.291L.845 123.903l27.548-10.645a.4.4 0 0 1 .517.226.398.398 0 0 1-.233.516L.539 124.877a.385.385 0 0 1-.143.023Z" fill="#002E5D"/><path d="M41.424 83.653H28a.395.395 0 0 1-.395-.397.398.398 0 0 1 .395-.397h13.424a.395.395 0 0 1 .396.397.398.398 0 0 1-.396.397Zm82.032 41.372c-1.256 0-2.916-.553-5.021-1.67-2.33-1.234-5.194-3.161-8.514-5.727-5.637-4.356-10.716-9.12-10.762-9.168a.397.397 0 0 1 .54-.58c.051.047 5.106 4.788 10.714 9.121 9.715 7.509 13.019 7.603 14.122 6.991 1.444-.8 2.849-2.843 2.837-4.131-.016-1.874-1.389-4.062-2.743-5.402l-23.705-23.426-7.57-1.237a.395.395 0 0 1-.328-.456.4.4 0 0 1 .3-.323.394.394 0 0 1 .154-.006l7.696 1.258c.079.013.152.05.211.106l23.79 23.521c1.469 1.453 2.96 3.859 2.979 5.961.015 1.695-1.733 3.989-3.247 4.828a2.976 2.976 0 0 1-1.453.34Z" fill="#002E5D"/><path d="M110.189 129.307c-2.744 0-6.934-1.721-12.503-5.149-5.551-3.417-10.523-7.354-10.572-7.393a.387.387 0 0 1-.148-.266.397.397 0 0 1 .64-.357c.048.04 4.988 3.95 10.5 7.343 7.169 4.411 12.019 5.97 14.026 4.507.739-.542 1.13-1.245 1.179-2.151.238-4.457-7.684-11.709-7.764-11.781a.389.389 0 0 1-.105-.123.389.389 0 0 1-.029-.317.406.406 0 0 1 .081-.141.405.405 0 0 1 .448-.1c.05.021.095.052.133.092.337.307 8.28 7.58 8.018 12.413-.061 1.144-.567 2.069-1.503 2.753-.61.447-1.41.671-2.401.67Z" fill="#002E5D"/><path d="M98.137 136.521c-2.566 0-6.138-1.639-10.671-4.903-4.662-3.356-8.698-7.289-8.738-7.328a.4.4 0 0 1 .001-.553.394.394 0 0 1 .55-.016c.04.039 4.04 3.934 8.652 7.256 4.37 3.145 7.829 4.747 10.197 4.749.872 0 1.596-.219 2.164-.656.715-.552 1.065-1.252 1.071-2.14.032-4.945-10.402-13.272-10.507-13.356a.398.398 0 0 1 .49-.624c.444.351 10.843 8.654 10.809 13.981-.008 1.134-.472 2.064-1.381 2.766-.708.55-1.587.825-2.637.824Zm-62.77-21.542a.39.39 0 0 1-.202-.056 82.017 82.017 0 0 1-6.93-4.597.387.387 0 0 1-.17-.263.396.396 0 0 1 .643-.372 80.745 80.745 0 0 0 6.859 4.554.402.402 0 0 1 .18.449.397.397 0 0 1-.384.293l.004-.008Zm21.062 10.393a.386.386 0 0 1-.16-.034c-.633-.282-1.222-.537-1.787-.778a.397.397 0 1 1 .299-.735c.572.244 1.16.502 1.806.787a.398.398 0 0 1-.16.76h.002Z" fill="#002E5D"/><path d="M86.253 143c-1.974 0-3.74-1.395-6.592-3.645-2.016-1.588-4.525-3.57-8.084-5.872a.402.402 0 0 1-.172-.25.4.4 0 0 1 .16-.41.39.39 0 0 1 .297-.065c.051.009.1.029.144.057 3.587 2.322 6.119 4.315 8.144 5.915 4.028 3.178 5.535 4.368 8.5 2.748.917-.502 1.415-1.185 1.52-2.09.37-3.167-4.22-8.542-8.627-12.517l-.065-.06a53.25 53.25 0 0 0-.334-.295l-.009-.007-.04-.036c-.041-.034-.066-.058-.066-.058a.397.397 0 0 1 .53-.584l.046.039.05.044.35.309.027.025.04.036c2.208 1.989 9.39 8.834 8.88 13.197-.134 1.165-.784 2.071-1.929 2.696-1.029.563-1.918.823-2.77.823Zm-20.415-12.995a.384.384 0 0 1-.19-.05c-.294-.161-.593-.323-.896-.486a.406.406 0 0 1-.193-.235.4.4 0 0 1 .264-.496c.1-.03.208-.02.301.03.307.165.609.328.904.49a.4.4 0 0 1-.19.747Zm-20.468-9.641a.398.398 0 0 1-.173-.039 92.455 92.455 0 0 1-1.128-.559.4.4 0 0 1-.086-.657.406.406 0 0 1 .288-.097.39.39 0 0 1 .149.04c.363.182.738.369 1.12.554a.395.395 0 0 1 .211.446.395.395 0 0 1-.385.308l.004.004Zm-8.709 2.01a.4.4 0 0 1-.156-.033c-1.632-.706-2.542-2.125-2.63-4.105-.033-.92.084-1.84.347-2.723a.437.437 0 0 1 .051-.106c.304-.436 7.48-10.676 12.092-10.723.97-.012 1.764.408 2.368 1.24a.401.401 0 0 1-.086.555.404.404 0 0 1-.14.066.4.4 0 0 1-.413-.152c-.446-.615-1.001-.914-1.698-.914h-.024c-4.056.04-10.867 9.561-11.415 10.334-.161.53-1.23 4.458 1.86 5.795a.397.397 0 0 1-.156.762v.004Z" fill="#002E5D"/><path d="M46.095 112.358a.416.416 0 0 1-.093-.013c-.093-.018-.288-.057-3.813-2.488a.396.396 0 0 1-.103-.552.394.394 0 0 1 .55-.103c1.365.941 2.902 1.978 3.42 2.293.455-.402 1.757-1.793 2.902-3.072a.395.395 0 0 1 .677.396.4.4 0 0 1-.09.134c-2.749 3.072-3.205 3.405-3.45 3.405Zm2.839 16.51a7.045 7.045 0 0 1-2.553-.507c-1.658-.641-2.625-2.029-2.797-4.014a8.54 8.54 0 0 1 .235-2.754.417.417 0 0 1 .046-.106c.008-.013.82-1.294 2.043-2.966a.393.393 0 0 1 .425-.18.4.4 0 0 1 .208.652c-1.07 1.457-1.818 2.615-1.98 2.859-.138.541-1.044 4.538 2.101 5.754 3.31 1.281 5.254-.554 5.413-.711.316-.377 8.814-10.486 5.216-15.06a.398.398 0 0 1 .358-.634.395.395 0 0 1 .263.142c4.055 5.167-4.861 15.653-5.243 16.096l-.015.015c-.072.071-1.398 1.414-3.72 1.414Z" fill="#002E5D"/><path d="M55.534 117.926a.553.553 0 0 1-.081-.008c-.094-.015-.29-.046-3.914-2.343a.4.4 0 0 1 .133-.709.4.4 0 0 1 .29.036c1.4.889 2.977 1.866 3.51 2.163.438-.424 1.68-1.875 2.77-3.205a.392.392 0 0 1 .556-.054.397.397 0 0 1 .054.559c-2.66 3.249-3.072 3.561-3.318 3.561Zm2.048 17.581a4.318 4.318 0 0 1-2.286-.649.396.396 0 0 1-.133-.546.395.395 0 0 1 .544-.133c2.743 1.675 5.562-1.072 5.682-1.189.079-.083 8.532-8.983 5.113-13.795a.4.4 0 0 1 .092-.555.397.397 0 0 1 .552.093c1.591 2.24 1.18 5.531-1.19 9.516a32.55 32.55 0 0 1-4.004 5.296 7.975 7.975 0 0 1-2.058 1.404c-.72.355-1.51.545-2.312.558Z" fill="#002E5D"/><path d="M65.003 124.905a.456.456 0 0 1-.097-.014c-.094-.019-.288-.06-3.798-2.53a.399.399 0 0 1 .159-.717.398.398 0 0 1 .296.066c1.353.954 2.877 2.003 3.398 2.331.41-.381 1.494-1.6 2.437-2.715a.388.388 0 0 1 .423-.121c.05.016.096.042.135.075a.409.409 0 0 1 .139.271.398.398 0 0 1-.093.29c-2.326 2.748-2.757 3.064-2.999 3.064Zm2.138 13.794c-.935 0-2.215-.231-3.151-1.294a.399.399 0 0 1 .32-.662.396.396 0 0 1 .273.133c.93 1.053 2.333 1.077 3.086.998.304-.043 1.4-1.108 2.787-3.263 1.413-2.196 2.477-4.491 2.916-6.293.296-1.216.447-2.809-.515-3.496a.392.392 0 0 1-.167-.415.404.404 0 0 1 .178-.253.392.392 0 0 1 .446.02c1.095.78 1.358 2.297.78 4.512-.49 1.887-1.599 4.237-3.04 6.461-.52.798-2.29 3.411-3.303 3.518a6.212 6.212 0 0 1-.61.034Z" fill="#002E5D"/><path d="M71.606 130.343a.388.388 0 0 1-.2-.054l-2.417-1.423a.39.39 0 0 1-.2-.399.394.394 0 0 1 .453-.34.388.388 0 0 1 .147.054l2.146 1.259 2.127-2.33a.397.397 0 1 1 .584.537l-2.343 2.57a.396.396 0 0 1-.297.126Zm49.073-19.938a.398.398 0 0 1-.025-.794l13.752-.897a.397.397 0 0 1 .401.525.403.403 0 0 1-.349.269l-13.755.897h-.024Z" fill="#002E5D"/></g><defs><clipPath id="a"><path fill="#fff" d="M0 0h167v143H0z"/></clipPath></defs></svg>