<svg width="165" height="153" fill="none" xmlns="http://www.w3.org/2000/svg"><g clip-path="url(#a)"><path d="M163.844 10.642 24.42 2.368l-4.929 82.878 139.423 8.274 4.93-82.878Z" fill="#F3F8FF"/><path d="M2.309 50.4A1.947 1.947 0 0 0 .8 52.702l19.385 92.726a1.947 1.947 0 0 0 2.303 1.506l131.98-27.528a1.943 1.943 0 0 0 1.508-2.301l-11.84-56.64a1.943 1.943 0 0 1 .654-1.886l6.087-5.105a1.943 1.943 0 0 0 .655-1.886l-6.072-29.064a1.946 1.946 0 0 0-2.304-1.506L2.309 50.4Z" fill="#6FA0FF"/><path d="M106.479 146.479a.699.699 0 0 1-.092-.008l-16.585-2.687a.572.572 0 0 1-.461-.431.566.566 0 0 1 .424-.682.59.59 0 0 1 .222-.007l16.024 2.596 11.099-68.349L12.318 59.934 1.22 128.284l35.147 5.693a.572.572 0 0 1 .37.228.57.57 0 0 1-.129.792.559.559 0 0 1-.423.1L.476 129.311a.554.554 0 0 1-.37-.227.57.57 0 0 1-.098-.423l11.28-69.469a.567.567 0 0 1 .65-.468L117.85 75.882a.569.569 0 0 1 .469.652l-11.28 69.468a.572.572 0 0 1-.559.477Z" fill="#002E5D"/><path d="M81.409 36.183 15.806 64.935l38.68 88.06 65.604-28.751-38.681-88.06Z" fill="#325D9C" style="mix-blend-mode:multiply" opacity=".25"/><path d="M89.009 32.96 21.77 57.656l33.227 90.255 67.238-24.698-33.226-90.255Z" fill="#fff"/><path d="m93.894 63.51-56.03 20.58.411 1.12 56.032-20.58-.413-1.12Zm-4.167-11.32-56.03 20.582.411 1.119L90.14 53.31l-.413-1.12Zm8.333 22.637L42.03 95.408l.411 1.12 56.032-20.582-.413-1.12Zm4.166 11.318-56.03 20.581.412 1.12 56.031-20.582-.413-1.119Zm4.167 11.318-56.03 20.581.412 1.12 56.031-20.582-.413-1.119Zm4.167 11.317-56.031 20.581.412 1.12 56.031-20.581-.412-1.12Z" fill="#F0F0FF"/><path d="M117.97 21.901 46.88 30.76l11.917 95.424 71.089-8.857-11.916-95.425Z" fill="#002E5D" style="mix-blend-mode:multiply" opacity=".25"/><path d="m122.935 21.114-71.34 6.536 8.792 95.762 71.341-6.536-8.793-95.762Z" fill="#fff"/><path d="m119.764 51.887-59.45 5.446.11 1.188 59.449-5.446-.109-1.188Zm1.104 12.009-59.45 5.446.11 1.188 59.449-5.446-.109-1.188Zm1.102 12.008L62.52 81.35l.11 1.188 59.449-5.446-.109-1.188Zm1.103 12.008-59.45 5.446.11 1.188 59.449-5.446-.109-1.188ZM114.081 36.1l-40.37 3.698.766 8.334 40.369-3.699-.765-8.334Z" fill="#F0F0FF"/><path d="M87.34 89.266a8.862 8.862 0 0 0-12.005-3.454 8.834 8.834 0 0 0-3.509 11.977 8.935 8.935 0 0 0 1.738 2.22 8.901 8.901 0 0 0 8.454 2.016 8.762 8.762 0 0 0 1.829-.75 8.856 8.856 0 0 0 4.233-5.283 8.843 8.843 0 0 0-.74-6.726Zm-3.892 11.28a8.09 8.09 0 0 1-1.824.729 8.023 8.023 0 0 1-3.512.121 8.04 8.04 0 0 1-3.738-1.782 7.732 7.732 0 0 1-.766-.74 8.005 8.005 0 0 1 2.5-12.556 8.027 8.027 0 0 1 9.151 1.559 8.006 8.006 0 0 1-1.806 12.674l-.005-.005Z" fill="#BBD1DC"/><path d="M84.56 90.795a5.673 5.673 0 0 0-4.875-2.945 5.683 5.683 0 0 0-4.98 2.762 5.667 5.667 0 0 0 1.991 7.794 5.683 5.683 0 0 0 2.843.785 5.608 5.608 0 0 0 2.781-.699 5.672 5.672 0 0 0 2.24-7.697Zm-2.648 6.973a4.848 4.848 0 0 1-6.953-2.775 4.833 4.833 0 0 1 1.497-5.163 4.846 4.846 0 0 1 7.362 1.367 4.84 4.84 0 0 1-1.9 6.571h-.006Zm4.724-6.278a7.41 7.41 0 0 0-1.58-2.855l-.279-.311-.622.555.278.31a6.611 6.611 0 0 1 1.397 2.53l.117.401.8-.234-.11-.396Zm-.566 2.707-.069.411a6.595 6.595 0 0 1-1.103 2.674l-.24.339.68.48.24-.34a7.372 7.372 0 0 0 1.243-3.011l.071-.411-.822-.142Zm-3.681-7.446a7.418 7.418 0 0 0-3.218-.547l-.417.024.047.833.416-.023a6.535 6.535 0 0 1 2.858.484l.386.159.317-.77-.39-.16Zm.717 12.257-.389.212a6.5 6.5 0 0 1-2.177.74c-.2.03-.403.05-.607.06l-.416.024.019.353.025.479.417-.022h.063a7.268 7.268 0 0 0 3.077-.895l.389-.211-.401-.74Z" fill="#BBD1DC"/><path d="M75.484 114.683a4.21 4.21 0 0 0 .704-.93 4.313 4.313 0 0 0 .442-1.112c.048-.189.083-.381.106-.575a4.349 4.349 0 0 0-.454-2.49 4.16 4.16 0 0 0-.212-.379 4.385 4.385 0 0 0-1.639-1.508 4.425 4.425 0 0 0-4.423.162 4.405 4.405 0 0 0 .32 7.642c.69.358 1.462.527 2.238.49a4.405 4.405 0 0 0 2.183-.697c.266-.173.512-.376.735-.603Zm-1.125.021a3.723 3.723 0 0 1-4.903-.78 3.712 3.712 0 0 1 2.805-6.054 3.73 3.73 0 0 1 3.156 1.62c.019.027.038.054.056.084a3.717 3.717 0 0 1-.09 4.15c-.273.39-.62.722-1.02.98h-.004Z" fill="#F0F0FF"/><path d="M73.796 113.821a.409.409 0 0 1-.56-.122L70.79 109.9a.406.406 0 0 1 .683-.437l2.444 3.798a.406.406 0 0 1-.123.56Zm1.052-1.549a.406.406 0 0 1-.561-.121l-1.646-2.559a.41.41 0 0 1 .121-.561.406.406 0 0 1 .561.123l1.647 2.559a.406.406 0 0 1-.122.559Zm-2.898 1.857a.405.405 0 0 1-.56-.121l-1.646-2.559a.408.408 0 0 1 .122-.561.41.41 0 0 1 .56.123l1.647 2.559a.404.404 0 0 1-.123.559Z" fill="#F0F0FF"/><path d="M111.212 108.634a1.99 1.99 0 0 1-.289.012c-.575-.02-1.188-.328-1.738-.846-.828.794-1.779 1.345-2.753 1.25-.907-.09-1.763-.74-2.474-1.893a8.424 8.424 0 0 1-.711-1.472 38.218 38.218 0 0 1-3.908 3.517l-.558-.7a35.473 35.473 0 0 0 4.153-3.795c-.476-1.784-.544-3.87.14-5.644.424-1.09 1.735-3.369 2.9-3.039.916.26.98 1.559 1.012 2.184 0 .06 0 .106.008.154.152 2.147-1.195 4.451-3.058 6.57.189.616.453 1.205.784 1.757.551.889 1.19 1.412 1.8 1.472.642.062 1.376-.371 2.07-1.043a5.981 5.981 0 0 1-.248-.371c-.789-1.29-.963-2.686-.467-3.734.53-1.112 1.815-1.856 2.814-2.009.558-.087.99.01 1.249.284.661.697-.011 2.37-.471 3.304a12.902 12.902 0 0 1-1.669 2.56c.388.369.802.594 1.156.607 1.059.036 2.192-1.804 2.943-3.023.683-1.107 1.059-1.718 1.625-1.46.475.218.359.786.224 1.443-.129.626-.317 1.571.028 1.946.2.211.964.583 3.733-.56l.343.826c-2.484 1.026-3.987 1.135-4.729.344-.55-.585-.484-1.481-.346-2.256l-.115.185c-.853 1.382-2.005 3.25-3.448 3.43Zm-.317-6.762a2.05 2.05 0 0 0-.246.046c-.689.17-1.598.704-1.964 1.48-.432.914-.066 2.091.424 2.888.032.055.067.106.105.162.381-.46.724-.95 1.027-1.465.975-1.653 1.197-2.87 1.046-3.088a.757.757 0 0 0-.392-.023Zm-5.188-4.987c-.337.042-1.284 1.177-1.8 2.499-.529 1.382-.543 3.016-.247 4.487 1.701-2.058 2.54-3.913 2.435-5.446 0-.049-.007-.106-.01-.173-.053-1.057-.225-1.33-.361-1.368l-.017.001Zm11.291 4.753a.63.63 0 1 1-1.248.159.63.63 0 0 1 1.248-.159Zm-18.994 8.188a.57.57 0 0 1-.61.643.57.57 0 0 1-.502-.392.572.572 0 1 1 1.112-.251Z" fill="#F70431"/><path d="M162.16 84.561h-25.536a2.838 2.838 0 0 0-2.84 2.836V97.2a2.838 2.838 0 0 0 2.84 2.836h25.536a2.837 2.837 0 0 0 2.839-2.836v-9.803a2.837 2.837 0 0 0-2.839-2.836Z" fill="#474747"/><path d="M165 85.021v9.803a2.85 2.85 0 0 1-2.838 2.836h-25.537a2.848 2.848 0 0 1-2.84-2.836v-9.803a2.85 2.85 0 0 1 2.84-2.838h25.537A2.85 2.85 0 0 1 165 85.02Z" fill="#5E5E5E"/><path d="M145.977 76.766V89.41c0 1.595 1.529 2.888 3.415 2.888 1.887 0 3.416-1.293 3.416-2.888V76.766h-6.831Z" fill="#474747"/><path d="M149.392 79.694c1.887 0 3.416-1.31 3.416-2.928 0-1.616-1.529-2.927-3.416-2.927-1.886 0-3.415 1.31-3.415 2.927s1.529 2.928 3.415 2.928Z" fill="#5E5E5E"/><path opacity=".5" d="m152.19 91.066-6.597 6.593h-7.913l10.557-10.542 3.953 3.949Z" fill="#474747"/><path d="m155.651 34.29-4.527-5.643-3.662 2.93.591.74-30.46 24.375-1.663 4.46a.266.266 0 0 0 .042.262.268.268 0 0 0 .247.098l4.719-.649 30.46-24.38.591.74 3.662-2.932Z" fill="#325D9C" style="mix-blend-mode:multiply" opacity=".25"/><path d="m149.728 30.514-3.832-3.73-28.876 29.599 3.832 3.73 28.876-29.599Z" fill="#325D9C"/><path d="m152.041 29.494-5.185-5.047-3.274 3.357 5.184 5.046 3.275-3.356Zm-35.017 26.888-1.099 4.635a.27.27 0 0 0 .076.25.269.269 0 0 0 .254.067l4.605-1.223-3.836-3.73Z" fill="#2D4351"/><path d="m148.091 32.193-1.916-1.865-27.239 27.92 1.916 1.866 27.239-27.92Z" fill="#CE9820" style="mix-blend-mode:multiply" opacity=".3"/><path d="m29.835 18.462-15.612 1.945.4 3.2 15.612-1.945-.4-3.2Zm.667 5.335L14.89 25.742l.4 3.2 15.61-1.944-.4-3.2ZM127.543-.001l-4.602 15.028 3.088.943L130.631.943l-3.088-.944Zm5.149 1.572L128.09 16.6l3.088.944 4.602-15.028-3.088-.944Z" fill="#BBD1DC"/><path d="M124.264 145.879a4.411 4.411 0 0 0 4.413-4.409 4.411 4.411 0 0 0-4.413-4.408 4.411 4.411 0 0 0-4.414 4.408 4.411 4.411 0 0 0 4.414 4.409Z" fill="#F0F0FF"/><g clip-path="url(#b)"><path d="m62.81 49.275 2.078-.215.485-2.828 1.308-.136-.06-.578-1.137.118.139-.745-1.302-.377-.162.512-1.35 4.25Zm2.614-4.803c.425-.044.736-.403.694-.802-.041-.4-.42-.688-.844-.644-.425.044-.737.404-.695.803.041.4.42.688.845.643Z" fill="#002E5D"/><path d="m71.123 48.413-2.078.216-1.055-2.668-1.308.135-.06-.578 1.137-.118-.289-.701 1.197-.636.264.468 2.192 3.883ZM67.58 44.25c-.426.043-.804-.245-.845-.644-.042-.4.27-.76.694-.803.425-.044.804.244.845.643.041.4-.27.759-.695.803Z" fill="#325D9C"/><path d="m67.571 41.18-2.77.287.12 1.157 2.77-.287-.12-1.157Z" fill="#002E5D"/><path d="m68.465 40.795-4.618.479.03.289 4.618-.479-.03-.289Z" fill="#002E5D"/><path d="m64.03 41.547.078-.008.044.434.093.137-.231.024.062-.153-.045-.434Zm8.393 6.599 1.287-5.284 1.322-.138 2.336 4.91-1.322.137-.43-1.07-1.698.175-.195 1.135-1.3.135Zm1.659-2.197 1.19-.124-.802-2.005-.015.002-.373 2.127Zm4.754-3.619.226 2.185.015-.001 1.397-2.354 1.448-.15-1.657 2.642 2.259 2.447-1.448.15-1.946-2.219-.014.002.248 2.395-1.25.13-.528-5.097 1.25-.13Zm4.142 4.722 1.287-5.285 1.323-.137 2.336 4.91-1.323.136-.43-1.07-1.698.176-.194 1.135-1.3.135Zm1.66-2.198 1.19-.123-.802-2.005-.015.001-.374 2.127Zm8.149-1.465c.088.856-.093 1.545-.544 2.067-.446.517-1.12.822-2.022.916a11.03 11.03 0 0 1-1.554.055l-.52-5.027c.477-.12.988-.208 1.531-.264.902-.094 1.623.06 2.165.46.546.395.86.993.944 1.793Zm-1.191.123c-.112-1.08-.688-1.565-1.726-1.458a2 2 0 0 0-.407.085l.342 3.295c.135.014.273.014.415 0 1.039-.108 1.497-.749 1.376-1.922Zm3.069-1.856.107 1.04 2.036-.21.093.9-2.035.21.129 1.244 2.182-.227.1.957-3.432.355-.529-5.096 3.432-.356.1.957-2.183.226Zm7.559.246-.014.002-.738 2.052-1.132.117-1.143-1.857-.015.002.324 3.12-1.183.123-.529-5.096 1.279-.133 1.729 2.855.015-.002 1.107-3.148 1.308-.136.528 5.096-1.212.126-.324-3.12Zm2.76 2.868-.528-5.096 1.374-.142.528 5.096-1.374.142Zm3.36-5.5.427 4.113 2.263-.235.102.985-3.55.368-.528-5.097 1.286-.133Zm3.044-.315 1.27 2.077.015-.001.817-2.293 1.396-.145-1.497 3.33.203 1.955-1.286.133-.203-1.954-2.14-2.954 1.425-.148Z" fill="#002E5D"/></g></g><defs><clipPath id="a"><path fill="#fff" d="M0 0h165v153H0z"/></clipPath><clipPath id="b"><path fill="#fff" transform="rotate(-5.919 432.04 -578.913)" d="M0 0h53v8H0z"/></clipPath></defs></svg>