<svg width="130" height="125" viewBox="0 0 130 125" fill="none" xmlns="http://www.w3.org/2000/svg">
<g clip-path="url(#clip0_2619_27845)">
<path d="M130 60.3807C130 93.7278 103.126 120.761 69.9751 120.761C55.7734 120.782 42.0277 115.718 31.1999 106.474C29.7671 105.252 28.3935 103.967 27.079 102.617C17.5698 92.862 11.6387 80.1459 10.2589 66.5545C10.0767 64.7449 9.9748 62.9124 9.95313 61.0569C9.95313 60.8332 9.95313 60.6087 9.95313 60.3851C9.94961 27.0337 36.8242 0 69.9751 0C103.126 0 130 27.0337 130 60.3807Z" fill="#F3F8FF"/>
<path d="M61.4301 54.6817C61.4269 54.6655 61.4193 54.6506 61.4082 54.6386C61.397 54.6266 61.3827 54.6179 61.3669 54.6136L55.9877 53.0103C55.9734 53.0063 55.9582 53.0063 55.9438 53.0103L25.3621 58.3585L25.2954 53.3992C25.2953 53.3844 25.2916 53.3699 25.2846 53.3569C25.2775 53.3439 25.2673 53.333 25.2549 53.325C25.2419 53.317 25.2271 53.3122 25.2118 53.311C25.1966 53.3098 25.1813 53.3121 25.1671 53.3179L16.3629 56.8012C16.3438 56.8079 16.3276 56.8211 16.317 56.8385C16.3064 56.8559 16.3022 56.8764 16.3049 56.8966L16.6942 59.8743L9.95312 61.0525C9.97304 62.9069 10.075 64.7394 10.2589 66.5501L17.4059 65.3127L17.6985 67.5462L13.8667 72.5038C13.7058 72.7093 13.588 72.9455 13.5206 73.1981C13.4531 73.4507 13.4374 73.7144 13.4743 73.9734C13.5112 74.2323 13.5999 74.481 13.7352 74.7043C13.8705 74.9277 14.0494 75.1212 14.2612 75.2729L20.302 79.6666C20.3202 79.68 20.3427 79.6863 20.3652 79.6842C20.3779 79.6834 20.3902 79.6799 20.4015 79.6742C20.4129 79.6684 20.4229 79.6604 20.4311 79.6507L20.5506 79.5084L20.664 79.5967L20.6534 79.6056C20.6461 79.6149 20.6407 79.6257 20.6376 79.6372C20.6345 79.6487 20.6338 79.6607 20.6354 79.6725C20.637 79.6843 20.641 79.6957 20.6472 79.7059C20.6533 79.7161 20.6614 79.725 20.671 79.732L21.3142 80.2031C21.0435 80.7581 19.1984 84.678 18.7248 89.4129C18.6729 89.9308 18.5974 90.6255 18.5016 91.4572C19.8472 93.7066 21.3368 95.8657 22.9608 97.9209L25.1934 90.3197L27.079 102.616C28.3929 103.965 29.7666 105.25 31.1999 106.473C31.1314 100.249 31.0506 92.4365 31.0242 88.4044C30.975 81.3052 29.7194 77.5418 29.6307 77.2872L29.4259 69.717L33.7147 70.1483C33.7834 70.154 33.8524 70.154 33.9211 70.1483C34.1951 70.1276 34.4519 70.0061 34.6425 69.8071C34.7596 69.6877 34.8463 69.5416 34.8953 69.3813C34.9442 69.221 34.954 69.0511 34.9237 68.8862L33.8834 63.2843C33.8797 63.2617 33.8675 63.2415 33.8493 63.2278C33.8311 63.2142 33.8084 63.2081 33.7858 63.2109H33.7375L33.7199 62.9758C33.7432 62.9758 33.7656 62.9665 33.7821 62.9499C33.7985 62.9333 33.8078 62.9109 33.8078 62.8874V62.8812L33.7788 62.4879L56.7996 58.5106C56.816 58.5082 56.8315 58.5015 56.8444 58.4911L61.402 54.7736C61.415 54.7627 61.4246 54.7481 61.4296 54.7318C61.4346 54.7155 61.4348 54.6981 61.4301 54.6817ZM21.7482 78.2807C21.7307 78.2796 21.7133 78.2835 21.6978 78.2917C21.6823 78.3 21.6693 78.3124 21.6604 78.3275L21.5848 78.271C21.5987 78.2529 21.6051 78.23 21.6027 78.2073C21.6002 78.1845 21.5891 78.1636 21.5716 78.149L16.7987 74.1239L20.0234 70.8536L21.909 76.9726C21.917 76.9958 21.9337 77.015 21.9555 77.0262C21.9772 77.0374 22.0025 77.0397 22.0259 77.0327L22.3035 78.0668C22.2819 78.0713 22.2628 78.0838 22.25 78.1018C22.2371 78.1198 22.2315 78.142 22.2341 78.164C22.2352 78.1759 22.2387 78.1874 22.2443 78.1979C22.2499 78.2084 22.2576 78.2177 22.2669 78.2251C22.2762 78.2325 22.2868 78.238 22.2983 78.2412C22.3097 78.2443 22.3217 78.2452 22.3334 78.2436L22.3387 78.3098L21.7482 78.2807ZM26.7566 64.7373C26.7449 64.7323 26.7323 64.7299 26.7197 64.7303L23.8289 64.8593L23.5925 64.2468L31.8238 62.8238L31.8932 63.1022C31.8979 63.1239 31.9105 63.1431 31.9286 63.1558C31.9466 63.1686 31.9688 63.1741 31.9907 63.1711H32.0057L32.0522 63.3523C32.0307 63.356 32.0112 63.3677 31.9978 63.385C31.9843 63.4023 31.9777 63.4241 31.9793 63.446L32.2288 66.8047L26.7566 64.7373Z" fill="#BBD1DC"/>
<path d="M98.9535 30.7581C98.805 30.7581 98.6627 30.6988 98.5577 30.5932C98.4527 30.4876 98.3938 30.3444 98.3938 30.1951C98.3938 27.175 96.6259 24.7152 94.453 24.7152C94.3777 24.7182 94.3025 24.7059 94.2321 24.6789C94.1616 24.652 94.0973 24.6111 94.043 24.5585C93.9886 24.506 93.9454 24.443 93.9159 24.3732C93.8863 24.3035 93.8711 24.2284 93.8711 24.1526C93.8711 24.0768 93.8863 24.0018 93.9159 23.932C93.9454 23.8623 93.9886 23.7992 94.043 23.7467C94.0973 23.6942 94.1616 23.6532 94.2321 23.6263C94.3025 23.5994 94.3777 23.587 94.453 23.59C97.2427 23.59 99.5132 26.5527 99.5132 30.1933C99.5134 30.2674 99.4991 30.3408 99.4711 30.4093C99.443 30.4779 99.4018 30.5401 99.3499 30.5926C99.2979 30.6451 99.2361 30.6867 99.1681 30.7151C99.1 30.7435 99.0271 30.7581 98.9535 30.7581Z" fill="#445664"/>
<path d="M84.4643 30.7581C84.316 30.7579 84.1739 30.6985 84.0691 30.5929C83.9643 30.4873 83.9055 30.3443 83.9055 30.1951C83.9055 27.175 82.1376 24.7152 79.9647 24.7152C79.8894 24.7182 79.8142 24.7059 79.7438 24.6789C79.6733 24.652 79.609 24.6111 79.5547 24.5585C79.5003 24.506 79.4571 24.443 79.4276 24.3732C79.398 24.3035 79.3828 24.2284 79.3828 24.1526C79.3828 24.0768 79.398 24.0018 79.4276 23.932C79.4571 23.8623 79.5003 23.7992 79.5547 23.7467C79.609 23.6942 79.6733 23.6532 79.7438 23.6263C79.8142 23.5994 79.8894 23.587 79.9647 23.59C82.7544 23.59 85.024 26.5527 85.024 30.1933C85.0242 30.2674 85.0099 30.3408 84.9819 30.4093C84.9539 30.4779 84.9127 30.5401 84.8607 30.5926C84.8087 30.6451 84.7469 30.6867 84.6789 30.7151C84.6109 30.7435 84.5379 30.7581 84.4643 30.7581Z" fill="#445664"/>
<path d="M69.9769 30.7581C69.8284 30.7581 69.6861 30.6988 69.5811 30.5932C69.4762 30.4876 69.4172 30.3444 69.4172 30.1951C69.4172 27.175 67.6493 24.7152 65.4764 24.7152C65.4011 24.7182 65.326 24.7059 65.2555 24.6789C65.185 24.652 65.1207 24.6111 65.0664 24.5585C65.012 24.506 64.9688 24.443 64.9393 24.3732C64.9098 24.3035 64.8945 24.2284 64.8945 24.1526C64.8945 24.0768 64.9098 24.0018 64.9393 23.932C64.9688 23.8623 65.012 23.7992 65.0664 23.7467C65.1207 23.6942 65.185 23.6532 65.2555 23.6263C65.326 23.5994 65.4011 23.587 65.4764 23.59C68.2661 23.59 70.5357 26.5527 70.5357 30.1933C70.5359 30.2673 70.5217 30.3407 70.4937 30.4091C70.4657 30.4776 70.4246 30.5398 70.3727 30.5923C70.3208 30.6447 70.2591 30.6864 70.1912 30.7148C70.1233 30.7433 70.0505 30.758 69.9769 30.7581Z" fill="#445664"/>
<path d="M55.4872 30.7582C55.3389 30.7579 55.1968 30.6985 55.092 30.593C54.9873 30.4874 54.9284 30.3443 54.9284 30.1952C54.9284 27.175 53.1606 24.7152 50.9868 24.7152C50.8423 24.7095 50.7056 24.6477 50.6054 24.5428C50.5052 24.4379 50.4492 24.2981 50.4492 24.1527C50.4492 24.0072 50.5052 23.8674 50.6054 23.7625C50.7056 23.6576 50.8423 23.5959 50.9868 23.5901C53.7774 23.5901 56.0469 26.5528 56.0469 30.1934C56.0472 30.2675 56.0329 30.3409 56.0048 30.4094C55.9768 30.4779 55.9356 30.5402 55.8836 30.5926C55.8316 30.6451 55.7699 30.6867 55.7018 30.7151C55.6338 30.7435 55.5609 30.7582 55.4872 30.7582Z" fill="#445664"/>
<path d="M103.612 30.1909H39.4453V121.422H103.612V30.1909Z" fill="white"/>
<path d="M110.504 30.1909H103.609V121.422H110.504V30.1909Z" fill="#BBD1DC"/>
<path d="M101.631 31.8975H41.4219V45.9729H101.631V31.8975Z" fill="#BBD1DC"/>
<path d="M88.9608 47.9509L41.4219 72.5063V47.9509H88.9608Z" fill="#F3F8FF"/>
<path d="M101.631 47.9509V51.1558L41.4219 82.2561V76.9017L97.4688 47.9509H101.631Z" fill="#F3F8FF"/>
<path d="M101.631 66.9468V75.7774L41.4219 106.877V98.0471L101.631 66.9468Z" fill="#F3F8FF"/>
<path d="M101.631 80.1057V100.548L65.4409 119.241H41.4219V111.206L101.631 80.1057Z" fill="#F3F8FF"/>
<path d="M80.8555 119.241L101.631 108.509V119.241H80.8555Z" fill="#F3F8FF"/>
<path d="M103.613 93.7093C103.6 93.7094 103.588 93.707 103.577 93.7024C103.566 93.6977 103.555 93.6908 103.547 93.6821C103.538 93.6734 103.531 93.663 103.526 93.6516C103.522 93.6402 103.519 93.6279 103.52 93.6156V57.2988C103.52 57.2739 103.529 57.2501 103.547 57.2325C103.564 57.215 103.588 57.2051 103.613 57.2051C103.637 57.2051 103.661 57.215 103.679 57.2325C103.696 57.2501 103.706 57.2739 103.706 57.2988V93.6156C103.706 93.6279 103.704 93.6402 103.699 93.6516C103.694 93.663 103.687 93.6734 103.679 93.6821C103.67 93.6908 103.66 93.6977 103.648 93.7024C103.637 93.707 103.625 93.7094 103.613 93.7093Z" fill="#002E5D"/>
<path d="M103.613 48.612C103.6 48.6122 103.588 48.6098 103.577 48.6051C103.565 48.6005 103.555 48.5936 103.546 48.5849C103.538 48.5761 103.531 48.5658 103.526 48.5543C103.522 48.5429 103.519 48.5307 103.519 48.5183V30.2844H39.5417V35.9411C39.5417 35.9659 39.5319 35.9897 39.5145 36.0073C39.497 36.0249 39.4733 36.0347 39.4486 36.0347C39.4239 36.0347 39.4002 36.0249 39.3827 36.0073C39.3653 35.9897 39.3555 35.9659 39.3555 35.9411V30.196C39.3555 30.1711 39.3653 30.1473 39.3827 30.1297C39.4002 30.1122 39.4239 30.1023 39.4486 30.1023H103.615C103.64 30.1023 103.664 30.1122 103.681 30.1297C103.699 30.1473 103.708 30.1711 103.708 30.196V48.5175C103.709 48.5301 103.706 48.5427 103.702 48.5544C103.697 48.5661 103.69 48.5767 103.681 48.5855C103.672 48.5944 103.661 48.6013 103.649 48.6059C103.638 48.6104 103.625 48.6125 103.613 48.612Z" fill="#002E5D"/>
<path d="M39.4447 56.9576C39.42 56.9576 39.3963 56.9477 39.3788 56.9301C39.3614 56.9126 39.3516 56.8887 39.3516 56.8639V44.9318C39.3516 44.907 39.3614 44.8831 39.3788 44.8656C39.3963 44.848 39.42 44.8381 39.4447 44.8381C39.4694 44.8381 39.4931 44.848 39.5106 44.8656C39.528 44.8831 39.5378 44.907 39.5378 44.9318V56.8639C39.5376 56.8887 39.5277 56.9124 39.5103 56.9299C39.4929 56.9474 39.4693 56.9574 39.4447 56.9576Z" fill="#002E5D"/>
<path d="M39.4447 114.651C39.42 114.651 39.3963 114.641 39.3788 114.624C39.3614 114.606 39.3516 114.582 39.3516 114.558V64.0505C39.3516 64.0256 39.3614 64.0018 39.3788 63.9842C39.3963 63.9667 39.42 63.9568 39.4447 63.9568C39.4694 63.9568 39.4931 63.9667 39.5106 63.9842C39.528 64.0018 39.5378 64.0256 39.5378 64.0505V114.558C39.5376 114.582 39.5277 114.606 39.5103 114.624C39.4929 114.641 39.4693 114.651 39.4447 114.651Z" fill="#002E5D"/>
<path d="M103.61 121.516H47.667C47.6437 121.514 47.6221 121.503 47.6064 121.486C47.5907 121.468 47.582 121.446 47.582 121.422C47.582 121.399 47.5907 121.376 47.6064 121.359C47.6221 121.341 47.6437 121.33 47.667 121.328H103.517V115.155C103.517 115.13 103.527 115.107 103.544 115.089C103.562 115.071 103.585 115.062 103.61 115.062C103.635 115.062 103.659 115.071 103.676 115.089C103.694 115.107 103.703 115.13 103.703 115.155V121.423C103.703 121.447 103.694 121.471 103.676 121.489C103.659 121.506 103.635 121.516 103.61 121.516Z" fill="#002E5D"/>
<path d="M113.083 112.319C113.06 112.319 113.037 112.309 113.019 112.293C113.002 112.277 112.992 112.254 112.99 112.23L107.196 30.2845H103.609C103.584 30.2845 103.56 30.2747 103.543 30.2571C103.525 30.2395 103.516 30.2157 103.516 30.1909C103.516 30.166 103.525 30.1422 103.543 30.1246C103.56 30.107 103.584 30.0972 103.609 30.0972H107.284C107.308 30.0971 107.331 30.1063 107.348 30.1227C107.366 30.1391 107.376 30.1616 107.377 30.1856L113.176 112.219C113.177 112.231 113.176 112.244 113.172 112.256C113.168 112.268 113.162 112.279 113.154 112.288C113.145 112.297 113.135 112.305 113.124 112.31C113.113 112.316 113.101 112.319 113.089 112.32L113.083 112.319Z" fill="#002E5D"/>
<path d="M50.8644 37.5675C51.4928 37.5675 52.0023 36.9696 52.0023 36.232C52.0023 35.4944 51.4928 34.8965 50.8644 34.8965C50.236 34.8965 49.7266 35.4944 49.7266 36.232C49.7266 36.9696 50.236 37.5675 50.8644 37.5675Z" fill="#445664"/>
<path d="M50.989 36.7951C48.1993 36.7951 45.9297 33.8324 45.9297 30.1909C45.9297 26.5494 48.1993 23.5876 50.989 23.5876C51.0643 23.5846 51.1394 23.5969 51.2099 23.6238C51.2804 23.6508 51.3447 23.6917 51.399 23.7443C51.4534 23.7968 51.4966 23.8598 51.5261 23.9296C51.5557 23.9993 51.5709 24.0744 51.5709 24.1502C51.5709 24.226 51.5557 24.301 51.5261 24.3708C51.4966 24.4405 51.4534 24.5036 51.399 24.5561C51.3447 24.6086 51.2804 24.6496 51.2099 24.6765C51.1394 24.7034 51.0643 24.7158 50.989 24.7128C48.8161 24.7128 47.0482 27.1708 47.0482 30.1927C47.0482 33.2146 48.8161 35.6726 50.989 35.6726C51.1374 35.6726 51.2798 35.7319 51.3848 35.8375C51.4897 35.9431 51.5487 36.0863 51.5487 36.2356C51.5487 36.3849 51.4897 36.5281 51.3848 36.6337C51.2798 36.7393 51.1374 36.7986 50.989 36.7986V36.7951Z" fill="#445664"/>
<path d="M65.3527 37.5675C65.9811 37.5675 66.4906 36.9696 66.4906 36.232C66.4906 35.4944 65.9811 34.8965 65.3527 34.8965C64.7243 34.8965 64.2148 35.4944 64.2148 36.232C64.2148 36.9696 64.7243 37.5675 65.3527 37.5675Z" fill="#445664"/>
<path d="M65.4742 36.7951C62.6845 36.7951 60.4141 33.8324 60.4141 30.1909C60.4141 26.5494 62.6845 23.5876 65.4742 23.5876C65.5496 23.5846 65.6247 23.5969 65.6952 23.6238C65.7656 23.6508 65.8299 23.6917 65.8843 23.7443C65.9386 23.7968 65.9818 23.8598 66.0114 23.9296C66.0409 23.9993 66.0561 24.0744 66.0561 24.1502C66.0561 24.226 66.0409 24.301 66.0114 24.3708C65.9818 24.4405 65.9386 24.5036 65.8843 24.5561C65.8299 24.6086 65.7656 24.6496 65.6952 24.6765C65.6247 24.7034 65.5496 24.7158 65.4742 24.7128C63.3013 24.7128 61.5335 27.1708 61.5335 30.1927C61.5335 33.2146 63.3013 35.6726 65.4742 35.6726C65.6227 35.6726 65.7651 35.7319 65.87 35.8375C65.975 35.9431 66.034 36.0863 66.034 36.2356C66.034 36.3849 65.975 36.5281 65.87 36.6337C65.7651 36.7393 65.6227 36.7986 65.4742 36.7986V36.7951Z" fill="#445664"/>
<path d="M79.841 37.5675C80.4694 37.5675 80.9788 36.9696 80.9788 36.232C80.9788 35.4944 80.4694 34.8965 79.841 34.8965C79.2126 34.8965 78.7031 35.4944 78.7031 36.232C78.7031 36.9696 79.2126 37.5675 79.841 37.5675Z" fill="#445664"/>
<path d="M79.9625 36.7949C77.1719 36.7949 74.9023 33.8322 74.9023 30.1907C74.9023 26.5492 77.1719 23.5874 79.9625 23.5874C80.107 23.5932 80.2437 23.655 80.3439 23.7598C80.4441 23.8647 80.5001 24.0045 80.5001 24.15C80.5001 24.2954 80.4441 24.4353 80.3439 24.5401C80.2437 24.645 80.107 24.7068 79.9625 24.7126C77.7887 24.7126 76.0209 27.1706 76.0209 30.1925C76.0209 33.2144 77.7887 35.6724 79.9625 35.6724C80.111 35.6724 80.2533 35.7317 80.3583 35.8373C80.4633 35.9429 80.5222 36.0861 80.5222 36.2354C80.5222 36.3847 80.4633 36.5279 80.3583 36.6335C80.2533 36.7391 80.111 36.7984 79.9625 36.7984V36.7949Z" fill="#445664"/>
<path d="M94.3254 37.5675C94.9538 37.5675 95.4632 36.9696 95.4632 36.232C95.4632 35.4944 94.9538 34.8965 94.3254 34.8965C93.6969 34.8965 93.1875 35.4944 93.1875 36.232C93.1875 36.9696 93.6969 37.5675 94.3254 37.5675Z" fill="#445664"/>
<path d="M94.4508 36.7951C91.6611 36.7951 89.3906 33.8324 89.3906 30.1909C89.3906 26.5494 91.6611 23.5876 94.4508 23.5876C94.5261 23.5846 94.6013 23.5969 94.6717 23.6238C94.7422 23.6508 94.8065 23.6917 94.8608 23.7443C94.9152 23.7968 94.9584 23.8598 94.9879 23.9296C95.0175 23.9993 95.0327 24.0744 95.0327 24.1502C95.0327 24.226 95.0175 24.301 94.9879 24.3708C94.9584 24.4405 94.9152 24.5036 94.8608 24.5561C94.8065 24.6086 94.7422 24.6496 94.6717 24.6765C94.6013 24.7034 94.5261 24.7158 94.4508 24.7128C92.2779 24.7128 90.51 27.1708 90.51 30.1927C90.51 33.2146 92.2779 35.6726 94.4508 35.6726C94.5993 35.6726 94.7416 35.7319 94.8466 35.8375C94.9515 35.9431 95.0105 36.0863 95.0105 36.2356C95.0105 36.3849 94.9515 36.5281 94.8466 36.6337C94.7416 36.7393 94.5993 36.7986 94.4508 36.7986V36.7951Z" fill="#445664"/>
<path d="M43.4974 42.0407H25.6562L29.7473 38.469L25.6562 34.8965H43.4974V42.0407Z" fill="#F70431"/>
<path d="M42.5999 43.1773H37.5142C37.4895 43.1773 37.4659 43.1674 37.4484 43.1499C37.4309 43.1323 37.4211 43.1085 37.4211 43.0836C37.4211 43.0588 37.4309 43.0349 37.4484 43.0174C37.4659 42.9998 37.4895 42.9899 37.5142 42.9899H42.5068V36.0331H25.0092L28.9104 39.4404C28.9197 39.4485 28.9273 39.4583 28.9327 39.4694C28.9382 39.4804 28.9414 39.4925 28.9422 39.5048C28.943 39.5171 28.9414 39.5295 28.9375 39.5412C28.9335 39.5529 28.9273 39.5637 28.9192 39.5729C28.9116 39.5828 28.902 39.5909 28.8911 39.5967C28.8801 39.6026 28.8681 39.606 28.8557 39.6069C28.8434 39.6077 28.831 39.6059 28.8193 39.6016C28.8077 39.5973 28.7971 39.5905 28.7883 39.5818L24.6973 36.0101C24.6823 35.9981 24.6716 35.9815 24.6668 35.9629C24.6621 35.9442 24.6635 35.9245 24.6709 35.9067C24.6776 35.8887 24.6896 35.8732 24.7053 35.8623C24.721 35.8514 24.7397 35.8456 24.7588 35.8457H42.5999C42.6122 35.8456 42.6244 35.8479 42.6358 35.8526C42.6472 35.8572 42.6576 35.8641 42.6663 35.8728C42.6751 35.8815 42.682 35.8919 42.6868 35.9033C42.6915 35.9148 42.6939 35.927 42.6939 35.9394V43.0836C42.6937 43.1085 42.6837 43.1324 42.6661 43.1499C42.6485 43.1675 42.6247 43.1773 42.5999 43.1773Z" fill="#002E5D"/>
<path d="M100.082 47.6787H115.414L111.898 51.2504L115.414 54.8229H100.082V47.6787Z" fill="#F70431"/>
<path d="M106.393 55.7554H100.848C100.836 55.7556 100.823 55.7532 100.812 55.7486C100.801 55.7439 100.79 55.737 100.781 55.7283C100.773 55.7196 100.766 55.7092 100.761 55.6978C100.756 55.6864 100.754 55.6741 100.754 55.6618V48.5175C100.754 48.4926 100.764 48.4688 100.782 48.4512C100.799 48.4337 100.823 48.4238 100.848 48.4238H116.179C116.197 48.4235 116.216 48.4287 116.231 48.439C116.247 48.4492 116.259 48.464 116.267 48.4813C116.275 48.4983 116.277 48.5175 116.273 48.5359C116.27 48.5543 116.26 48.5711 116.246 48.5838L112.732 52.1555C112.723 52.1643 112.713 52.1712 112.702 52.176C112.69 52.1808 112.678 52.1833 112.666 52.1834C112.654 52.1835 112.642 52.1811 112.63 52.1765C112.619 52.1719 112.609 52.165 112.6 52.1564C112.591 52.1477 112.584 52.1374 112.58 52.1261C112.575 52.1148 112.572 52.1026 112.572 52.0903C112.572 52.078 112.574 52.0658 112.579 52.0543C112.584 52.0429 112.59 52.0326 112.599 52.0238L115.956 48.6121H100.941V55.5681H106.389C106.413 55.5681 106.437 55.5779 106.455 55.5955C106.472 55.6131 106.482 55.6369 106.482 55.6618C106.482 55.6866 106.472 55.7104 106.455 55.728C106.437 55.7456 106.413 55.7554 106.389 55.7554H106.393Z" fill="#002E5D"/>
<path d="M96.6348 58.705H46.4213C46.3966 58.705 46.3729 58.6951 46.3554 58.6775C46.3379 58.6599 46.3281 58.6361 46.3281 58.6113C46.3281 58.5864 46.3379 58.5626 46.3554 58.545C46.3729 58.5275 46.3966 58.5176 46.4213 58.5176H96.6348C96.6595 58.5176 96.6832 58.5275 96.7006 58.545C96.7181 58.5626 96.7279 58.5864 96.7279 58.6113C96.7279 58.6361 96.7181 58.6599 96.7006 58.6775C96.6832 58.6951 96.6595 58.705 96.6348 58.705Z" fill="#002E5D"/>
<path d="M96.6348 70.7838H46.4213C46.3966 70.7838 46.3729 70.7739 46.3554 70.7564C46.3379 70.7388 46.3281 70.715 46.3281 70.6901C46.3281 70.6653 46.3379 70.6414 46.3554 70.6239C46.3729 70.6063 46.3966 70.5964 46.4213 70.5964H96.6348C96.6595 70.5964 96.6832 70.6063 96.7006 70.6239C96.7181 70.6414 96.7279 70.6653 96.7279 70.6901C96.7279 70.715 96.7181 70.7388 96.7006 70.7564C96.6832 70.7739 96.6595 70.7838 96.6348 70.7838Z" fill="#002E5D"/>
<path d="M96.6344 82.8633H46.4209C46.3976 82.861 46.376 82.8501 46.3603 82.8327C46.3446 82.8153 46.3359 82.7927 46.3359 82.7692C46.3359 82.7457 46.3446 82.723 46.3603 82.7056C46.376 82.6882 46.3976 82.6773 46.4209 82.675H96.6344C96.6576 82.6773 96.6792 82.6882 96.6949 82.7056C96.7106 82.723 96.7193 82.7457 96.7193 82.7692C96.7193 82.7927 96.7106 82.8153 96.6949 82.8327C96.6792 82.8501 96.6576 82.861 96.6344 82.8633Z" fill="#002E5D"/>
<path d="M96.6344 94.9422H46.4209C46.3976 94.9399 46.376 94.929 46.3603 94.9116C46.3446 94.8942 46.3359 94.8715 46.3359 94.848C46.3359 94.8245 46.3446 94.8019 46.3603 94.7845C46.376 94.7671 46.3976 94.7562 46.4209 94.7539H96.6344C96.6576 94.7562 96.6792 94.7671 96.6949 94.7845C96.7106 94.8019 96.7193 94.8245 96.7193 94.848C96.7193 94.8715 96.7106 94.8942 96.6949 94.9116C96.6792 94.929 96.6576 94.9399 96.6344 94.9422Z" fill="#002E5D"/>
<path d="M66.9692 107.021H46.4209C46.3976 107.019 46.376 107.008 46.3603 106.99C46.3446 106.973 46.3359 106.95 46.3359 106.927C46.3359 106.903 46.3446 106.881 46.3603 106.863C46.376 106.846 46.3976 106.835 46.4209 106.833H66.9692C66.9924 106.835 67.014 106.846 67.0297 106.863C67.0454 106.881 67.0541 106.903 67.0541 106.927C67.0541 106.95 67.0454 106.973 67.0297 106.99C67.014 107.008 66.9924 107.019 66.9692 107.021Z" fill="#002E5D"/>
<path d="M81.4222 77.6062H47.2188V80.6626H81.4222V77.6062Z" fill="#BBD1DC"/>
<path d="M70.6104 89.762H47.2188V92.8183H70.6104V89.762Z" fill="#BBD1DC"/>
<path d="M90.8904 89.762H73.8594V92.8183H90.8904V89.762Z" fill="#BBD1DC"/>
<path d="M104.515 110.908C108.447 106.952 108.447 100.538 104.515 96.5822C100.582 92.6262 94.2058 92.6262 90.2731 96.5822C86.3404 100.538 86.3404 106.952 90.2731 110.908C94.2058 114.864 100.582 114.864 104.515 110.908Z" fill="#F70431"/>
<path d="M98.2765 115.249C98.2642 115.249 98.2521 115.246 98.2408 115.242C98.2295 115.237 98.2193 115.23 98.2106 115.221C98.202 115.213 98.1951 115.202 98.1904 115.191C98.1857 115.18 98.1833 115.168 98.1833 115.155C98.1833 115.143 98.1857 115.131 98.1904 115.119C98.1951 115.108 98.202 115.098 98.2106 115.089C98.2193 115.08 98.2295 115.073 98.2408 115.069C98.2521 115.064 98.2642 115.062 98.2765 115.062C99.9895 115.062 101.674 114.618 103.167 113.774C104.66 112.93 105.912 111.713 106.803 110.24C107.693 108.768 108.191 107.09 108.25 105.368C108.308 103.646 107.925 101.937 107.136 100.407C106.348 98.8773 105.181 97.5773 103.749 96.6324C102.316 95.6875 100.666 95.1296 98.9569 95.0124C97.2478 94.8951 95.5375 95.2226 93.9906 95.9631C92.4438 96.7036 91.1126 97.8323 90.1252 99.2405C90.1184 99.2513 90.1096 99.2605 90.0992 99.2678C90.0888 99.275 90.077 99.28 90.0646 99.2825C90.0522 99.285 90.0394 99.285 90.027 99.2824C90.0146 99.2797 90.0029 99.2746 89.9926 99.2673C89.9822 99.2599 89.9735 99.2505 89.9669 99.2397C89.9603 99.2288 89.9559 99.2167 89.9541 99.2041C89.9523 99.1915 89.953 99.1787 89.9563 99.1664C89.9596 99.1541 89.9653 99.1426 89.9732 99.1326C90.9795 97.699 92.3359 96.5501 93.9116 95.7965C95.4873 95.043 97.2293 94.7101 98.97 94.8301C100.711 94.95 102.391 95.5187 103.85 96.4813C105.309 97.444 106.497 98.7682 107.3 100.326C108.102 101.885 108.492 103.625 108.433 105.379C108.373 107.133 107.866 108.842 106.959 110.341C106.053 111.841 104.778 113.081 103.257 113.941C101.736 114.801 100.021 115.253 98.2765 115.253V115.249Z" fill="#002E5D"/>
<path d="M92.4481 105.025C93.1507 105.025 93.7204 104.452 93.7204 103.745C93.7204 103.039 93.1507 102.466 92.4481 102.466C91.7454 102.466 91.1758 103.039 91.1758 103.745C91.1758 104.452 91.7454 105.025 92.4481 105.025Z" fill="white"/>
<path d="M97.3934 105.025C98.0961 105.025 98.6657 104.452 98.6657 103.745C98.6657 103.039 98.0961 102.466 97.3934 102.466C96.6907 102.466 96.1211 103.039 96.1211 103.745C96.1211 104.452 96.6907 105.025 97.3934 105.025Z" fill="white"/>
<path d="M102.335 105.025C103.037 105.025 103.607 104.452 103.607 103.745C103.607 103.039 103.037 102.466 102.335 102.466C101.632 102.466 101.062 103.039 101.062 103.745C101.062 104.452 101.632 105.025 102.335 105.025Z" fill="white"/>
<path d="M36.9289 121.516H6.98338C6.96012 121.514 6.93854 121.503 6.92284 121.486C6.90714 121.468 6.89844 121.446 6.89844 121.422C6.89844 121.399 6.90714 121.376 6.92284 121.358C6.93854 121.341 6.96012 121.33 6.98338 121.328H36.9289C36.9522 121.33 36.9737 121.341 36.9894 121.358C37.0051 121.376 37.0138 121.399 37.0138 121.422C37.0138 121.446 37.0051 121.468 36.9894 121.486C36.9737 121.503 36.9522 121.514 36.9289 121.516Z" fill="#002E5D"/>
<path d="M93.7216 124.688H20.5892C20.5645 124.688 20.5408 124.678 20.5234 124.66C20.5059 124.643 20.4961 124.619 20.4961 124.594C20.4961 124.569 20.5059 124.545 20.5234 124.528C20.5408 124.51 20.5645 124.5 20.5892 124.5H93.7216C93.7464 124.5 93.77 124.51 93.7875 124.528C93.805 124.545 93.8148 124.569 93.8148 124.594C93.8148 124.619 93.805 124.643 93.7875 124.66C93.77 124.678 93.7464 124.688 93.7216 124.688Z" fill="#002E5D"/>
<path d="M58.9576 60.5531L63.7516 57.0822L58.5359 54.9884L27.6291 58.0244L27.9366 52.7849L18.926 55.6636L19.1017 58.8508L0.09375 60.7396L0.729019 66.1488L19.3856 64.3449L19.5358 66.8091C19.5358 66.8091 15.5036 71.4157 15.2163 71.787C14.929 72.1582 14.8315 72.5241 14.8455 73.1021C14.8596 73.6802 15.3305 74.2512 15.3305 74.2512L21.1947 79.4544L21.316 79.3254L22.1946 80.1509C21.9468 80.4956 21.0928 82.3826 21.0928 82.3826C20.5744 83.4556 19.9277 85.4814 19.9277 85.4814C19.5086 86.4166 18.9726 89.2608 18.9726 89.2608L18.3575 92.6672L13.5161 117.573L13.3044 118.28L12.4512 119.621L10.7378 120.205L11.2826 121.385L15.2304 121.402L15.3472 117.582H15.4483L25.262 90.454L27.3067 117.576L27.4147 121.401L31.3608 121.423L31.9556 120.16L30.1983 119.612L29.3469 118.291L29.2968 117.584L30.8784 92.0688L31.1508 87.2562C31.1508 87.2562 31.1771 85.652 31.164 84.3147C31.1508 82.9775 31.004 81.345 31.004 81.345C30.9206 79.7266 30.4768 77.8458 30.4768 77.8458L30.8406 69.8814L35.2936 70.6892C36.4192 70.7078 36.3674 69.6701 36.3674 69.6701L35.7523 63.7766H35.6978V62.7884L58.9576 60.5531ZM23.2543 78.3841L22.6313 78.3045L22.4283 78.1163L17.9243 73.5087L21.5506 70.2216L23.0206 76.8258L23.2587 78.1277L23.2543 78.3841ZM34.0222 67.3429L28.6079 64.7028L25.6662 64.603L25.4184 63.7766L33.9036 62.9608L34.038 63.743L34.0222 67.3429Z" fill="white"/>
<path d="M26.468 58.0844L23.7617 57.7485L23.7846 62.8705L26.2141 63.0119L26.468 58.0844Z" fill="#FDC8AA"/>
<path d="M27.8752 53.8516L20.2695 56.6472L21.0401 67.364L24.6426 68.6694L22.2834 57.5717L27.6169 58.2134L27.8752 53.8516Z" fill="#325D9C"/>
<path d="M23.4336 62.8599L25.1821 62.9606L25.6689 64.6028L23.7165 64.305L23.4336 62.8599Z" fill="#FDC8AA"/>
<path d="M23.8837 65.1085L25.1789 65.5504L25.6656 64.5994L26.6005 64.6312L28.5837 69.6524L28.219 77.9279L23.2537 78.1241L23.02 76.8258L21.5535 70.2216L17.9238 73.5086L22.4287 78.1162L21.6476 78.9744L16.3071 73.6898C16.1577 73.5419 16.0704 73.342 16.063 73.1312C16.0557 72.9204 16.1288 72.7149 16.2675 72.5567L20.8752 67.2978L24.6534 68.6722L23.8837 65.1085Z" fill="#325D9C"/>
<path d="M30.0117 67.9147L34.5333 69.009C34.6059 69.0265 34.6815 69.027 34.7543 69.0104C34.8271 68.9938 34.8951 68.9605 34.953 68.9131C35.0109 68.8657 35.0571 68.8055 35.0881 68.7372C35.1191 68.6689 35.134 68.5943 35.1317 68.5193L34.9876 63.7058L35.752 63.7146L36.3758 69.6701C36.3758 69.6701 36.4198 70.7245 35.3021 70.6892L30.8429 69.8813L30.8693 69.2476L30.0117 67.9147Z" fill="#325D9C"/>
<path d="M21.5781 79.5781L22.3259 78.7605L24.9583 80.9286L24.128 81.8328L21.5781 79.5781Z" fill="#FDC8AA"/>
<path d="M27.0965 77.9756C27.0965 77.9756 23.8842 87.356 22.0003 93.7082C20.1165 100.061 14.7215 117.582 14.7215 117.582L13.5195 117.572L18.1 94.1219L18.636 91.123L19.0041 89.03L19.396 87.2623C19.396 87.2623 19.8028 85.7429 20.0638 85.0323C20.3247 84.3217 20.815 83.0374 20.815 83.0374C20.815 83.0374 21.6445 81.0744 22.1928 80.1446L24.0977 81.8142L25.2619 80.6077L23.987 79.2227L24.4465 79.1608L24.4404 78.5421L23.2533 78.3875V78.1311L27.0965 77.9756Z" fill="#325D9C"/>
<path d="M26.7879 86.2839L28.46 117.58H27.3064L25.2617 90.454L26.7879 86.2839Z" fill="#325D9C"/>
<path d="M19.1042 58.8667L19.3194 62.8971L4.59402 64.3015L4.17578 60.3348L19.1042 58.8667Z" fill="#3B82F4"/>
<path d="M58.7729 59.1345L26.2617 62.235L26.4691 58.0844L27.6175 58.2135L27.6307 58.0243L58.5374 54.9883L58.7729 59.1345Z" fill="#3B82F4"/>
<path d="M24.6497 68.764C24.6389 68.7641 24.6281 68.762 24.6181 68.7578L19.4946 66.9097C19.477 66.9041 19.4616 66.8931 19.4505 66.8782C19.4395 66.8632 19.4334 66.8452 19.4331 66.8266L18.8321 55.6661C18.8311 55.6454 18.837 55.6249 18.8487 55.6078C18.8605 55.5907 18.8775 55.578 18.8972 55.5716L27.9078 52.6955C27.9225 52.6904 27.9383 52.6891 27.9536 52.6918C27.969 52.6944 27.9834 52.7008 27.9957 52.7105C28.0075 52.72 28.0169 52.7321 28.0232 52.746C28.0294 52.7598 28.0323 52.7749 28.0317 52.7901L27.7136 58.2284C27.713 58.2413 27.7097 58.2539 27.704 58.2655C27.6983 58.2771 27.6903 58.2873 27.6805 58.2956C27.6707 58.3039 27.6593 58.3101 27.647 58.3137C27.6347 58.3174 27.6218 58.3184 27.609 58.3168L22.4048 57.6919L24.7446 68.6518C24.7484 68.6678 24.7478 68.6845 24.7426 68.7001C24.7375 68.7157 24.7282 68.7296 24.7156 68.7402C24.6974 68.7561 24.6739 68.7646 24.6497 68.764ZM19.6159 66.7541L24.5232 68.5219L22.1912 57.5974C22.1876 57.5828 22.1877 57.5675 22.1915 57.553C22.1954 57.5384 22.2028 57.5251 22.2132 57.5143C22.2232 57.5033 22.2357 57.4948 22.2496 57.4896C22.2635 57.4844 22.2784 57.4825 22.2932 57.4842L27.53 58.1127L27.8349 52.9103L19.0228 55.7307L19.6159 66.7541Z" fill="#002E5D"/>
<path d="M26.2214 63.1153H26.2161L23.4044 62.9527C23.3922 62.952 23.3802 62.9489 23.3692 62.9435C23.3581 62.9382 23.3482 62.9307 23.3401 62.9215C23.3319 62.9123 23.3256 62.9016 23.3216 62.8899C23.3176 62.8783 23.3159 62.866 23.3166 62.8537C23.3184 62.829 23.3296 62.806 23.348 62.7895C23.3664 62.773 23.3904 62.7643 23.415 62.7653L26.1388 62.9226L26.3787 58.0808C26.3807 58.0564 26.3919 58.0336 26.41 58.0172C26.4282 58.0008 26.4518 57.9919 26.4762 57.9925C26.4885 57.9931 26.5004 57.9962 26.5115 58.0016C26.5225 58.0069 26.5324 58.0144 26.5406 58.0236C26.5487 58.0328 26.555 58.0435 26.5591 58.0552C26.5631 58.0668 26.5648 58.0791 26.5641 58.0914L26.3189 63.0278C26.3172 63.0516 26.3067 63.0738 26.2894 63.0902C26.2722 63.1065 26.2495 63.1158 26.2258 63.1162L26.2214 63.1153Z" fill="#002E5D"/>
<path d="M0.729981 66.2423C0.707234 66.2425 0.685234 66.2342 0.668205 66.219C0.651177 66.2038 0.640321 66.1829 0.637722 66.1601L0.000694982 60.7394C-0.000805616 60.7271 0.000129355 60.7146 0.00344636 60.7026C0.00676337 60.6906 0.0123973 60.6794 0.0200254 60.6696C0.0281909 60.6589 0.0385214 60.6501 0.0503351 60.6437C0.0621489 60.6373 0.0751773 60.6334 0.0885607 60.6325L19.0939 58.7658C19.1062 58.7643 19.1187 58.7654 19.1307 58.7688C19.1426 58.7723 19.1537 58.7781 19.1633 58.7859C19.173 58.7938 19.181 58.8035 19.1869 58.8145C19.1927 58.8255 19.1964 58.8376 19.1975 58.85C19.1987 58.8624 19.1974 58.8749 19.1937 58.8869C19.19 58.8988 19.1839 58.9098 19.1759 58.9193C19.1679 58.9289 19.1581 58.9367 19.147 58.9423C19.1359 58.948 19.1239 58.9514 19.1115 58.9523L0.197514 60.8093L0.812574 66.0435L19.3865 64.2581C19.4111 64.2556 19.4356 64.2631 19.4548 64.2788C19.4739 64.2946 19.486 64.3173 19.4884 64.342C19.4909 64.3668 19.4835 64.3915 19.4678 64.4107C19.4522 64.4299 19.4296 64.4421 19.405 64.4446L0.738767 66.2423H0.729981Z" fill="#002E5D"/>
<path d="M25.4179 63.8702C25.3932 63.8713 25.3691 63.8626 25.3508 63.8459C25.3325 63.8291 25.3216 63.8058 25.3204 63.7809C25.3193 63.7561 25.3279 63.7318 25.3446 63.7134C25.3612 63.695 25.3845 63.684 25.4092 63.6828L58.9273 60.462L63.5737 57.1096L58.5196 55.0837L27.6401 58.1171C27.6279 58.1184 27.6156 58.1172 27.6039 58.1136C27.5922 58.11 27.5813 58.1042 27.5718 58.0964C27.5624 58.0886 27.5545 58.079 27.5487 58.0682C27.543 58.0573 27.5394 58.0454 27.5381 58.0332C27.5371 58.0206 27.5385 58.008 27.5424 57.996C27.5462 57.984 27.5524 57.9729 27.5606 57.9633C27.5688 57.9537 27.5788 57.9459 27.59 57.9403C27.6013 57.9347 27.6135 57.9314 27.626 57.9307L58.531 54.8946C58.546 54.8934 58.5611 54.8958 58.575 54.9017L63.8047 56.9982C63.8203 57.0044 63.8339 57.0148 63.8441 57.0282C63.8543 57.0415 63.8608 57.0574 63.8627 57.0742C63.8647 57.0911 63.8621 57.1081 63.8553 57.1237C63.8485 57.1392 63.8377 57.1526 63.8241 57.1626L59.0152 60.6326C59.0018 60.6425 58.986 60.6486 58.9695 60.6503L25.4267 63.8702H25.4179Z" fill="#002E5D"/>
<path d="M4.59391 64.3943C4.5708 64.3944 4.54846 64.3859 4.53125 64.3704C4.51404 64.3549 4.50317 64.3334 4.50077 64.3103L4.08253 60.333C4.07997 60.3082 4.08728 60.2835 4.10285 60.2642C4.11842 60.2449 4.14098 60.2326 4.16557 60.23C4.19015 60.2274 4.21475 60.2348 4.23395 60.2504C4.25314 60.2661 4.26537 60.2888 4.26793 60.3135L4.68617 64.2865C4.68865 64.3112 4.68137 64.3358 4.66592 64.3552C4.65047 64.3745 4.62808 64.387 4.60358 64.3899L4.59391 64.3943Z" fill="#002E5D"/>
<path d="M26.3203 61.17C26.2956 61.1712 26.2714 61.1624 26.2531 61.1457C26.2349 61.129 26.2239 61.1056 26.2228 61.0808C26.2216 61.0559 26.2303 61.0316 26.2469 61.0132C26.2636 60.9948 26.2868 60.9838 26.3115 60.9826L56.9767 57.9917C57.0012 57.9892 57.0258 57.9967 57.0449 58.0124C57.064 58.0282 57.0761 58.0509 57.0786 58.0756C57.081 58.1004 57.0736 58.1251 57.0579 58.1443C57.0423 58.1635 57.0197 58.1757 56.9951 58.1782L26.33 61.1691L26.3203 61.17Z" fill="#002E5D"/>
<path d="M6.38279 63.1155C6.35809 63.1166 6.33394 63.1079 6.31565 63.0911C6.29736 63.0744 6.28643 63.051 6.28526 63.0262C6.28409 63.0013 6.29279 62.977 6.30943 62.9586C6.32608 62.9402 6.3493 62.9292 6.374 62.9281L19.2428 61.6721C19.2671 61.6704 19.2911 61.6782 19.3097 61.694C19.3282 61.7099 19.3399 61.7323 19.3422 61.7567C19.3445 61.7811 19.3372 61.8054 19.322 61.8244C19.3067 61.8435 19.2846 61.8557 19.2604 61.8586L6.39158 63.1146L6.38279 63.1155Z" fill="#002E5D"/>
<path d="M35.3678 70.8094C35.2989 70.809 35.2301 70.8025 35.1622 70.7899L30.826 69.9732C30.8017 69.9687 30.7801 69.9545 30.7661 69.934C30.7521 69.9134 30.7468 69.8881 30.7514 69.8636C30.7559 69.8391 30.7699 69.8175 30.7904 69.8034C30.8108 69.7893 30.836 69.7839 30.8603 69.7885L35.1965 70.6052C35.3362 70.6315 35.4801 70.6245 35.6166 70.585C35.7532 70.5454 35.8787 70.4742 35.9831 70.3772C36.0875 70.2802 36.1679 70.16 36.2179 70.0262C36.2679 69.8923 36.2861 69.7486 36.2711 69.6064L35.6622 63.8083H34.1263V67.3579C34.126 67.3737 34.1219 67.3893 34.1141 67.4031C34.1063 67.4169 34.0953 67.4285 34.0819 67.4368C34.0685 67.4452 34.0532 67.45 34.0375 67.4509C34.0218 67.4518 34.0061 67.4487 33.9919 67.4419L28.5863 64.8027L25.6578 64.6984C25.6379 64.6981 25.6187 64.6914 25.6029 64.6793C25.5871 64.6672 25.5755 64.6504 25.5699 64.6312L25.0919 62.989C25.0858 62.9768 25.0825 62.9634 25.0821 62.9497C25.0817 62.936 25.0843 62.9224 25.0896 62.9099C25.095 62.8973 25.1031 62.8861 25.1132 62.877C25.1234 62.8679 25.1354 62.8612 25.1484 62.8572C25.1614 62.8533 25.1751 62.8523 25.1886 62.8543C25.202 62.8562 25.2149 62.8611 25.2263 62.8686C25.2376 62.8761 25.2472 62.8861 25.2544 62.8977C25.2615 62.9093 25.2661 62.9224 25.2677 62.936L25.7263 64.5136L28.6101 64.6179C28.6229 64.6182 28.6355 64.6212 28.647 64.6268L33.9365 67.2094V63.7146C33.9365 63.6898 33.9463 63.666 33.9638 63.6484C33.9812 63.6308 34.0049 63.621 34.0296 63.621H35.7439C35.7671 63.6197 35.7898 63.6278 35.807 63.6434C35.8243 63.6589 35.8348 63.6807 35.8362 63.704L36.4512 69.587C36.467 69.7408 36.4507 69.8962 36.4032 70.0433C36.3557 70.1904 36.2782 70.3258 36.1756 70.4409C36.073 70.5561 35.9476 70.6483 35.8074 70.7118C35.6672 70.7752 35.5154 70.8085 35.3617 70.8094H35.3678Z" fill="#325D9C"/>
<path d="M25.1791 65.6706C25.1648 65.6704 25.1507 65.6671 25.1378 65.6609C25.1156 65.6499 25.0988 65.6305 25.0908 65.607C25.0829 65.5834 25.0846 65.5577 25.0956 65.5354L25.5736 64.5579C25.5847 64.5359 25.604 64.5193 25.6273 64.5116C25.6505 64.5038 25.6759 64.5056 25.6978 64.5166C25.7198 64.5275 25.7365 64.5467 25.7445 64.5699C25.7525 64.5932 25.7511 64.6187 25.7405 64.6409L25.2625 65.6185C25.2548 65.6341 25.2429 65.6473 25.2282 65.6565C25.2134 65.6658 25.1964 65.6706 25.1791 65.6706Z" fill="#002E5D"/>
<path d="M23.2533 78.2214C23.2295 78.2214 23.2066 78.2123 23.1893 78.1958C23.172 78.1794 23.1615 78.1569 23.1602 78.133C23.1595 78.1085 23.1682 78.0847 23.1846 78.0665C23.201 78.0484 23.2237 78.0374 23.2481 78.0358L30.388 77.7547L30.772 69.2873L29.0217 66.5757C29.0147 66.5653 29.0098 66.5537 29.0073 66.5414C29.0048 66.5292 29.0047 66.5165 29.0072 66.5042C29.0096 66.492 29.0145 66.4803 29.0215 66.4699C29.0285 66.4596 29.0375 66.4507 29.048 66.444C29.0584 66.4372 29.0701 66.4325 29.0824 66.4304C29.0947 66.4282 29.1072 66.4285 29.1194 66.4313C29.1315 66.4341 29.1429 66.4394 29.153 66.4467C29.1631 66.454 29.1717 66.4633 29.1781 66.474L30.9442 69.214C30.9547 69.2306 30.96 69.25 30.9592 69.2697L30.5761 77.8466C30.5744 77.8695 30.5647 77.891 30.5485 77.9073C30.5324 77.9235 30.511 77.9334 30.4882 77.935L23.2569 78.2214H23.2533Z" fill="#002E5D"/>
<path d="M21.1878 79.5535C21.1651 79.5541 21.1431 79.5458 21.1263 79.5305L15.4449 74.4925C15.0403 74.1325 14.7935 73.6263 14.7583 73.0841C14.723 72.5419 14.9023 72.0077 15.2569 71.5979L19.4569 66.7596C19.4649 66.7503 19.4747 66.7427 19.4857 66.7373C19.4967 66.7318 19.5087 66.7286 19.5209 66.7277C19.5332 66.7269 19.5455 66.7285 19.5571 66.7325C19.5687 66.7364 19.5794 66.7427 19.5887 66.7508C19.5979 66.7589 19.6054 66.7688 19.6109 66.7798C19.6163 66.7909 19.6195 66.8029 19.6203 66.8152C19.6212 66.8276 19.6196 66.8399 19.6156 66.8516C19.6117 66.8633 19.6055 66.8741 19.5974 66.8834L15.3975 71.7216C15.0754 72.0942 14.9128 72.5796 14.9449 73.0723C14.9769 73.5649 15.2012 74.0248 15.5688 74.352L21.1817 79.3272L22.3063 78.1331L17.8524 73.5724C17.8437 73.5632 17.8369 73.5524 17.8323 73.5406C17.8278 73.5288 17.8257 73.5161 17.8261 73.5035C17.8265 73.4909 17.8295 73.4786 17.8347 73.4672C17.84 73.4558 17.8475 73.4456 17.8568 73.4372L21.4962 70.1492C21.5084 70.1384 21.5232 70.1309 21.5391 70.1276C21.5551 70.1242 21.5716 70.1251 21.5871 70.1301C21.6026 70.1351 21.6165 70.144 21.6275 70.156C21.6386 70.1681 21.6463 70.1828 21.65 70.1987L23.1086 76.8329C23.1113 76.845 23.1116 76.8574 23.1096 76.8695C23.1075 76.8817 23.1031 76.8933 23.0966 76.9037C23.09 76.9142 23.0815 76.9232 23.0715 76.9303C23.0615 76.9374 23.0502 76.9425 23.0383 76.9452C23.0141 76.9502 22.9889 76.9456 22.968 76.9322C22.9472 76.9188 22.9323 76.8978 22.9267 76.8736L21.5041 70.3958L18.0536 73.5105L22.5023 78.0615C22.519 78.079 22.5283 78.1022 22.5283 78.1265C22.5283 78.1507 22.519 78.174 22.5023 78.1914L21.2537 79.5243C21.2452 79.5333 21.235 79.5405 21.2237 79.5455C21.2124 79.5505 21.2002 79.5532 21.1878 79.5535Z" fill="#002E5D"/>
<path d="M24.104 81.9265C24.0812 81.9269 24.0591 81.9183 24.0425 81.9026L21.49 79.6276C21.4725 79.6109 21.4621 79.588 21.461 79.5638C21.46 79.5396 21.4682 79.5159 21.4842 79.4977C21.5001 79.4795 21.5224 79.4682 21.5464 79.4662C21.5704 79.4643 21.5943 79.4717 21.613 79.487L24.0987 81.702L25.1311 80.614L23.9124 79.282C23.9005 79.2693 23.8924 79.2535 23.889 79.2364C23.8855 79.2193 23.8869 79.2016 23.8929 79.1852C23.899 79.1689 23.9094 79.1546 23.9231 79.1439C23.9368 79.1331 23.9532 79.1265 23.9704 79.1246L24.364 79.0813V78.6253L22.6436 78.3981C22.619 78.3946 22.5968 78.3815 22.5817 78.3617C22.5666 78.3419 22.5598 78.3169 22.5628 78.2921C22.5644 78.2798 22.5684 78.268 22.5746 78.2573C22.5808 78.2466 22.589 78.2372 22.5988 78.2297C22.6086 78.2223 22.6198 78.2168 22.6317 78.2137C22.6436 78.2106 22.6561 78.2099 22.6682 78.2116L24.4695 78.452C24.4912 78.4549 24.5113 78.4653 24.5262 78.4814C24.5411 78.4975 24.5499 78.5184 24.5512 78.5404V79.1591C24.5501 79.1814 24.541 79.2026 24.5257 79.2188C24.5104 79.235 24.4898 79.2452 24.4677 79.2475L24.1742 79.2802L25.3297 80.5388C25.3459 80.5563 25.355 80.5794 25.355 80.6033C25.355 80.6273 25.3459 80.6504 25.3297 80.6679L24.1725 81.8849C24.1649 81.8965 24.1547 81.9063 24.1429 81.9135C24.131 81.9207 24.1177 81.9251 24.104 81.9265Z" fill="#002E5D"/>
<path d="M29.3135 117.674H27.2996C27.2758 117.674 27.2528 117.665 27.2355 117.648C27.2182 117.632 27.2078 117.61 27.2064 117.586L25.1688 90.5069C25.1671 90.4942 25.168 90.4813 25.1714 90.469C25.1748 90.4567 25.1807 90.4452 25.1886 90.4353C25.1966 90.4253 25.2065 90.4171 25.2178 90.4112C25.229 90.4052 25.2414 90.4017 25.2541 90.4007C25.2667 90.3997 25.2795 90.4014 25.2915 90.4056C25.3035 90.4097 25.3145 90.4163 25.3239 90.425C25.3333 90.4336 25.3408 90.444 25.346 90.4557C25.3513 90.4674 25.354 90.48 25.3542 90.4928L27.3857 117.491H29.2256C29.3135 116.014 30.4794 96.7284 30.9522 89.4277C31.4398 81.8937 30.4004 77.9111 30.3898 77.8713C30.3835 77.8589 30.3799 77.8452 30.3795 77.8313C30.3791 77.8173 30.3817 77.8035 30.3873 77.7907C30.3928 77.7779 30.4012 77.7666 30.4117 77.7574C30.4221 77.7483 30.4345 77.7417 30.4479 77.738C30.4613 77.7343 30.4753 77.7336 30.4889 77.7361C30.5026 77.7385 30.5155 77.744 30.5268 77.7521C30.5381 77.7602 30.5474 77.7708 30.5541 77.783C30.5608 77.7952 30.5647 77.8087 30.5656 77.8227C30.577 77.8624 31.6243 81.8707 31.134 89.4401C30.6455 96.9944 29.4154 117.385 29.4031 117.59C29.4006 117.613 29.3902 117.633 29.3737 117.649C29.3573 117.664 29.3359 117.673 29.3135 117.674Z" fill="#325D9C"/>
<path d="M15.4519 117.674H13.5188C13.505 117.674 13.4914 117.671 13.479 117.665C13.4665 117.659 13.4555 117.65 13.4468 117.64C13.4382 117.629 13.432 117.616 13.4286 117.603C13.4253 117.59 13.4249 117.576 13.4275 117.562C13.4732 117.334 17.9605 94.67 18.8382 89.4738C19.7169 84.2591 22.1068 80.1412 22.1306 80.0996C22.1431 80.0782 22.1637 80.0627 22.1877 80.0564C22.2116 80.0502 22.2371 80.0538 22.2584 80.0665C22.2797 80.0792 22.2952 80.0998 22.3014 80.1239C22.3075 80.1481 22.3039 80.1737 22.2914 80.1951C22.2676 80.2358 19.897 84.3236 19.0219 89.5048C18.1757 94.5171 13.9775 115.745 13.6331 117.487H15.3851L26.7005 86.2522C26.709 86.2287 26.7264 86.2097 26.7489 86.1991C26.7714 86.1886 26.7971 86.1875 26.8204 86.196C26.8437 86.2046 26.8627 86.2221 26.8731 86.2448C26.8836 86.2674 26.8847 86.2933 26.8762 86.3167L15.5415 117.612C15.5349 117.631 15.5227 117.647 15.5066 117.658C15.4905 117.669 15.4714 117.675 15.4519 117.674Z" fill="#325D9C"/>
<path d="M31.3706 121.495H27.4272C27.4034 121.495 27.3804 121.486 27.3631 121.469C27.3458 121.453 27.3354 121.431 27.334 121.407L27.2462 118.136C27.2452 118.112 27.2539 118.088 27.2704 118.07C27.2868 118.052 27.3097 118.041 27.334 118.04C27.3578 118.04 27.3808 118.049 27.3981 118.066C27.4154 118.082 27.4258 118.105 27.4272 118.128L27.515 121.31H31.3047L31.8002 120.235L30.1519 119.699C30.131 119.693 30.1131 119.679 30.1018 119.66L29.2715 118.345C29.2648 118.335 29.2602 118.323 29.258 118.311C29.2558 118.299 29.256 118.286 29.2586 118.274C29.2613 118.262 29.2662 118.251 29.2732 118.24C29.2803 118.23 29.2892 118.222 29.2996 118.215C29.3207 118.202 29.3459 118.198 29.3701 118.203C29.3942 118.209 29.4152 118.223 29.4287 118.244L30.2406 119.531L31.9575 120.089C31.9701 120.093 31.9817 120.1 31.9916 120.109C32.0014 120.118 32.0093 120.129 32.0146 120.141C32.02 120.153 32.0228 120.166 32.0228 120.179C32.0228 120.193 32.02 120.206 32.0146 120.218L31.4514 121.442C31.444 121.457 31.4325 121.47 31.4183 121.48C31.404 121.489 31.3876 121.494 31.3706 121.495Z" fill="#002E5D"/>
<path d="M27.3672 119.242C27.3672 119.242 29.9522 120.47 29.9636 120.441C29.975 120.413 30.1842 119.606 30.1842 119.606L31.9336 120.174L31.3695 121.401H27.4261L27.3672 119.242Z" fill="#002E5D"/>
<path d="M15.2346 121.495H11.2947C11.2763 121.496 11.2581 121.491 11.2425 121.481C11.2268 121.471 11.2144 121.457 11.2069 121.44L10.641 120.214C10.6356 120.202 10.6328 120.189 10.6328 120.176C10.6328 120.163 10.6356 120.149 10.641 120.137C10.6464 120.125 10.6542 120.114 10.6641 120.105C10.6739 120.096 10.6855 120.089 10.6981 120.085L12.415 119.527L13.2278 118.241C13.241 118.22 13.2619 118.205 13.2859 118.199C13.31 118.194 13.3352 118.198 13.3561 118.211C13.3768 118.225 13.3914 118.246 13.3968 118.27C13.4022 118.295 13.398 118.32 13.3851 118.341L12.5547 119.657C12.5427 119.675 12.5251 119.688 12.5046 119.695L10.8554 120.231L11.3519 121.307H15.1406L15.2285 118.125C15.2288 118.112 15.2316 118.1 15.2366 118.089C15.2416 118.078 15.2487 118.068 15.2576 118.059C15.2665 118.051 15.277 118.044 15.2884 118.04C15.2998 118.035 15.312 118.033 15.3243 118.034C15.3365 118.034 15.3485 118.037 15.3597 118.042C15.3709 118.047 15.3809 118.054 15.3893 118.063C15.3978 118.072 15.4043 118.083 15.4087 118.094C15.413 118.106 15.4151 118.118 15.4148 118.13L15.3269 121.4C15.3269 121.425 15.3172 121.449 15.3 121.467C15.2827 121.484 15.2593 121.494 15.2346 121.495Z" fill="#002E5D"/>
<path d="M15.2903 119.242C15.2903 119.242 12.7053 120.468 12.6965 120.441C12.6877 120.415 12.476 119.606 12.476 119.606L10.7266 120.174L11.2924 121.401H15.2323L15.2903 119.242Z" fill="#002E5D"/>
<path d="M35.6986 63.3725C35.6739 63.3725 35.6502 63.3626 35.6327 63.345C35.6153 63.3275 35.6055 63.3036 35.6055 63.2788V62.7856C35.6055 62.7607 35.6153 62.7369 35.6327 62.7193C35.6502 62.7018 35.6739 62.6919 35.6986 62.6919C35.7233 62.6919 35.747 62.7018 35.7645 62.7193C35.7819 62.7369 35.7917 62.7607 35.7917 62.7856V63.2841C35.7906 63.3081 35.7803 63.3307 35.7629 63.3472C35.7455 63.3637 35.7225 63.3727 35.6986 63.3725Z" fill="#002E5D"/>
<path d="M33.9692 63.4345C33.9471 63.4346 33.9258 63.4269 33.9089 63.4126C33.892 63.3984 33.8807 63.3786 33.8769 63.3567L33.8145 62.9758C33.8119 62.9634 33.8118 62.9505 33.8143 62.9381C33.8167 62.9257 33.8216 62.9138 33.8288 62.9034C33.8359 62.8929 33.845 62.884 33.8557 62.8772C33.8663 62.8704 33.8782 62.8658 33.8907 62.8638C33.9031 62.8617 33.9159 62.8623 33.9281 62.8653C33.9403 62.8684 33.9518 62.8739 33.9619 62.8816C33.9719 62.8892 33.9803 62.8989 33.9866 62.9099C33.9928 62.9209 33.9968 62.9331 33.9982 62.9457L34.0606 63.3258C34.0627 63.3379 34.0624 63.3504 34.0597 63.3624C34.057 63.3744 34.052 63.3858 34.0448 63.3958C34.0377 63.4059 34.0287 63.4144 34.0183 63.4209C34.0078 63.4274 33.9962 63.4317 33.9841 63.4336L33.9692 63.4345Z" fill="#002E5D"/>
<path d="M33.2413 19.6135C35.0252 17.819 35.0252 14.9095 33.2413 13.115C31.4573 11.3205 28.5649 11.3205 26.7809 13.115C24.997 14.9095 24.997 17.819 26.7809 19.6135C28.5649 21.4081 31.4573 21.4081 33.2413 19.6135Z" fill="#BBD1DC"/>
<path d="M121.18 71.9203C121.841 71.2548 121.841 70.1758 121.18 69.5104C120.518 68.8449 119.445 68.8449 118.784 69.5104C118.122 70.1758 118.122 71.2548 118.784 71.9203C119.445 72.5858 120.518 72.5858 121.18 71.9203Z" fill="#BBD1DC"/>
</g>
<defs>
<clipPath id="clip0_2619_27845">
<rect width="130" height="125" fill="white"/>
</clipPath>
</defs>
</svg>
