<svg width="130" height="125" viewBox="0 0 130 125" fill="none" xmlns="http://www.w3.org/2000/svg">
<g clip-path="url(#clip0_2619_28022)">
<path d="M61.8444 0C27.6883 0 0 27.7073 0 61.887C0 84.6342 12.2644 104.515 30.5364 115.271H93.1509C111.423 104.516 123.688 84.6358 123.688 61.887C123.689 27.7073 96.0005 0 61.8444 0Z" fill="#F3F8FF"/>
<path d="M61.4366 97.3171L17.6367 61.882L61.4366 24.0004L105.238 61.882L61.4366 97.3171Z" fill="#325D9C"/>
<path d="M97.3802 37.26H25.4961V103.139H97.3802V37.26Z" fill="white"/>
<path d="M75.0529 41.2502H57.7227V57.6336H75.0529V41.2502Z" fill="#F3F8FF"/>
<path d="M75.0522 70.5774H47.8189C47.8066 70.5782 47.7942 70.5765 47.7826 70.5723C47.7709 70.5681 47.7603 70.5616 47.7512 70.5532C47.7422 70.5447 47.735 70.5345 47.7301 70.5231C47.7252 70.5118 47.7227 70.4995 47.7227 70.4872C47.7227 70.4748 47.7252 70.4626 47.7301 70.4512C47.735 70.4399 47.7422 70.4296 47.7512 70.4212C47.7603 70.4127 47.7709 70.4062 47.7826 70.402C47.7942 70.3979 47.8066 70.3961 47.8189 70.3969H75.0522C75.0751 70.3984 75.0966 70.4086 75.1123 70.4253C75.128 70.4421 75.1367 70.4642 75.1367 70.4872C75.1367 70.5101 75.128 70.5322 75.1123 70.549C75.0966 70.5658 75.0751 70.5759 75.0522 70.5774Z" fill="#002E5D"/>
<path d="M78.0203 77.5445H31.7564C31.7441 77.5453 31.7317 77.5435 31.7201 77.5394C31.7084 77.5352 31.6978 77.5287 31.6887 77.5202C31.6797 77.5117 31.6725 77.5015 31.6676 77.4902C31.6627 77.4788 31.6602 77.4666 31.6602 77.4542C31.6602 77.4418 31.6627 77.4296 31.6676 77.4182C31.6725 77.4069 31.6797 77.3967 31.6887 77.3882C31.6978 77.3798 31.7084 77.3732 31.7201 77.3691C31.7317 77.3649 31.7441 77.3632 31.7564 77.364H78.0203C78.0326 77.3632 78.045 77.3649 78.0567 77.3691C78.0683 77.3732 78.079 77.3798 78.088 77.3882C78.097 77.3967 78.1042 77.4069 78.1091 77.4182C78.114 77.4296 78.1166 77.4418 78.1166 77.4542C78.1166 77.4666 78.114 77.4788 78.1091 77.4902C78.1042 77.5015 78.097 77.5117 78.088 77.5202C78.079 77.5287 78.0683 77.5352 78.0567 77.5394C78.045 77.5435 78.0326 77.5453 78.0203 77.5445Z" fill="#002E5D"/>
<path d="M66.66 84.5116H31.7544C31.7426 84.5116 31.7308 84.5092 31.7199 84.5047C31.7089 84.5001 31.6989 84.4935 31.6905 84.4851C31.6821 84.4767 31.6755 84.4667 31.6709 84.4557C31.6664 84.4448 31.6641 84.433 31.6641 84.4211C31.6641 84.4092 31.6664 84.3975 31.6709 84.3865C31.6755 84.3755 31.6821 84.3656 31.6905 84.3572C31.6989 84.3488 31.7089 84.3421 31.7199 84.3376C31.7308 84.333 31.7426 84.3307 31.7544 84.3307H66.66C66.684 84.3307 66.707 84.3402 66.7239 84.3572C66.7409 84.3741 66.7504 84.3971 66.7504 84.4211C66.7504 84.4451 66.7409 84.4681 66.7239 84.4851C66.707 84.502 66.684 84.5116 66.66 84.5116Z" fill="#002E5D"/>
<path d="M105.238 61.882V120.812H17.6367V61.882L61.4374 91.3468L105.238 61.882Z" fill="#BBD1DC"/>
<path d="M25.4927 50.5665C25.4809 50.5665 25.4691 50.5642 25.4581 50.5597C25.4472 50.5551 25.4372 50.5485 25.4288 50.5401C25.4204 50.5317 25.4138 50.5217 25.4092 50.5107C25.4047 50.4997 25.4023 50.488 25.4023 50.4761V37.2601C25.4023 37.2482 25.4047 37.2365 25.4092 37.2255C25.4138 37.2145 25.4204 37.2046 25.4288 37.1962C25.4372 37.1878 25.4472 37.1811 25.4581 37.1766C25.4691 37.172 25.4809 37.1697 25.4927 37.1697H50.473C50.497 37.1697 50.52 37.1792 50.537 37.1962C50.5539 37.2131 50.5634 37.2361 50.5634 37.2601C50.5634 37.2841 50.5539 37.3071 50.537 37.3241C50.52 37.341 50.497 37.3506 50.473 37.3506H25.5831V50.4761C25.5831 50.5001 25.5736 50.5231 25.5566 50.5401C25.5397 50.557 25.5167 50.5665 25.4927 50.5665Z" fill="#002E5D"/>
<path d="M97.3795 52.8946C97.3556 52.8945 97.3327 52.885 97.3159 52.868C97.299 52.8511 97.2895 52.8281 97.2895 52.8042V37.3506H85.1997C85.1758 37.3506 85.1528 37.341 85.1358 37.3241C85.1189 37.3071 85.1094 37.2841 85.1094 37.2601C85.1094 37.2361 85.1189 37.2131 85.1358 37.1962C85.1528 37.1792 85.1758 37.1697 85.1997 37.1697H97.378C97.402 37.1697 97.4249 37.1792 97.4419 37.1962C97.4588 37.2131 97.4684 37.2361 97.4684 37.2601V52.8042C97.4684 52.8279 97.4591 52.8507 97.4424 52.8676C97.4258 52.8845 97.4032 52.8942 97.3795 52.8946Z" fill="#002E5D"/>
<path d="M99.1855 102.581L69.5 97.1614L67.3262 109.084L97.0117 114.504L99.1855 102.581Z" fill="white"/>
<path d="M79.5404 102.568C79.535 102.569 79.5296 102.569 79.5243 102.568L71.8953 101.172C71.8724 101.167 71.8523 101.153 71.8394 101.134C71.8264 101.114 71.8215 101.09 71.8257 101.067C71.8299 101.044 71.8429 101.024 71.862 101.01C71.881 100.997 71.9046 100.991 71.9278 100.994L79.5564 102.388C79.5786 102.392 79.5983 102.404 79.6119 102.422C79.6255 102.44 79.6319 102.462 79.6299 102.485C79.6279 102.507 79.6176 102.528 79.601 102.543C79.5845 102.558 79.5629 102.567 79.5404 102.567V102.568Z" fill="#002E5D"/>
<path d="M94.9522 108.067C94.9467 108.068 94.9412 108.068 94.9357 108.067L73.6648 104.182C73.6419 104.177 73.6219 104.163 73.6089 104.143C73.5959 104.124 73.591 104.1 73.5952 104.077C73.5995 104.054 73.6125 104.033 73.6315 104.02C73.6506 104.006 73.6742 104 73.6973 104.004L94.9683 107.889C94.9904 107.893 95.0102 107.906 95.0238 107.924C95.0373 107.942 95.0438 107.964 95.0417 107.986C95.0397 108.009 95.0294 108.03 95.0129 108.045C94.9963 108.06 94.9747 108.069 94.9522 108.069V108.067Z" fill="#002E5D"/>
<path d="M94.4795 110.664C94.4741 110.664 94.4686 110.664 94.4631 110.664L73.1921 106.778C73.1692 106.773 73.1492 106.759 73.1362 106.74C73.1232 106.72 73.1184 106.697 73.1226 106.674C73.1268 106.65 73.1398 106.63 73.1589 106.616C73.1779 106.603 73.2015 106.597 73.2247 106.6L94.4956 110.484C94.5181 110.488 94.5384 110.5 94.5524 110.518C94.5664 110.536 94.5731 110.559 94.5711 110.581C94.569 110.604 94.5584 110.625 94.5414 110.64C94.5245 110.656 94.5023 110.664 94.4795 110.663V110.664Z" fill="#002E5D"/>
<path d="M76.5339 94.3903L63.5078 101.916L64.5342 103.695L77.5603 96.1692L76.5339 94.3903Z" fill="#F3F8FF"/>
<path d="M99.4415 109.527L90.4102 114.745L91.4365 116.524L100.468 111.306L99.4415 109.527Z" fill="#F3F8FF"/>
<path d="M46.614 101.408C46.5946 101.408 46.5757 101.402 46.5601 101.39C46.5445 101.379 46.533 101.363 46.5274 101.344C46.5217 101.326 46.5222 101.306 46.5287 101.287C46.5352 101.269 46.5474 101.253 46.5635 101.243L92.3935 70.4123C92.4033 70.4052 92.4144 70.4002 92.4262 70.3975C92.438 70.3948 92.4502 70.3945 92.4622 70.3967C92.4741 70.3988 92.4854 70.4033 92.4956 70.4099C92.5057 70.4165 92.5144 70.4251 92.5212 70.4351C92.528 70.4451 92.5327 70.4564 92.535 70.4683C92.5373 70.4802 92.5372 70.4924 92.5348 70.5043C92.5323 70.5161 92.5274 70.5274 92.5205 70.5373C92.5136 70.5472 92.5048 70.5557 92.4946 70.5622L46.6642 101.392C46.6495 101.403 46.632 101.408 46.614 101.408Z" fill="#002E5D"/>
<path d="M63.5085 102.006C63.4886 102.006 63.4693 102 63.4535 101.988C63.4377 101.976 63.4263 101.959 63.4211 101.94C63.4159 101.92 63.4172 101.9 63.4248 101.882C63.4323 101.863 63.4457 101.848 63.4629 101.838L76.4894 94.3123C76.5102 94.3004 76.5348 94.2972 76.558 94.3034C76.5811 94.3097 76.6008 94.3249 76.6127 94.3456L77.6391 96.1246C77.6509 96.1453 77.6541 96.1699 77.6479 96.193C77.6418 96.2161 77.6267 96.2359 77.6061 96.248L76.3872 96.952C76.3769 96.9587 76.3653 96.9632 76.3532 96.9653C76.3412 96.9674 76.3288 96.967 76.3168 96.9641C76.3049 96.9613 76.2937 96.956 76.2838 96.9487C76.274 96.9414 76.2657 96.9321 76.2596 96.9215C76.2534 96.9108 76.2495 96.8991 76.2481 96.8869C76.2466 96.8747 76.2477 96.8623 76.2512 96.8505C76.2546 96.8388 76.2605 96.8278 76.2683 96.8184C76.2762 96.8089 76.2858 96.8012 76.2968 96.7956L77.4376 96.1365L76.5013 94.5139L63.5533 101.995C63.5396 102.002 63.5242 102.006 63.5085 102.006Z" fill="#002E5D"/>
<path d="M91.4356 116.614C91.42 116.614 91.4048 116.609 91.3913 116.601C91.3779 116.593 91.3668 116.582 91.359 116.569L90.3323 114.79C90.3204 114.769 90.3172 114.744 90.3234 114.721C90.3297 114.698 90.3449 114.678 90.3656 114.666L96.2908 111.243C96.3011 111.236 96.3126 111.232 96.3247 111.23C96.3368 111.228 96.3492 111.228 96.3612 111.231C96.3731 111.234 96.3843 111.239 96.3942 111.246C96.404 111.254 96.4122 111.263 96.4184 111.273C96.4245 111.284 96.4284 111.296 96.4299 111.308C96.4313 111.32 96.4303 111.333 96.4268 111.344C96.4233 111.356 96.4175 111.367 96.4097 111.377C96.4018 111.386 96.3921 111.394 96.3812 111.399L90.5326 114.777L91.5137 116.477C91.5257 116.498 91.5289 116.522 91.5228 116.546C91.5166 116.569 91.5015 116.588 91.4808 116.6C91.4672 116.609 91.4516 116.614 91.4356 116.614Z" fill="#002E5D"/>
<path d="M95.8125 82.4012L97.0828 83.8015L99.2527 82.9546L99.7321 82.7963L110.876 75.4939L110.217 86.2722L110.614 121.543L110.92 121.57L110.055 123.172L107.187 123.323L107.039 124.311H113.726L113.055 121.992L113.206 121.545L115.71 97.9491L120.395 121.539L120.57 121.57L120.589 122.14L119.563 123.181L116.592 123.479L116.57 124.281L123.202 124.268L122.677 122.09L122.666 121.536L121.227 91.6933L127.849 81.3975L124.099 68.3912L119.801 66.1451L118.91 65.9496L117.761 63.9515L117.393 63.2111L119.243 54.4237L109.148 51.7273L110.24 56.6656H110.852L112.389 63.1279L114.517 62.8827L114.858 65.0536L114.745 66.2892L112.312 66.3808L98.9049 80.761L98.4952 80.9468L96.5206 80.6932V81.2711L97.2509 81.5608L95.8125 82.4012ZM120.889 86.2224L122.404 77.837L124.294 80.6598L121.01 88.4872L120.889 86.2224Z" fill="white"/>
<path d="M109.508 53.342L117.501 55.7387L116.959 63.199L114.519 62.9235L113.504 56.693L110.243 56.6669L109.508 53.342Z" fill="#325D9C"/>
<path d="M112.693 56.6464L113.363 63.0463L112.392 63.1294L110.816 56.6625L112.693 56.6464Z" fill="#F4B18F"/>
<path d="M111.234 67.5775L98.9062 80.7625L99.303 81.7765L110.01 75.047L110.876 75.4938L110.216 86.2721H119.612L122.591 71.5179L120.545 68.5758L111.234 67.5775Z" fill="#F70431"/>
<path d="M123.514 71.6582L126.461 80.9883L121.093 89.9201L121.012 88.488L124.295 80.6598L122.405 77.837L123.514 71.6582Z" fill="#F70431"/>
<path d="M114.449 86.3077L112.257 121.601L110.669 121.562L110.215 86.2721L114.449 86.3077Z" fill="#325D9C"/>
<path d="M116.048 94.5479L116.798 88.4879L121.891 121.575L120.394 121.539L115.676 97.7482L116.048 94.5479Z" fill="#325D9C"/>
<path d="M98.4959 80.9483L96.5217 80.6946V81.2725L97.2521 81.5622L95.8125 82.4011L96.395 83.0434L99.3028 81.7764L98.9061 80.7624L98.4959 80.9483Z" fill="#F4B18F"/>
<path d="M114.858 65.146C114.837 65.1459 114.816 65.1382 114.799 65.1241C114.783 65.11 114.772 65.0906 114.769 65.0693L113.441 56.756H110.241C110.221 56.756 110.201 56.7491 110.185 56.7362C110.169 56.7234 110.157 56.7055 110.153 56.6854L109.061 51.7464C109.057 51.7313 109.058 51.7155 109.062 51.7007C109.067 51.6858 109.075 51.6724 109.086 51.6617C109.098 51.6509 109.111 51.6433 109.126 51.6395C109.141 51.6357 109.157 51.6358 109.172 51.6399L119.267 54.3366C119.289 54.3427 119.308 54.357 119.321 54.3767C119.333 54.3963 119.337 54.4198 119.332 54.4424L117.494 63.2517C117.49 63.2733 117.477 63.2926 117.46 63.3058C117.442 63.3191 117.42 63.3253 117.398 63.3233C117.391 63.3233 116.709 63.2632 116.015 63.1965C115.992 63.1942 115.97 63.1825 115.954 63.164C115.939 63.1455 115.932 63.1217 115.934 63.0978C115.936 63.0739 115.948 63.0519 115.966 63.0366C115.985 63.0214 116.009 63.0141 116.033 63.0164C116.586 63.07 117.134 63.1187 117.335 63.1363L119.14 54.4903L109.271 51.8537L110.315 56.5766H113.519C113.541 56.5766 113.562 56.5843 113.578 56.5983C113.594 56.6124 113.605 56.6319 113.608 56.6533L114.949 65.0421C114.951 65.0539 114.95 65.066 114.947 65.0777C114.945 65.0894 114.939 65.1003 114.932 65.11C114.925 65.1196 114.916 65.1277 114.906 65.1338C114.896 65.1399 114.884 65.1439 114.872 65.1456C114.868 65.1461 114.863 65.1462 114.858 65.146Z" fill="#002E5D"/>
<path d="M112.409 63.2194C112.389 63.2194 112.369 63.2127 112.353 63.2001C112.337 63.1876 112.326 63.1701 112.321 63.1504L110.766 56.688C110.762 56.6763 110.761 56.6639 110.762 56.6517C110.764 56.6394 110.768 56.6276 110.774 56.6169C110.78 56.6063 110.788 56.5969 110.798 56.5896C110.808 56.5822 110.819 56.5769 110.831 56.574C110.843 56.5711 110.855 56.5706 110.867 56.5727C110.879 56.5748 110.891 56.5793 110.901 56.586C110.912 56.5927 110.92 56.6014 110.927 56.6117C110.934 56.6219 110.939 56.6334 110.941 56.6455L112.478 63.0316L114.508 62.8339C114.52 62.832 114.532 62.8326 114.544 62.8357C114.556 62.8387 114.567 62.8442 114.577 62.8518C114.587 62.8593 114.595 62.8687 114.601 62.8795C114.607 62.8903 114.611 62.9022 114.612 62.9144C114.613 62.9267 114.612 62.939 114.608 62.9507C114.604 62.9625 114.598 62.9733 114.59 62.9826C114.582 62.9919 114.572 62.9994 114.561 63.0047C114.55 63.0101 114.538 63.0131 114.526 63.0136L112.417 63.219L112.409 63.2194Z" fill="#002E5D"/>
<path d="M117.093 66.3807C117.07 66.3803 117.049 66.3716 117.033 66.3563C117.016 66.3409 117.006 66.3201 117.004 66.2978C117.002 66.2754 117.009 66.2532 117.022 66.2354C117.036 66.2175 117.056 66.2054 117.078 66.2013L118.787 65.9081L117.685 63.9989C117.674 63.9782 117.671 63.954 117.678 63.9315C117.684 63.909 117.699 63.8899 117.72 63.8782C117.74 63.8666 117.764 63.8632 117.787 63.8689C117.809 63.8747 117.829 63.889 117.841 63.9089L119.008 65.9315C119.015 65.9441 119.019 65.9583 119.02 65.9728C119.02 65.9873 119.018 66.0018 119.011 66.0149C119.005 66.0281 118.996 66.0396 118.984 66.0484C118.973 66.0572 118.959 66.0632 118.945 66.0657L117.107 66.3811C117.102 66.3813 117.097 66.3811 117.093 66.3807Z" fill="#002E5D"/>
<path d="M99.7334 82.8868C99.7156 82.8869 99.6982 82.8818 99.6834 82.8719C99.6686 82.8621 99.6571 82.8481 99.6503 82.8316L98.8078 80.8178C98.8011 80.8017 98.7991 80.7841 98.8022 80.7669C98.8052 80.7498 98.8132 80.7339 98.825 80.7212L112.247 66.3207C112.264 66.3033 112.286 66.2932 112.31 66.2923L114.743 66.2003C114.755 66.1992 114.767 66.2006 114.779 66.2044C114.79 66.2082 114.801 66.2143 114.81 66.2225C114.82 66.2306 114.827 66.2405 114.832 66.2515C114.838 66.2626 114.841 66.2747 114.841 66.2869C114.842 66.2992 114.839 66.3114 114.835 66.3229C114.831 66.3344 114.824 66.3448 114.815 66.3536C114.807 66.3624 114.797 66.3693 114.785 66.374C114.774 66.3787 114.762 66.381 114.749 66.3808L112.354 66.4713L98.9966 80.8017L99.7759 82.6615L113.768 73.4916C113.789 73.4785 113.813 73.474 113.837 73.4791C113.861 73.4842 113.881 73.4985 113.894 73.5188C113.907 73.5391 113.912 73.5638 113.907 73.5875C113.902 73.6111 113.887 73.6318 113.867 73.6449L99.784 82.8742C99.7687 82.8833 99.7511 82.8877 99.7334 82.8868Z" fill="#002E5D"/>
<path d="M122.653 121.661H120.403C120.382 121.661 120.362 121.654 120.346 121.64C120.329 121.627 120.319 121.609 120.315 121.588L115.62 97.7996C115.617 97.7876 115.616 97.7752 115.618 97.763C115.62 97.7508 115.624 97.739 115.631 97.7285C115.637 97.7181 115.646 97.709 115.656 97.702C115.666 97.695 115.678 97.6901 115.69 97.6877C115.702 97.6853 115.714 97.6854 115.727 97.688C115.739 97.6906 115.75 97.6956 115.76 97.7028C115.77 97.71 115.779 97.7191 115.785 97.7297C115.791 97.7403 115.795 97.7521 115.797 97.7643L120.476 121.48H122.558L120.808 86.2326C120.807 86.2259 120.807 86.2191 120.808 86.2123L123.423 71.6413C123.425 71.6292 123.429 71.6175 123.435 71.607C123.441 71.5965 123.45 71.5874 123.46 71.5803C123.469 71.5731 123.481 71.568 123.493 71.5653C123.504 71.5625 123.517 71.5623 123.529 71.5644C123.541 71.5666 123.552 71.5712 123.562 71.5779C123.573 71.5846 123.581 71.5934 123.588 71.6035C123.595 71.6137 123.599 71.6252 123.602 71.6372C123.604 71.6492 123.603 71.6615 123.601 71.6734L120.988 86.2361L122.741 121.567C122.742 121.58 122.74 121.592 122.736 121.603C122.732 121.615 122.725 121.625 122.717 121.634C122.708 121.643 122.698 121.65 122.687 121.655C122.676 121.66 122.664 121.662 122.651 121.662L122.653 121.661Z" fill="#002E5D"/>
<path d="M113.202 121.661H110.636C110.613 121.661 110.59 121.652 110.573 121.635C110.556 121.618 110.546 121.595 110.546 121.572L110.125 86.309V86.3028L110.785 75.4886C110.787 75.4651 110.798 75.4433 110.816 75.4279C110.834 75.4125 110.857 75.4046 110.88 75.406C110.904 75.4074 110.926 75.418 110.942 75.4354C110.958 75.4528 110.966 75.4757 110.965 75.4993L110.305 86.3105L110.727 121.481H113.121L115.959 94.5399C115.962 94.5162 115.974 94.4944 115.992 94.4794C116.011 94.4643 116.035 94.4572 116.059 94.4595C116.082 94.4621 116.104 94.474 116.119 94.4927C116.134 94.5114 116.141 94.5353 116.139 94.5591L113.292 121.582C113.29 121.604 113.279 121.624 113.262 121.638C113.246 121.653 113.224 121.661 113.202 121.661Z" fill="#002E5D"/>
<path d="M121.18 91.9432C121.163 91.9433 121.147 91.939 121.133 91.9307C121.119 91.9225 121.108 91.9106 121.1 91.8964C121.092 91.8822 121.088 91.8661 121.089 91.8498C121.089 91.8336 121.094 91.8178 121.103 91.8041L127.753 81.3803L124.018 68.4272L119.783 66.2559C119.773 66.2504 119.763 66.243 119.756 66.234C119.748 66.2249 119.742 66.2145 119.739 66.2032C119.735 66.1919 119.734 66.18 119.735 66.1682C119.736 66.1564 119.739 66.1449 119.744 66.1344C119.75 66.1238 119.757 66.1145 119.766 66.1068C119.775 66.0991 119.786 66.0933 119.797 66.0897C119.808 66.086 119.82 66.0847 119.832 66.0856C119.844 66.0866 119.855 66.0899 119.866 66.0953L124.135 68.2843C124.146 68.2899 124.156 68.2977 124.164 68.3072C124.172 68.3167 124.177 68.3277 124.181 68.3395L127.937 81.3692C127.941 81.3816 127.942 81.3946 127.94 81.4073C127.938 81.4201 127.934 81.4323 127.927 81.4432L121.255 91.9003C121.248 91.9133 121.236 91.9241 121.223 91.9316C121.21 91.9391 121.195 91.9431 121.18 91.9432Z" fill="#002E5D"/>
<path d="M121.012 88.5784C121 88.5783 120.988 88.5758 120.977 88.5711C120.966 88.5665 120.956 88.5598 120.948 88.5514C120.939 88.5429 120.933 88.5329 120.928 88.5219C120.924 88.5109 120.922 88.4991 120.922 88.4872C120.922 88.4754 120.924 88.4636 120.929 88.4527L124.223 80.6701L122.331 77.8879C122.324 77.8781 122.319 77.8671 122.317 77.8555C122.315 77.8439 122.314 77.832 122.317 77.8203C122.319 77.8087 122.323 77.7976 122.33 77.7877C122.336 77.7778 122.345 77.7693 122.355 77.7626C122.364 77.7559 122.375 77.7513 122.387 77.7488C122.398 77.7464 122.41 77.7463 122.422 77.7485C122.434 77.7507 122.445 77.7552 122.455 77.7617C122.465 77.7682 122.473 77.7766 122.48 77.7864L124.4 80.6092C124.408 80.6216 124.413 80.636 124.415 80.6511C124.416 80.6661 124.414 80.6812 124.408 80.6951L121.094 88.5232C121.087 88.5394 121.076 88.5533 121.061 88.5631C121.047 88.5729 121.03 88.5782 121.012 88.5784Z" fill="#002E5D"/>
<path d="M97.111 83.9202C97.0988 83.9202 97.0868 83.9178 97.0756 83.9131C97.0644 83.9083 97.0543 83.9014 97.0458 83.8927L95.6971 82.4916C95.6874 82.4815 95.6802 82.4694 95.676 82.4561C95.6719 82.4428 95.6708 82.4287 95.673 82.415C95.6751 82.4012 95.6804 82.3881 95.6884 82.3768C95.6965 82.3654 95.707 82.356 95.7193 82.3494L97.1044 81.6006L96.4917 81.3568C96.4749 81.3502 96.4604 81.3387 96.4502 81.3237C96.44 81.3087 96.4346 81.291 96.4346 81.2729V80.695C96.4346 80.6821 96.4374 80.6693 96.4427 80.6575C96.4481 80.6458 96.4558 80.6353 96.4656 80.6268C96.4753 80.6183 96.4867 80.612 96.4991 80.6083C96.5115 80.6046 96.5245 80.6036 96.5373 80.6053L98.4735 80.8682C98.4858 80.8693 98.4976 80.8728 98.5085 80.8785C98.5193 80.8843 98.5288 80.8922 98.5365 80.9018C98.5441 80.9114 98.5498 80.9224 98.553 80.9343C98.5563 80.9461 98.5571 80.9585 98.5555 80.9706C98.5538 80.9828 98.5497 80.9945 98.5434 81.005C98.537 81.0155 98.5286 81.0246 98.5187 81.0318C98.5087 81.0389 98.4974 81.044 98.4854 81.0466C98.4735 81.0493 98.4611 81.0495 98.449 81.0472L96.6154 80.7985V81.2116L97.3526 81.504C97.3686 81.5103 97.3824 81.5211 97.3925 81.5351C97.4026 81.549 97.4085 81.5656 97.4095 81.5828C97.4105 81.5999 97.4066 81.6171 97.3982 81.6321C97.3898 81.6471 97.3773 81.6595 97.3622 81.6676L95.9111 82.4517L97.1366 83.7229L99.223 82.8706C99.2451 82.8615 99.27 82.8617 99.292 82.8709C99.3141 82.8802 99.3315 82.8979 99.3406 82.92C99.3496 82.9422 99.3495 82.967 99.3402 82.9891C99.331 83.0111 99.3133 83.0286 99.2912 83.0377L97.1466 83.9133C97.1353 83.9181 97.1232 83.9204 97.111 83.9202Z" fill="#002E5D"/>
<path d="M113.693 124.357H107.04C107.027 124.357 107.014 124.354 107.002 124.349C106.99 124.344 106.979 124.336 106.971 124.326C106.962 124.316 106.956 124.304 106.953 124.291C106.949 124.279 106.948 124.265 106.95 124.253L107.099 123.307C107.102 123.286 107.113 123.268 107.128 123.254C107.144 123.24 107.164 123.231 107.184 123.231L109.988 123.101L110.609 121.964C110.621 121.944 110.64 121.929 110.663 121.923C110.686 121.917 110.71 121.92 110.73 121.931C110.751 121.942 110.766 121.961 110.773 121.983C110.78 122.005 110.778 122.03 110.768 122.051L110.122 123.233C110.115 123.247 110.104 123.258 110.09 123.266C110.077 123.275 110.062 123.279 110.046 123.28L107.265 123.408L107.143 124.176H113.571L112.958 122.032C112.955 122.021 112.954 122.009 112.955 121.997C112.957 121.985 112.96 121.974 112.966 121.963C112.972 121.953 112.98 121.944 112.989 121.936C112.998 121.929 113.009 121.924 113.02 121.92C113.032 121.917 113.044 121.916 113.056 121.917C113.067 121.919 113.079 121.922 113.089 121.928C113.1 121.934 113.109 121.942 113.116 121.951C113.123 121.96 113.129 121.971 113.132 121.982L113.777 124.243C113.781 124.257 113.782 124.271 113.779 124.285C113.777 124.298 113.771 124.311 113.762 124.322C113.754 124.333 113.743 124.342 113.731 124.349C113.718 124.355 113.704 124.358 113.691 124.358L113.693 124.357Z" fill="#002E5D"/>
<path d="M118.185 86.3982H110.217C110.194 86.3967 110.173 86.3866 110.157 86.3698C110.142 86.353 110.133 86.3309 110.133 86.308C110.133 86.285 110.142 86.2629 110.157 86.2461C110.173 86.2294 110.194 86.2192 110.217 86.2177H118.186C118.198 86.2169 118.21 86.2186 118.222 86.2228C118.234 86.227 118.244 86.2335 118.253 86.242C118.262 86.2504 118.27 86.2607 118.274 86.272C118.279 86.2834 118.282 86.2956 118.282 86.308C118.282 86.3203 118.279 86.3326 118.274 86.3439C118.27 86.3553 118.262 86.3655 118.253 86.374C118.244 86.3824 118.234 86.3889 118.222 86.3931C118.21 86.3973 118.198 86.399 118.186 86.3982H118.185Z" fill="#002E5D"/>
<path d="M123.193 124.357H116.551C116.527 124.357 116.504 124.348 116.487 124.331C116.47 124.314 116.461 124.291 116.461 124.267V123.452C116.461 123.43 116.469 123.409 116.484 123.392C116.499 123.375 116.52 123.365 116.542 123.363L119.568 123.051L120.502 122.076C120.519 122.06 120.542 122.051 120.565 122.051C120.589 122.051 120.611 122.06 120.628 122.076C120.645 122.092 120.655 122.114 120.656 122.138C120.657 122.161 120.648 122.184 120.633 122.202L119.675 123.2C119.66 123.215 119.64 123.225 119.619 123.227L116.641 123.534V124.176H123.079L122.606 122.159C122.603 122.148 122.602 122.135 122.603 122.123C122.605 122.111 122.609 122.1 122.615 122.089C122.621 122.078 122.63 122.069 122.639 122.062C122.649 122.055 122.66 122.05 122.672 122.047C122.684 122.044 122.696 122.044 122.708 122.046C122.72 122.048 122.732 122.052 122.742 122.059C122.752 122.066 122.761 122.074 122.768 122.085C122.775 122.095 122.779 122.106 122.782 122.118L123.28 124.246C123.283 124.259 123.283 124.273 123.28 124.286C123.277 124.299 123.271 124.312 123.263 124.323C123.254 124.333 123.243 124.342 123.231 124.348C123.219 124.354 123.206 124.357 123.192 124.357L123.193 124.357Z" fill="#002E5D"/>
<path d="M113.422 123.321L110.044 123.191L107.234 123.321L107.094 124.311L113.727 124.268L113.422 123.321Z" fill="#002E5D"/>
<path d="M123.01 123.476L119.479 123.152L116.624 123.476L116.594 124.228L123.134 124.186L123.01 123.476Z" fill="#002E5D"/>
<path d="M129.779 124.402H56.565C56.5527 124.403 56.5403 124.401 56.5287 124.397C56.517 124.392 56.5064 124.386 56.4973 124.378C56.4883 124.369 56.4811 124.359 56.4762 124.347C56.4713 124.336 56.4688 124.324 56.4688 124.312C56.4688 124.299 56.4713 124.287 56.4762 124.276C56.4811 124.264 56.4883 124.254 56.4973 124.246C56.5064 124.237 56.517 124.231 56.5287 124.226C56.5403 124.222 56.5527 124.22 56.565 124.221H129.779C129.791 124.22 129.804 124.222 129.815 124.226C129.827 124.231 129.837 124.237 129.846 124.246C129.855 124.254 129.863 124.264 129.868 124.276C129.873 124.287 129.875 124.299 129.875 124.312C129.875 124.324 129.873 124.336 129.868 124.347C129.863 124.359 129.855 124.369 129.846 124.378C129.837 124.386 129.827 124.392 129.815 124.397C129.804 124.401 129.791 124.403 129.779 124.402Z" fill="#002E5D"/>
<path d="M82.0195 120.807H3.63919C3.61628 120.805 3.59481 120.795 3.57911 120.778C3.56342 120.762 3.55469 120.739 3.55469 120.716C3.55469 120.693 3.56342 120.671 3.57911 120.655C3.59481 120.638 3.61628 120.628 3.63919 120.626H82.0195C82.0319 120.625 82.0443 120.627 82.0559 120.631C82.0675 120.635 82.0782 120.642 82.0872 120.65C82.0962 120.659 82.1034 120.669 82.1083 120.68C82.1133 120.692 82.1158 120.704 82.1158 120.716C82.1158 120.729 82.1133 120.741 82.1083 120.752C82.1034 120.764 82.0962 120.774 82.0872 120.782C82.0782 120.791 82.0675 120.797 82.0559 120.802C82.0443 120.806 82.0319 120.807 82.0195 120.807Z" fill="#002E5D"/>
<path d="M39.7489 22.9961C41.087 21.6571 41.087 19.4862 39.7489 18.1472C38.4108 16.8082 36.2414 16.8082 34.9033 18.1472C33.5652 19.4862 33.5652 21.6571 34.9033 22.9961C36.2414 24.3351 38.4108 24.3351 39.7489 22.9961Z" fill="#BBD1DC"/>
<path d="M108.796 44.3222C109.742 43.3753 109.742 41.8401 108.796 40.8932C107.85 39.9463 106.316 39.9463 105.37 40.8932C104.423 41.8401 104.423 43.3753 105.37 44.3222C106.316 45.2691 107.85 45.2691 108.796 44.3222Z" fill="#BBD1DC"/>
<path d="M25.7842 120.2C25.7625 120.2 25.7414 120.192 25.725 120.178C25.7086 120.164 25.6979 120.144 25.6949 120.122C25.6919 120.101 25.6969 120.079 25.7088 120.061C25.7207 120.042 25.7388 120.029 25.7597 120.023C28.1341 119.355 31.734 118.124 31.914 117.471C31.9206 117.448 31.9205 117.424 31.9137 117.401C31.907 117.378 31.8937 117.358 31.8757 117.342C31.2346 116.665 27.4241 117.755 26.0098 118.233C25.9883 118.24 25.9649 118.238 25.9444 118.229C25.9239 118.219 25.9077 118.202 25.899 118.182C25.8902 118.161 25.8897 118.137 25.8974 118.116C25.9051 118.095 25.9205 118.077 25.9405 118.067C27.0174 117.526 29.8149 115.967 29.8245 115.251C29.8245 115.195 29.8092 115.11 29.6633 115.031C29.1704 114.767 28.0028 115.159 26.2859 116.165C24.9708 116.935 23.7967 117.8 23.784 117.809C23.7667 117.822 23.7454 117.828 23.724 117.826C23.7026 117.825 23.6824 117.816 23.6671 117.801C23.6518 117.786 23.6424 117.766 23.6405 117.744C23.6386 117.723 23.6444 117.701 23.6569 117.684C23.6626 117.676 24.2214 116.899 24.7177 116.068C25.5985 114.595 25.5219 114.238 25.4511 114.152C25.4128 114.107 25.2665 114.032 24.7284 114.301C22.3288 115.505 20.8881 119.552 20.8735 119.592C20.8649 119.614 20.8482 119.631 20.827 119.641C20.8058 119.651 20.7817 119.652 20.7597 119.644C20.7377 119.636 20.7196 119.62 20.709 119.6C20.6985 119.579 20.6963 119.555 20.7031 119.532C20.9885 118.765 21.3343 118.022 21.7371 117.31C22.3521 116.221 23.3566 114.788 24.6495 114.141C25.1424 113.894 25.4415 113.861 25.5901 114.035C25.7295 114.199 25.8065 114.598 24.8736 116.161C24.6028 116.615 24.3133 117.053 24.1042 117.36C24.5664 117.036 25.3523 116.503 26.1952 116.009C27.9951 114.955 29.1907 114.572 29.7502 114.872C29.9647 114.987 30.0079 115.143 30.0064 115.255C30.0007 115.677 29.342 116.29 27.992 117.125C27.6041 117.366 27.2138 117.589 26.8845 117.771C27.3686 117.627 27.992 117.452 28.6343 117.302C30.5108 116.862 31.644 116.834 32.0082 117.219C32.0476 117.257 32.0758 117.306 32.0899 117.359C32.104 117.412 32.1034 117.468 32.0882 117.521C32.0212 117.764 31.652 118.046 30.96 118.383C30.4307 118.64 29.7127 118.929 28.8257 119.241C27.3188 119.772 25.8237 120.194 25.8091 120.199C25.8009 120.201 25.7926 120.201 25.7842 120.2Z" fill="#002E5D"/>
<path d="M14.0117 119.105C13.9948 119.105 13.9782 119.1 13.9638 119.091C13.9494 119.082 13.9379 119.069 13.9305 119.054C13.9071 119.006 11.5423 114.202 9.70142 112.09C9.69285 112.081 9.68616 112.071 9.68177 112.059C9.67737 112.048 9.67536 112.035 9.67585 112.023C9.67635 112.011 9.67934 111.999 9.68465 111.988C9.68995 111.977 9.69746 111.967 9.70671 111.959C9.71597 111.951 9.72677 111.944 9.73846 111.941C9.75015 111.937 9.76249 111.936 9.77471 111.937C9.78694 111.938 9.7988 111.941 9.80958 111.947C9.82035 111.953 9.82981 111.961 9.83737 111.971C11.694 114.101 14.0691 118.926 14.0929 118.975C14.0981 118.986 14.1012 118.997 14.1019 119.009C14.1027 119.021 14.1011 119.033 14.0972 119.044C14.0934 119.055 14.0874 119.065 14.0795 119.074C14.0717 119.083 14.0622 119.09 14.0515 119.096C14.0391 119.102 14.0255 119.105 14.0117 119.105Z" fill="#002E5D"/>
<path d="M13.4221 119.607C13.4085 119.607 13.395 119.604 13.3828 119.598C13.3705 119.592 13.3597 119.584 13.3512 119.573C13.3332 119.55 11.5111 117.299 8.92072 116.36C8.90884 116.357 8.8978 116.351 8.88827 116.343C8.87874 116.335 8.87093 116.326 8.86532 116.315C8.85971 116.304 8.85641 116.292 8.85564 116.279C8.85487 116.267 8.85664 116.254 8.86084 116.243C8.86504 116.231 8.87158 116.221 8.88006 116.212C8.88853 116.203 8.89877 116.195 8.91012 116.19C8.92148 116.186 8.93371 116.183 8.94608 116.183C8.95844 116.183 8.97066 116.186 8.98199 116.191C11.6214 117.147 13.4738 119.437 13.4925 119.46C13.5031 119.474 13.5097 119.49 13.5116 119.507C13.5135 119.523 13.5107 119.541 13.5033 119.556C13.4959 119.571 13.4844 119.584 13.4701 119.593C13.4557 119.602 13.4391 119.607 13.4221 119.607Z" fill="#002E5D"/>
<path d="M12.4847 112.303H12.4755C12.4627 112.302 12.4504 112.297 12.4394 112.291C12.4284 112.284 12.4189 112.275 12.4116 112.265L12.0466 111.763C12.0336 111.743 12.0286 111.72 12.0326 111.697C12.0367 111.674 12.0495 111.653 12.0684 111.639C12.0872 111.626 12.1107 111.62 12.1338 111.623C12.157 111.626 12.178 111.638 12.1925 111.656L12.4989 112.078L12.9718 111.644C12.9805 111.635 12.9908 111.628 13.0021 111.624C13.0135 111.619 13.0256 111.617 13.0379 111.617C13.0501 111.617 13.0622 111.62 13.0733 111.625C13.0845 111.63 13.0945 111.638 13.1028 111.647C13.111 111.656 13.1174 111.666 13.1214 111.678C13.1254 111.689 13.1271 111.702 13.1262 111.714C13.1254 111.726 13.122 111.738 13.1164 111.749C13.1108 111.76 13.1031 111.77 13.0936 111.777L12.5464 112.279C12.5295 112.295 12.5075 112.303 12.4847 112.303Z" fill="#002E5D"/>
</g>
<defs>
<clipPath id="clip0_2619_28022">
<rect width="130" height="124.402" fill="white"/>
</clipPath>
</defs>
</svg>
