<svg width="130" height="125" viewBox="0 0 130 125" fill="none" xmlns="http://www.w3.org/2000/svg">
<g clip-path="url(#clip0_2619_27964)">
<path d="M140.619 25.695L-6.82812 14.021L-13.6854 100.512L133.762 112.186L140.619 25.695Z" fill="#F3F8FF"/>
<path d="M23.766 51.9702L18.3945 54.7395L21.134 60.0457L26.5055 57.2764L23.766 51.9702Z" fill="#BBD1DC"/>
<path d="M22.5008 49.5237L17.129 52.2923L4.07422 30.8389L12.5755 26.457L22.5008 49.5237Z" fill="#BBD1DC"/>
<path d="M29.0143 76.8234L24.4805 80.8177L28.4317 85.2965L32.9656 81.3021L29.0143 76.8234Z" fill="#BBD1DC"/>
<path d="M27.1868 74.7599L22.6527 78.7538L4.75781 61.1283L11.9335 54.8076L27.1868 74.7599Z" fill="#BBD1DC"/>
<path d="M99.5875 116.273H37.3789C48.0569 91.9825 51.2066 66.1854 46.4573 41.8953H108.669C113.417 66.1854 110.268 91.9825 99.5875 116.273Z" fill="#F4B18F"/>
<path d="M89.413 119.986H27.2031C41.0981 95.6956 47.6622 69.8985 46.1281 45.6084H108.339C109.872 69.8985 103.309 95.6956 89.413 119.986Z" fill="#BBD1DC"/>
<path d="M51.0794 102.805C49.9614 105.409 48.7787 107.995 47.5312 110.565H45.7109C46.9606 107.989 48.1433 105.402 49.2591 102.805H51.0794Z" fill="white"/>
<path d="M54.0268 110.565H52.3263C52.9567 109.283 53.264 108.64 53.8604 107.351C54.0411 106.961 54.1478 106.694 54.1831 106.55C54.2185 106.406 54.1995 106.283 54.1272 106.183C54.055 106.082 53.9293 106.032 53.749 106.032C53.1517 106.032 52.6562 106.472 52.2502 107.351C51.6538 108.64 51.3466 109.283 50.7161 110.565H49.0156C49.9483 108.663 50.8452 106.752 51.6891 104.83H53.2694C53.0975 105.22 53.0109 105.415 52.8361 105.804C53.3066 105.341 53.698 105.043 54.0104 104.91C54.2988 104.783 54.61 104.715 54.9254 104.711C55.4734 104.711 55.8498 104.858 56.0543 105.152C56.2581 105.446 56.169 106.025 55.7744 106.885C55.2129 108.115 54.6303 109.342 54.0268 110.565Z" fill="white"/>
<path d="M62.5579 104.83C61.0345 106.76 59.4851 108.671 57.9099 110.565H56.5859C56.8671 108.648 57.0903 106.736 57.279 104.83H59.0442C58.8817 106.04 58.6979 107.254 58.4928 108.47C59.4357 107.261 60.3689 106.048 61.2924 104.83H62.5579Z" fill="white"/>
<path d="M65.5917 104.711C66.4697 104.711 67.0291 104.998 67.2649 105.571C67.5007 106.144 67.4221 106.861 67.0211 107.72C66.6261 108.568 66.0322 109.274 65.2471 109.838C64.462 110.402 63.6432 110.684 62.7959 110.684C61.9751 110.684 61.4573 110.405 61.2362 109.847C61.0151 109.289 61.1135 108.57 61.5228 107.692C61.807 107.083 62.1533 106.564 62.5702 106.138C62.9708 105.722 63.4358 105.373 63.9475 105.104C64.4553 104.841 65.0197 104.706 65.5917 104.711ZM65.1437 105.821C64.8214 105.821 64.5226 105.946 64.2472 106.194C63.9715 106.443 63.6663 106.937 63.3225 107.675C63.0065 108.353 62.8526 108.838 62.8669 109.133C62.8812 109.427 63.0527 109.575 63.3826 109.575C63.671 109.575 63.9652 109.449 64.2653 109.197C64.5637 108.945 64.8827 108.466 65.213 107.759C65.5644 107.005 65.7174 106.493 65.6825 106.224C65.6476 105.955 65.466 105.821 65.1437 105.821Z" fill="white"/>
<path d="M72.0463 102.646C71.7593 103.327 71.613 103.667 71.3163 104.347H69.6162C69.9129 103.667 70.0588 103.327 70.3463 102.646H72.0463ZM71.104 104.83C70.2601 106.752 69.3628 108.663 68.4306 110.565H66.7305C67.6627 108.663 68.5596 106.752 69.4035 104.83H71.104Z" fill="white"/>
<path d="M75.9341 108.418C75.5513 109.092 75.0024 109.657 74.3395 110.059C73.6628 110.476 72.9493 110.685 72.1989 110.684C71.3848 110.684 70.854 110.417 70.6018 109.883C70.3496 109.35 70.4375 108.635 70.854 107.738C71.2705 106.84 71.8627 106.111 72.6373 105.551C73.4119 104.991 74.2319 104.711 75.1065 104.711C75.8106 104.711 76.3003 104.922 76.5754 105.344C76.8499 105.764 76.8696 106.293 76.6276 106.925L74.9998 107.016C75.2637 106.327 75.1174 105.981 74.5694 105.981C73.8969 105.981 73.3152 106.532 72.8041 107.63C72.4641 108.361 72.3368 108.824 72.4309 109.02C72.5251 109.216 72.707 109.314 72.9773 109.314C73.5022 109.314 73.9763 108.984 74.3912 108.322L75.9341 108.418Z" fill="white"/>
<path d="M82.223 107.987H78.5144C78.4622 108.089 78.4189 108.178 78.3832 108.254C78.1907 108.662 78.1536 108.97 78.2718 109.178C78.3901 109.385 78.6018 109.489 78.9069 109.489C79.4735 109.489 79.9576 109.189 80.359 108.588L81.8456 108.701C80.9449 109.87 79.6042 110.691 78.2676 110.683C77.6969 110.68 77.2619 110.57 76.9723 110.342C76.6827 110.113 76.5142 109.78 76.4642 109.342C76.4141 108.903 76.5343 108.378 76.8201 107.765C77.2459 106.853 77.8415 106.115 78.6156 105.553C79.3898 104.991 80.185 104.71 81.0067 104.71C81.7481 104.71 82.2705 104.972 82.5681 105.493C82.8657 106.015 82.7555 106.848 82.223 107.987ZM78.9649 107.005H81.013C81.3223 106.216 81.1727 105.821 80.5755 105.821C79.935 105.821 79.402 106.216 78.9636 107.005H78.9649Z" fill="white"/>
<path d="M90.7112 64.4677H53.7812C53.8914 63.3665 53.9401 62.8167 54.0238 61.7192H90.9537C90.8701 62.8171 90.8214 63.3669 90.7112 64.4677Z" fill="#325D9C"/>
<path d="M65.8764 71.437H52.875C53.0515 70.3303 53.1335 69.7772 53.2839 68.6721H66.2857C66.1353 69.7772 66.0537 70.3303 65.8764 71.437Z" fill="white"/>
<path d="M73.5238 78.4354H51.5508C51.7929 77.3254 51.9076 76.7705 52.1241 75.6609H74.0979C73.8814 76.7705 73.7671 77.3254 73.5238 78.4354Z" fill="#325D9C"/>
<path d="M66.5321 85.4454H49.8203C50.1275 84.3349 50.2747 83.7792 50.5558 82.6683H67.2697C66.9864 83.7792 66.8393 84.3341 66.5321 85.4454Z" fill="white"/>
<path d="M86.9951 85.4453H70.2812C70.5881 84.3349 70.7352 83.7792 71.0168 82.6687H87.7298C87.4494 83.7792 87.3019 84.334 86.9951 85.4453Z" fill="#325D9C"/>
<path d="M81.1043 92.4482H47.6758C48.0469 91.3402 48.2264 90.7858 48.5723 89.6761H81.9999C81.6549 90.7858 81.4754 91.3402 81.1043 92.4482Z" fill="white"/>
<path d="M123.079 7.1189L44.9688 3.11011L42.6251 48.7133L120.735 52.7221L123.079 7.1189Z" fill="#BBD1DC"/>
<path d="M118.244 9.63037H40.0312V55.2937H118.244V9.63037Z" fill="#F70431"/>
<path d="M60.897 34.8877V41.8951H56.4023V23.0293H63.8416C65.5012 23.0293 66.7713 23.2067 67.6519 23.5614C68.5326 23.9162 69.3185 24.5497 70.0098 25.462C70.7016 26.3742 71.0474 27.4942 71.0471 28.822C71.0461 29.7574 70.858 30.6831 70.494 31.5449C70.125 32.4294 69.6041 33.1249 68.9313 33.6315C68.2586 34.138 67.6063 34.474 66.9744 34.6395C66.3426 34.8055 65.3536 34.8884 64.0076 34.8881L60.897 34.8877ZM60.7448 31.46H63.6217C64.7187 31.46 65.4892 31.2066 65.9334 30.6998C66.3775 30.193 66.5988 29.6126 66.5974 28.9585C66.5974 28.1941 66.3507 27.5859 65.8573 27.134C65.3639 26.6821 64.6138 26.4565 63.607 26.4574H60.7448V31.46Z" fill="white"/>
<path d="M81.635 23.0293L87.5443 41.8951H82.7925L81.6295 38.0113H75.526L74.3425 41.8951H70.4648L76.5171 23.0293H81.635ZM76.5868 34.5282H80.5868L78.6043 27.9081L76.5868 34.5282Z" fill="white"/>
<path d="M101.873 23.0293L95.9401 33.9494V41.895H91.5271V33.9477L85.5938 23.0276H90.7255L94.3249 30.171L97.9075 23.0276L101.873 23.0293Z" fill="white"/>
<path d="M113.352 39.4615L110.991 51.2724L106.433 41.2763L101.875 31.2798L112.817 32.3332L123.759 33.3865L113.352 39.4615Z" fill="#325D9C"/>
<path d="M89.4125 120.109C89.391 120.109 89.3698 120.104 89.3511 120.093C89.3371 120.085 89.3248 120.074 89.3149 120.061C89.3049 120.048 89.2977 120.034 89.2934 120.018C89.2891 120.003 89.288 119.986 89.2901 119.97C89.2921 119.954 89.2973 119.939 89.3053 119.925C98.0054 104.716 103.824 88.9944 106.6 73.1976C106.602 73.1811 106.607 73.1653 106.616 73.151C106.624 73.1367 106.636 73.1242 106.649 73.1144C106.662 73.1046 106.678 73.0975 106.694 73.0937C106.71 73.0899 106.727 73.0894 106.743 73.0923C106.759 73.0951 106.775 73.1012 106.789 73.1102C106.803 73.1192 106.815 73.1309 106.824 73.1447C106.834 73.1584 106.84 73.1739 106.843 73.1902C106.847 73.2065 106.846 73.2233 106.843 73.2396C105.467 81.0714 103.306 89.0019 100.419 96.8102C97.5191 104.654 93.8529 112.472 89.5197 120.047C89.509 120.066 89.4934 120.081 89.4746 120.092C89.4557 120.103 89.4343 120.109 89.4125 120.109Z" fill="#002E5D"/>
<path d="M101.729 51.3959H44.1744C44.1581 51.396 44.142 51.3928 44.127 51.3867C44.112 51.3805 44.0983 51.3714 44.0868 51.3599C44.0754 51.3484 44.0663 51.3348 44.0601 51.3198C44.0539 51.3048 44.0507 51.2887 44.0508 51.2725V6.6999C44.0508 6.66715 44.0638 6.63574 44.087 6.61258C44.1101 6.58943 44.1416 6.57642 44.1744 6.57642C44.2071 6.57642 44.2386 6.58943 44.2617 6.61258C44.2849 6.63574 44.2979 6.66715 44.2979 6.6999V51.149H101.729C101.762 51.149 101.793 51.162 101.816 51.1851C101.84 51.2083 101.853 51.2397 101.853 51.2725C101.853 51.3052 101.84 51.3366 101.816 51.3598C101.793 51.3829 101.762 51.3959 101.729 51.3959Z" fill="#002E5D"/>
<path d="M36.8539 65.9601C44.9712 65.9601 51.5516 59.3842 51.5516 51.2725C51.5516 43.1608 44.9712 36.585 36.8539 36.585C28.7366 36.585 22.1562 43.1608 22.1562 51.2725C22.1562 59.3842 28.7366 65.9601 36.8539 65.9601Z" fill="#3B82F4"/>
<path d="M46.6538 50.3715H38.3988C38.2431 50.1055 38.0215 49.884 37.7553 49.7285V41.3704C37.7502 41.1348 37.653 40.9105 37.4844 40.7457C37.3159 40.5808 37.0894 40.4885 36.8536 40.4885C36.6177 40.4885 36.3913 40.5808 36.2227 40.7457C36.0542 40.9105 35.9569 41.1348 35.9518 41.3704V49.7285C35.7151 49.8662 35.5131 50.0564 35.3615 50.2845C35.2099 50.5125 35.1127 50.7723 35.0774 51.0438C35.0421 51.3153 35.0697 51.5913 35.158 51.8505C35.2463 52.1096 35.3929 52.3451 35.5867 52.5387C35.7804 52.7323 36.016 52.8788 36.2754 52.9671C36.5347 53.0553 36.8109 53.0828 37.0826 53.0476C37.3543 53.0123 37.6142 52.9152 37.8424 52.7637C38.0706 52.6122 38.261 52.4104 38.3988 52.1738H46.6538C46.8896 52.1687 47.114 52.0715 47.2789 51.9031C47.4439 51.7346 47.5363 51.5083 47.5363 51.2726C47.5363 51.037 47.4439 50.8107 47.2789 50.6422C47.114 50.4738 46.8896 50.3766 46.6538 50.3715Z" fill="white"/>
<path d="M116.42 120.109H29.7876C29.7549 120.109 29.7234 120.096 29.7003 120.073C29.6771 120.05 29.6641 120.018 29.6641 119.986C29.6641 119.953 29.6771 119.922 29.7003 119.898C29.7234 119.875 29.7549 119.862 29.7876 119.862H116.42C116.453 119.862 116.484 119.875 116.507 119.898C116.53 119.922 116.543 119.953 116.543 119.986C116.543 120.018 116.53 120.05 116.507 120.073C116.484 120.096 116.453 120.109 116.42 120.109Z" fill="#002E5D"/>
<path d="M11.3323 76.8159L23.6048 73.2207L21.9699 82.2252L20.7212 81.7506L20.0025 86.7658L15.8155 85.458L16.0891 90.1271L18.2747 90.3611L24.35 95.1071L34.8805 95.6531V96.2176L38.6236 94.6863L39.4079 95.3344L38.5459 96.2983L41.3072 96.9312L40.1064 99.4357L34.9166 98.7255L22.5407 98.8464L18.5579 97.3718L15.742 103.6L28.4689 100.116C28.4689 100.116 30.4863 99.3215 31.8094 100.494C33.1325 101.667 33.2149 102.715 33.2149 102.715L33.7167 115.934L33.3145 116.038L33.7167 118.024L36.837 118.902L36.8323 119.801H31.3471L31.0411 116.243L30.8654 116.267L27.2723 106.122L17.9258 111.13L25.2209 115.585C25.2209 115.585 26.6806 116.83 25.9261 118.339C25.1717 119.848 23.9549 119.838 23.9549 119.838H6.53165V119.619L2.52078 119.836L-1.66198 121.168L-2.15625 120.181L2.72463 116.653L5.72847 117.07L6.59806 116.785L16.6359 115.838L9.31988 112.856C9.31988 112.856 5.73688 111.282 4.93243 110.129C4.12799 108.977 4.68026 106.88 4.68026 106.88C4.68026 106.88 4.95513 106.065 5.39223 105.362L9.9125 91.4514L9.57626 91.228L11.3323 76.8159Z" fill="white"/>
<path d="M11.2852 76.8281L23.604 73.2186L21.969 82.2231L15.4721 79.609L16.3421 94.4578L12.4868 92.6182L11.2852 76.8281Z" fill="#325D9C"/>
<path d="M16.9336 80.1239L17.356 85.938L19.9278 86.7638L20.7831 81.7342L16.9336 80.1239Z" fill="#F4B18F"/>
<path d="M13.1262 95.3125L22.4988 97.0605L34.9126 97.1933L34.8764 95.6527L24.3901 95.1415L18.2706 90.3589L16.0855 90.125L16.2986 94.3935L9.94753 91.4077L5.33984 105.427L13.5663 104.356L16.2007 96.4671L13.1262 95.3125Z" fill="#F70431"/>
<path d="M34.9141 97.1933H36.9483L40.704 98.2627L41.3778 96.9464L38.6232 96.316L39.3679 95.3033L38.6496 94.6859L34.9893 96.1719L34.9141 97.1933Z" fill="#F4B18F"/>
<path d="M8.20402 105.04C8.20402 105.04 5.84701 107.263 8.20402 109.847C10.561 112.431 20.1278 116.579 20.1278 116.579L6.53125 117.579V119.84H23.9545C23.9545 119.84 25.6357 119.649 25.9686 118.248C26.3015 116.847 25.5038 115.784 25.5038 115.784L14.2495 108.982L28.3117 104.07C28.4827 104.01 28.6649 103.989 28.845 104.009C29.0251 104.028 29.1986 104.087 29.353 104.182C29.5075 104.276 29.6389 104.404 29.7378 104.556C29.8367 104.707 29.9006 104.879 29.9248 105.058L31.4337 116.214L33.7163 116.001L33.222 102.906C33.222 102.906 33.0287 101.055 31.6476 100.363C30.2665 99.6722 29.4961 99.8666 29.4961 99.8666L15.7798 103.548L15.5327 104.099L8.20402 105.04Z" fill="#325D9C"/>
<path d="M16.3396 94.5821C16.3211 94.582 16.3029 94.5778 16.2862 94.5699L9.51944 91.3405C9.49616 91.3294 9.47695 91.3112 9.46451 91.2886C9.45208 91.266 9.44703 91.2401 9.45009 91.2145L11.1611 76.8142C11.1642 76.7903 11.1742 76.7677 11.1897 76.7493C11.2053 76.7308 11.2259 76.7172 11.2489 76.7101L23.5678 73.1005C23.5881 73.0948 23.6095 73.0943 23.63 73.099C23.6506 73.1037 23.6697 73.1135 23.6855 73.1274C23.7012 73.1415 23.713 73.1593 23.7198 73.1793C23.7265 73.1992 23.728 73.2205 23.7241 73.2412L22.0896 82.2461C22.0863 82.2642 22.079 82.2812 22.0682 82.2961C22.0575 82.311 22.0435 82.3233 22.0274 82.3321C22.0113 82.3409 21.9935 82.346 21.9751 82.347C21.9568 82.3481 21.9385 82.345 21.9215 82.3381L15.5998 79.7139L16.4627 94.4494C16.4637 94.4662 16.4613 94.483 16.4556 94.4988C16.4499 94.5146 16.441 94.5291 16.4294 94.5413C16.4179 94.5536 16.4039 94.5633 16.3885 94.57C16.373 94.5766 16.3564 94.58 16.3396 94.58V94.5821ZM9.70479 91.1548L16.2038 94.2562L15.3414 79.5329C15.3402 79.512 15.3444 79.4911 15.3535 79.4723C15.3626 79.4534 15.3763 79.4372 15.3934 79.425C15.4104 79.4129 15.4303 79.4053 15.4511 79.403C15.472 79.4006 15.493 79.4035 15.5124 79.4115L21.8723 82.0504L23.4442 73.3933L11.3956 76.9213L9.70479 91.1548Z" fill="#002E5D"/>
<path d="M19.9992 86.8872C19.9867 86.8873 19.9742 86.8854 19.9622 86.8817L15.7744 85.5738C15.7431 85.5641 15.7169 85.5423 15.7017 85.5133C15.6864 85.4843 15.6833 85.4504 15.6931 85.4191C15.7028 85.3878 15.7246 85.3616 15.7537 85.3464C15.7827 85.3311 15.8166 85.3281 15.848 85.3378L19.8971 86.602L20.5956 81.688C20.6002 81.6555 20.6175 81.6262 20.6437 81.6064C20.6699 81.5867 20.7029 81.5782 20.7354 81.5827C20.7679 81.5873 20.7972 81.6046 20.8169 81.6308C20.8367 81.657 20.8452 81.6899 20.8406 81.7224L20.1215 86.7809C20.1175 86.8104 20.1028 86.8375 20.0803 86.857C20.0578 86.8765 20.029 86.8873 19.9992 86.8872Z" fill="#002E5D"/>
<path d="M34.9163 98.9695H22.5403C22.526 98.9694 22.5117 98.9669 22.4983 98.962L13.0879 95.4281C13.0722 95.4228 13.0577 95.4143 13.0453 95.4033C13.0329 95.3923 13.0229 95.3789 13.0158 95.364C13.0087 95.349 13.0047 95.3327 13.004 95.3162C13.0033 95.2996 13.006 95.2831 13.0118 95.2676C13.0177 95.2521 13.0266 95.2379 13.038 95.2259C13.0494 95.2139 13.0632 95.2044 13.0784 95.1978C13.0936 95.1912 13.11 95.1877 13.1266 95.1876C13.1431 95.1875 13.1596 95.1907 13.1749 95.1971L22.5643 98.7226H34.7948V95.7721L24.39 95.2651C24.3645 95.2637 24.34 95.2546 24.3198 95.2391L18.2205 90.4733L16.077 90.2477C16.0609 90.246 16.0452 90.2412 16.031 90.2334C16.0167 90.2256 16.0041 90.2152 15.9939 90.2025C15.9837 90.1899 15.9761 90.1754 15.9715 90.1599C15.9669 90.1443 15.9654 90.128 15.9671 90.1119C15.9688 90.0957 15.9737 90.0801 15.9815 90.0658C15.9892 90.0516 15.9997 90.039 16.0123 90.0288C16.025 90.0186 16.0395 90.011 16.055 90.0064C16.0706 90.0018 16.0869 90.0003 16.1031 90.002L18.2823 90.2314C18.3053 90.2338 18.3272 90.2427 18.3453 90.257L24.4396 95.0202L34.9226 95.5314C34.9543 95.5329 34.9841 95.5465 35.006 95.5694C35.0279 95.5923 35.0402 95.6228 35.0403 95.6545V98.8465C35.0402 98.8627 35.037 98.8787 35.0307 98.8937C35.0244 98.9087 35.0153 98.9223 35.0038 98.9337C34.9923 98.9451 34.9786 98.9542 34.9636 98.9603C34.9486 98.9665 34.9325 98.9696 34.9163 98.9695Z" fill="#002E5D"/>
<path d="M6.36306 105.402C6.33143 105.403 6.30088 105.391 6.27771 105.369C6.25455 105.348 6.24052 105.318 6.23853 105.287C6.23653 105.255 6.24672 105.224 6.267 105.2C6.28727 105.175 6.31609 105.16 6.34751 105.156L15.4238 103.995L18.502 97.3198C18.5086 97.3048 18.5182 97.2913 18.5301 97.2801C18.542 97.2688 18.556 97.2601 18.5713 97.2543C18.5867 97.2485 18.603 97.2458 18.6193 97.2464C18.6357 97.247 18.6518 97.2508 18.6667 97.2577C18.6815 97.2645 18.6949 97.2742 18.706 97.2863C18.7171 97.2984 18.7256 97.3125 18.7312 97.3279C18.7367 97.3433 18.7392 97.3596 18.7384 97.376C18.7376 97.3923 18.7335 97.4083 18.7264 97.4231L15.6196 104.16C15.6109 104.179 15.5975 104.196 15.5806 104.208C15.5638 104.22 15.5441 104.228 15.5234 104.231L6.37777 105.402L6.36306 105.402Z" fill="#002E5D"/>
<path d="M5.39265 105.486C5.37982 105.486 5.36708 105.484 5.35482 105.48C5.3239 105.469 5.29829 105.447 5.28339 105.418C5.2685 105.389 5.26547 105.355 5.27497 105.324L9.79523 91.3515C9.80023 91.336 9.80822 91.3217 9.81875 91.3093C9.82928 91.297 9.84214 91.2868 9.8566 91.2794C9.87106 91.272 9.88683 91.2676 9.90302 91.2663C9.91921 91.265 9.9355 91.2669 9.95095 91.2719C9.9664 91.2769 9.98072 91.2848 9.99309 91.2954C10.0055 91.3059 10.0156 91.3187 10.023 91.3332C10.0304 91.3476 10.0349 91.3634 10.0362 91.3796C10.0375 91.3957 10.0356 91.412 10.0306 91.4275L5.51033 105.4C5.50232 105.425 5.48661 105.447 5.46546 105.462C5.44431 105.478 5.41882 105.486 5.39265 105.486Z" fill="#002E5D"/>
<path d="M30.863 116.391C30.8373 116.39 30.8123 116.382 30.7914 116.367C30.7705 116.352 30.7548 116.331 30.7462 116.306L27.1825 106.26L17.9402 111.261C17.9259 111.269 17.9102 111.274 17.894 111.275C17.8777 111.277 17.8613 111.276 17.8456 111.271C17.8298 111.267 17.8152 111.259 17.8025 111.249C17.7897 111.239 17.7792 111.226 17.7714 111.212C17.7636 111.197 17.7587 111.181 17.7571 111.165C17.7554 111.149 17.757 111.132 17.7618 111.117C17.7666 111.101 17.7744 111.087 17.7848 111.074C17.7952 111.061 17.8081 111.051 17.8225 111.043L27.1922 105.974C27.2078 105.965 27.2251 105.96 27.2429 105.959C27.2607 105.958 27.2785 105.961 27.2951 105.967C27.3117 105.974 27.3268 105.984 27.3392 105.996C27.3517 106.009 27.3613 106.024 27.3674 106.041L30.9471 116.135L33.587 115.889L33.136 103.178C33.1183 102.68 32.9881 102.193 32.7551 101.752C32.5221 101.311 32.1924 100.929 31.7906 100.634C31.3888 100.339 30.9254 100.138 30.435 100.047C29.9446 99.9566 29.4401 99.9778 28.9591 100.109L15.7703 103.719C15.739 103.727 15.7059 103.722 15.6781 103.706C15.6504 103.689 15.6301 103.663 15.6216 103.632C15.6131 103.601 15.617 103.567 15.6327 103.539C15.6483 103.511 15.6743 103.49 15.7051 103.481L28.8948 99.8709C29.4118 99.7292 29.9542 99.7063 30.4814 99.8039C31.0085 99.9015 31.5067 100.117 31.9387 100.434C32.3706 100.752 32.7251 101.163 32.9755 101.636C33.226 102.11 33.3659 102.634 33.3848 103.17L33.8395 115.997C33.8404 116.028 33.8294 116.058 33.8086 116.082C33.7878 116.105 33.7589 116.12 33.7277 116.123L30.8761 116.389L30.863 116.391Z" fill="#002E5D"/>
<path d="M23.7006 119.962H6.52991C6.49714 119.962 6.46571 119.949 6.44254 119.926C6.41936 119.903 6.40634 119.871 6.40634 119.839V116.761C6.40633 116.73 6.41788 116.7 6.43873 116.678C6.45958 116.655 6.48821 116.641 6.51898 116.638L16.2841 115.777C15.2804 115.425 13.0453 114.62 10.806 113.657C6.74048 111.909 4.5953 110.492 4.43054 109.447C4.02412 106.867 5.24171 105.347 5.29383 105.284C5.30388 105.271 5.31651 105.26 5.33094 105.251C5.34538 105.243 5.36132 105.238 5.37783 105.236C5.39434 105.234 5.41107 105.235 5.42702 105.24C5.44297 105.245 5.45781 105.253 5.47065 105.263C5.4835 105.274 5.49408 105.287 5.50177 105.301C5.50946 105.316 5.51409 105.332 5.5154 105.349C5.5167 105.365 5.51465 105.382 5.50937 105.398C5.50408 105.414 5.49567 105.428 5.48464 105.441C5.47287 105.455 4.28638 106.944 4.67473 109.409C4.77854 110.066 5.94318 111.299 10.9035 113.43C13.8964 114.717 16.8813 115.722 16.9112 115.732C16.9382 115.741 16.9613 115.759 16.9766 115.783C16.9918 115.807 16.9983 115.835 16.995 115.864C16.9916 115.892 16.9786 115.918 16.9581 115.938C16.9376 115.958 16.911 115.97 16.8826 115.972L6.6539 116.874V119.715H23.701C24.7518 119.715 25.6117 119.061 25.8924 118.05C26.1732 117.039 25.7727 116.034 24.872 115.495L14.1847 109.078C14.1686 109.071 14.1542 109.06 14.1424 109.047C14.1306 109.034 14.1218 109.019 14.1164 109.002C14.1111 108.985 14.1093 108.968 14.1114 108.95C14.1134 108.933 14.1191 108.916 14.1282 108.901C14.1372 108.886 14.1494 108.873 14.1638 108.863C14.1782 108.853 14.1947 108.846 14.212 108.843C14.2292 108.84 14.247 108.841 14.264 108.845C14.2811 108.849 14.297 108.857 14.3108 108.868L24.9976 115.285C25.9963 115.884 26.4401 116.996 26.1287 118.118C25.8172 119.239 24.8652 119.962 23.7006 119.962Z" fill="#002E5D"/>
<path d="M3.41314 116.818L-0.33378 120.74L-1.72916 121.168L-2.20703 120.19L2.74782 116.578L3.41314 116.818Z" fill="#002E5D"/>
<path d="M-1.66344 121.292C-1.68641 121.292 -1.70892 121.285 -1.72845 121.273C-1.74797 121.261 -1.76374 121.244 -1.77397 121.223L-2.26824 120.236C-2.28129 120.209 -2.28466 120.179 -2.27773 120.151C-2.27081 120.123 -2.25404 120.098 -2.23041 120.081L2.63617 116.548C2.66203 116.529 2.69432 116.521 2.72612 116.526L5.74425 116.949C5.77594 116.954 5.80427 116.972 5.82323 116.997C5.84218 117.023 5.85028 117.056 5.8458 117.088C5.84131 117.119 5.8246 117.148 5.7992 117.168C5.77381 117.188 5.74174 117.197 5.70979 117.193L2.74125 116.777L-2.00009 120.221L-1.60039 121.019L2.42393 119.722C2.43453 119.719 2.44556 119.717 2.45671 119.716L5.62194 119.583C5.65472 119.582 5.6867 119.594 5.71086 119.616C5.73502 119.638 5.74937 119.669 5.75076 119.701C5.75216 119.734 5.74048 119.766 5.71829 119.79C5.6961 119.814 5.66522 119.829 5.63245 119.83L2.48403 119.963L-1.62561 121.286C-1.63786 121.29 -1.65061 121.292 -1.66344 121.292Z" fill="#002E5D"/>
<path d="M36.8537 119.962H31.3478C31.3166 119.962 31.2866 119.95 31.2638 119.929C31.241 119.908 31.227 119.879 31.2247 119.848L30.9964 116.837C30.994 116.804 31.0046 116.772 31.026 116.747C31.0474 116.722 31.0778 116.706 31.1105 116.704C31.1433 116.702 31.1756 116.712 31.2005 116.734C31.2253 116.755 31.2407 116.785 31.2432 116.818L31.4625 119.716H36.728V119.031L33.6813 118.173C33.6591 118.166 33.6392 118.154 33.6236 118.137C33.6081 118.12 33.5975 118.099 33.593 118.076L33.3081 116.537C33.303 116.506 33.3105 116.473 33.3291 116.447C33.3477 116.42 33.3759 116.402 33.4076 116.397C33.4393 116.391 33.472 116.397 33.4988 116.415C33.5256 116.433 33.5443 116.461 33.551 116.493L33.8221 117.956L36.8873 118.816C36.913 118.824 36.9356 118.84 36.9517 118.861C36.9679 118.883 36.9768 118.908 36.9772 118.935V119.838C36.9773 119.854 36.9742 119.87 36.9681 119.885C36.9619 119.9 36.9528 119.914 36.9413 119.926C36.9298 119.937 36.9162 119.946 36.9011 119.953C36.8861 119.959 36.87 119.962 36.8537 119.962Z" fill="#002E5D"/>
<path d="M36.8539 118.936L31.3203 119.444L31.4288 119.839H36.8968L36.8539 118.936Z" fill="#002E5D"/>
<path d="M40.1051 99.5588H40.0891L35.6403 98.9708C35.6078 98.9665 35.5784 98.9494 35.5585 98.9234C35.5386 98.8974 35.5298 98.8645 35.5342 98.832C35.5385 98.7996 35.5556 98.7701 35.5817 98.7503C35.6077 98.7304 35.6406 98.7216 35.6731 98.726L40.0349 99.3035L41.1953 97.0355L38.4828 96.4609C38.4616 96.4565 38.4419 96.4466 38.4257 96.4321C38.4096 96.4177 38.3975 96.3992 38.3908 96.3787C38.3841 96.3581 38.3829 96.3361 38.3874 96.3149C38.3919 96.2937 38.4019 96.2741 38.4164 96.258L39.2288 95.3491L38.6013 94.83L35.5617 96.098C35.5467 96.1042 35.5307 96.1075 35.5144 96.1075C35.4982 96.1075 35.4821 96.1043 35.4671 96.0982C35.4521 96.092 35.4385 96.0829 35.427 96.0715C35.4155 96.06 35.4064 96.0464 35.4001 96.0314C35.3939 96.0165 35.3907 96.0004 35.3906 95.9842C35.3906 95.968 35.3938 95.9519 35.4 95.9369C35.4061 95.9219 35.4152 95.9083 35.4267 95.8968C35.4381 95.8853 35.4517 95.8762 35.4667 95.8699L38.5769 94.5734C38.5977 94.5648 38.6204 94.562 38.6426 94.5653C38.6648 94.5687 38.6857 94.578 38.703 94.5923L39.4873 95.2408C39.5 95.2514 39.5105 95.2645 39.5181 95.2792C39.5257 95.294 39.5302 95.3101 39.5314 95.3266C39.5327 95.3432 39.5305 95.3598 39.5252 95.3755C39.5198 95.3912 39.5114 95.4057 39.5003 95.418L38.7438 96.2635L41.4059 96.8271C41.4242 96.8315 41.4413 96.84 41.4559 96.8518C41.4705 96.8637 41.4823 96.8787 41.4903 96.8957C41.4984 96.9127 41.5026 96.9313 41.5025 96.9501C41.5024 96.9689 41.4981 96.9874 41.49 97.0044L40.2161 99.4929C40.2055 99.5131 40.1895 99.5299 40.1699 99.5416C40.1503 99.5532 40.1279 99.5592 40.1051 99.5588Z" fill="#002E5D"/>
<path d="M109.186 118.58L107.219 110.421L109.967 113.23L112.372 105.115L112.965 112.492L119.585 113.639L113.402 118.58" fill="#BBD1DC"/>
<path d="M108.472 118.704C108.447 118.704 108.422 118.696 108.402 118.682C108.381 118.668 108.365 118.649 108.356 118.625L105.754 112.022C105.745 111.996 105.743 111.969 105.751 111.943C105.758 111.917 105.774 111.894 105.796 111.878C105.818 111.862 105.844 111.853 105.871 111.853C105.898 111.853 105.924 111.862 105.946 111.879L108.66 113.989L110.422 106.377C110.428 106.349 110.444 106.323 110.467 106.306C110.49 106.288 110.519 106.279 110.547 106.281C110.576 106.282 110.604 106.293 110.625 106.312C110.647 106.332 110.661 106.358 110.665 106.387L111.809 114.182L117.34 111.599C117.365 111.587 117.395 111.584 117.422 111.591C117.45 111.598 117.474 111.614 117.491 111.637C117.508 111.659 117.517 111.687 117.516 111.715C117.515 111.744 117.504 111.771 117.485 111.792L111.485 118.661C111.474 118.674 111.461 118.684 111.447 118.691C111.432 118.698 111.416 118.702 111.4 118.704C111.384 118.705 111.368 118.703 111.352 118.697C111.337 118.692 111.323 118.684 111.31 118.673C111.298 118.663 111.288 118.65 111.281 118.635C111.274 118.621 111.269 118.605 111.268 118.589C111.267 118.572 111.269 118.556 111.274 118.541C111.28 118.525 111.288 118.511 111.298 118.499L116.914 112.071L111.763 114.476C111.745 114.484 111.726 114.487 111.707 114.487C111.688 114.486 111.669 114.481 111.653 114.472C111.636 114.463 111.621 114.45 111.61 114.434C111.599 114.419 111.591 114.401 111.588 114.382L110.515 107.071L108.857 114.233C108.852 114.253 108.843 114.271 108.829 114.287C108.815 114.302 108.798 114.314 108.778 114.321C108.759 114.328 108.738 114.33 108.717 114.327C108.697 114.323 108.677 114.315 108.661 114.302L106.15 112.351L108.588 118.535C108.594 118.554 108.596 118.574 108.594 118.593C108.591 118.613 108.584 118.632 108.573 118.648C108.562 118.664 108.547 118.678 108.529 118.688C108.512 118.697 108.493 118.702 108.473 118.703L108.472 118.704Z" fill="#002E5D"/>
<path d="M127.414 64.7593H115.723V68.6216H127.414V64.7593Z" fill="#BBD1DC"/>
<path d="M131.796 70.5079H120.105V74.3703H131.796V70.5079Z" fill="#BBD1DC"/>
<path d="M127.411 101.999H139.102V98.1367H127.411V101.999Z" fill="#BBD1DC"/>
</g>
<defs>
<clipPath id="clip0_2619_27964">
<rect width="130" height="124.402" fill="white"/>
</clipPath>
</defs>
</svg>
