<svg width="130" height="125" viewBox="0 0 130 125" fill="none" xmlns="http://www.w3.org/2000/svg">
<path d="M118.146 32.912L122.055 85.0887L7.77344 98.1649V56.4809L118.146 32.912Z" fill="#F3F8FF"/>
<path d="M74.0353 16.7044L52.6758 18.3591L53.3551 27.128L74.7146 25.4732L74.0353 16.7044Z" fill="#C9DAF4"/>
<path d="M71.0194 23.7091L67.4696 18.5601C68.0928 17.7347 68.4643 16.7468 68.5398 15.7153C68.6152 14.6838 68.3911 13.6524 67.8946 12.7451C67.3981 11.8378 66.6502 11.0931 65.7408 10.6005C64.8314 10.1079 63.799 9.88834 62.7679 9.96818C61.7367 10.048 60.7504 10.4239 59.9277 11.0506C59.1049 11.6773 58.4805 12.5282 58.1296 13.5011C57.7786 14.474 57.716 15.5276 57.9493 16.5352C58.1826 17.5429 58.7018 18.4617 59.4446 19.1814L56.7297 24.8158C56.7189 24.838 56.7126 24.8622 56.7112 24.8869C56.7098 24.9115 56.7133 24.9363 56.7215 24.9596C56.7297 24.9829 56.7424 25.0044 56.7589 25.0228C56.7754 25.0412 56.7954 25.0562 56.8177 25.0669C56.8438 25.0799 56.8727 25.0863 56.9018 25.0856C56.9368 25.0852 56.9709 25.0751 57.0004 25.0564C57.0299 25.0376 57.0536 25.011 57.0688 24.9795L59.8426 19.2196C59.8426 19.2196 59.8426 19.2144 59.8426 19.2112C59.8451 19.2049 59.8473 19.1984 59.8491 19.1918C59.851 19.1863 59.8525 19.1807 59.8536 19.175C59.8539 19.1689 59.8539 19.1629 59.8536 19.1568C59.8553 19.1448 59.8553 19.1326 59.8536 19.1206C59.8539 19.1148 59.8539 19.1089 59.8536 19.1031C59.8536 19.0967 59.8536 19.0908 59.8491 19.085L59.8433 19.0688C59.8433 19.063 59.8381 19.0572 59.8355 19.0514C59.8329 19.0455 59.8297 19.041 59.8264 19.0358C59.8232 19.0306 59.82 19.0261 59.8161 19.0216C59.8119 19.0163 59.8073 19.0113 59.8025 19.0067L59.7967 18.9996C59.0819 18.3407 58.5749 17.4875 58.3381 16.5447C58.1012 15.6018 58.1447 14.6103 58.4632 13.6918C58.7817 12.7734 59.3613 11.9678 60.1311 11.374C60.9008 10.7802 61.8271 10.424 62.7963 10.3491C63.7656 10.2742 64.7356 10.4838 65.5875 10.9523C66.4393 11.4207 67.1359 12.1276 67.5917 12.9863C68.0476 13.8449 68.2429 14.8179 68.1537 15.786C68.0645 16.754 67.6947 17.675 67.0897 18.4359C67.0879 18.4383 67.0864 18.4409 67.0852 18.4437C67.0813 18.4495 67.0774 18.4547 67.0742 18.4605C67.071 18.4657 67.0682 18.4711 67.0657 18.4767C67.0657 18.4818 67.0612 18.4877 67.0593 18.4935C67.0573 18.4992 67.0555 18.5051 67.0541 18.511C67.0538 18.5168 67.0538 18.5226 67.0541 18.5284C67.0535 18.5345 67.0535 18.5405 67.0541 18.5466C67.0538 18.5526 67.0538 18.5586 67.0541 18.5647C67.0535 18.5705 67.0535 18.5763 67.0541 18.5821C67.0537 18.5882 67.0537 18.5942 67.0541 18.6003L67.0599 18.6177C67.0599 18.6236 67.0645 18.6287 67.0664 18.6339C67.0695 18.6402 67.0729 18.6462 67.0767 18.652L67.0806 18.6598L70.7081 23.9207C70.7363 23.961 70.7792 23.9887 70.8276 23.9978C70.876 24.0068 70.926 23.9966 70.9669 23.9692C71.0082 23.9416 71.0369 23.8987 71.0468 23.85C71.0566 23.8012 71.0467 23.7506 71.0194 23.7091Z" fill="#C9DAF4"/>
<path d="M93.8961 102.584L33.6484 100.547C39.5416 75.1383 41.1745 49.0473 38.4809 23.3453L98.7285 25.382C101.42 51.0808 99.7886 77.1756 93.8961 102.584Z" fill="#C9DAF4"/>
<path d="M88.8327 98.8671H28.5508C32.0446 87.3363 34.6496 75.5547 36.3428 63.6257C37.6531 54.3827 38.3831 45.0667 38.5283 35.7324C38.5904 31.6215 38.5359 27.5227 38.3646 23.436H98.6459C99.6936 48.4002 96.3769 73.899 88.8327 98.8671Z" fill="white"/>
<path d="M21.7066 78.9469H16.1642C15.8489 78.9469 15.5377 79.0185 15.254 79.1563C14.9704 79.2941 14.7218 79.4945 14.527 79.7425C14.3322 79.9904 14.1962 80.2794 14.1293 80.5875C14.0625 80.8957 14.0665 81.215 14.1411 81.5214L18.1924 98.1681L34.3842 103.342L51.1124 98.0723V91.308L28.7291 89.8842L21.7066 78.9469Z" fill="#454E54"/>
<path d="M30.9056 67.908L23.9498 69.1156L21.4258 74.6813L23.7194 75.5278L23.0476 78.0783L22.5881 78.3515L18.8636 80.1182C18.8636 80.1182 17.6307 80.636 18.2164 82.0896L23.3505 92.3065L23.9219 91.506H26.6576H32.5902C33.2854 91.5288 33.9459 91.815 34.4379 92.3065C35.2572 93.1297 35.0709 95.1658 35.0709 95.1658V98.168H41.3439C41.3439 98.168 42.3348 97.5577 43.0661 97.3914C43.0661 97.3914 44.0537 97.0432 44.7986 97.2872C45.5435 97.5312 45.6897 98.2813 45.6897 98.2813L46.2968 101.223L46.9265 103.765L47.4106 105.561H48.1141L48.7244 107.935H48.8764L48.0351 111.31H55.5281L55.334 110.304L52.5996 109.587L50.5863 108.195L50.4154 107.854L50.3507 105.561L50.9979 105.552L50.229 95.5068L56.4646 102.406L57.1655 101.838L59.3808 103.657L59.5102 103.556L60.9385 106.728L66.8162 102.05L66.0279 101.385L63.4696 102.535L60.9909 102.71L60.6609 102.555L58.9342 100.368L59.1795 100.157L49.6239 87.5375C49.6239 87.5375 48.7981 86.656 47.5763 86.9246L42.3141 88.5555L43.5521 79.9312L31.4926 81.4385L31.2668 82.6746L30.4545 80.4257L25.9722 78.2589L25.9858 76.6261L28.1584 77.1846L29.4333 72.0544L30.6752 72.191L30.9056 67.908Z" fill="white"/>
<path d="M30.8486 68.9215L24.314 70.0353L22.3867 75.0328L23.7419 75.5253L25.0874 74.1565L24.7314 73.4608L25.0136 72.7657L25.7909 73.4563L26.4374 71.7322L30.6758 72.191L30.8486 68.9215Z" fill="#325D9C"/>
<path d="M27.0846 71.8027L25.4492 76.4734L28.1732 77.2015L29.4313 72.0545L27.0846 71.8027Z" fill="#FDC8AA"/>
<path d="M43.3967 81.0211L32.4102 82.3368L30.6758 91.4963L42.202 89.1781L43.3967 81.0211Z" fill="#454E54"/>
<path d="M24.8206 75.579L25.1941 76.4307L25.9836 76.6261L25.97 78.2589L24.4576 81.335L22.8047 79.319L23.0467 78.0784L23.4493 76.5504L24.8206 75.579Z" fill="#FDC8AA"/>
<path d="M22.5959 79.0569L25.4635 82.542L26.8226 78.6719L30.4513 80.4257L31.2641 82.6747L29.6384 91.506H23.918L19.0642 81.7874C18.9713 81.6017 18.955 81.3869 19.0188 81.1893C19.0826 80.9917 19.2213 80.8269 19.4053 80.7305L22.5959 79.0569Z" fill="#3B82F4"/>
<path d="M34.4375 92.3066L47.7914 88.2508C48.0473 88.173 48.321 88.176 48.5751 88.2595C48.8292 88.343 49.0514 88.5029 49.2113 88.7174L58.2866 100.904L56.4622 102.406L50.1943 95.4817L48.6366 93.7518L50.3471 105.558H47.4322L46.4575 101.915L45.9689 99.6993L45.6932 98.2361C45.6932 98.2361 45.4635 97.0576 43.9827 97.1941C42.502 97.3307 41.3461 98.1649 41.3461 98.1649H35.073V93.8935C35.073 93.8935 34.9384 92.748 34.4375 92.3066Z" fill="#325D9C"/>
<path d="M58.2876 100.904L60.0699 103.096L59.3793 103.658L57.1641 101.838L58.2876 100.904Z" fill="#FDC8AA"/>
<path d="M48.1172 105.561L49.6005 105.556L49.9228 107.889L48.7275 107.935L48.1172 105.561Z" fill="#FDC8AA"/>
<path d="M23.7494 75.612C23.7395 75.6121 23.7297 75.6106 23.7203 75.6075L21.3905 74.7739C21.3791 74.7697 21.3687 74.7632 21.3599 74.7548C21.3512 74.7465 21.3441 74.7365 21.3393 74.7254C21.3345 74.7143 21.332 74.7024 21.332 74.6904C21.332 74.6784 21.3345 74.6665 21.3393 74.6555L23.8685 69.0794C23.8744 69.0664 23.8833 69.0551 23.8946 69.0464C23.9059 69.0377 23.9192 69.0319 23.9332 69.0296L30.8891 67.8226C30.9019 67.8202 30.9152 67.8208 30.9277 67.8244C30.9403 67.828 30.9519 67.8345 30.9616 67.8433C30.9714 67.852 30.9791 67.8628 30.9841 67.8749C30.9892 67.887 30.9914 67.9001 30.9907 67.9132L30.7609 72.1955C30.7603 72.2074 30.7573 72.219 30.752 72.2296C30.7467 72.2402 30.7394 72.2497 30.7304 72.2573C30.7213 72.265 30.7108 72.2708 30.6995 72.2743C30.6882 72.2778 30.6763 72.279 30.6645 72.2777L26.4786 71.828L25.8696 73.488C25.8646 73.5013 25.8564 73.5133 25.8458 73.5229C25.8353 73.5324 25.8225 73.5393 25.8087 73.543C25.795 73.5464 25.7806 73.5464 25.7669 73.543C25.7531 73.5396 25.7404 73.5329 25.7298 73.5236L25.0451 72.9146L24.8205 73.453L25.1745 74.1067C25.1833 74.123 25.1867 74.1417 25.1841 74.1601C25.1815 74.1785 25.1732 74.1956 25.1603 74.2089L23.809 75.5887C23.7928 75.6037 23.7715 75.612 23.7494 75.612ZM21.54 74.6412L23.7261 75.4243L24.9926 74.13L24.6496 73.4964C24.6435 73.4849 24.6401 73.4722 24.6395 73.4592C24.639 73.4462 24.6413 73.4333 24.6464 73.4213L24.9337 72.734C24.939 72.7212 24.9473 72.7098 24.9579 72.7009C24.9685 72.692 24.9811 72.6858 24.9946 72.6829C25.0081 72.6797 25.0223 72.6798 25.0358 72.6832C25.0493 72.6865 25.0618 72.6931 25.0722 72.7023L25.7524 73.3074L26.3407 71.6985C26.3473 71.6801 26.3599 71.6645 26.3764 71.6542C26.393 71.6438 26.4126 71.6394 26.432 71.6416L30.594 72.0946L30.8146 68.0128L24.0109 69.1933L21.54 74.6412Z" fill="#002E5D"/>
<path d="M28.1748 77.2889C28.1675 77.2898 28.1601 77.2898 28.1528 77.2889L25.1635 76.5032C25.151 76.4997 25.1395 76.4936 25.1296 76.4852C25.1198 76.4768 25.1119 76.4664 25.1065 76.4546L24.6082 75.3629C24.6025 75.3523 24.599 75.3407 24.598 75.3288C24.5969 75.3169 24.5984 75.3049 24.6022 75.2935C24.606 75.2822 24.6121 75.2717 24.6201 75.2628C24.6281 75.2539 24.6378 75.2468 24.6487 75.2418C24.6596 75.2368 24.6714 75.2341 24.6833 75.2339C24.6953 75.2337 24.7072 75.2359 24.7183 75.2405C24.7293 75.245 24.7394 75.2518 24.7477 75.2604C24.756 75.269 24.7625 75.2792 24.7668 75.2904L25.2483 76.3446L28.1114 77.0973L29.3559 72.039C29.3618 72.0169 29.3762 71.998 29.3959 71.9864C29.4156 71.9748 29.4391 71.9714 29.4613 71.9769C29.4835 71.9824 29.5026 71.9964 29.5146 72.0159C29.5266 72.0353 29.5305 72.0587 29.5254 72.081L28.2596 77.2254C28.2569 77.2367 28.252 77.2472 28.2451 77.2565C28.2382 77.2657 28.2295 77.2734 28.2194 77.2791C28.2058 77.2865 28.1903 77.2899 28.1748 77.2889Z" fill="#002E5D"/>
<path d="M23.0464 78.1917C23.039 78.1926 23.0317 78.1926 23.0243 78.1917C23.0131 78.1889 23.0024 78.184 22.9931 78.1772C22.9837 78.1703 22.9758 78.1617 22.9698 78.1517C22.9638 78.1418 22.9598 78.1308 22.958 78.1193C22.9563 78.1079 22.9568 78.0962 22.9596 78.0849L23.3628 76.5317C23.3653 76.5201 23.37 76.5092 23.3768 76.4995C23.3836 76.4898 23.3923 76.4817 23.4024 76.4755C23.4124 76.4692 23.4236 76.4651 23.4353 76.4634C23.447 76.4616 23.4589 76.4622 23.4703 76.4652C23.4818 76.4682 23.4925 76.4735 23.5018 76.4807C23.5111 76.4879 23.5189 76.497 23.5247 76.5073C23.5304 76.5176 23.534 76.529 23.5352 76.5408C23.5364 76.5525 23.5352 76.5644 23.5317 76.5757L23.1285 78.1289C23.1235 78.1469 23.1128 78.1627 23.0979 78.174C23.0831 78.1853 23.065 78.1915 23.0464 78.1917Z" fill="#002E5D"/>
<path d="M25.9858 78.3237C25.9743 78.3237 25.9629 78.3215 25.9523 78.3172C25.9416 78.3128 25.932 78.3064 25.9238 78.2983C25.9157 78.2901 25.9093 78.2805 25.9049 78.2698C25.9006 78.2592 25.8984 78.2478 25.8984 78.2363V76.6261C25.9003 76.6043 25.9103 76.584 25.9264 76.5693C25.9425 76.5545 25.9636 76.5463 25.9855 76.5463C26.0074 76.5463 26.0284 76.5545 26.0445 76.5693C26.0607 76.584 26.0707 76.6043 26.0725 76.6261V78.235C26.0728 78.2466 26.0707 78.258 26.0665 78.2688C26.0623 78.2795 26.0559 78.2893 26.0478 78.2976C26.0397 78.3058 26.0301 78.3124 26.0195 78.3169C26.0088 78.3214 25.9974 78.3237 25.9858 78.3237Z" fill="#002E5D"/>
<path d="M23.3477 92.3939C23.3315 92.394 23.3156 92.3896 23.3018 92.3811C23.2879 92.3726 23.2767 92.3605 23.2694 92.346L18.1192 82.0961C18.0281 81.9151 17.9742 81.7177 17.9605 81.5155C17.9468 81.3134 17.9737 81.1105 18.0395 80.9189C18.1054 80.7273 18.2089 80.5508 18.3439 80.3997C18.4789 80.2487 18.6428 80.1261 18.8259 80.0393L22.5504 78.2725C22.5711 78.2638 22.5945 78.2635 22.6155 78.2716C22.6365 78.2796 22.6536 78.2955 22.6632 78.3159C22.6728 78.3362 22.6741 78.3595 22.667 78.3809C22.6598 78.4022 22.6447 78.42 22.6248 78.4304L18.9042 80.1972C18.7421 80.274 18.597 80.3825 18.4774 80.5162C18.3579 80.6499 18.2663 80.8061 18.2079 80.9757C18.1496 81.1453 18.1258 81.3249 18.1379 81.5038C18.15 81.6828 18.1978 81.8575 18.2784 82.0177L23.4286 92.2677C23.4338 92.278 23.4369 92.2891 23.4378 92.3006C23.4387 92.312 23.4373 92.3235 23.4337 92.3344C23.43 92.3453 23.4243 92.3554 23.4168 92.364C23.4092 92.3727 23.4001 92.3798 23.3898 92.3849C23.3767 92.3912 23.3622 92.3943 23.3477 92.3939Z" fill="#002E5D"/>
<path d="M25.4717 82.6539C25.4587 82.654 25.4459 82.6512 25.4342 82.6457C25.4224 82.6403 25.412 82.6322 25.4037 82.6222L22.1135 78.5994C22.1062 78.5905 22.1008 78.5803 22.0975 78.5693C22.0942 78.5583 22.093 78.5468 22.0942 78.5354C22.0953 78.5239 22.0987 78.5129 22.1041 78.5027C22.1096 78.4926 22.1169 78.4837 22.1258 78.4764C22.1347 78.4691 22.1449 78.4637 22.1559 78.4604C22.1669 78.4571 22.1784 78.456 22.1898 78.4571C22.2012 78.4582 22.2123 78.4616 22.2224 78.467C22.2326 78.4725 22.2415 78.4798 22.2488 78.4887L25.44 82.3912L26.4528 79.4647C26.4566 79.4539 26.4624 79.4439 26.47 79.4354C26.4776 79.4268 26.4868 79.4199 26.497 79.4149C26.5073 79.4099 26.5185 79.407 26.5299 79.4063C26.5413 79.4056 26.5527 79.4072 26.5635 79.4109C26.5743 79.4147 26.5842 79.4205 26.5928 79.4281C26.6013 79.4357 26.6083 79.4449 26.6133 79.4552C26.6183 79.4654 26.6212 79.4766 26.6218 79.488C26.6225 79.4994 26.6209 79.5108 26.6172 79.5216L25.5539 82.597C25.549 82.6113 25.5405 82.6241 25.5291 82.6341C25.5178 82.6441 25.504 82.6509 25.4892 82.6539C25.4834 82.6549 25.4775 82.6549 25.4717 82.6539Z" fill="#002E5D"/>
<path d="M32.0631 91.2963C32.0416 91.296 32.0211 91.2877 32.0053 91.2732C31.9895 91.2586 31.9797 91.2388 31.9776 91.2174C31.9755 91.1961 31.9814 91.1747 31.994 91.1574C32.0067 91.1401 32.0253 91.128 32.0463 91.1235L42.1422 89.1043L43.4489 80.0523L31.5622 81.5356L29.8303 90.8815C29.8289 90.8933 29.825 90.9047 29.819 90.915C29.813 90.9253 29.8049 90.9343 29.7953 90.9413C29.7857 90.9484 29.7748 90.9534 29.7631 90.9561C29.7515 90.9587 29.7395 90.959 29.7277 90.9568C29.716 90.9546 29.7049 90.9501 29.6949 90.9435C29.685 90.9368 29.6766 90.9282 29.6702 90.9182C29.6637 90.9082 29.6594 90.8969 29.6574 90.8851C29.6555 90.8734 29.656 90.8613 29.6588 90.8498L31.4023 81.4411C31.4058 81.4229 31.4149 81.4063 31.4284 81.3936C31.4419 81.3809 31.459 81.3729 31.4774 81.3706L43.5401 79.8659C43.5534 79.8644 43.5668 79.866 43.5794 79.8705C43.5919 79.875 43.6033 79.8822 43.6126 79.8918C43.6221 79.9012 43.6293 79.9127 43.6336 79.9254C43.6378 79.9381 43.6391 79.9516 43.6372 79.9649L42.3053 89.1917C42.3027 89.2096 42.2947 89.2262 42.2823 89.2393C42.2699 89.2523 42.2538 89.2613 42.2361 89.2648L32.0799 91.2957C32.0744 91.2966 32.0687 91.2968 32.0631 91.2963Z" fill="#002E5D"/>
<path d="M31.2649 82.7478C31.2469 82.7478 31.2294 82.7423 31.2147 82.732C31.2 82.7217 31.1888 82.7071 31.1827 82.6902L30.3835 80.4937L26.4972 78.6233C26.478 78.6124 26.4637 78.5946 26.4571 78.5735C26.4505 78.5525 26.4521 78.5297 26.4616 78.5098C26.4712 78.4899 26.4878 78.4743 26.5083 78.4662C26.5289 78.4581 26.5517 78.458 26.5722 78.466L30.4883 80.3519C30.509 80.3616 30.525 80.379 30.5329 80.4005L31.3439 82.6306C31.3479 82.6414 31.3497 82.6528 31.3493 82.6643C31.3489 82.6757 31.3462 82.687 31.3414 82.6974C31.3365 82.7078 31.3297 82.7172 31.3212 82.7249C31.3128 82.7327 31.3029 82.7387 31.2921 82.7426C31.2833 82.7456 31.2742 82.7474 31.2649 82.7478Z" fill="#002E5D"/>
<path d="M25.6289 88.4463C25.612 88.4462 25.5955 88.4412 25.5814 88.4319C25.5672 88.4226 25.5561 88.4094 25.5493 88.3938L23.4078 83.5219C23.4 83.501 23.4006 83.4779 23.4093 83.4573C23.418 83.4368 23.4343 83.4203 23.4547 83.4114C23.4752 83.4024 23.4983 83.4017 23.5193 83.4092C23.5403 83.4168 23.5576 83.4321 23.5677 83.452L25.6762 88.2495L30.5022 86.5319C30.5131 86.5275 30.5248 86.5254 30.5365 86.5257C30.5483 86.5259 30.5598 86.5285 30.5706 86.5333C30.5813 86.5381 30.5909 86.5451 30.5989 86.5537C30.6069 86.5623 30.613 86.5725 30.617 86.5835C30.6209 86.5946 30.6226 86.6063 30.6219 86.6181C30.6213 86.6298 30.6182 86.6413 30.613 86.6518C30.6078 86.6623 30.6005 86.6717 30.5916 86.6794C30.5827 86.687 30.5723 86.6928 30.5611 86.6963L25.6581 88.4437C25.6486 88.4461 25.6387 88.447 25.6289 88.4463Z" fill="#002E5D"/>
<path d="M43.1189 98.2522H35.0712C35.0481 98.2522 35.0258 98.243 35.0095 98.2266C34.9931 98.2102 34.9839 98.188 34.9839 98.1648V94.2746C34.9839 93.3887 34.7302 92.7059 34.2306 92.2457C33.4248 91.5034 32.2347 91.5921 32.2243 91.5927H23.9637L20.5984 96.3055C20.5082 96.4316 20.3837 96.5292 20.2397 96.5865C20.0956 96.6439 19.9381 96.6587 19.7859 96.6291C19.6338 96.5995 19.4933 96.5268 19.3812 96.4196C19.2692 96.3124 19.1903 96.1753 19.1539 96.0246L15.5 80.8334C15.4965 80.822 15.4953 80.81 15.4966 80.7982C15.4979 80.7863 15.5016 80.7748 15.5076 80.7644C15.5135 80.7541 15.5214 80.745 15.531 80.7379C15.5405 80.7307 15.5514 80.7256 15.563 80.7228C15.5746 80.72 15.5867 80.7196 15.5985 80.7216C15.6102 80.7237 15.6214 80.7281 15.6314 80.7347C15.6414 80.7412 15.6499 80.7497 15.6565 80.7597C15.663 80.7697 15.6675 80.7809 15.6695 80.7927L19.3235 95.9838C19.3519 96.1022 19.4137 96.2098 19.5017 96.294C19.5896 96.3781 19.6998 96.4352 19.8193 96.4584C19.9388 96.4816 20.0624 96.4699 20.1754 96.4248C20.2884 96.3797 20.3861 96.303 20.4567 96.2039L23.8492 91.4549C23.8571 91.4435 23.8677 91.4342 23.8799 91.4278C23.8922 91.4214 23.9059 91.418 23.9197 91.418H32.212C32.3033 91.4109 33.4993 91.3352 34.3477 92.1157C34.8855 92.6101 35.158 93.3362 35.158 94.274V98.0768H43.1182C43.1414 98.0768 43.1636 98.086 43.18 98.1024C43.1964 98.1188 43.2056 98.141 43.2056 98.1642C43.2056 98.1873 43.1964 98.2096 43.18 98.226C43.1636 98.2423 43.1414 98.2515 43.1182 98.2515L43.1189 98.2522Z" fill="#002E5D"/>
<path d="M26.6142 91.5934C26.5954 91.5932 26.5772 91.5871 26.5622 91.5758C26.5472 91.5645 26.5362 91.5487 26.5309 91.5307C26.5256 91.5127 26.5262 91.4934 26.5327 91.4758C26.5392 91.4582 26.5512 91.4431 26.5669 91.4329L29.9892 89.2163C29.9988 89.2093 30.0097 89.2043 30.0213 89.2017C30.0328 89.199 30.0448 89.1988 30.0565 89.2009C30.0682 89.203 30.0793 89.2075 30.0892 89.2141C30.0991 89.2207 30.1075 89.2292 30.114 89.2392C30.1204 89.2491 30.1248 89.2603 30.1268 89.272C30.1288 89.2837 30.1285 89.2957 30.1257 89.3073C30.1229 89.3188 30.1178 89.3297 30.1107 89.3392C30.1036 89.3487 30.0946 89.3566 30.0843 89.3625L26.6614 91.5791C26.6474 91.5885 26.631 91.5935 26.6142 91.5934Z" fill="#002E5D"/>
<path d="M56.4708 102.504C56.4587 102.504 56.4466 102.502 56.4354 102.497C56.4243 102.492 56.4143 102.485 56.4061 102.476L47.82 92.9984C47.6673 92.829 47.4618 92.716 47.2369 92.6779C47.012 92.6397 46.7808 92.6785 46.5807 92.7881L39.9038 96.4207C39.8835 96.4308 39.8601 96.4326 39.8385 96.4258C39.8169 96.4191 39.7988 96.4042 39.788 96.3843C39.7772 96.3644 39.7745 96.3411 39.7805 96.3192C39.7865 96.2974 39.8008 96.2788 39.8203 96.2673L46.4972 92.634C46.7317 92.5058 47.0026 92.4604 47.2662 92.5051C47.5297 92.5499 47.7704 92.6821 47.9495 92.8806L56.4793 102.292L59.0518 100.157L49.7227 87.8132C49.4534 87.4651 49.0841 87.2077 48.6644 87.0752C48.2446 86.9428 47.7945 86.9418 47.3741 87.0722L42.332 88.6494C42.3104 88.6547 42.2876 88.6516 42.2682 88.6407C42.2489 88.6298 42.2344 88.612 42.2277 88.5908C42.221 88.5696 42.2226 88.5467 42.2323 88.5267C42.2419 88.5066 42.2588 88.491 42.2795 88.483L47.3204 86.9033C47.775 86.762 48.2619 86.7631 48.7158 86.9064C49.1697 87.0497 49.5689 87.3284 49.8599 87.7051L59.2401 100.117C59.2536 100.135 59.2596 100.158 59.257 100.18C59.2543 100.202 59.2432 100.223 59.2259 100.237L56.5252 102.481C56.5104 102.495 56.4911 102.503 56.4708 102.504Z" fill="#002E5D"/>
<path d="M50.996 105.649H47.4126C47.3935 105.649 47.375 105.642 47.3599 105.631C47.3448 105.619 47.334 105.603 47.3291 105.584C47.3168 105.541 46.115 101.275 45.6594 98.5428C45.5669 97.9856 45.3171 97.6096 44.9171 97.4251C43.6791 96.8556 41.3874 98.225 41.3648 98.2386C41.355 98.2456 41.3439 98.2505 41.3321 98.253C41.3204 98.2555 41.3082 98.2556 41.2964 98.2532C41.2847 98.2508 41.2735 98.2459 41.2637 98.239C41.2538 98.2321 41.2456 98.2233 41.2393 98.213C41.2331 98.2027 41.229 98.1913 41.2274 98.1794C41.2257 98.1675 41.2266 98.1553 41.2299 98.1438C41.2331 98.1322 41.2388 98.1215 41.2464 98.1122C41.254 98.1029 41.2635 98.0953 41.2742 98.0898C41.3712 98.0309 43.6687 96.6595 44.9896 97.2666C45.4459 97.4762 45.7287 97.8963 45.8309 98.5137C46.2548 101.054 47.3266 104.931 47.4786 105.473H50.9016L50.112 95.4985C50.1107 95.4868 50.1117 95.475 50.115 95.4637C50.1183 95.4525 50.1239 95.442 50.1314 95.4329C50.1388 95.4239 50.1481 95.4164 50.1585 95.411C50.1689 95.4056 50.1803 95.4023 50.192 95.4014C50.2037 95.4005 50.2155 95.4019 50.2266 95.4057C50.2377 95.4094 50.248 95.4154 50.2568 95.4231C50.2656 95.4309 50.2727 95.4404 50.2777 95.451C50.2828 95.4616 50.2856 95.4732 50.2861 95.4849L51.0828 105.554C51.0837 105.565 51.0822 105.577 51.0783 105.588C51.0744 105.6 51.0682 105.61 51.0601 105.618C51.0522 105.628 51.0424 105.635 51.0314 105.64C51.0203 105.646 51.0083 105.649 50.996 105.649Z" fill="#002E5D"/>
<path d="M59.3899 103.751C59.3696 103.751 59.35 103.745 59.3342 103.732L57.1021 101.913C57.0859 101.898 57.076 101.877 57.0744 101.855C57.0729 101.833 57.0798 101.811 57.0938 101.794C57.1078 101.776 57.1278 101.765 57.1498 101.762C57.1717 101.759 57.194 101.765 57.2121 101.777L59.3879 103.551L60.5483 102.546L58.8624 100.426C58.8546 100.417 58.8487 100.407 58.8451 100.396C58.8414 100.384 58.8401 100.373 58.8412 100.361C58.8422 100.349 58.8457 100.338 58.8513 100.327C58.8569 100.317 58.8645 100.308 58.8738 100.3C58.883 100.293 58.8936 100.288 58.905 100.284C58.9164 100.281 58.9283 100.28 58.94 100.282C58.9517 100.284 58.963 100.288 58.9731 100.294C58.9833 100.3 58.992 100.308 58.999 100.317L60.7366 102.504C60.7507 102.522 60.7574 102.544 60.7553 102.567C60.7533 102.589 60.7426 102.61 60.7256 102.625L59.4468 103.731C59.4309 103.744 59.4107 103.751 59.3899 103.751Z" fill="#002E5D"/>
<path d="M60.9393 106.812C60.9324 106.813 60.9254 106.813 60.9186 106.812C60.9057 106.809 60.8937 106.803 60.8835 106.795C60.8733 106.786 60.8651 106.775 60.8597 106.763L59.5653 103.903C59.5566 103.882 59.5564 103.859 59.5647 103.838C59.5731 103.817 59.5893 103.8 59.61 103.79C59.6307 103.781 59.6543 103.78 59.6757 103.788C59.697 103.795 59.7146 103.811 59.7245 103.832L60.9697 106.587L66.6758 102.046L66.0099 101.495L63.4581 102.623C63.4486 102.627 63.4386 102.63 63.4283 102.63L61.0143 102.788C61.0025 102.79 60.9906 102.789 60.9792 102.785C60.9678 102.782 60.9572 102.776 60.9481 102.769C60.9389 102.761 60.9314 102.752 60.926 102.741C60.9206 102.731 60.9174 102.719 60.9166 102.707C60.9158 102.696 60.9174 102.684 60.9214 102.672C60.9253 102.661 60.9315 102.651 60.9396 102.642C60.9476 102.634 60.9574 102.627 60.9682 102.622C60.9791 102.617 60.9908 102.614 61.0027 102.614L63.4018 102.458L65.9905 101.314C66.0053 101.307 66.0217 101.305 66.0378 101.307C66.0539 101.309 66.0691 101.316 66.0817 101.326L66.8719 101.981C66.8815 101.989 66.8893 101.998 66.8948 102.01C66.9002 102.021 66.9033 102.033 66.9036 102.045C66.9032 102.058 66.9 102.07 66.8943 102.081C66.8886 102.093 66.8805 102.102 66.8706 102.11L60.993 106.788C60.9784 106.802 60.9595 106.811 60.9393 106.812Z" fill="#002E5D"/>
<path d="M48.7299 108.036C48.7106 108.036 48.6919 108.029 48.6765 108.018C48.6612 108.006 48.6501 107.99 48.6451 107.971L48.0316 105.584C48.0279 105.573 48.0266 105.561 48.0277 105.549C48.0289 105.537 48.0324 105.525 48.0381 105.515C48.0439 105.505 48.0517 105.495 48.0612 105.488C48.0706 105.481 48.0814 105.475 48.093 105.472C48.1046 105.469 48.1166 105.469 48.1284 105.471C48.1402 105.473 48.1515 105.477 48.1615 105.483C48.1716 105.49 48.1803 105.498 48.187 105.508C48.1937 105.518 48.1983 105.529 48.2005 105.541L48.7966 107.86L50.3298 107.795L50.2618 105.563C50.2615 105.552 50.2634 105.54 50.2674 105.53C50.2715 105.519 50.2777 105.509 50.2855 105.501C50.2934 105.492 50.3029 105.486 50.3133 105.481C50.3238 105.476 50.3351 105.474 50.3466 105.473C50.3696 105.473 50.3917 105.482 50.4084 105.498C50.4252 105.514 50.4352 105.535 50.4365 105.558L50.5071 107.876C50.5076 107.899 50.4991 107.921 50.4833 107.938C50.4676 107.954 50.4459 107.964 50.4229 107.965L48.7332 108.035L48.7299 108.036Z" fill="#002E5D"/>
<path d="M55.5484 111.397H48.0366C48.0233 111.397 48.0101 111.394 47.9981 111.388C47.9861 111.382 47.9756 111.374 47.9674 111.363C47.9593 111.353 47.9537 111.341 47.9511 111.328C47.9484 111.315 47.9486 111.301 47.9518 111.288L48.7207 108.247C48.7227 108.235 48.7272 108.223 48.7338 108.213C48.7405 108.203 48.7491 108.195 48.7592 108.188C48.7693 108.182 48.7806 108.177 48.7925 108.175C48.8044 108.173 48.8165 108.174 48.8282 108.177C48.8398 108.18 48.8508 108.185 48.8603 108.192C48.8698 108.2 48.8777 108.209 48.8835 108.22C48.8892 108.23 48.8927 108.242 48.8938 108.254C48.8948 108.266 48.8934 108.278 48.8896 108.289L48.1486 111.224H55.441L55.263 110.378L52.5643 109.672C52.5543 109.669 52.5448 109.665 52.5364 109.659L50.5502 108.278C50.5408 108.271 50.5328 108.263 50.5266 108.253C50.5205 108.244 50.5162 108.233 50.5142 108.222C50.5121 108.21 50.5123 108.199 50.5147 108.188C50.5171 108.177 50.5217 108.166 50.5282 108.157C50.5347 108.147 50.543 108.139 50.5526 108.133C50.5622 108.127 50.573 108.123 50.5842 108.121C50.5954 108.118 50.607 108.119 50.6181 108.121C50.6293 108.124 50.6399 108.128 50.6493 108.135L52.6212 109.505L55.3575 110.222C55.3731 110.226 55.3874 110.234 55.3988 110.245C55.4102 110.257 55.4183 110.271 55.4222 110.286L55.6332 111.29C55.636 111.303 55.6359 111.316 55.6329 111.329C55.6299 111.341 55.624 111.353 55.6157 111.363C55.6078 111.373 55.5976 111.382 55.586 111.388C55.5743 111.394 55.5615 111.397 55.5484 111.397Z" fill="#002E5D"/>
<path d="M63.4263 102.544L63.0089 104.059L60.5664 105.9L60.9398 106.725L66.8175 102.047L66.0273 101.394L63.4263 102.544Z" fill="#002E5D"/>
<path d="M34.3843 103.426C34.3753 103.426 34.3664 103.424 34.3577 103.422L20.3651 98.9505C20.3543 98.947 20.3442 98.9414 20.3355 98.934C20.3267 98.9266 20.3196 98.9176 20.3143 98.9074C20.3091 98.8973 20.3059 98.8862 20.305 98.8748C20.304 98.8634 20.3053 98.852 20.3088 98.8411C20.3123 98.8302 20.3179 98.8201 20.3253 98.8114C20.3327 98.8027 20.3417 98.7955 20.3519 98.7903C20.362 98.7851 20.3731 98.7819 20.3845 98.7809C20.3959 98.78 20.4073 98.7813 20.4182 98.7848L34.3843 103.25L40.0523 101.465C40.0738 101.459 40.0966 101.463 40.116 101.473C40.1354 101.484 40.1499 101.502 40.1565 101.523C40.1632 101.544 40.1616 101.567 40.1519 101.587C40.1423 101.607 40.1254 101.623 40.1047 101.631L34.4095 103.425C34.4012 103.426 34.3927 103.427 34.3843 103.426Z" fill="#002E5D"/>
<path d="M32.4862 111.397C32.4793 111.398 32.4723 111.398 32.4654 111.397C32.443 111.392 32.4236 111.378 32.4115 111.358C32.3993 111.338 32.3955 111.315 32.4007 111.292L34.2983 103.321C34.3019 103.305 34.3098 103.291 34.3213 103.279C34.3327 103.268 34.3472 103.26 34.363 103.256C34.3786 103.252 34.3949 103.253 34.4102 103.258C34.4255 103.263 34.4392 103.272 34.4497 103.284L41.3861 111.255C41.3976 111.273 41.4023 111.294 41.3995 111.315C41.3967 111.335 41.3865 111.355 41.3708 111.368C41.3551 111.382 41.335 111.39 41.314 111.39C41.2931 111.391 41.2727 111.383 41.2567 111.37L34.4316 103.526L32.5742 111.333C32.5688 111.352 32.5572 111.369 32.5413 111.38C32.5253 111.392 32.5059 111.398 32.4862 111.397Z" fill="#002E5D"/>
<path d="M48.2403 110.511L52.5887 109.586L55.3399 110.306L55.5508 111.31H48.0391L48.2403 110.511Z" fill="#002E5D"/>
<path d="M20.3919 111.397C20.3765 111.397 20.3614 111.393 20.3481 111.385C20.3348 111.378 20.3238 111.366 20.3162 111.353C20.3047 111.333 20.3017 111.309 20.3077 111.287C20.3138 111.264 20.3285 111.245 20.3485 111.234L34.3412 103.263C34.3511 103.256 34.3624 103.251 34.3743 103.249C34.3861 103.247 34.3983 103.247 34.41 103.25C34.4218 103.253 34.4328 103.258 34.4425 103.265C34.4521 103.272 34.4602 103.281 34.4662 103.292C34.4721 103.302 34.4758 103.314 34.4771 103.326C34.4783 103.338 34.4771 103.35 34.4734 103.361C34.4698 103.373 34.4638 103.384 34.4558 103.393C34.4479 103.402 34.4381 103.409 34.4272 103.414L20.4353 111.385C20.4221 111.393 20.4071 111.397 20.3919 111.397Z" fill="#002E5D"/>
<path d="M33.7099 78.7586C33.7038 78.7593 33.6978 78.7593 33.6917 78.7586C33.6696 78.7532 33.6504 78.7393 33.6383 78.72C33.6262 78.7006 33.6221 78.6773 33.627 78.655C34.3887 74.9991 35.0722 71.285 35.6559 67.6213C35.6577 67.61 35.6618 67.5991 35.6678 67.5893C35.6738 67.5795 35.6817 67.571 35.6911 67.5643C35.7004 67.5576 35.7109 67.5527 35.7221 67.5501C35.7333 67.5474 35.7449 67.547 35.7562 67.5488C35.7676 67.5507 35.7784 67.5547 35.7882 67.5607C35.798 67.5668 35.8065 67.5747 35.8132 67.584C35.82 67.5933 35.8248 67.6039 35.8275 67.615C35.8301 67.6262 35.8305 67.6378 35.8287 67.6492C35.2463 71.3174 34.5602 75.0322 33.7946 78.6913C33.7903 78.7105 33.7796 78.7277 33.7641 78.7399C33.7487 78.7522 33.7296 78.7588 33.7099 78.7586Z" fill="#002E5D"/>
<path d="M88.8324 98.9551H63.6928C63.6697 98.9551 63.6474 98.9459 63.6311 98.9295C63.6147 98.9131 63.6055 98.8909 63.6055 98.8677C63.6055 98.8446 63.6147 98.8223 63.6311 98.8059C63.6474 98.7896 63.6697 98.7803 63.6928 98.7803H88.7677C96.3067 73.809 99.6002 48.4876 98.5621 23.5176H76.8131C76.801 23.5186 76.7888 23.5171 76.7774 23.5132C76.7659 23.5093 76.7554 23.5031 76.7465 23.4949C76.7376 23.4867 76.7304 23.4768 76.7256 23.4657C76.7207 23.4546 76.7182 23.4426 76.7182 23.4305C76.7182 23.4184 76.7207 23.4064 76.7256 23.3953C76.7304 23.3843 76.7376 23.3743 76.7465 23.3661C76.7554 23.3579 76.7659 23.3517 76.7774 23.3478C76.7888 23.3439 76.801 23.3424 76.8131 23.3435H98.6456C98.6681 23.3434 98.6897 23.3521 98.706 23.3677C98.7223 23.3832 98.7319 23.4045 98.7329 23.4269C99.2546 35.8579 98.6876 48.5536 97.0503 61.1606C95.4129 73.7676 92.6741 86.462 88.9185 98.891C88.9133 98.9098 88.902 98.9262 88.8865 98.9378C88.8709 98.9494 88.8519 98.9555 88.8324 98.9551Z" fill="#002E5D"/>
<path d="M38.4846 27.1042C38.4618 27.1042 38.4399 27.0952 38.4237 27.0792C38.4075 27.0632 38.3982 27.0415 38.3978 27.0187C38.3674 25.8279 38.3273 24.6242 38.2775 23.434C38.2768 23.4222 38.2787 23.4103 38.2828 23.3992C38.2869 23.3881 38.2932 23.3779 38.3014 23.3693C38.3099 23.3608 38.3199 23.354 38.3311 23.3494C38.3422 23.3449 38.3541 23.3426 38.3661 23.3428H48.1573C48.1791 23.3447 48.1993 23.3546 48.2141 23.3708C48.2289 23.3869 48.2371 23.408 48.2371 23.4298C48.2371 23.4517 48.2289 23.4728 48.2141 23.4889C48.1993 23.505 48.1791 23.515 48.1573 23.5169H38.4554C38.5033 24.676 38.5428 25.8519 38.5719 27.0116C38.5724 27.0347 38.5638 27.057 38.5479 27.0738C38.5321 27.0905 38.5102 27.1003 38.4871 27.1009L38.4846 27.1042Z" fill="#002E5D"/>
<path d="M58.9289 61.4006L36.6609 65.7115C36.5487 65.0164 36.443 64.3211 36.3438 63.6256C37.6541 54.3826 38.384 45.0666 38.5293 35.7323C43.8715 35.7802 49.2146 35.8276 54.5585 35.8747C54.8426 44.543 56.3131 53.1315 58.9289 61.4006Z" fill="#C9DAF4"/>
<path d="M56.6336 60.5891L34.0659 62.8543C33.3675 52.827 34.0506 42.7513 36.0961 32.91L54.6054 34.7668C54.0986 43.4265 54.7811 52.1148 56.6336 60.5891Z" fill="white"/>
<path d="M53.816 35.5518C53.7155 37.341 53.6617 39.1315 53.6548 40.9234C47.4441 42.008 41.2597 43.2383 35.1016 44.6142C35.4433 41.0332 35.9548 37.4787 36.636 33.9507L53.816 35.5518Z" fill="#F3F8FF"/>
<path d="M35.0535 45.1527C41.2258 43.7591 47.4277 42.5064 53.6592 41.3945C53.6592 41.7828 53.6592 41.9809 53.6683 42.3718C47.4036 43.5242 41.1691 44.8233 34.9648 46.2691C34.9959 45.8225 35.0147 45.5992 35.0535 45.1527Z" fill="#F3F8FF"/>
<path d="M53.6919 43.615C53.7213 44.5676 53.7621 45.5194 53.8143 46.4703C47.4089 47.8173 41.0386 49.3136 34.7031 50.9592C34.742 49.868 34.7948 48.778 34.8617 47.689C41.1069 46.1888 47.3837 44.8308 53.6919 43.615Z" fill="#F3F8FF"/>
<path d="M34.6602 56.3689C41.1358 54.4903 47.6507 52.7593 54.2049 51.1759C54.5302 54.0839 54.9832 56.9712 55.564 59.8377L34.8918 61.7851C34.7723 59.9807 34.6951 58.1753 34.6602 56.3689Z" fill="#F3F8FF"/>
<path d="M33.9775 48.7813H33.9723C33.9493 48.7798 33.9277 48.7692 33.9124 48.7519C33.8972 48.7345 33.8894 48.7118 33.8908 48.6888C34.2219 43.3801 34.9307 38.1018 36.0116 32.8938C36.016 32.8727 36.028 32.8541 36.0453 32.8414C36.0627 32.8287 36.0841 32.823 36.1054 32.8252L54.6147 34.6813C54.6371 34.6836 54.6577 34.6944 54.6723 34.7115C54.6869 34.7286 54.6943 34.7507 54.693 34.7732C54.5364 37.4486 54.4885 40.1635 54.5493 42.8435C54.5497 42.8666 54.5409 42.8889 54.5249 42.9056C54.5089 42.9224 54.487 42.9321 54.4639 42.9328C54.4521 42.9338 54.4402 42.9323 54.4289 42.9284C54.4177 42.9246 54.4074 42.9185 54.3986 42.9105C54.3899 42.9024 54.3829 42.8927 54.3781 42.8818C54.3733 42.871 54.3708 42.8592 54.3707 42.8474C54.3105 40.1907 54.3571 37.4997 54.5098 34.8469L36.1663 33.0064C35.0963 38.1814 34.3941 43.4256 34.0649 48.6998C34.0634 48.7219 34.0535 48.7427 34.0373 48.7578C34.0211 48.773 33.9997 48.7814 33.9775 48.7813Z" fill="#002E5D"/>
<path d="M34.0676 62.9435C34.0471 62.9435 34.0273 62.9362 34.0119 62.9228C34.003 62.9153 33.9956 62.9062 33.9903 62.8958C33.985 62.8855 33.9817 62.8742 33.9808 62.8626C33.8417 60.8635 33.7524 58.8352 33.7148 56.8329C33.7148 56.8097 33.724 56.7875 33.7404 56.7711C33.7568 56.7547 33.779 56.7455 33.8022 56.7455C33.8254 56.7455 33.8476 56.7547 33.864 56.7711C33.8804 56.7875 33.8896 56.8097 33.8896 56.8329C33.9258 58.8022 34.0132 60.7968 34.1485 62.7636L52.0507 60.9618C52.0736 60.9597 52.0966 60.9667 52.1144 60.9814C52.1322 60.996 52.1435 61.0172 52.1458 61.0401C52.147 61.0515 52.146 61.063 52.1428 61.074C52.1395 61.0849 52.1341 61.0951 52.1269 61.104C52.1197 61.1129 52.1108 61.1202 52.1007 61.1256C52.0906 61.1309 52.0795 61.1342 52.0681 61.1353L34.0766 62.9429L34.0676 62.9435Z" fill="#002E5D"/>
<path d="M46.2145 40.5829H46.2099L37.9261 40.1674C37.9147 40.1669 37.9035 40.164 37.8932 40.1591C37.8829 40.1542 37.8737 40.1473 37.866 40.1389C37.8584 40.1304 37.8525 40.1205 37.8487 40.1097C37.8449 40.099 37.8433 40.0876 37.8439 40.0762C37.844 40.0646 37.8465 40.0532 37.8513 40.0427C37.856 40.0321 37.8629 40.0227 37.8715 40.0149C37.88 40.0071 37.8901 40.0012 37.901 39.9975C37.912 39.9938 37.9236 39.9924 37.9351 39.9933L46.219 40.4088C46.2422 40.4094 46.2641 40.4192 46.2801 40.436C46.2961 40.4528 46.3047 40.4753 46.3041 40.4985C46.3035 40.5216 46.2937 40.5436 46.2769 40.5596C46.2601 40.5755 46.2376 40.5842 46.2145 40.5836V40.5829Z" fill="#002E5D"/>
<path d="M51.539 45.3876L37.4416 45.1734C37.4301 45.1732 37.4188 45.1708 37.4082 45.1663C37.3977 45.1617 37.3881 45.1551 37.3802 45.1469C37.3722 45.1387 37.3659 45.1289 37.3616 45.1183C37.3574 45.1076 37.3553 45.0962 37.3555 45.0847C37.3566 45.0618 37.3664 45.0402 37.3829 45.0242C37.3993 45.0083 37.4212 44.9991 37.4441 44.9987L51.5416 45.2135C51.5634 45.2154 51.5837 45.2254 51.5985 45.2415C51.6132 45.2576 51.6215 45.2787 51.6215 45.3006C51.6215 45.3224 51.6132 45.3435 51.5985 45.3596C51.5837 45.3757 51.5634 45.3857 51.5416 45.3876H51.539Z" fill="#002E5D"/>
<path d="M37.1928 50.1954C37.1697 50.1954 37.1474 50.1862 37.1311 50.1698C37.1147 50.1535 37.1055 50.1312 37.1055 50.1081C37.1055 50.0849 37.1147 50.0627 37.1311 50.0463C37.1474 50.0299 37.1697 50.0207 37.1928 50.0207L51.7744 49.745C51.7975 49.745 51.8198 49.7539 51.8364 49.77C51.8531 49.7861 51.8629 49.8079 51.8637 49.8311C51.8639 49.8542 51.8549 49.8765 51.8388 49.893C51.8227 49.9096 51.8007 49.9192 51.7776 49.9197L37.1961 50.1954H37.1928Z" fill="#002E5D"/>
<path d="M37.184 55.2241C37.1621 55.2228 37.1415 55.2134 37.1262 55.1977C37.111 55.1819 37.1022 55.161 37.1016 55.1391C37.101 55.1172 37.1087 55.0958 37.1232 55.0793C37.1376 55.0628 37.1577 55.0523 37.1795 55.05L52.2218 54.2624C52.2333 54.2617 52.2448 54.2633 52.2556 54.2671C52.2665 54.2709 52.2764 54.2768 52.2849 54.2845C52.2934 54.2923 52.3003 54.3016 52.3051 54.312C52.31 54.3224 52.3127 54.3337 52.3131 54.3452C52.3143 54.3683 52.3064 54.3909 52.291 54.4081C52.2756 54.4253 52.254 54.4358 52.2309 54.4371L37.1886 55.2241H37.184Z" fill="#002E5D"/>
<path d="M46.2407 33.0472L44.204 36.6105L43.4844 32.321L46.2407 33.0472Z" fill="#454E54"/>
<path d="M46.8829 33.0181C47.0658 32.3084 46.2686 31.4894 45.1023 31.1888C43.936 30.8882 42.8422 31.2199 42.6593 31.9296C42.4764 32.6393 43.2736 33.4583 44.4399 33.7589C45.6062 34.0595 46.7 33.7278 46.8829 33.0181Z" fill="#454E54"/>
<path d="M60.582 87.5292L82.8507 91.84C84.4578 81.9177 84.6938 71.8216 83.5523 61.835L64.9524 62C64.6691 70.6694 63.1986 79.2591 60.582 87.5292Z" fill="#C9DAF4"/>
<path d="M62.875 86.7176L85.4434 88.9827C86.1412 78.9554 85.4581 68.8798 83.4132 59.0385L64.9039 60.8946C65.4108 69.5545 64.7281 78.243 62.875 86.7176Z" fill="white"/>
<path d="M65.6953 61.6803C65.7954 63.4695 65.8491 65.26 65.8565 67.0518C72.0694 68.1365 78.254 69.3672 84.4104 70.744C84.0687 67.1629 83.5572 63.6084 82.8759 60.0804L65.6953 61.6803Z" fill="#F3F8FF"/>
<path d="M84.4592 71.2811C78.2868 69.8879 72.086 68.6352 65.8567 67.5229C65.8567 67.9113 65.8528 68.1093 65.8477 68.5002C72.1123 69.6526 78.3468 70.9517 84.5511 72.3975C84.5168 71.9509 84.4986 71.7277 84.4592 71.2811Z" fill="#F3F8FF"/>
<path d="M65.8215 69.7434C65.7926 70.6961 65.7519 71.6478 65.6992 72.5988C72.1037 73.9457 78.4741 75.4418 84.8103 77.0869C84.7715 75.9962 84.7185 74.9064 84.6511 73.8174C78.4059 72.3185 72.1294 70.9605 65.8215 69.7434Z" fill="#F3F8FF"/>
<path d="M84.853 82.4974C78.3765 80.6189 71.8616 78.8879 65.3083 77.3044C64.9825 80.212 64.5295 83.0993 63.9492 85.9663L84.6233 87.9136C84.7411 86.1093 84.8177 84.3039 84.853 82.4974Z" fill="#F3F8FF"/>
<path d="M85.534 74.9098C85.5119 74.9098 85.4906 74.9014 85.4744 74.8863C85.4583 74.8711 85.4486 74.8503 85.4473 74.8283C85.1177 69.5541 84.4155 64.3099 83.3459 59.1349L64.9991 60.9754C65.1518 63.6289 65.1991 66.3192 65.1382 68.9758C65.1382 68.9873 65.1359 68.9987 65.1314 69.0093C65.1269 69.0199 65.1203 69.0294 65.1121 69.0374C65.1038 69.0454 65.094 69.0516 65.0832 69.0557C65.0725 69.0598 65.061 69.0617 65.0496 69.0613C65.0381 69.061 65.0268 69.0585 65.0163 69.0539C65.0058 69.0493 64.9963 69.0426 64.9883 69.0343C64.9804 69.026 64.9742 69.0162 64.97 69.0055C64.9659 68.9948 64.9639 68.9834 64.9641 68.972C65.025 66.292 64.9764 63.5771 64.8205 60.9017C64.8192 60.8792 64.8266 60.8571 64.8412 60.84C64.8558 60.8229 64.8764 60.8121 64.8988 60.8098L83.408 58.9537C83.4295 58.9513 83.4511 58.957 83.4685 58.9697C83.486 58.9824 83.4981 59.0011 83.5025 59.0223C84.5831 64.2303 85.2918 69.5086 85.6233 74.8173C85.6246 74.8403 85.6167 74.8629 85.6015 74.8802C85.5862 74.8975 85.5648 74.9081 85.5418 74.9098H85.534Z" fill="#002E5D"/>
<path d="M85.4452 89.072H85.4355L67.444 87.2644C67.432 87.2641 67.4203 87.2612 67.4094 87.2561C67.3986 87.251 67.3889 87.2437 67.381 87.2347C67.3731 87.2257 67.3672 87.2151 67.3635 87.2037C67.3599 87.1923 67.3586 87.1803 67.3598 87.1684C67.361 87.1564 67.3647 87.1449 67.3705 87.1344C67.3764 87.124 67.3843 87.1148 67.3938 87.1076C67.4034 87.1003 67.4143 87.0951 67.4259 87.0923C67.4376 87.0894 67.4497 87.089 67.4615 87.091L85.363 88.8895C85.4989 86.9227 85.5857 84.9281 85.6219 82.9588C85.6209 82.9467 85.6223 82.9346 85.6262 82.9231C85.6301 82.9116 85.6364 82.9011 85.6446 82.8922C85.6528 82.8833 85.6627 82.8762 85.6738 82.8713C85.6849 82.8664 85.6968 82.8639 85.709 82.8639C85.7211 82.8639 85.733 82.8664 85.7441 82.8713C85.7552 82.8762 85.7652 82.8833 85.7733 82.8922C85.7815 82.9011 85.7878 82.9116 85.7917 82.9231C85.7956 82.9346 85.797 82.9467 85.796 82.9588C85.7591 84.9611 85.6698 86.9894 85.53 88.9879C85.5294 88.9996 85.5265 89.011 85.5212 89.0215C85.516 89.032 85.5086 89.0412 85.4996 89.0487C85.4848 89.0626 85.4655 89.0708 85.4452 89.072Z" fill="#002E5D"/>
<path d="M73.2967 66.7114C73.2735 66.712 73.2511 66.7034 73.2343 66.6875C73.2174 66.6715 73.2077 66.6495 73.2071 66.6263C73.2065 66.6032 73.2151 66.5807 73.231 66.5639C73.247 66.5471 73.269 66.5373 73.2922 66.5367L81.576 66.1212C81.5981 66.1217 81.6192 66.1306 81.635 66.146C81.6508 66.1614 81.6602 66.1823 81.6613 66.2043C81.6624 66.2264 81.655 66.2481 81.6408 66.2649C81.6265 66.2818 81.6064 66.2927 81.5844 66.2953L73.3006 66.7108L73.2967 66.7114Z" fill="#002E5D"/>
<path d="M67.9705 71.516C67.9487 71.5141 67.9284 71.5042 67.9136 71.488C67.8988 71.4719 67.8906 71.4509 67.8906 71.429C67.8906 71.4071 67.8988 71.386 67.9136 71.3699C67.9284 71.3538 67.9487 71.3438 67.9705 71.3419L82.0679 71.1271C82.0911 71.1271 82.1133 71.1363 82.1297 71.1527C82.1461 71.1691 82.1553 71.1913 82.1553 71.2144C82.1553 71.2376 82.1461 71.2598 82.1297 71.2762C82.1133 71.2926 82.0911 71.3018 82.0679 71.3018L67.9705 71.516Z" fill="#002E5D"/>
<path d="M82.3193 76.3239L67.7378 76.0482C67.7263 76.0479 67.715 76.0454 67.7045 76.0408C67.694 76.0362 67.6845 76.0295 67.6766 76.0212C67.6686 76.0129 67.6624 76.0032 67.6583 75.9925C67.6541 75.9818 67.6521 75.9704 67.6524 75.9589C67.6524 75.9474 67.6548 75.9361 67.6593 75.9255C67.6639 75.915 67.6705 75.9055 67.6787 75.8975C67.687 75.8895 67.6967 75.8833 67.7074 75.8792C67.7181 75.8751 67.7296 75.8731 67.741 75.8735L82.3226 76.1492C82.3457 76.1492 82.368 76.1584 82.3844 76.1747C82.4007 76.1911 82.4099 76.2133 82.4099 76.2365C82.4099 76.2597 82.4007 76.2819 82.3844 76.2983C82.368 76.3147 82.3457 76.3239 82.3226 76.3239H82.3193Z" fill="#002E5D"/>
<path d="M82.3277 81.3525H82.3226L67.2802 80.5649C67.2683 80.5651 67.2564 80.5628 67.2453 80.5582C67.2342 80.5536 67.2242 80.5468 67.2159 80.5382C67.2076 80.5296 67.2011 80.5193 67.1969 80.5081C67.1927 80.4969 67.1909 80.4849 67.1915 80.473C67.1921 80.461 67.1952 80.4493 67.2006 80.4386C67.2059 80.4278 67.2134 80.4183 67.2226 80.4106C67.2317 80.4029 67.2424 80.3972 67.2539 80.3938C67.2653 80.3903 67.2774 80.3893 67.2893 80.3908L82.3316 81.1784C82.3534 81.1807 82.3735 81.1912 82.388 81.2077C82.4024 81.2243 82.4101 81.2456 82.4095 81.2675C82.409 81.2894 82.4002 81.3103 82.3849 81.3261C82.3696 81.3418 82.349 81.3512 82.3271 81.3525H82.3277Z" fill="#002E5D"/>
<path d="M73.2695 59.1757L75.3068 62.7391L76.0265 58.4496L73.2695 59.1757Z" fill="#454E54"/>
<path d="M74.9421 60.5515C76.1085 60.2509 76.9057 59.4319 76.7227 58.7222C76.5398 58.0125 75.4461 57.6809 74.2798 57.9815C73.1135 58.2821 72.3162 59.1011 72.4992 59.8108C72.6821 60.5205 73.7758 60.8521 74.9421 60.5515Z" fill="#454E54"/>
<path d="M82.2141 30.5596L60.582 34.1796L61.4359 39.2821L83.0679 35.6622L82.2141 30.5596Z" fill="#F3F8FF"/>
<path d="M86.9953 42.7134H65.0625V47.8869H86.9953V42.7134Z" fill="#F3F8FF"/>
<path d="M60.8194 68.2448L41.082 69.4554L41.3988 74.6193L61.1362 73.4086L60.8194 68.2448Z" fill="#F3F8FF"/>
<path d="M61.7431 39.6516L61.1341 38.9106L60.6546 39.7519C60.604 39.8433 60.5432 39.9286 60.4734 40.0063C60.4187 40.0602 60.3462 40.0922 60.2695 40.0962C60.1815 40.1069 60.0926 40.0838 60.021 40.0315C59.9884 40.0098 59.9609 39.9811 59.9407 39.9475C59.9204 39.914 59.9079 39.8763 59.9038 39.8374C59.8969 39.7593 59.9375 39.6432 60.0255 39.4892L60.608 38.4679L59.9407 37.7204C59.8255 37.5981 59.7634 37.4875 59.755 37.3897C59.7515 37.352 59.7564 37.3139 59.7692 37.2782C59.7821 37.2426 59.8026 37.2101 59.8294 37.1833C59.891 37.1177 59.9757 37.0787 60.0656 37.0746C60.1439 37.0647 60.2231 37.0838 60.2883 37.1283C60.3694 37.1909 60.4434 37.2624 60.509 37.3412L61.0487 37.9547L61.4564 37.2551C61.5064 37.1644 61.5671 37.0799 61.637 37.0034C61.6932 36.9499 61.7666 36.918 61.8441 36.9134C61.9322 36.9025 62.0213 36.9241 62.0945 36.9742C62.1266 36.9955 62.1536 37.0237 62.1734 37.0568C62.1932 37.0898 62.2054 37.1268 62.2091 37.1652C62.2143 37.2214 62.2056 37.2781 62.1838 37.3302C62.1552 37.398 62.1204 37.463 62.0797 37.5243L61.5541 38.3793L62.3113 39.2795C62.4304 39.4206 62.4926 39.5287 62.4997 39.6031C62.5031 39.6419 62.4977 39.6809 62.4839 39.7173C62.4701 39.7538 62.4483 39.7866 62.4201 39.8134C62.3577 39.876 62.2746 39.9138 62.1864 39.9195C62.1081 39.9287 62.0291 39.9094 61.9638 39.8652C61.8817 39.8034 61.8076 39.7316 61.7431 39.6516Z" fill="#454E54"/>
<path d="M64.6377 39.3895L64.0287 38.6478L63.5485 39.4892C63.4983 39.5806 63.4377 39.666 63.3679 39.7435C63.3133 39.7974 63.2408 39.8294 63.1641 39.8335C63.076 39.8442 62.9872 39.8211 62.9156 39.7688C62.8829 39.7471 62.8555 39.7184 62.8352 39.6848C62.815 39.6513 62.8024 39.6136 62.7984 39.5746C62.7915 39.4969 62.8321 39.3811 62.9201 39.2271L63.5026 38.2052L62.8353 37.4583C62.7201 37.3354 62.6582 37.2251 62.6496 37.1276C62.646 37.0899 62.6508 37.0519 62.6635 37.0162C62.6763 36.9805 62.6967 36.9481 62.7234 36.9212C62.7851 36.8572 62.8689 36.8193 62.9576 36.815C63.0359 36.8052 63.1151 36.8243 63.1803 36.8688C63.2613 36.9313 63.3351 37.0027 63.4003 37.0817L63.9407 37.6952L64.3478 36.9956C64.3978 36.9047 64.4587 36.8202 64.529 36.7439C64.585 36.69 64.6585 36.658 64.7361 36.6539C64.8242 36.6427 64.9134 36.6643 64.9865 36.7147C65.019 36.7364 65.0462 36.7651 65.0661 36.7987C65.0859 36.8323 65.0979 36.87 65.1011 36.9089C65.106 36.9651 65.0973 37.0217 65.0758 37.0739C65.0471 37.1417 65.0122 37.2067 64.9717 37.2681L64.45 38.123L65.2085 39.0161C65.327 39.1565 65.3897 39.2653 65.3968 39.3397C65.4001 39.3784 65.3947 39.4173 65.3809 39.4536C65.3672 39.4899 65.3454 39.5226 65.3172 39.5494C65.2552 39.6125 65.172 39.6503 65.0836 39.6555C65.0054 39.6649 64.9264 39.6458 64.861 39.6018C64.7781 39.5405 64.7031 39.4692 64.6377 39.3895Z" fill="#454E54"/>
<path d="M67.5375 39.1268L66.9266 38.3858L66.447 39.2271C66.3966 39.3184 66.3361 39.4038 66.2664 39.4814C66.2116 39.5351 66.1392 39.567 66.0626 39.5714C65.9746 39.5818 65.8858 39.5587 65.8141 39.5067C65.7814 39.485 65.754 39.4563 65.7337 39.4227C65.7135 39.3892 65.7009 39.3515 65.6969 39.3125C65.69 39.2349 65.7306 39.119 65.8186 38.965L66.4011 37.9431L65.7338 37.1962C65.6186 37.0733 65.5567 36.963 65.5481 36.8655C65.5444 36.8277 65.5491 36.7896 65.5619 36.7538C65.5746 36.718 65.5951 36.6854 65.6219 36.6584C65.6836 36.5947 65.7674 36.557 65.8561 36.553C65.9344 36.5426 66.0138 36.5617 66.0788 36.6067C66.1598 36.669 66.2336 36.7402 66.2988 36.8189L66.8392 37.4325L67.2463 36.7335C67.2963 36.6426 67.3572 36.5581 67.4275 36.4818C67.4835 36.4279 67.557 36.396 67.6346 36.3918C67.7227 36.3806 67.8119 36.4022 67.885 36.4526C67.9173 36.4737 67.9444 36.5019 67.9642 36.5349C67.9841 36.568 67.9962 36.6051 67.9996 36.6436C68.0043 36.6998 67.9957 36.7564 67.9743 36.8086C67.9455 36.8763 67.9106 36.9413 67.8701 37.0027L67.3485 37.8577L68.1083 38.7572C68.227 38.8975 68.2897 39.0053 68.2966 39.0808C68.2999 39.1195 68.2945 39.1584 68.2807 39.1947C68.2669 39.231 68.2452 39.2638 68.217 39.2905C68.155 39.3537 68.0718 39.3915 67.9834 39.3966C67.9051 39.4061 67.8261 39.387 67.7608 39.3429C67.6775 39.2806 67.6025 39.208 67.5375 39.1268Z" fill="#454E54"/>
<path d="M70.4337 38.8646L69.8247 38.1236L69.3451 38.9649C69.2944 39.056 69.2338 39.1413 69.1646 39.2193C69.1097 39.2727 69.0372 39.3045 68.9607 39.3086C68.8727 39.3191 68.7839 39.296 68.7122 39.2439C68.6796 39.2221 68.6522 39.1935 68.6319 39.1599C68.6117 39.1263 68.5991 39.0887 68.5951 39.0497C68.5879 38.972 68.6281 38.8556 68.7167 38.7022L69.2992 37.6803L68.6326 36.9334C68.5174 36.8105 68.4553 36.7005 68.4462 36.6021C68.4431 36.5644 68.4481 36.5264 68.461 36.4908C68.4738 36.4551 68.4942 36.4227 68.5206 36.3956C68.5823 36.3316 68.6661 36.2936 68.7549 36.2895C68.8333 36.2799 68.9125 36.2992 68.9775 36.3439C69.0586 36.4062 69.1324 36.4774 69.1976 36.5561L69.738 37.1697L70.1451 36.4707C70.1949 36.3797 70.2558 36.2951 70.3263 36.219C70.3821 36.1652 70.4553 36.1333 70.5327 36.129C70.6209 36.1175 70.7101 36.1392 70.7832 36.1898C70.8154 36.2109 70.8424 36.2389 70.8622 36.2718C70.8821 36.3048 70.8942 36.3418 70.8977 36.3801C70.9028 36.4365 70.8943 36.4933 70.8731 36.5458C70.8442 36.6135 70.8094 36.6785 70.7689 36.7399L70.2473 37.5923L71.0039 38.4925C71.1223 38.6336 71.1851 38.7417 71.1922 38.8161C71.1955 38.8548 71.1901 38.8937 71.1763 38.93C71.1625 38.9663 71.1407 38.999 71.1126 39.0258C71.0502 39.0888 70.9668 39.1266 70.8783 39.1319C70.8003 39.1413 70.7214 39.1222 70.6563 39.0782C70.5738 39.0163 70.499 38.9445 70.4337 38.8646Z" fill="#454E54"/>
<path d="M69.222 48.0403L68.7774 47.1906L68.136 47.9147C68.0679 47.9939 67.9911 48.0651 67.9069 48.127C67.8425 48.1685 67.7651 48.1849 67.6895 48.173C67.6009 48.1651 67.5187 48.1237 67.4597 48.0571C67.4323 48.0293 67.4113 47.9959 67.3983 47.9591C67.3852 47.9223 67.3803 47.8831 67.384 47.8442C67.3931 47.7665 67.4565 47.6613 67.5743 47.5284L68.3541 46.6476L67.8539 45.7797C67.7676 45.636 67.7294 45.5154 67.7393 45.4179C67.7439 45.3803 67.7565 45.3441 67.7764 45.3118C67.7963 45.2795 67.823 45.2519 67.8545 45.2309C67.9278 45.181 68.0174 45.161 68.105 45.1752C68.1838 45.1812 68.2576 45.2163 68.3121 45.2736C68.3789 45.3511 68.4367 45.436 68.4842 45.5267L68.8874 46.2386L69.4291 45.6373C69.4967 45.5584 69.5736 45.488 69.6582 45.4276C69.7239 45.3864 69.8022 45.3701 69.8789 45.3817C69.9672 45.3891 70.0498 45.4284 70.1112 45.4924C70.1386 45.5196 70.1594 45.5527 70.172 45.5891C70.1847 45.6255 70.1889 45.6644 70.1843 45.7027C70.1778 45.7587 70.158 45.8124 70.1267 45.8593C70.0846 45.9197 70.0371 45.9762 69.985 46.0282L69.2997 46.7569L69.8569 47.7924C69.9432 47.9542 69.9826 48.0731 69.9753 48.149C69.9706 48.1876 69.9573 48.2246 69.9363 48.2573C69.9154 48.29 69.8873 48.3176 69.8543 48.338C69.7806 48.387 69.6914 48.4071 69.6038 48.3943C69.5251 48.3879 69.4514 48.3529 69.3967 48.2959C69.3282 48.2182 69.2696 48.1323 69.222 48.0403Z" fill="#3B82F4"/>
<path d="M72.1121 48.3756L71.6675 47.5252L71.0268 48.2493C70.9584 48.3282 70.8816 48.3994 70.7977 48.4616C70.7331 48.5031 70.6555 48.5194 70.5796 48.5076C70.4911 48.4995 70.409 48.4581 70.3499 48.3917C70.3224 48.364 70.3015 48.3305 70.2885 48.2937C70.2755 48.2569 70.2708 48.2176 70.2748 48.1788C70.2839 48.1011 70.3473 47.9963 70.4651 47.863L71.2417 46.9822L70.744 46.115C70.6566 45.9713 70.6185 45.8503 70.6295 45.7532C70.6338 45.7155 70.6463 45.6792 70.6662 45.6468C70.6861 45.6145 70.7129 45.587 70.7447 45.5662C70.8177 45.5157 70.9075 45.4956 70.9951 45.5099C71.0738 45.5163 71.1475 45.5513 71.2022 45.6082C71.2689 45.6858 71.3267 45.7707 71.3744 45.8613L71.7782 46.5732L72.3199 45.9719C72.3873 45.893 72.464 45.8226 72.5483 45.7622C72.614 45.721 72.6923 45.7047 72.769 45.7163C72.8577 45.7235 72.9407 45.7631 73.002 45.8276C73.0293 45.8548 73.05 45.8877 73.0627 45.9241C73.0753 45.9604 73.0796 45.9991 73.0751 46.0373C73.0686 46.0934 73.0487 46.1472 73.0169 46.1939C72.9747 46.2543 72.9273 46.3108 72.8752 46.3628L72.1898 47.0928L72.7477 48.1283C72.834 48.2901 72.8732 48.409 72.8655 48.4849C72.8608 48.5235 72.8474 48.5605 72.8265 48.5932C72.8055 48.6259 72.7775 48.6535 72.7444 48.6739C72.6708 48.723 72.5815 48.7431 72.494 48.7302C72.4154 48.7234 72.3418 48.6885 72.2869 48.6318C72.2186 48.5537 72.1599 48.4677 72.1121 48.3756Z" fill="#3B82F4"/>
<path d="M77.8899 49.0473L77.4453 48.1969L76.804 48.9179C76.7361 48.9972 76.6592 49.0685 76.5749 49.1302C76.5106 49.1719 76.4332 49.1885 76.3574 49.1768C76.2689 49.1686 76.1868 49.1272 76.1277 49.0609C76.1003 49.033 76.0793 48.9994 76.0663 48.9625C76.0532 48.9256 76.0483 48.8863 76.052 48.8473C76.061 48.7697 76.1244 48.6646 76.2422 48.5322L77.0188 47.6507L76.5186 46.7835C76.4323 46.6398 76.3941 46.5192 76.404 46.4217C76.4083 46.384 76.4209 46.3477 76.4408 46.3154C76.4607 46.2831 76.4875 46.2555 76.5192 46.2347C76.5924 46.1846 76.6821 46.1644 76.7697 46.1784C76.8484 46.1848 76.9221 46.2198 76.9768 46.2768C77.0435 46.3544 77.1013 46.4392 77.1489 46.5298L77.5521 47.2417L78.0938 46.6405C78.1614 46.5617 78.2383 46.4915 78.3229 46.4314C78.3886 46.3902 78.4669 46.3739 78.5436 46.3855C78.6321 46.3923 78.7149 46.4317 78.7759 46.4962C78.8033 46.5233 78.8241 46.5564 78.8368 46.5929C78.8495 46.6293 78.8537 46.6682 78.8491 46.7065C78.8425 46.7623 78.8227 46.8158 78.7915 46.8625C78.7493 46.9228 78.7018 46.9793 78.6497 47.0314L77.9644 47.762L78.5222 48.7975C78.609 48.96 78.6517 49.0784 78.64 49.1541C78.6354 49.1928 78.6221 49.2299 78.6012 49.2628C78.5802 49.2956 78.5521 49.3233 78.519 49.3437C78.4451 49.3923 78.356 49.4121 78.2685 49.3994C78.1901 49.3925 78.1166 49.3579 78.0614 49.3017C77.9942 49.2242 77.9366 49.1387 77.8899 49.0473Z" fill="#3B82F4"/>
<path d="M45.3563 75.1086L44.7169 74.3934L44.2743 75.2529C44.2276 75.3464 44.1705 75.4343 44.1041 75.515C44.0516 75.5711 43.9805 75.6061 43.9041 75.6134C43.8165 75.627 43.727 75.6069 43.6536 75.5571C43.6202 75.5368 43.5916 75.5094 43.5699 75.4769C43.5482 75.4443 43.5339 75.4074 43.5281 75.3687C43.5177 75.2917 43.5533 75.1746 43.6349 75.0167L44.1746 73.9708L43.4756 73.2518C43.3553 73.134 43.2886 73.0259 43.2757 72.9282C43.2708 72.8907 43.274 72.8525 43.2852 72.8163C43.2963 72.7801 43.3152 72.7468 43.3404 72.7185C43.3991 72.652 43.4811 72.6106 43.5695 72.6027C43.6473 72.5897 43.7271 72.6056 43.7941 72.6473C43.878 72.7061 43.9548 72.7743 44.0232 72.8506L44.5888 73.4408L44.9661 72.725C45.0123 72.6322 45.0694 72.5453 45.1363 72.4661C45.19 72.41 45.2622 72.3751 45.3395 72.3678C45.4269 72.353 45.5167 72.3707 45.5919 72.4176C45.6249 72.4376 45.653 72.4647 45.6742 72.497C45.6953 72.5292 45.709 72.5658 45.7142 72.604C45.722 72.6598 45.716 72.7167 45.6968 72.7697C45.6708 72.8386 45.6387 72.9051 45.601 72.9683L45.1156 73.8453L45.9103 74.7131C46.0346 74.8482 46.1019 74.9537 46.1122 75.0296C46.1171 75.0682 46.1133 75.1073 46.1009 75.1442C46.0886 75.181 46.0681 75.2147 46.0411 75.2425C45.9819 75.3085 45.9001 75.3498 45.812 75.3584C45.7342 75.3715 45.6544 75.3559 45.5874 75.3144C45.5023 75.2554 45.4247 75.1863 45.3563 75.1086Z" fill="#F70431"/>
<path d="M48.2387 74.7242L47.5986 74.0123L47.1553 74.8698C47.1084 74.9621 47.0513 75.049 46.9851 75.1286C46.9327 75.1847 46.8615 75.2197 46.7851 75.227C46.6975 75.2407 46.608 75.2206 46.5347 75.1707C46.5011 75.1508 46.4724 75.1236 46.4506 75.0911C46.4289 75.0586 46.4147 75.0217 46.4091 74.983C46.3987 74.9054 46.4343 74.7878 46.5159 74.6303L47.0563 73.5871L46.3586 72.8687C46.2382 72.7509 46.1716 72.6431 46.1586 72.5451C46.1535 72.5077 46.1566 72.4695 46.1678 72.4334C46.179 72.3973 46.198 72.3641 46.2234 72.3361C46.2823 72.2694 46.3645 72.228 46.4531 72.2202C46.5308 72.2071 46.6107 72.2227 46.6777 72.2642C46.7613 72.3234 46.8381 72.3915 46.9068 72.4675L47.4724 73.0577L47.8497 72.3458C47.8957 72.2529 47.9528 72.1659 48.0199 72.0869C48.0735 72.0309 48.1454 71.996 48.2225 71.9885C48.3102 71.9736 48.4003 71.9916 48.4755 72.039C48.5087 72.0587 48.5369 72.0856 48.5581 72.1178C48.5793 72.15 48.5929 72.1866 48.5979 72.2248C48.6056 72.2806 48.5996 72.3375 48.5804 72.3904C48.5544 72.4594 48.5223 72.5259 48.4846 72.5891L47.9986 73.4648L48.7939 74.3326C48.9182 74.4681 48.9853 74.5736 48.9952 74.6491C49.0002 74.6876 48.9964 74.7267 48.9842 74.7636C48.972 74.8004 48.9517 74.8341 48.9247 74.862C48.8655 74.9279 48.7837 74.9692 48.6956 74.9779C48.6179 74.991 48.538 74.9754 48.471 74.9338C48.3852 74.8738 48.3072 74.8034 48.2387 74.7242Z" fill="#F70431"/>
<path d="M54.005 73.9559L53.365 73.244L52.921 74.1035C52.8743 74.1958 52.8174 74.2826 52.7514 74.3623C52.699 74.4182 52.6278 74.453 52.5515 74.4601C52.4637 74.4742 52.3739 74.4543 52.3004 74.4044C52.2669 74.3841 52.2383 74.3568 52.2166 74.3242C52.1949 74.2917 52.1806 74.2547 52.1748 74.2161C52.1645 74.1384 52.2 74.0219 52.2822 73.8634L52.822 72.8182L52.1237 72.0998C52.0042 71.982 51.9377 71.8742 51.9243 71.7762C51.9191 71.7387 51.9222 71.7004 51.9334 71.6642C51.9446 71.6279 51.9636 71.5946 51.9891 71.5665C52.0476 71.4998 52.1297 71.4583 52.2182 71.4507C52.296 71.4372 52.376 71.4531 52.4427 71.4953C52.5265 71.554 52.6033 71.622 52.6718 71.6979L53.2375 72.2881L53.6154 71.5723C53.6613 71.4794 53.7185 71.3924 53.7856 71.3135C53.8391 71.2573 53.911 71.2221 53.9882 71.2145C54.0759 71.1996 54.166 71.2175 54.2412 71.2649C54.2742 71.2849 54.3022 71.3119 54.3234 71.344C54.3445 71.3761 54.3583 71.4126 54.3636 71.4507C54.3707 71.5068 54.3645 71.5638 54.3454 71.617C54.3197 71.6858 54.2876 71.7521 54.2497 71.815L53.7643 72.6913L54.559 73.5585C54.6833 73.6944 54.7506 73.8001 54.7609 73.8757C54.7669 73.9147 54.7639 73.9546 54.7522 73.9923C54.7404 74.0299 54.7201 74.0644 54.693 74.0931C54.6333 74.1584 54.5518 74.1996 54.4639 74.2089C54.3861 74.2214 54.3064 74.2056 54.2393 74.1643C54.1527 74.105 54.074 74.035 54.005 73.9559Z" fill="#F70431"/>
<path d="M71.6685 17.9996L50.2852 19.3112L50.8236 28.0898L72.2069 26.7782L71.6685 17.9996Z" fill="#3B82F4"/>
<path d="M57.2755 20.3891C57.2272 20.3893 57.1808 20.3708 57.146 20.3373C56.3872 19.617 55.8553 18.6907 55.6156 17.6723C55.3758 16.6539 55.4387 15.5876 55.7966 14.6044C56.1544 13.6213 56.7915 12.764 57.6298 12.1379C58.468 11.5118 59.4709 11.1441 60.5152 11.08C61.5595 11.0159 62.5997 11.2582 63.5082 11.7771C64.4168 12.296 65.154 13.0689 65.6293 14.0009C66.1047 14.933 66.2975 15.9835 66.1842 17.0236C66.0708 18.0637 65.6561 19.0481 64.9911 19.8558C64.9759 19.8765 64.9567 19.8938 64.9346 19.9068C64.9125 19.9198 64.8879 19.9281 64.8625 19.9313C64.837 19.9345 64.8112 19.9324 64.7866 19.9252C64.762 19.9181 64.7391 19.9059 64.7193 19.8896C64.6995 19.8733 64.6833 19.8531 64.6716 19.8303C64.6599 19.8074 64.653 19.7825 64.6513 19.7569C64.6496 19.7313 64.6532 19.7056 64.6617 19.6815C64.6703 19.6573 64.6837 19.6351 64.7012 19.6163C65.3188 18.8653 65.7038 17.9502 65.8087 16.9834C65.9137 16.0167 65.7341 15.0403 65.2919 14.1742C64.8498 13.308 64.1645 12.5898 63.3199 12.1077C62.4754 11.6256 61.5085 11.4006 60.5379 11.4603C59.5673 11.5199 58.6352 11.8617 57.8561 12.4436C57.077 13.0255 56.4847 13.8222 56.152 14.736C55.8193 15.6497 55.7606 16.6407 55.9832 17.5874C56.2058 18.534 56.6999 19.395 57.4049 20.0648C57.432 20.0907 57.4508 20.1241 57.4588 20.1608C57.4668 20.1974 57.4636 20.2356 57.4497 20.2704C57.4358 20.3053 57.4117 20.3351 57.3807 20.3561C57.3496 20.3772 57.313 20.3884 57.2755 20.3884V20.3891Z" fill="#002E5D"/>
<path d="M68.39 25.2429C68.359 25.2429 68.3285 25.2352 68.3012 25.2205C68.2738 25.2058 68.2506 25.1846 68.2334 25.1588L64.6908 19.8403C64.6659 19.7988 64.658 19.7493 64.6687 19.7021C64.6794 19.6549 64.7078 19.6136 64.7481 19.5868C64.7884 19.56 64.8374 19.5498 64.885 19.5582C64.9327 19.5665 64.9753 19.5929 65.004 19.6319L68.5453 24.9504C68.5725 24.9917 68.5822 25.0421 68.5724 25.0906C68.5626 25.1391 68.534 25.1817 68.4929 25.2093C68.4627 25.2304 68.4269 25.2422 68.39 25.2429Z" fill="#002E5D"/>
<path d="M54.4101 26.1011C54.3781 26.1009 54.3466 26.0926 54.3187 26.0769C54.2908 26.0612 54.2674 26.0387 54.2506 26.0114C54.2338 25.9841 54.2243 25.953 54.2228 25.921C54.2214 25.8891 54.2282 25.8572 54.2425 25.8286L57.1075 20.1186C57.1307 20.0752 57.1698 20.0426 57.2167 20.0277C57.2635 20.0128 57.3143 20.0168 57.3582 20.0388C57.4022 20.0609 57.4357 20.0992 57.4518 20.1457C57.4678 20.1921 57.465 20.243 57.4441 20.2875L54.579 25.9988C54.5631 26.0298 54.5389 26.0558 54.509 26.0738C54.4792 26.0919 54.445 26.1013 54.4101 26.1011Z" fill="#002E5D"/>
<path d="M72.4202 111.397H10.3605C10.3484 111.398 10.3363 111.397 10.3248 111.393C10.3134 111.389 10.3029 111.382 10.2939 111.374C10.285 111.366 10.2779 111.356 10.273 111.345C10.2681 111.334 10.2656 111.322 10.2656 111.31C10.2656 111.298 10.2681 111.286 10.273 111.275C10.2779 111.264 10.285 111.254 10.2939 111.246C10.3029 111.237 10.3134 111.231 10.3248 111.227C10.3363 111.223 10.3484 111.222 10.3605 111.223H72.4248C72.4368 111.222 72.449 111.223 72.4604 111.227C72.4719 111.231 72.4824 111.237 72.4913 111.246C72.5003 111.254 72.5074 111.264 72.5123 111.275C72.5171 111.286 72.5197 111.298 72.5197 111.31C72.5197 111.322 72.5171 111.334 72.5123 111.345C72.5074 111.356 72.5003 111.366 72.4913 111.374C72.4824 111.382 72.4719 111.389 72.4604 111.393C72.449 111.397 72.4368 111.398 72.4248 111.397H72.4202Z" fill="#002E5D"/>
<path d="M112.747 114.45H64.9077C64.8845 114.45 64.8623 114.441 64.8459 114.424C64.8295 114.408 64.8203 114.386 64.8203 114.362C64.8203 114.339 64.8295 114.317 64.8459 114.301C64.8623 114.284 64.8845 114.275 64.9077 114.275H112.747C112.77 114.275 112.792 114.284 112.809 114.301C112.825 114.317 112.834 114.339 112.834 114.362C112.834 114.386 112.825 114.408 112.809 114.424C112.792 114.441 112.77 114.45 112.747 114.45Z" fill="#002E5D"/>
<path d="M111.171 77.9807C110.952 76.9167 108.967 67.3094 108.967 67.3094L106.223 65.9329L107.868 58.157C107.973 57.6618 107.977 57.1508 107.881 56.6539C107.785 56.157 107.591 55.6844 107.309 55.2637C107.028 54.8431 106.665 54.4829 106.243 54.2045C105.82 53.926 105.346 53.7349 104.848 53.6423L99.9947 52.7363L99.9442 55.5191L100.251 55.5839L100.404 59.6844L101.802 60.1743L101.709 62.0427L102.133 64.9854L95.1971 61.7605L90.7691 54.151V51.7474L89.9453 50.4569L89.2515 51.4795L87.3889 49.723L86.3438 50.9022L89.0062 54.3801L92.5974 63.6088L98.9398 68.4627L98.7929 79.3695L100.719 110.96L100.38 112.255L98.6602 113.337V114.317L102.737 114.303L102.352 111.558L102.33 110.95L104.45 93.4023L104.659 99.1861L105.081 111.002H105.215L104.91 112.189L103.203 113.317L103.168 114.291L107.251 114.298L106.868 111.538L106.973 111.002L108.343 84.49L109.045 84.057L109.548 83.0034L109.979 82.61L111.31 79.1612C111.31 79.1612 111.391 79.0434 111.171 77.9807ZM108.047 81.5525L106.94 78.2881V72.5703L109.153 78.5088L108.047 81.5525Z" fill="white"/>
<path d="M102.686 113.853H101.604L101.53 112.19L99.8828 114.318L102.783 114.348L102.686 113.853Z" fill="#002E5D"/>
<path d="M107.194 113.853H106.111L106.038 112.19L104.391 114.318L107.291 114.348L107.194 113.853Z" fill="#002E5D"/>
<path d="M104.453 93.313L105.083 111.003H106.226L105.321 86.6154L104.453 93.313Z" fill="#325D9C"/>
<path d="M100.254 55.5833L101.871 55.9534L101.787 60.1737L100.407 59.6689L100.254 55.5833Z" fill="#FDC8AA"/>
<path d="M106.938 70.157L107.516 68.5397L110.469 78.2117L109.549 82.0689L108.768 81.223L108.396 80.5856L109.155 78.501L106.938 72.3522V70.157Z" fill="#F70431"/>
<path d="M99.9499 52.7266L103.479 53.342C104.445 53.5101 105.306 54.0511 105.876 54.8482C106.447 55.6453 106.681 56.6347 106.528 57.603L104.452 70.7925H102.973L101.744 62.2038L104.047 62.2148L103.647 55.2389L99.9492 54.4623L99.9499 52.7266Z" fill="#325D9C"/>
<path d="M89.1959 51.4218L87.3521 49.7689L86.3477 50.917L87.1631 52.0107L89.0101 54.3807L89.8444 56.5242L90.8112 55.9093L89.1959 51.4218Z" fill="#FDC8AA"/>
<path d="M98.793 79.3793L100.72 111.003H101.789L104.757 78.5833L98.793 79.3793Z" fill="#325D9C"/>
<path d="M104.757 78.5826L104.192 72.2189H102.323L101.277 65.6326L94.1941 62.1612L90.8139 55.9191L90.8106 55.9094L89.8438 56.5242L92.5878 63.5765L98.9411 68.4808L98.7929 79.3612L98.7936 79.3793L104.757 78.5833V78.5826Z" fill="#F70431"/>
<path d="M105.2 70.8818H102.972C102.951 70.8818 102.931 70.8742 102.915 70.8606C102.899 70.847 102.889 70.8281 102.886 70.8074L101.627 62.0556C101.625 62.044 101.625 62.0321 101.628 62.0205C101.63 62.009 101.635 61.998 101.642 61.9884C101.649 61.9788 101.658 61.9707 101.668 61.9645C101.678 61.9584 101.689 61.9543 101.701 61.9527C101.713 61.951 101.725 61.9517 101.736 61.9548C101.747 61.9579 101.758 61.9633 101.767 61.9706C101.777 61.9779 101.784 61.987 101.79 61.9974C101.796 62.0078 101.799 62.0192 101.8 62.031L103.05 70.7084H105.129L107.782 58.1078C107.884 57.6221 107.888 57.1208 107.793 56.6336C107.698 56.1465 107.507 55.6833 107.23 55.2715C106.952 54.8597 106.595 54.5078 106.18 54.2365C105.764 53.9652 105.298 53.7801 104.81 53.6922L100.037 52.8314V55.446L101.853 55.8466C101.872 55.8513 101.889 55.8624 101.901 55.8779C101.913 55.8934 101.919 55.9125 101.918 55.932L101.888 60.9308C101.888 60.9422 101.886 60.9535 101.882 60.9641C101.878 60.9747 101.871 60.9843 101.863 60.9923C101.855 61.0004 101.845 61.0068 101.835 61.0111C101.824 61.0154 101.813 61.0176 101.802 61.0175C101.79 61.0175 101.779 61.0153 101.768 61.0109C101.758 61.0065 101.748 61 101.74 60.9919C101.732 60.9838 101.726 60.9742 101.721 60.9636C101.717 60.953 101.715 60.9416 101.715 60.9302L101.744 56.0013L99.9319 55.6013C99.9124 55.597 99.895 55.5862 99.8825 55.5707C99.87 55.5552 99.8633 55.5358 99.8633 55.5159V52.7266C99.8634 52.7142 99.8663 52.7019 99.8716 52.6908C99.877 52.6796 99.8847 52.6697 99.8943 52.6618C99.904 52.6535 99.9154 52.6475 99.9278 52.6443C99.9401 52.641 99.953 52.6406 99.9655 52.6431L104.841 53.5213C105.352 53.6133 105.84 53.807 106.275 54.091C106.711 54.375 107.085 54.7435 107.375 55.1747C107.665 55.6059 107.866 56.0909 107.965 56.6011C108.064 57.1113 108.06 57.6362 107.953 58.1447L105.287 70.8145C105.283 70.834 105.271 70.8513 105.255 70.8635C105.24 70.8758 105.22 70.8822 105.2 70.8818Z" fill="#002E5D"/>
<path d="M101.808 60.261C101.798 60.2609 101.788 60.2591 101.779 60.2558L100.38 59.7666C100.364 59.7607 100.349 59.75 100.339 59.7358C100.328 59.7216 100.322 59.7046 100.321 59.687L100.168 55.5839C100.167 55.5607 100.176 55.5383 100.191 55.5213C100.207 55.5043 100.229 55.4943 100.252 55.4933C100.264 55.4927 100.275 55.4945 100.286 55.4985C100.297 55.5024 100.307 55.5085 100.315 55.5163C100.324 55.5242 100.33 55.5336 100.335 55.5441C100.34 55.5546 100.342 55.5659 100.343 55.5774L100.494 59.6184L101.836 60.0889C101.856 60.0958 101.872 60.1093 101.882 60.1269C101.893 60.1446 101.896 60.1653 101.893 60.1855C101.89 60.2057 101.879 60.2241 101.864 60.2374C101.848 60.2507 101.828 60.2582 101.808 60.2584V60.261Z" fill="#002E5D"/>
<path d="M100.164 64.2735C100.151 64.2734 100.138 64.2703 100.126 64.2645L95.1633 61.8388C95.1479 61.8312 95.1351 61.8193 95.1264 61.8045L90.6984 54.1944C90.6907 54.1812 90.6867 54.1663 90.6867 54.151V51.7733L89.9483 50.6155L89.3109 51.552C89.3035 51.5626 89.2939 51.5715 89.2827 51.578C89.2715 51.5845 89.259 51.5884 89.2461 51.5895C89.2335 51.5911 89.2207 51.5898 89.2087 51.5856C89.1967 51.5814 89.1858 51.5746 89.1769 51.5656L87.3952 49.8486L86.4574 50.9061L88.6837 53.8307C88.6978 53.8491 88.704 53.8724 88.7009 53.8954C88.6978 53.9184 88.6857 53.9392 88.6672 53.9533C88.6488 53.9674 88.6255 53.9736 88.6025 53.9705C88.5795 53.9674 88.5587 53.9553 88.5446 53.9368L86.2756 50.9546C86.2633 50.9385 86.2571 50.9187 86.2579 50.8985C86.2587 50.8783 86.2666 50.859 86.2801 50.844L87.326 49.6648C87.3337 49.656 87.3432 49.6489 87.3538 49.6439C87.3644 49.6389 87.3759 49.6361 87.3876 49.6356C87.3993 49.6351 87.411 49.637 87.422 49.6411C87.433 49.6452 87.443 49.6515 87.4515 49.6596L89.2241 51.3682L89.8778 50.4078C89.8856 50.3955 89.8966 50.3855 89.9095 50.3787C89.9225 50.372 89.937 50.3689 89.9516 50.3696C89.966 50.37 89.98 50.3739 89.9926 50.381C90.0051 50.3881 90.0157 50.3982 90.0234 50.4103L90.8472 51.7008C90.8562 51.7147 90.8609 51.7309 90.8608 51.7474V54.1271L95.2616 61.6939L100.2 64.1078C100.217 64.1166 100.231 64.131 100.24 64.1487C100.248 64.1665 100.25 64.1866 100.246 64.2058C100.242 64.2249 100.231 64.2421 100.215 64.2543C100.2 64.2666 100.181 64.2734 100.161 64.2735H100.164Z" fill="#002E5D"/>
<path d="M102.366 111.09H100.719C100.697 111.09 100.675 111.082 100.659 111.066C100.643 111.051 100.633 111.03 100.632 111.008L98.7035 79.3741V79.3676L98.8731 68.5229L92.5443 63.6768C92.5315 63.6672 92.5216 63.6542 92.5158 63.6393L89.1117 54.8273C89.1031 54.8058 89.1034 54.7817 89.1126 54.7604C89.1217 54.7391 89.139 54.7223 89.1605 54.7137C89.1821 54.7051 89.2062 54.7055 89.2275 54.7146C89.2488 54.7238 89.2655 54.741 89.2741 54.7626L92.6699 63.5513L99.0122 68.4096C99.0231 68.4178 99.0319 68.4285 99.0378 68.4407C99.0438 68.453 99.0468 68.4665 99.0465 68.4802L98.8763 79.365L100.801 110.917H102.289L105.232 86.0659C105.235 86.043 105.247 86.0221 105.265 86.0078C105.283 85.9935 105.306 85.987 105.329 85.9895C105.341 85.9907 105.352 85.9942 105.362 85.9997C105.372 86.0052 105.381 86.0127 105.388 86.0217C105.395 86.0307 105.4 86.041 105.403 86.052C105.406 86.063 105.407 86.0746 105.406 86.086L102.454 111.013C102.451 111.035 102.441 111.054 102.425 111.069C102.408 111.083 102.387 111.091 102.366 111.09Z" fill="#002E5D"/>
<path d="M106.973 111.09H105.081C105.059 111.09 105.037 111.081 105.021 111.066C105.005 111.05 104.995 111.029 104.994 111.006L104.363 93.4068C104.363 93.3836 104.371 93.3611 104.387 93.3442C104.403 93.3272 104.425 93.3173 104.448 93.3165C104.471 93.3157 104.493 93.3242 104.51 93.34C104.527 93.3559 104.537 93.3778 104.538 93.401L105.165 110.916H106.89L108.3 83.5865C108.331 83.0034 108.25 82.4198 108.062 81.867L106.856 78.2997C106.852 78.2908 106.851 78.2814 106.851 78.2719V70.0528C106.853 70.031 106.863 70.0107 106.879 69.9959C106.895 69.9811 106.916 69.9729 106.938 69.9729C106.96 69.9729 106.981 69.9811 106.997 69.9959C107.013 70.0107 107.023 70.031 107.025 70.0528V78.257L108.23 81.8113C108.425 82.3848 108.509 82.9901 108.477 83.5949L107.062 111.007C107.062 111.019 107.059 111.03 107.054 111.04C107.05 111.05 107.043 111.06 107.035 111.067C107.026 111.075 107.017 111.081 107.006 111.085C106.995 111.089 106.984 111.091 106.973 111.09Z" fill="#002E5D"/>
<path d="M98.7916 79.4562C98.7692 79.4565 98.7476 79.4482 98.7312 79.433C98.7148 79.4179 98.7048 79.397 98.7033 79.3747C98.7018 79.3524 98.7089 79.3304 98.7232 79.3131C98.7374 79.2959 98.7577 79.2848 98.7799 79.2821L105.307 78.422C105.318 78.4197 105.331 78.4197 105.342 78.4222C105.354 78.4247 105.365 78.4295 105.375 78.4365C105.384 78.4434 105.393 78.4523 105.399 78.4625C105.405 78.4727 105.409 78.4841 105.411 78.496C105.412 78.5078 105.411 78.5199 105.408 78.5314C105.405 78.5429 105.399 78.5536 105.392 78.5629C105.384 78.5722 105.375 78.5798 105.364 78.5853C105.354 78.5908 105.342 78.594 105.33 78.5948L98.8026 79.4556L98.7916 79.4562Z" fill="#002E5D"/>
<path d="M109.975 82.7005C109.963 82.7003 109.951 82.6975 109.94 82.6924C109.929 82.6873 109.919 82.6799 109.911 82.6707L108.731 81.3117C108.721 81.3036 108.713 81.2936 108.708 81.2822C108.702 81.2708 108.699 81.2583 108.699 81.2456C108.699 81.2329 108.701 81.2204 108.706 81.2088C108.711 81.1972 108.719 81.1868 108.729 81.1785C108.738 81.1701 108.749 81.1639 108.761 81.1603C108.774 81.1567 108.786 81.1558 108.799 81.1576C108.811 81.1594 108.823 81.164 108.834 81.1709C108.845 81.1779 108.854 81.187 108.86 81.1978L109.944 82.4449L111.115 79.3624C111.221 79.0823 111.245 78.7776 111.185 78.4842L108.888 67.3695L106.181 66.0105C106.162 65.9994 106.147 65.9813 106.141 65.9599C106.134 65.9384 106.136 65.9153 106.146 65.8952C106.156 65.8752 106.173 65.8598 106.195 65.8522C106.216 65.8446 106.239 65.8454 106.259 65.8545L109.006 67.233C109.018 67.239 109.028 67.2476 109.036 67.2581C109.044 67.2687 109.05 67.2809 109.053 67.2938L111.358 78.4492C111.425 78.7753 111.398 79.1139 111.28 79.4251L110.057 82.6436C110.052 82.6576 110.043 82.6701 110.032 82.6798C110.021 82.6894 110.007 82.6959 109.992 82.6986L109.975 82.7005Z" fill="#002E5D"/>
<path d="M108.393 80.6723C108.383 80.6725 108.372 80.6707 108.363 80.6671C108.352 80.6632 108.342 80.6572 108.334 80.6495C108.325 80.6417 108.318 80.6324 108.313 80.622C108.309 80.6115 108.306 80.6003 108.305 80.5888C108.305 80.5773 108.307 80.5659 108.311 80.5552L109.06 78.5081L106.855 72.4486C106.849 72.4274 106.851 72.4048 106.861 72.3852C106.871 72.3656 106.888 72.3506 106.909 72.343C106.93 72.3355 106.953 72.3361 106.973 72.3446C106.993 72.3531 107.009 72.369 107.019 72.3891L109.236 78.4784C109.244 78.4978 109.244 78.5191 109.236 78.5386L108.473 80.6154C108.467 80.6318 108.456 80.646 108.442 80.6561C108.428 80.6663 108.411 80.6719 108.393 80.6723Z" fill="#002E5D"/>
<path d="M108.341 84.6182C108.322 84.6181 108.304 84.6121 108.289 84.6009C108.274 84.5897 108.263 84.5741 108.258 84.5562C108.252 84.5383 108.253 84.5191 108.259 84.5015C108.265 84.4839 108.277 84.4687 108.292 84.4583L108.976 83.9975L109.47 82.9659C109.474 82.9547 109.481 82.9445 109.489 82.936C109.498 82.9275 109.508 82.9208 109.519 82.9164C109.53 82.912 109.542 82.9099 109.554 82.9103C109.566 82.9107 109.578 82.9136 109.589 82.9188C109.6 82.924 109.609 82.9313 109.617 82.9404C109.625 82.9495 109.631 82.9601 109.634 82.9716C109.638 82.983 109.639 82.9951 109.638 83.0071C109.637 83.019 109.633 83.0306 109.627 83.041L109.123 84.0939C109.116 84.1082 109.106 84.1203 109.093 84.1289L108.39 84.6033C108.375 84.6131 108.358 84.6183 108.341 84.6182Z" fill="#002E5D"/>
<path d="M89.8607 56.6044C89.8459 56.6045 89.8314 56.6008 89.8184 56.5936C89.8055 56.5865 89.7946 56.5762 89.7869 56.5636C89.7746 56.544 89.7705 56.5204 89.7756 56.4978C89.7807 56.4752 89.7945 56.4556 89.8141 56.4432L90.8722 55.7779C90.8818 55.7718 90.8926 55.7676 90.9038 55.7656C90.9151 55.7636 90.9266 55.7639 90.9378 55.7664C90.9489 55.7689 90.9594 55.7737 90.9687 55.7803C90.978 55.787 90.9859 55.7954 90.9919 55.8051C91.0043 55.8247 91.0083 55.8483 91.0032 55.8709C90.9981 55.8935 90.9843 55.9131 90.9647 55.9255L89.9053 56.5895C89.892 56.5984 89.8766 56.6035 89.8607 56.6044Z" fill="#002E5D"/>
<path d="M102.752 114.406H98.657C98.634 114.406 98.6119 114.396 98.5957 114.38C98.5794 114.364 98.5703 114.341 98.5703 114.318V113.339C98.5703 113.324 98.574 113.31 98.5811 113.297C98.5883 113.284 98.5986 113.273 98.6111 113.265L100.305 112.199L100.518 111.532C100.525 111.51 100.54 111.492 100.561 111.481C100.581 111.471 100.605 111.469 100.627 111.476C100.649 111.483 100.667 111.498 100.678 111.519C100.688 111.539 100.69 111.563 100.683 111.585L100.461 112.283C100.455 112.302 100.442 112.319 100.424 112.33L98.7418 113.387V114.228H102.648L102.26 111.569C102.257 111.546 102.263 111.523 102.276 111.505C102.29 111.486 102.311 111.474 102.334 111.47C102.345 111.468 102.357 111.469 102.368 111.472C102.379 111.474 102.389 111.479 102.399 111.486C102.408 111.493 102.416 111.502 102.421 111.512C102.427 111.522 102.431 111.533 102.433 111.544L102.833 114.303C102.835 114.316 102.834 114.328 102.831 114.34C102.827 114.352 102.821 114.363 102.813 114.373C102.805 114.382 102.795 114.39 102.783 114.395C102.772 114.4 102.76 114.403 102.747 114.403L102.752 114.406Z" fill="#002E5D"/>
<path d="M107.261 114.406H103.165C103.142 114.406 103.12 114.397 103.104 114.38C103.087 114.364 103.078 114.342 103.078 114.318V113.339C103.078 113.325 103.082 113.31 103.089 113.297C103.096 113.284 103.106 113.273 103.119 113.265L104.813 112.2L105.025 111.532C105.033 111.511 105.049 111.494 105.069 111.484C105.089 111.474 105.113 111.472 105.134 111.479C105.156 111.486 105.174 111.501 105.184 111.521C105.195 111.54 105.198 111.564 105.192 111.585L104.969 112.283C104.963 112.303 104.95 112.319 104.932 112.33L103.25 113.387V114.228H107.156L106.768 111.569C106.764 111.546 106.77 111.523 106.784 111.504C106.798 111.486 106.819 111.474 106.841 111.47C106.853 111.468 106.864 111.469 106.876 111.472C106.887 111.474 106.897 111.479 106.906 111.486C106.915 111.493 106.923 111.502 106.929 111.512C106.935 111.522 106.938 111.533 106.94 111.544L107.34 114.304C107.342 114.316 107.341 114.328 107.338 114.34C107.334 114.352 107.328 114.364 107.32 114.373C107.312 114.382 107.302 114.39 107.29 114.395C107.279 114.4 107.267 114.403 107.254 114.403L107.261 114.406Z" fill="#002E5D"/>
<path d="M17.1711 64.7337L15.6399 67.2525L13.9961 64.7337L15.6399 62.2142L17.1711 64.7337Z" fill="#C9DAF4"/>
<path d="M108.011 28.4322L106.48 30.9516L104.836 28.4322L106.48 25.9127L108.011 28.4322Z" fill="#C9DAF4"/>
</svg>
