<svg width="130" height="125" viewBox="0 0 130 125" fill="none" xmlns="http://www.w3.org/2000/svg">
<path d="M115.978 54.9922C115.978 55.0555 115.978 55.1187 115.978 55.1812C115.876 82.2137 93.926 104.096 66.8643 104.096C39.743 104.096 17.75 82.1112 17.75 54.9922C17.75 54.4625 17.7585 53.9349 17.7754 53.4096C18.0177 45.506 20.1758 37.7794 24.0642 30.8938C32.4864 15.9655 48.4952 5.88745 66.8635 5.88745C85.1999 5.88745 101.189 15.9335 109.626 30.8226C113.802 38.1927 115.991 46.5215 115.978 54.9922Z" fill="#F3F8FF"/>
<path d="M109.624 30.8219L91.6248 33.2595V34.5317H87.8722L72.2603 29.5745L58.5281 30.7841L51.4991 34.7403L51.4787 34.7367H34.5857L34.537 31.9895L24.0593 30.899C20.1727 37.7833 18.0156 45.5081 17.7734 53.4097L34.8722 50.9453L34.838 49.0115C35.2852 49.383 35.9891 49.8642 36.8369 50.3993C37.3541 50.7386 37.9186 51.0911 38.5303 51.457C38.2722 51.8024 38.1224 52.0168 38.1224 52.0168C38.1224 52.0168 37.2848 54.5612 39.2269 55.4001C41.169 56.2391 42.376 55.0984 42.376 55.0984C42.376 55.0984 42.7599 54.6921 43.2755 54.048C43.4732 54.1468 43.6754 54.2457 43.8797 54.3453C43.498 54.8913 43.2675 55.2547 43.2675 55.2547C43.2675 55.2547 42.5403 57.8486 44.513 58.6097C46.4857 59.3709 47.6454 58.1735 47.6454 58.1735C47.6454 58.1735 48.1915 57.5411 48.8408 56.5996C49.1694 56.745 49.4908 56.8839 49.8042 57.0198C49.2145 57.8086 48.7862 58.4636 48.6503 58.6657C48.6197 58.7116 48.5934 58.7603 48.5717 58.8111C48.3965 59.2276 47.7203 61.1149 49.3243 62.0905C50.9574 63.0828 52.6283 61.4245 52.6283 61.4245C53.2681 60.7372 53.8517 59.9996 54.3734 59.2189C54.537 59.3062 54.6977 59.3941 54.8569 59.4806C54.3058 60.2592 53.8637 60.9913 53.6375 61.3758C53.5249 61.5698 53.4741 61.7935 53.4921 62.017C53.6441 63.9799 55.0656 64.1776 55.869 64.0925C56.2508 64.0526 57.2397 62.8276 58.0504 61.3722C61.9717 63.8999 63.5932 65.7602 65.0241 66.2647C65.8581 66.5882 66.6085 66.2894 66.9204 66.1281C67.0099 66.0873 67.1 66.0415 67.1938 65.9907C67.3403 65.9124 67.477 65.817 67.601 65.7064C67.6033 65.7049 67.6055 65.7032 67.6076 65.7013C69.5548 63.9421 65.5615 59.8405 63.8651 58.2528C65.6931 59.8099 68.4605 61.9378 70.7051 62.6786C70.7574 62.6968 70.7843 62.704 70.7843 62.704C71.1215 62.8271 71.4741 62.9029 71.8321 62.9294C71.9259 62.9381 72.0182 62.9432 72.1084 62.9446H72.136C72.1709 62.9446 72.2087 62.9446 72.2414 62.9446C72.7075 62.9352 73.122 62.8153 73.463 62.5535C73.6377 62.4226 73.7858 62.2595 73.8993 62.073C74.0895 61.7511 74.1627 61.3733 74.1065 61.0036C73.884 58.8707 70.6658 55.8712 69.1672 54.5794L69.229 54.5481C70.3728 55.3478 71.7477 56.25 73.1365 57.0431C73.3929 57.1885 73.6441 57.3273 73.8898 57.4596C74.8801 57.9911 75.8581 58.444 76.7445 58.7384L76.759 58.7442C77.3034 58.9535 77.8784 59.0726 78.4612 59.0968C78.5099 59.0968 78.5579 59.0968 78.6066 59.0968H78.6459C78.672 59.0968 78.6975 59.0968 78.7229 59.0968C79.1505 59.0852 79.5184 58.987 79.8056 58.7791C79.9112 58.7014 80.0086 58.6132 80.0964 58.5159C80.2654 58.3381 80.3912 58.1238 80.4641 57.8896C80.5369 57.6553 80.555 57.4075 80.5167 57.1652C80.3538 55.1246 77.6643 52.3374 76.663 51.3654C77.4119 51.9834 78.2234 52.6311 79.0509 53.2556C79.0509 53.2556 79.1599 53.3399 79.3533 53.4824C80.9588 54.6761 82.6043 55.7585 83.9567 56.3467C84.7616 56.7101 85.4836 56.921 85.9388 56.7996C86.1084 56.7854 86.2733 56.7372 86.4238 56.6578C86.6325 56.5386 86.8255 56.3938 86.9982 56.2267C87.2697 55.9862 87.499 55.7019 87.6766 55.3856C87.8404 55.1262 87.9587 54.8408 88.0263 54.5416C88.0444 54.4548 88.0539 54.3664 88.0547 54.2777V54.2682C88.0452 53.2061 87.2774 51.9812 86.5205 51.236L84.2584 49.0079L91.6277 48.5295V51.3429L115.979 55.1777C115.979 55.1152 115.979 55.0519 115.979 54.9887C115.991 46.5187 113.801 38.191 109.624 30.8219Z" fill="white"/>
<path d="M30.0235 22.6122C29.9996 22.6123 29.9765 22.6035 29.9588 22.5875C29.9394 22.5704 29.9276 22.5464 29.926 22.5206C29.9243 22.4948 29.933 22.4695 29.95 22.4501C34.2937 17.5128 39.5857 13.499 45.5117 10.6471C51.4376 7.79521 57.8765 6.16351 64.4457 5.84898C64.4585 5.84839 64.4713 5.85034 64.4834 5.8547C64.4954 5.85906 64.5065 5.86575 64.5159 5.8744C64.5254 5.88304 64.533 5.89346 64.5385 5.90507C64.5439 5.91667 64.547 5.92923 64.5475 5.94203C64.5482 5.95479 64.5464 5.96756 64.5421 5.9796C64.5378 5.99164 64.5312 6.00271 64.5226 6.01217C64.514 6.02164 64.5036 6.02931 64.4921 6.03474C64.4805 6.04017 64.4679 6.04325 64.4552 6.04381C51.1265 6.69881 38.9248 12.5713 30.0962 22.5795C30.087 22.5897 30.0758 22.5979 30.0633 22.6036C30.0508 22.6092 30.0372 22.6122 30.0235 22.6122Z" fill="#002E5D"/>
<path d="M113.813 69.5447C113.803 69.5447 113.793 69.5432 113.784 69.5404C113.772 69.5366 113.76 69.5305 113.75 69.5224C113.74 69.5142 113.732 69.5041 113.726 69.4928C113.72 69.4814 113.716 69.469 113.715 69.4562C113.714 69.4434 113.715 69.4305 113.719 69.4183C115.29 64.315 116.013 58.9888 115.859 53.6517C115.859 53.6258 115.868 53.6007 115.886 53.5819C115.904 53.5631 115.928 53.5521 115.954 53.5514C115.967 53.5508 115.98 53.5528 115.992 53.5573C116.004 53.5618 116.015 53.5687 116.025 53.5776C116.034 53.5865 116.042 53.5972 116.047 53.6091C116.052 53.6209 116.055 53.6337 116.055 53.6466C116.209 59.0049 115.483 64.3522 113.906 69.4757C113.9 69.4956 113.888 69.5131 113.871 69.5256C113.854 69.538 113.834 69.5447 113.813 69.5447Z" fill="#002E5D"/>
<path d="M90.2972 104.144C103.067 104.144 113.419 93.7945 113.419 81.0274C113.419 68.2602 103.067 57.9104 90.2972 57.9104C77.5276 57.9104 67.1758 68.2602 67.1758 81.0274C67.1758 93.7945 77.5276 104.144 90.2972 104.144Z" fill="#BBD1DC"/>
<path d="M124.492 25.2446L90.8555 29.8006V47.8876L127.44 53.6489L124.492 25.2446Z" fill="white"/>
<path d="M33.7654 28.5276L34.1006 47.4863L5.28877 51.6395L2.27344 25.2446L33.7654 28.5276Z" fill="white"/>
<path d="M85.7235 47.7808L72.9714 35.2267L58.5084 32.8735L50.7065 31.2742H33.8164L34.0687 45.5526C36.6325 47.4602 40.9232 50.0882 48.0344 53.1131C62.7308 59.3651 62.8675 64.4539 66.3932 62.5369C69.53 60.8299 63.8971 55.5347 62.6064 54.3788C65.1942 56.6418 70.4673 60.7849 72.6617 59.0976C75.0495 57.2627 70.3073 52.7976 68.3717 51.1329L68.4524 51.0929C71.7971 53.4192 77.1225 56.6855 78.9956 55.3238C81.8095 53.2811 75.4749 47.57 75.4749 47.57C78.8923 50.4262 83.8854 54.1585 85.6181 53.2025C86.4223 52.7591 87.2556 51.6032 87.2483 50.813C87.2446 49.7516 86.4775 48.5259 85.7235 47.7808Z" fill="white"/>
<path d="M49.7812 31.8098C49.7812 31.8098 49.9485 33.4513 53.9352 34.2888L58.535 32.8734L72.998 35.2266L83.4844 45.5496L90.8544 45.0713V31.0749H87.1039L71.4907 26.1155L57.7548 27.3215L49.7812 31.8098Z" fill="white"/>
<path d="M50.5625 32.9113L60.0986 29.4756L72.2261 28.9871L84.5579 36.6777H90.8562V45.0742L83.4862 45.5526L72.9721 35.2296L58.5338 32.8735L53.9341 34.2889C53.9341 34.2889 52.056 33.9959 50.5625 32.9113Z" fill="#F4B18F"/>
<path d="M90.8555 36.6779L125.452 34.5122L127.44 53.649L90.8555 47.8878V36.6779Z" fill="#F70431"/>
<path d="M33.9005 36.03L34.1026 47.4863L5.2908 51.6395L3.28906 34.0708L33.9005 36.03Z" fill="#325D9C"/>
<path d="M33.8984 36.03L49.78 36.8341L72.9066 40.1171C72.9066 40.1171 84.8567 53.5813 87.2518 51.0863C87.2518 51.0863 86.8453 52.8638 85.181 53.34C83.5166 53.8161 78.2734 49.8003 78.2734 49.8003L75.4755 47.5693L72.0973 44.5887L65.626 43.4662C65.626 43.4662 78.7831 56.8803 79.6593 53.353C79.6593 53.353 80.1326 54.5853 78.9991 55.3217C77.8655 56.0581 75.983 55.2861 75.983 55.2861C74.3542 54.686 72.7981 53.9047 71.344 52.9568L68.4537 51.0929L65.626 48.9934L58.9148 46.7049C58.9148 46.7049 72.8702 60.8736 73.2069 57.0606C73.2069 57.0606 73.7631 58.3284 72.6594 59.0961C71.5556 59.8638 70.009 59.2488 70.009 59.2488C70.009 59.2488 67.2707 58.4397 62.6041 54.3781L61.1499 53.023L59.3794 52.8194C59.3794 52.8194 66.276 63.0145 67.2976 60.654C67.2976 60.654 67.6874 61.9626 66.3 62.5849C66.3 62.5849 65.3468 63.234 64.2503 62.8095C63.1538 62.3849 60.6024 60.1357 60.2228 59.9569C60.2228 59.9569 58.5141 58.6614 56.9057 57.6683C55.2974 56.6753 53.3923 55.4874 50.7129 54.2996C48.0335 53.1117 43.9573 51.4069 41.1877 49.9065C38.4182 48.406 35.2872 46.5668 34.062 45.5519L33.8984 36.03Z" fill="#F4B18F"/>
<path d="M37.3508 48.5578C37.3508 48.5578 36.5139 51.1037 38.4597 51.939C40.4054 52.7743 41.6088 51.6373 41.6088 51.6373C41.6088 51.6373 46.735 46.2112 44.7579 43.4952C42.7809 40.7792 37.3508 48.5578 37.3508 48.5578Z" fill="#F4B18F"/>
<path d="M42.4981 51.7936C42.4981 51.7936 41.771 54.3875 43.7437 55.1493C45.7163 55.9112 46.8761 54.7132 46.8761 54.7132C46.8761 54.7132 51.7703 49.0428 49.6827 46.3995C47.5952 43.7562 42.4981 51.7936 42.4981 51.7936Z" fill="#F4B18F"/>
<path d="M47.8809 55.2104C47.8499 55.2561 47.8236 55.3048 47.8024 55.3558C47.6279 55.7731 46.9517 57.6603 48.555 58.6352C50.1874 59.6275 51.859 57.9693 51.859 57.9693C51.859 57.9693 56.5801 53.0761 54.622 50.3325C52.7701 47.735 48.3732 54.4718 47.8809 55.2104Z" fill="#F4B18F"/>
<path d="M52.7183 58.5624C52.7006 58.3391 52.7514 58.1157 52.8637 57.9219C53.5661 56.7209 56.3786 52.1599 57.9731 53.2896C59.804 54.5873 55.9416 60.5492 55.0923 60.6386C54.2925 60.7229 52.871 60.5281 52.7183 58.5624Z" fill="#F4B18F"/>
<path d="M44.5378 43.224C45.5245 43.951 45.4532 46.0803 44.1568 47.841C42.8604 49.6017 40.8317 50.3258 39.845 49.6003C38.8583 48.8747 39.1092 46.8581 40.4049 45.0974C41.7006 43.3367 43.5511 42.4985 44.5378 43.224Z" fill="white"/>
<path d="M49.3939 46.1153C50.4264 46.7739 50.5217 49.0268 49.3459 50.8696C48.1702 52.7125 46.1685 53.4475 45.1345 52.7881C44.1005 52.1288 44.2183 50.0983 45.3948 48.2584C46.5713 46.4184 48.3614 45.4559 49.3939 46.1153Z" fill="white"/>
<path d="M54.3104 49.9878C55.3429 50.6472 55.4236 52.7002 54.2478 54.543C53.0721 56.3859 51.0827 57.3186 50.0502 56.6644C49.0177 56.0101 49.1289 54.0771 50.3054 52.2349C51.4819 50.3928 53.2771 49.3292 54.3104 49.9878Z" fill="white"/>
<path d="M57.9185 53.2477C58.5234 53.6671 58.7227 54.9612 57.973 56.04C57.2234 57.1188 55.8091 57.5746 55.2049 57.1552C54.6007 56.7357 54.7126 55.5798 55.4616 54.501C56.2105 53.4222 57.3143 52.8275 57.9185 53.2477Z" fill="white"/>
<path d="M127.44 53.747H127.425L90.84 47.9843C90.817 47.9807 90.7961 47.9689 90.781 47.9512C90.7659 47.9334 90.7577 47.9109 90.7578 47.8876V29.8006C90.7578 29.7769 90.7663 29.754 90.7818 29.7361C90.7973 29.7182 90.8187 29.7065 90.8422 29.7031L124.478 25.1479C124.491 25.1464 124.504 25.1474 124.517 25.1509C124.529 25.1543 124.541 25.1603 124.551 25.1683C124.561 25.1762 124.57 25.1862 124.576 25.1976C124.583 25.2089 124.587 25.2215 124.588 25.2345L127.536 53.6394C127.537 53.653 127.536 53.6667 127.532 53.6797C127.527 53.6926 127.521 53.7046 127.511 53.7147C127.502 53.7249 127.491 53.733 127.479 53.7385C127.466 53.7441 127.453 53.747 127.439 53.747H127.44ZM90.9534 47.8047L127.329 53.5333L124.406 25.3551L90.9541 29.8856L90.9534 47.8047Z" fill="#002E5D"/>
<path d="M53.9354 34.3863C53.9284 34.387 53.9213 34.387 53.9143 34.3863C49.8701 33.5139 49.6898 31.8891 49.684 31.8201C49.6823 31.8014 49.6861 31.7827 49.6949 31.7662C49.7037 31.7497 49.7171 31.7361 49.7334 31.727L57.7069 27.2365C57.7191 27.2298 57.7324 27.2256 57.7462 27.2242L71.4821 26.0188C71.4948 26.0175 71.5077 26.0187 71.5199 26.0225L87.1179 30.9753H90.8545C90.8681 30.9742 90.8817 30.9758 90.8946 30.9802C90.9075 30.9846 90.9193 30.9916 90.9293 31.0008C90.9394 31.01 90.9474 31.0212 90.9528 31.0336C90.9583 31.0461 90.9612 31.0595 90.9612 31.0731C90.9612 31.0867 90.9583 31.1002 90.9528 31.1126C90.9474 31.1251 90.9394 31.1362 90.9293 31.1454C90.9193 31.1546 90.9075 31.1616 90.8946 31.166C90.8817 31.1704 90.8681 31.1721 90.8545 31.1709H87.1041C87.0939 31.171 87.0838 31.1693 87.0743 31.1658L71.4792 26.2144L57.784 27.4168L49.8912 31.8601C49.969 32.1509 50.5049 33.4398 53.931 34.1864L60.0039 32.3181C60.0143 32.3151 60.0251 32.3137 60.0359 32.3137L71.6944 32.6488C71.7189 32.6515 71.7415 32.6634 71.7577 32.682C71.7738 32.7006 71.7824 32.7246 71.7817 32.7493C71.781 32.7739 71.771 32.7974 71.7537 32.815C71.7365 32.8326 71.7132 32.8431 71.6886 32.8444L60.0461 32.5092L53.9638 34.3805C53.9547 34.3839 53.9451 34.3859 53.9354 34.3863Z" fill="#002E5D"/>
<path d="M52.3049 32.3988C52.2847 32.399 52.2649 32.3929 52.2484 32.3813C52.2318 32.3696 52.2193 32.3531 52.2126 32.3341C52.204 32.3096 52.2054 32.2827 52.2166 32.2592C52.2278 32.2358 52.2478 32.2177 52.2722 32.209C52.9681 31.9633 54.0115 31.5911 54.1969 31.5133C54.2696 31.2901 54.5394 29.8587 54.6979 28.9689C54.7001 28.9562 54.7047 28.9442 54.7117 28.9333C54.7186 28.9225 54.7276 28.9132 54.7381 28.9059C54.7487 28.8986 54.7606 28.8934 54.7732 28.8908C54.7857 28.8881 54.7987 28.888 54.8113 28.8904C54.8368 28.895 54.8595 28.9095 54.8743 28.9308C54.8892 28.952 54.895 28.9783 54.8906 29.0038C54.4259 31.5991 54.367 31.6376 54.3241 31.6667C54.2572 31.711 53.0502 32.14 52.3369 32.3937C52.3266 32.3971 52.3158 32.3988 52.3049 32.3988Z" fill="#002E5D"/>
<path d="M5.28929 51.737C5.26774 51.7368 5.24684 51.7296 5.22966 51.7166C5.21931 51.7087 5.21068 51.6987 5.20431 51.6874C5.19793 51.676 5.19394 51.6634 5.19258 51.6505L2.17652 25.2592C2.1747 25.2447 2.17625 25.2299 2.18104 25.216C2.18583 25.2022 2.19374 25.1896 2.20415 25.1793C2.2144 25.1689 2.22684 25.161 2.24055 25.1561C2.25427 25.1512 2.26891 25.1494 2.2834 25.1509L33.7754 28.4332C33.7991 28.4357 33.8211 28.4467 33.8373 28.4642C33.8535 28.4817 33.8628 28.5046 33.8634 28.5284L34.1978 47.4871C34.1984 47.511 34.1902 47.5342 34.1748 47.5524C34.1594 47.5707 34.1378 47.5826 34.1142 47.586L5.3031 51.7363L5.28929 51.737ZM2.3852 25.3545L5.37581 51.5283L34.0022 47.4013L33.67 28.6157L2.3852 25.3545Z" fill="#002E5D"/>
<path d="M50.734 31.3716H33.8163C33.7918 31.3695 33.769 31.3583 33.7524 31.3401C33.7358 31.322 33.7266 31.2984 33.7266 31.2738C33.7266 31.2492 33.7358 31.2256 33.7524 31.2075C33.769 31.1894 33.7918 31.1781 33.8163 31.176H50.734C50.7585 31.1781 50.7813 31.1894 50.7979 31.2075C50.8145 31.2256 50.8237 31.2492 50.8237 31.2738C50.8237 31.2984 50.8145 31.322 50.7979 31.3401C50.7813 31.3583 50.7585 31.3695 50.734 31.3716Z" fill="#002E5D"/>
<path d="M84.9835 53.4497C81.4744 53.4497 72.4379 45.0292 72.0256 44.6432C72.0161 44.6344 72.0083 44.6238 72.0029 44.612C71.9974 44.6003 71.9943 44.5875 71.9938 44.5746C71.9932 44.5616 71.9953 44.5487 71.9997 44.5365C72.0042 44.5243 72.011 44.5131 72.0198 44.5036C72.0286 44.494 72.0392 44.4863 72.0509 44.4809C72.0627 44.4754 72.0754 44.4723 72.0884 44.4718C72.1014 44.4712 72.1143 44.4732 72.1265 44.4777C72.1387 44.4822 72.1499 44.489 72.1594 44.4978C72.1863 44.5232 74.8984 47.0567 77.908 49.3728C81.862 52.4159 84.5247 53.71 85.6023 53.1146C86.4057 52.6704 87.1888 51.5298 87.1823 50.8115C87.1735 49.7785 86.4203 48.579 85.6779 47.8477L72.9534 35.3154L58.5217 32.9673C58.4973 32.9617 58.476 32.9471 58.4621 32.9265C58.4481 32.9058 58.4426 32.8805 58.4466 32.8559C58.4506 32.8313 58.4638 32.8091 58.4835 32.7939C58.5033 32.7786 58.5281 32.7715 58.5529 32.7739L73.0152 35.1271C73.0352 35.1307 73.0536 35.14 73.0683 35.154L85.8182 47.7088C86.5889 48.4678 87.3713 49.7211 87.3808 50.8093C87.388 51.6773 86.4835 52.8529 85.6997 53.2854C85.4788 53.4001 85.2323 53.4566 84.9835 53.4497Z" fill="#002E5D"/>
<path d="M77.8614 55.7403C74.0513 55.7403 65.9534 49.375 65.5681 49.0696C65.5478 49.0535 65.5348 49.03 65.5319 49.0043C65.5289 48.9786 65.5363 48.9528 65.5524 48.9326C65.5686 48.9123 65.592 48.8993 65.6177 48.8964C65.6434 48.8935 65.6693 48.9009 65.6895 48.917C65.7833 48.9897 74.124 55.5506 77.8512 55.5513C78.2991 55.5513 78.6801 55.4568 78.9724 55.2452C79.174 55.1064 79.3403 54.9223 79.4581 54.7077C79.5759 54.4931 79.6419 54.254 79.6508 54.0094C79.7817 51.5762 75.4961 47.6695 75.4532 47.6302C75.4436 47.6216 75.4359 47.6112 75.4303 47.5996C75.4248 47.5881 75.4216 47.5755 75.4209 47.5627C75.4203 47.5498 75.4221 47.537 75.4264 47.5249C75.4307 47.5128 75.4373 47.5016 75.4459 47.4921C75.4545 47.4825 75.4649 47.4748 75.4765 47.4693C75.4881 47.4637 75.5006 47.4605 75.5135 47.4599C75.5263 47.4592 75.5391 47.461 75.5513 47.4653C75.5634 47.4696 75.5745 47.4762 75.5841 47.4848C75.7637 47.6469 79.9816 51.4933 79.8457 54.0188C79.8353 54.2922 79.7613 54.5595 79.6295 54.7993C79.4978 55.039 79.3118 55.2448 79.0866 55.4001C78.7652 55.6364 78.3478 55.7403 77.8614 55.7403Z" fill="#002E5D"/>
<path d="M71.3969 59.5925C70.0524 59.5925 68.1619 58.7238 65.7501 56.9943C63.2583 55.2074 61.1017 53.1144 61.0806 53.0941C61.0653 53.0754 61.0575 53.0518 61.0587 53.0277C61.0599 53.0036 61.0699 52.9808 61.0869 52.9638C61.1039 52.9467 61.1267 52.9365 61.1508 52.9352C61.1748 52.9339 61.1985 52.9415 61.2173 52.9567C61.29 53.0294 67.8791 59.3984 71.3969 59.3991C71.8695 59.3991 72.2868 59.2843 72.6264 59.0233C72.8215 58.8832 72.9798 58.698 73.0876 58.4833C73.1953 58.2687 73.2494 58.0312 73.2452 57.7911C73.2626 55.0962 67.6275 50.6166 67.5737 50.5722C67.5533 50.5562 67.5402 50.5328 67.5371 50.5071C67.5341 50.4814 67.5413 50.4555 67.5573 50.4352C67.5733 50.4149 67.5968 50.4017 67.6225 50.3986C67.6482 50.3956 67.6741 50.4028 67.6944 50.4188C67.93 50.6042 73.4611 55.0024 73.4429 57.7925C73.4465 58.0622 73.3852 58.3289 73.2642 58.57C73.1432 58.8111 72.9662 59.0196 72.7478 59.1781C72.3857 59.4549 71.9354 59.593 71.3969 59.5925Z" fill="#002E5D"/>
<path d="M37.762 48.0919C37.7443 48.0919 37.727 48.0871 37.7118 48.0781C36.4367 47.3254 35.2005 46.5087 34.0079 45.6311C33.9976 45.6234 33.989 45.6138 33.9824 45.6028C33.9759 45.5917 33.9716 45.5795 33.9697 45.5668C33.9679 45.5541 33.9686 45.5412 33.9718 45.5288C33.975 45.5164 33.9806 45.5047 33.9882 45.4944C33.9959 45.4842 34.0056 45.4755 34.0166 45.469C34.0276 45.4624 34.0398 45.4581 34.0525 45.4563C34.0652 45.4545 34.0781 45.4552 34.0906 45.4584C34.103 45.4615 34.1147 45.4671 34.1249 45.4748C35.3123 46.3481 36.5429 47.1609 37.8121 47.9102C37.8231 47.9167 37.8327 47.9254 37.8403 47.9357C37.848 47.946 37.8535 47.9577 37.8566 47.9701C37.8597 47.9825 37.8603 47.9954 37.8584 48.0081C37.8565 48.0208 37.8522 48.0329 37.8456 48.0439C37.8371 48.0586 37.8249 48.0707 37.8102 48.0792C37.7955 48.0876 37.7789 48.092 37.762 48.0919Z" fill="#002E5D"/>
<path d="M49.0511 53.6395C49.0376 53.6394 49.0242 53.6364 49.0119 53.6307C48.6716 53.481 48.3575 53.3443 48.0506 53.2135C48.0295 53.2053 48.0118 53.19 48.0007 53.1703C47.9897 53.1505 47.9858 53.1275 47.9898 53.1052C47.9939 53.0829 48.0056 53.0627 48.0229 53.0481C48.0402 53.0335 48.0621 53.0254 48.0848 53.0252C48.0978 53.0249 48.1108 53.0276 48.1226 53.0332C48.4309 53.164 48.7472 53.3014 49.0889 53.4526C49.1096 53.4615 49.1265 53.4773 49.1368 53.4972C49.1471 53.5172 49.1502 53.5401 49.1456 53.5621C49.141 53.5841 49.1289 53.6038 49.1114 53.6179C49.094 53.632 49.0721 53.6396 49.0497 53.6395H49.0511Z" fill="#002E5D"/>
<path d="M65.0416 63.0429C64.0098 63.0429 63.0784 62.3108 61.5732 61.1273C60.4906 60.2767 59.1432 59.2183 57.2316 57.9868C57.2197 57.9804 57.2091 57.9716 57.2007 57.9609C57.1923 57.9503 57.1862 57.938 57.1828 57.9248C57.1794 57.9117 57.1788 57.898 57.1809 57.8846C57.1831 57.8712 57.188 57.8583 57.1954 57.8469C57.2028 57.8355 57.2124 57.8258 57.2238 57.8183C57.2351 57.8108 57.2479 57.8058 57.2612 57.8035C57.2746 57.8012 57.2883 57.8017 57.3015 57.8049C57.3147 57.8082 57.3271 57.8142 57.3378 57.8225C59.2567 59.0583 60.6098 60.1205 61.6939 60.9739C63.1933 62.1523 64.0767 62.8466 65.0387 62.8466C65.4502 62.8466 65.8763 62.7201 66.3715 62.4504C66.8993 62.164 67.1851 61.7707 67.244 61.248C67.5065 59.0104 63.4077 55.2076 62.5832 54.4682L62.549 54.4377C62.469 54.365 62.408 54.3119 62.3665 54.277L62.3418 54.2552C62.32 54.2371 62.3084 54.2262 62.3084 54.2262C62.2891 54.2087 62.2775 54.1843 62.2762 54.1583C62.2749 54.1324 62.284 54.107 62.3014 54.0877C62.3189 54.0684 62.3433 54.0568 62.3693 54.0555C62.3952 54.0542 62.4207 54.0633 62.44 54.0808L62.469 54.1055L62.4952 54.1287C62.5352 54.1629 62.5977 54.2182 62.6799 54.2909L62.7148 54.3221C63.8891 55.3762 67.7043 58.9944 67.441 61.2691C67.3727 61.8506 67.0448 62.3057 66.466 62.6205C65.9396 62.9098 65.4815 63.0429 65.0416 63.0429Z" fill="#002E5D"/>
<path d="M54.0919 56.1118C54.0756 56.1116 54.0596 56.1074 54.0454 56.0994C53.8869 56.0127 53.7262 55.9259 53.5633 55.8392C53.5404 55.8269 53.5234 55.8061 53.5159 55.7813C53.5084 55.7565 53.5111 55.7297 53.5233 55.7068C53.5356 55.684 53.5564 55.6669 53.5812 55.6595C53.606 55.652 53.6328 55.6546 53.6556 55.6669C53.8192 55.7548 53.9807 55.8413 54.1392 55.9278C54.1582 55.9384 54.1731 55.9549 54.1817 55.9749C54.1902 55.9948 54.192 56.017 54.1866 56.038C54.1812 56.0591 54.1689 56.0777 54.1518 56.0911C54.1347 56.1044 54.1136 56.1117 54.0919 56.1118Z" fill="#002E5D"/>
<path d="M43.1213 50.9663C43.1067 50.9663 43.0923 50.9631 43.0791 50.9569C42.875 50.857 42.6739 50.7577 42.4756 50.6588C42.4641 50.653 42.4539 50.6451 42.4456 50.6353C42.4372 50.6256 42.4308 50.6143 42.4268 50.6022C42.4228 50.59 42.4212 50.5771 42.4221 50.5643C42.4231 50.5515 42.4266 50.5391 42.4323 50.5276C42.4381 50.5161 42.4461 50.5059 42.4558 50.4976C42.4655 50.4892 42.4768 50.4828 42.489 50.4788C42.5012 50.4748 42.514 50.4732 42.5268 50.4741C42.5396 50.4751 42.5521 50.4786 42.5636 50.4843C42.7575 50.5813 42.9577 50.6801 43.1642 50.7809C43.1842 50.7905 43.2004 50.8066 43.2101 50.8266C43.2197 50.8466 43.2223 50.8692 43.2173 50.8909C43.2122 50.9125 43.2 50.9318 43.1826 50.9455C43.1651 50.9592 43.1435 50.9666 43.1213 50.9663Z" fill="#002E5D"/>
<path d="M39.8447 52.3433C39.3525 52.3383 38.8667 52.2319 38.4174 52.0307C36.4149 51.1678 37.2489 48.5536 37.2577 48.5274C37.2608 48.5185 37.2649 48.5099 37.27 48.502C37.4315 48.2715 41.2437 42.852 43.657 42.8272C44.1362 42.8222 44.5295 43.0293 44.8335 43.4423C45.6784 44.6054 45.3999 46.3501 44.0046 48.6379C43.324 49.7295 42.5452 50.7566 41.6778 51.7065C41.664 51.721 40.9841 52.3433 39.8447 52.3433ZM37.4409 48.6016C37.3726 48.8197 36.7102 51.0813 38.4967 51.8511C40.3537 52.6508 41.4931 51.6127 41.5404 51.5683C41.5876 51.524 46.5836 46.1742 44.6779 43.5578C44.4154 43.1944 44.0874 43.0228 43.6759 43.0228H43.6614C41.3979 43.0453 37.643 48.313 37.4409 48.6016Z" fill="#002E5D"/>
<path d="M43.5036 46.6911C43.4975 46.6916 43.4915 46.6916 43.4854 46.6911C43.3712 46.6679 42.1824 45.8602 41.4837 45.3826C41.4731 45.3753 41.4641 45.3661 41.4571 45.3553C41.4501 45.3446 41.4454 45.3326 41.443 45.32C41.4407 45.3074 41.4409 45.2945 41.4435 45.2819C41.4462 45.2694 41.4513 45.2575 41.4586 45.247C41.4658 45.2365 41.4751 45.2274 41.4858 45.2205C41.4966 45.2135 41.5086 45.2087 41.5212 45.2064C41.5338 45.2041 41.5467 45.2042 41.5592 45.2069C41.5718 45.2096 41.5836 45.2147 41.5942 45.2219C42.2442 45.6676 43.292 46.3756 43.5036 46.4898C43.6854 46.3589 44.459 45.5374 45.1316 44.7901C45.1495 44.7732 45.1731 44.7637 45.1978 44.7634C45.2224 44.7632 45.2462 44.7721 45.2645 44.7886C45.2828 44.8051 45.2943 44.8278 45.2966 44.8524C45.2989 44.8769 45.2919 44.9014 45.277 44.921C43.793 46.5646 43.577 46.6911 43.5036 46.6911Z" fill="#002E5D"/>
<path d="M45.0164 55.5011C44.5679 55.4967 44.1242 55.4092 43.7076 55.243C41.6717 54.4586 42.3988 51.7972 42.4032 51.7703C42.4058 51.7611 42.4098 51.7523 42.4148 51.7441C42.566 51.5057 46.1485 45.8985 48.5582 45.775C49.0366 45.751 49.4409 45.9422 49.7586 46.3442C50.6508 47.4753 50.4458 49.2441 49.1471 51.6009C48.5134 52.7261 47.7778 53.791 46.9498 54.7821C46.9374 54.7938 46.2351 55.5011 45.0164 55.5011ZM42.5871 51.8364C42.5282 52.0545 41.9596 54.3605 43.7774 55.0606C45.6679 55.7875 46.7586 54.6971 46.8051 54.6506C46.8516 54.604 51.6186 49.018 49.6045 46.4656C49.3246 46.1108 48.9843 45.9487 48.5676 45.9698C46.3129 46.0854 42.7776 51.5384 42.5871 51.8357V51.8364Z" fill="#002E5D"/>
<path d="M48.5602 49.6636H48.545C48.4293 49.6447 47.2085 48.8821 46.4909 48.4277C46.469 48.4139 46.4535 48.392 46.4477 48.3668C46.442 48.3416 46.4465 48.3151 46.4603 48.2932C46.4741 48.2714 46.496 48.2558 46.5213 48.2501C46.5465 48.2444 46.573 48.2489 46.5948 48.2627C47.2623 48.6844 48.3399 49.3532 48.558 49.4586C48.7347 49.319 49.4735 48.4612 50.1141 47.6826C50.122 47.6722 50.132 47.6636 50.1433 47.6572C50.1547 47.6507 50.1673 47.6466 50.1802 47.6452C50.1932 47.6437 50.2064 47.6448 50.2189 47.6485C50.2314 47.6522 50.2431 47.6584 50.2532 47.6667C50.2632 47.675 50.2716 47.6852 50.2776 47.6967C50.2837 47.7083 50.2874 47.721 50.2884 47.734C50.2895 47.747 50.2879 47.7601 50.2838 47.7725C50.2797 47.7849 50.2732 47.7964 50.2646 47.8062C48.83 49.5458 48.6315 49.6636 48.5602 49.6636Z" fill="#002E5D"/>
<path d="M49.6578 59.0473C49.2492 59.0481 48.8487 58.9343 48.5017 58.7187C46.8206 57.7009 47.547 55.7076 47.7099 55.3186C47.7337 55.2617 47.7629 55.2072 47.7971 55.1558L47.8342 55.1005C49.1793 53.0752 51.7097 49.673 53.5355 49.6424C54.0016 49.6373 54.3949 49.8482 54.6989 50.2763C55.5234 51.4322 55.3009 53.145 54.0554 55.2307C53.4415 56.2354 52.728 57.1758 51.9257 58.0375C51.9118 58.052 50.8939 59.0473 49.6578 59.0473ZM47.96 55.267C47.9313 55.3078 47.907 55.3514 47.8873 55.3971C47.7353 55.7606 47.0555 57.6159 48.6006 58.5551C50.1457 59.4943 51.7686 57.9197 51.7853 57.9008C51.8304 57.8536 56.4258 53.0359 54.5382 50.3898C54.2684 50.0117 53.9405 49.8322 53.5362 49.838C52.2674 49.8591 50.2475 51.8168 47.9942 55.2081L47.96 55.267Z" fill="#002E5D"/>
<path d="M53.6356 53.3878C53.6291 53.3886 53.6225 53.3886 53.616 53.3878C53.5018 53.3638 52.3188 52.543 51.6237 52.0553C51.6025 52.0404 51.588 52.0177 51.5835 51.9922C51.579 51.9668 51.5848 51.9405 51.5997 51.9193C51.6145 51.8981 51.6372 51.8837 51.6627 51.8792C51.6882 51.8747 51.7144 51.8805 51.7356 51.8953C52.3821 52.3482 53.424 53.0672 53.6356 53.1842C53.7992 53.0614 54.4478 52.3395 55.0171 51.67C55.0247 51.6582 55.0346 51.6481 55.0464 51.6405C55.0582 51.633 55.0715 51.628 55.0853 51.626C55.0992 51.624 55.1133 51.625 55.1267 51.629C55.1402 51.6329 55.1526 51.6397 55.1632 51.6489C55.1737 51.6581 55.1822 51.6695 55.188 51.6822C55.1937 51.695 55.1967 51.7088 55.1966 51.7228C55.1966 51.7368 55.1935 51.7507 55.1876 51.7634C55.1817 51.7761 55.1732 51.7873 55.1625 51.7964C53.9148 53.2664 53.7098 53.3878 53.6356 53.3878Z" fill="#002E5D"/>
<path d="M54.7948 60.7522C54.3869 60.7522 53.835 60.6664 53.3835 60.2905C52.9319 59.9147 52.6803 59.3404 52.6207 58.5705C52.6019 58.3269 52.6583 58.0833 52.7821 57.8726C53.3929 56.8287 55.5103 53.3967 57.1448 53.0441C57.296 53.0061 57.4536 53.0012 57.6069 53.0298C57.7601 53.0585 57.9053 53.1198 58.0326 53.2098C58.5772 53.5951 58.703 54.365 58.4071 55.4962C58.1468 56.4914 57.5578 57.7352 56.7914 58.9129C56.2337 59.7686 55.4972 60.6976 55.106 60.7384C55.0026 60.7485 54.8987 60.7531 54.7948 60.7522ZM52.8156 58.5545C52.8709 59.2706 53.1064 59.8035 53.5078 60.1401C54.0342 60.5762 54.7213 60.5762 55.0849 60.5406C55.6077 60.4861 57.6334 57.6771 58.2173 55.446C58.4049 54.7278 58.5082 53.7841 57.9192 53.3683C57.814 53.294 57.6939 53.2435 57.5671 53.2204C57.4404 53.1973 57.3102 53.2021 57.1855 53.2346C55.6295 53.5704 53.55 56.9421 52.9508 57.97C52.8477 58.1457 52.8005 58.3485 52.8156 58.5516V58.5545Z" fill="#002E5D"/>
<path d="M57.184 56.293C57.1666 56.2929 57.1495 56.2882 57.1346 56.2792L55.8374 55.5202C55.815 55.5071 55.7988 55.4856 55.7922 55.4605C55.7857 55.4355 55.7894 55.4088 55.8025 55.3864C55.8156 55.3641 55.8371 55.3478 55.8622 55.3413C55.8872 55.3347 55.9139 55.3384 55.9363 55.3515L57.1636 56.0705L58.3656 54.7576C58.383 54.7383 58.4074 54.7268 58.4334 54.7255C58.4594 54.7242 58.4848 54.7332 58.5041 54.7507C58.5234 54.7681 58.5349 54.7925 58.5362 54.8185C58.5375 54.8445 58.5284 54.8699 58.511 54.8892L57.2553 56.261C57.2463 56.271 57.2353 56.279 57.223 56.2845C57.2108 56.2901 57.1975 56.2929 57.184 56.293Z" fill="#002E5D"/>
<path d="M83.4838 45.6507C83.4591 45.6494 83.4359 45.6389 83.4186 45.6213C83.4014 45.6037 83.3914 45.5802 83.3907 45.5556C83.3899 45.5309 83.3985 45.5069 83.4147 45.4883C83.4309 45.4697 83.4534 45.4578 83.478 45.4551L90.848 44.9768C90.8738 44.9751 90.8992 44.9838 90.9187 45.0009C90.9381 45.018 90.9499 45.0422 90.9516 45.068C90.9532 45.0938 90.9445 45.1193 90.9274 45.1387C90.9103 45.1581 90.8862 45.1699 90.8603 45.1716L83.4903 45.6507H83.4838Z" fill="#002E5D"/>
<path d="M46.2813 76.8087C46.2813 86.1023 38.7463 93.6359 29.4516 93.6359C20.1569 93.6359 12.6211 86.1023 12.6211 76.8087C12.6211 67.5151 20.1562 59.9815 29.4516 59.9815C31.6624 59.9793 33.8519 60.413 35.8948 61.2579C37.9377 62.1028 39.7939 63.3422 41.3572 64.9052C42.9204 66.4682 44.16 68.3241 45.0049 70.3666C45.8499 72.4092 46.2836 74.5983 46.2813 76.8087Z" fill="#3B82F4"/>
<path d="M45.493 71.7047L29.2915 87.9024L20.9297 79.5422L24.2453 76.2279L29.2908 81.2724L43.3095 67.2585C44.2539 68.6241 44.9898 70.1226 45.493 71.7047Z" fill="#325D9C"/>
<path d="M28.6846 85.3856L20.3242 77.0269L23.6391 73.7119L28.6846 78.7564L45.422 62.0229L48.7369 65.3372L28.6846 85.3856Z" fill="white"/>
<path d="M29.2913 88.0004C29.2785 88.0005 29.2658 87.998 29.2539 87.9931C29.2421 87.9883 29.2313 87.9811 29.2222 87.9721L20.8604 79.6119C20.8514 79.6028 20.8442 79.5921 20.8394 79.5802C20.8345 79.5684 20.832 79.5557 20.8321 79.5429C20.8317 79.5295 20.834 79.5161 20.8388 79.5036C20.8437 79.4911 20.8511 79.4797 20.8604 79.4702L24.1761 76.1559C24.1945 76.1377 24.2193 76.1275 24.2451 76.1275C24.271 76.1275 24.2958 76.1377 24.3142 76.1559L29.2906 81.1313L45.9589 64.4705C45.9773 64.4523 46.0021 64.4421 46.028 64.4421C46.0539 64.4421 46.0787 64.4523 46.0971 64.4705L49.4127 67.7855C49.4309 67.8039 49.4411 67.8287 49.4411 67.8546C49.4411 67.8805 49.4309 67.9053 49.4127 67.9237L47.4699 69.8661C47.4515 69.8843 47.4266 69.8945 47.4008 69.8945C47.3749 69.8945 47.3501 69.8843 47.3317 69.8661C47.3225 69.8571 47.3152 69.8464 47.3102 69.8345C47.3052 69.8227 47.3027 69.8099 47.3027 69.7971C47.3027 69.7842 47.3052 69.7715 47.3102 69.7596C47.3152 69.7478 47.3225 69.737 47.3317 69.728L49.2055 67.8546L46.028 64.6777L29.3604 81.3428C29.342 81.361 29.3172 81.3712 29.2913 81.3712C29.2654 81.3712 29.2406 81.361 29.2222 81.3428L24.2459 76.3653L21.0684 79.5414L29.2913 87.7627L39.7312 77.327C39.7495 77.3087 39.7744 77.2984 39.8003 77.2984C39.8262 77.2984 39.851 77.3087 39.8693 77.327C39.8877 77.3454 39.898 77.3702 39.898 77.3961C39.898 77.422 39.8877 77.4469 39.8693 77.4652L29.3604 87.9721C29.3513 87.9811 29.3405 87.9883 29.3287 87.9931C29.3168 87.998 29.3041 88.0005 29.2913 88.0004Z" fill="#002E5D"/>
<path d="M29.4513 93.7334C24.9618 93.7334 20.6561 91.9503 17.4815 88.7763C14.3069 85.6023 12.5234 81.2975 12.5234 76.8088C12.5234 72.3201 14.3069 68.0152 17.4815 64.8413C20.6561 61.6673 24.9618 59.8842 29.4513 59.8842C29.4649 59.883 29.4785 59.8846 29.4914 59.889C29.5043 59.8934 29.5161 59.9004 29.5261 59.9096C29.5362 59.9188 29.5442 59.93 29.5496 59.9424C29.5551 59.9549 29.5579 59.9683 29.5579 59.9819C29.5579 59.9955 29.5551 60.009 29.5496 60.0214C29.5442 60.0339 29.5362 60.0451 29.5261 60.0542C29.5161 60.0634 29.5043 60.0705 29.4914 60.0748C29.4785 60.0792 29.4649 60.0809 29.4513 60.0797C20.225 60.0812 12.7198 67.5842 12.7198 76.8088C12.7198 86.0333 20.2257 93.5386 29.4521 93.5386C33.5884 93.5413 37.5786 92.009 40.6496 89.2385C40.6589 89.2287 40.6702 89.2208 40.6827 89.2155C40.6952 89.2102 40.7086 89.2075 40.7222 89.2077C40.7358 89.2078 40.7492 89.2108 40.7615 89.2164C40.7739 89.222 40.785 89.2301 40.7941 89.2401C40.8031 89.2502 40.81 89.2621 40.8143 89.275C40.8186 89.2879 40.8201 89.3015 40.8188 89.315C40.8175 89.3285 40.8135 89.3416 40.8069 89.3535C40.8003 89.3654 40.7913 89.3757 40.7805 89.3839C37.6731 92.1864 33.6361 93.7363 29.4513 93.7334Z" fill="#002E5D"/>
<path d="M112.651 119.115H27.9842C27.9583 119.115 27.9335 119.104 27.9153 119.086C27.897 119.068 27.8867 119.043 27.8867 119.017C27.8867 118.991 27.897 118.967 27.9153 118.948C27.9335 118.93 27.9583 118.92 27.9842 118.92H112.651C112.676 118.92 112.701 118.93 112.719 118.948C112.738 118.967 112.748 118.991 112.748 119.017C112.748 119.043 112.738 119.068 112.719 119.086C112.701 119.104 112.676 119.115 112.651 119.115Z" fill="#002E5D"/>
<path d="M77.5773 100.435C77.5582 100.435 77.5395 100.429 77.5235 100.419C73.2892 97.6187 70.0813 93.517 68.3844 88.7334C68.3759 88.709 68.3773 88.6822 68.3885 88.6589C68.3997 88.6355 68.4197 88.6176 68.4441 88.609C68.4684 88.6005 68.4953 88.6019 68.5186 88.6131C68.5419 88.6243 68.5598 88.6443 68.5684 88.6686C70.2516 93.412 73.4326 97.479 77.6311 100.256C77.6487 100.267 77.662 100.284 77.6692 100.304C77.6764 100.324 77.677 100.345 77.6709 100.365C77.6649 100.385 77.6525 100.403 77.6356 100.416C77.6188 100.428 77.5983 100.435 77.5773 100.435Z" fill="#002E5D"/>
<path d="M95.9207 103.554C95.8964 103.555 95.8727 103.546 95.8542 103.531C95.8358 103.515 95.8239 103.493 95.821 103.468C95.8181 103.444 95.8243 103.42 95.8385 103.4C95.8526 103.38 95.8737 103.366 95.8975 103.361C100.703 102.154 104.992 99.43 108.126 95.5927C111.26 91.7554 113.073 87.0098 113.295 82.0605C113.517 77.1113 112.137 72.2224 109.36 68.1197C106.582 64.017 102.555 60.9193 97.8767 59.2866C97.8642 59.2827 97.8527 59.2763 97.8427 59.2679C97.8328 59.2594 97.8246 59.2491 97.8187 59.2374C97.8129 59.2257 97.8094 59.213 97.8085 59.2C97.8077 59.187 97.8094 59.1739 97.8137 59.1616C97.818 59.1493 97.8247 59.1379 97.8335 59.1283C97.8423 59.1186 97.8529 59.1108 97.8647 59.1053C97.8765 59.0998 97.8894 59.0967 97.9024 59.0962C97.9155 59.0958 97.9285 59.098 97.9406 59.1026C102.658 60.7494 106.719 63.8734 109.52 68.0108C112.321 72.1483 113.713 77.0785 113.489 82.0696C113.265 87.0607 111.437 91.8464 108.276 95.7163C105.116 99.5861 100.791 102.334 95.9447 103.551C95.9368 103.553 95.9288 103.554 95.9207 103.554Z" fill="#002E5D"/>
<path d="M49.4296 14.7266C51.1676 12.9888 51.1676 10.1714 49.4295 8.4336C47.6915 6.69585 44.8735 6.69584 43.1354 8.4336C41.3973 10.1714 41.3973 12.9888 43.1354 14.7266C44.8735 16.4643 47.6915 16.4643 49.4296 14.7266Z" fill="#BBD1DC"/>
<path d="M40.0003 102.717C40.1481 101.594 39.357 100.563 38.2334 100.416C37.1098 100.268 36.0793 101.059 35.9315 102.182C35.7838 103.306 36.5749 104.336 37.6985 104.484C38.822 104.631 39.8526 103.84 40.0003 102.717Z" fill="#BBD1DC"/>
<path d="M103.887 69.1361C104.069 68.0177 103.309 66.9639 102.191 66.7824C101.072 66.6008 100.018 67.3603 99.8366 68.4787C99.655 69.597 100.415 70.6508 101.533 70.8324C102.652 71.0139 103.706 70.2544 103.887 69.1361Z" fill="#F3F8FF"/>
<path d="M94.375 118.171L97.4303 112.831L97.6252 117.352L101.56 115.501L100.754 116.985L105.569 118.171H94.375Z" fill="#3B82F4"/>
<path d="M93.4687 117.922C93.4555 117.922 93.4424 117.919 93.4302 117.914C93.4184 117.909 93.4077 117.902 93.3987 117.892C93.3897 117.883 93.3827 117.872 93.3779 117.86C93.3732 117.849 93.3709 117.836 93.3711 117.823C93.3713 117.81 93.3741 117.798 93.3793 117.786L95.8885 111.921C95.8975 111.9 95.9134 111.883 95.9336 111.873C95.9538 111.862 95.977 111.859 95.9991 111.864C96.0212 111.869 96.041 111.882 96.0549 111.899C96.0688 111.917 96.0761 111.939 96.0754 111.962L95.9176 117.31L100.622 114.611C100.641 114.601 100.662 114.597 100.683 114.599C100.704 114.602 100.724 114.612 100.739 114.627C100.754 114.642 100.764 114.661 100.767 114.682C100.771 114.703 100.767 114.725 100.757 114.744L99.3023 117.393L105.925 117.726C105.938 117.727 105.95 117.73 105.962 117.736C105.973 117.741 105.984 117.749 105.992 117.758C106.001 117.768 106.008 117.779 106.012 117.791C106.016 117.803 106.018 117.816 106.017 117.829C106.016 117.855 106.004 117.879 105.985 117.896C105.966 117.914 105.941 117.923 105.915 117.922L99.1365 117.58C99.12 117.579 99.104 117.574 99.0899 117.565C99.0758 117.556 99.0641 117.544 99.0558 117.53C99.0479 117.515 99.0438 117.499 99.0438 117.483C99.0438 117.466 99.0479 117.45 99.0558 117.435L100.42 114.954L95.866 117.567C95.851 117.576 95.8339 117.58 95.8165 117.58C95.7992 117.58 95.7821 117.576 95.7671 117.567C95.7521 117.558 95.7397 117.545 95.7314 117.53C95.7231 117.515 95.7191 117.497 95.7198 117.48L95.8653 112.472L93.5589 117.863C93.5511 117.88 93.5385 117.895 93.5225 117.906C93.5065 117.916 93.4878 117.922 93.4687 117.922Z" fill="#002E5D"/>
<path d="M66.2151 69.7971L67.1219 72.6461H67.4963L68.0613 77.6622L68.9142 77.4238L69.1949 78.7534L64.9398 81.5711L63.7648 95.1357L64.1465 95.2397L63.1133 96.4028L63.4281 96.9015L63.4739 98.4747L64.4715 98.7975L65.2648 96.0263L66.4464 96.3265L65.9301 116.682H66.2144L65.6189 117.777L64.3465 118.021V118.53H68.0155L68.054 118.391L67.5523 117.015L67.601 116.678L67.7806 116.658L70.3044 100.938L72.7926 116.678H73.29L72.6566 117.745L71.3347 118.028L71.3602 118.53L75.0503 118.561L75.0808 118.465L74.4511 116.683L74.8605 116.678L74.1756 96.1542L75.9868 95.5726L75.5316 90.5565C75.5316 90.5565 76.1133 90.3384 76.1919 89.5213C76.2704 88.7042 76.9255 81.5821 76.9255 81.5821L71.8481 78.5026L71.7754 75.6609L71.9513 75.6885L72.0124 72.926L72.8726 70.772L66.2151 69.7971Z" fill="white"/>
<path d="M66.4414 70.4907L72.608 71.4416L72.0096 72.9254L71.9689 75.6609L71.1655 75.5657L71.0375 72.9457L67.1431 72.6186L66.4414 70.4907Z" fill="#325D9C"/>
<path d="M67.4961 72.646L69.6832 72.8314L69.809 77.1736L68.0611 77.6628L67.4961 72.646Z" fill="#F4B18F"/>
<path d="M71.2565 75.5767L71.1191 77.6631L69.1406 78.5107L69.4555 80.0017L71.8455 78.9883L71.772 75.661L71.2565 75.5767Z" fill="#F4B18F"/>
<path d="M72.7247 79.0232L72.4745 86.8883L73.8924 87.4066L74.1912 84.1614L74.8057 85.4503L74.6493 87.7563C74.6437 87.8394 74.6188 87.92 74.5766 87.9918C74.5344 88.0635 74.4761 88.1245 74.4062 88.1699C74.3364 88.2152 74.257 88.2437 74.1742 88.2531C74.0915 88.2624 74.0077 88.2524 73.9295 88.2237L69.4294 86.5764L68.9531 87.9082L72.4433 89.605L72.4578 96.717L75.9821 95.5654L75.527 90.5581C75.527 90.5581 76.1137 90.3581 76.2024 89.3949C76.2911 88.4317 76.9237 81.5785 76.9237 81.5785L72.7247 79.0232Z" fill="#3B82F4"/>
<path d="M69.4572 86.5917L67.2984 85.3951L65.8711 85.2759L66.1699 86.5554L68.9533 87.9082L69.4572 86.5917Z" fill="#F4B18F"/>
<path d="M70.1045 79.7712L67.7305 84.386L68.3849 85.395L71.7383 86.6207L71.8445 81.183L71.7914 79.0464L70.1045 79.7712Z" fill="#325D9C"/>
<path d="M67.0829 86.9543L67.5511 94.7598L66.6953 116.701L67.7889 116.681L70.3003 100.934L69.7884 97.7048L70.5366 98.7967L73.5971 116.681L74.8557 116.666L74.1671 96.176L71.6011 96.9778L71.5851 89.1702L67.0829 86.9543Z" fill="#325D9C"/>
<path d="M69.2513 79.0232L65.5735 82.0023L64.2109 95.2565L65.2667 95.5422V96.059L66.9456 96.4407L67.1259 87.6582L67.0888 87.0162L66.2134 86.5764L65.6862 84.4784L66.8765 84.7953L68.8594 80.7636L69.4578 80.0017L69.2513 79.0232Z" fill="#3B82F4"/>
<path d="M64.099 95.249L63.8125 98.5829L64.472 98.7966L65.2907 96.0102L65.2653 95.4889L64.099 95.249Z" fill="#F4B18F"/>
<path d="M71.9477 75.7873H71.9324L71.1493 75.6645C71.1267 75.661 71.106 75.6497 71.0907 75.6326C71.0755 75.6155 71.0666 75.5936 71.0657 75.5707L70.9603 73.0212L67.1328 72.721C67.1134 72.7193 67.095 72.712 67.0798 72.7C67.0645 72.688 67.0531 72.6718 67.047 72.6534L66.1104 69.8131C66.1052 69.7971 66.1041 69.78 66.1072 69.7635C66.1104 69.7469 66.1178 69.7315 66.1286 69.7186C66.1396 69.7057 66.1538 69.6957 66.1697 69.6898C66.1855 69.6838 66.2027 69.6819 66.2195 69.6844L72.8835 70.6949C72.8985 70.6969 72.9129 70.7024 72.9255 70.7108C72.9381 70.7193 72.9486 70.7305 72.9562 70.7436C72.9634 70.7566 72.9676 70.771 72.9686 70.7859C72.9696 70.8007 72.9674 70.8155 72.962 70.8294L72.1077 72.9485L72.0466 75.6936C72.0458 75.7193 72.0351 75.7438 72.0167 75.7619C71.9982 75.7799 71.9735 75.7901 71.9477 75.7902V75.7873ZM71.2598 75.4806L71.851 75.5729L71.9099 72.9231C71.9102 72.9111 71.9127 72.8993 71.9172 72.8882L72.7301 70.8708L66.3504 69.901L67.2156 72.5247L71.065 72.8264C71.0891 72.8285 71.1117 72.8393 71.1284 72.8568C71.1451 72.8744 71.1549 72.8974 71.1559 72.9216L71.2598 75.4806Z" fill="#002E5D"/>
<path d="M68.0607 77.7624C68.0409 77.7625 68.0216 77.7564 68.0054 77.745C67.9932 77.7369 67.9831 77.7261 67.9757 77.7135C67.9682 77.7009 67.9637 77.6868 67.9625 77.6723L67.3997 72.6576C67.3976 72.6444 67.3981 72.6309 67.4014 72.6179C67.4046 72.6049 67.4105 72.5927 67.4186 72.582C67.4267 72.5714 67.4369 72.5624 67.4485 72.5558C67.4602 72.5492 67.4731 72.5451 67.4864 72.5436C67.4997 72.5421 67.5132 72.5433 67.526 72.5472C67.5389 72.5511 67.5508 72.5576 67.561 72.5662C67.5713 72.5748 67.5797 72.5854 67.5857 72.5974C67.5917 72.6094 67.5952 72.6225 67.596 72.6358L68.1479 77.5371L70.338 76.9235V75.4528C70.3401 75.428 70.3515 75.4048 70.3699 75.388C70.3882 75.3711 70.4123 75.3618 70.4372 75.3618C70.4622 75.3618 70.4862 75.3711 70.5046 75.388C70.523 75.4048 70.5343 75.428 70.5365 75.4528V76.9977C70.5365 77.0193 70.5293 77.0403 70.5162 77.0575C70.5031 77.0747 70.4846 77.0872 70.4638 77.0929L68.0897 77.7581C68.0804 77.7612 68.0705 77.7627 68.0607 77.7624Z" fill="#002E5D"/>
<path d="M69.4605 80.1259C69.4379 80.1257 69.416 80.1178 69.3985 80.1035C69.3809 80.0893 69.3687 80.0695 69.3638 80.0474L68.9748 78.2053C68.9694 78.1795 68.9744 78.1527 68.9888 78.1307C69.0032 78.1087 69.0257 78.0933 69.0515 78.0879C69.0772 78.0825 69.1041 78.0875 69.1261 78.1019C69.1481 78.1163 69.1635 78.1388 69.1689 78.1646L69.5325 79.8889L71.7451 78.9591L71.6724 75.6631C71.6721 75.65 71.6744 75.637 71.6791 75.6249C71.6839 75.6127 71.691 75.6016 71.7 75.5923C71.7091 75.5829 71.7199 75.5753 71.7319 75.5702C71.7439 75.565 71.7567 75.5622 71.7698 75.562C71.7956 75.562 71.8205 75.5721 71.839 75.5902C71.8574 75.6083 71.8681 75.6329 71.8687 75.6587L71.9414 79.0217C71.9417 79.0415 71.9362 79.061 71.9254 79.0777C71.9147 79.0944 71.8992 79.1075 71.881 79.1154L69.4961 80.1179C69.4848 80.1227 69.4727 80.1254 69.4605 80.1259Z" fill="#002E5D"/>
<path d="M64.0719 92.134H64.0632C64.037 92.1318 64.0129 92.1193 63.996 92.0992C63.9791 92.0792 63.9708 92.0532 63.973 92.0271L64.8375 81.5638C64.8392 81.5492 64.844 81.5351 64.8516 81.5225C64.8593 81.51 64.8696 81.4992 64.8819 81.4911L69.137 78.6734C69.1589 78.6589 69.1856 78.6537 69.2113 78.659C69.237 78.6642 69.2596 78.6795 69.274 78.7014C69.2885 78.7232 69.2937 78.75 69.2884 78.7757C69.2832 78.8014 69.2679 78.8239 69.246 78.8384L65.0288 81.6292L64.1679 92.0446C64.1656 92.0686 64.1545 92.091 64.1369 92.1075C64.1192 92.1239 64.0961 92.1334 64.0719 92.134Z" fill="#002E5D"/>
<path d="M66.9442 96.5394C66.9368 96.5405 66.9292 96.5405 66.9217 96.5394L65.2334 96.1555C65.2111 96.1507 65.1913 96.1382 65.1772 96.1203C65.1631 96.1024 65.1557 96.0802 65.1563 96.0574L65.3097 88.2446C65.3103 88.2188 65.3209 88.1942 65.3394 88.1761C65.3579 88.1581 65.3827 88.1479 65.4086 88.148C65.4215 88.1481 65.4343 88.1509 65.4462 88.156C65.4581 88.1612 65.4688 88.1687 65.4778 88.178C65.4868 88.1873 65.4939 88.1983 65.4986 88.2104C65.5033 88.2224 65.5056 88.2353 65.5053 88.2483L65.3533 95.9803L66.8446 96.3198L66.9806 87.6929C66.9815 87.6666 66.9926 87.6418 67.0114 87.6235C67.0302 87.6052 67.0554 87.5949 67.0817 87.5947C67.1079 87.5955 67.1328 87.6065 67.151 87.6254C67.1692 87.6443 67.1793 87.6695 67.1791 87.6958L67.041 96.4449C67.0406 96.4708 67.03 96.4956 67.0115 96.5139C66.993 96.5321 66.968 96.5423 66.9421 96.5423L66.9442 96.5394Z" fill="#002E5D"/>
<path d="M65.2797 95.6387C65.1753 95.6232 65.0724 95.5989 64.9721 95.566L63.5303 95.1756C63.5049 95.1687 63.4833 95.1521 63.4702 95.1293C63.4571 95.1066 63.4536 95.0795 63.4605 95.0542C63.4673 95.0288 63.4839 95.0072 63.5067 94.9941C63.5295 94.981 63.5565 94.9775 63.5819 94.9844L65.2891 95.4467L65.2644 95.542L65.3255 95.6212C65.3194 95.6271 65.3122 95.6316 65.3044 95.6346C65.2965 95.6376 65.2881 95.639 65.2797 95.6387Z" fill="#002E5D"/>
<path d="M63.1151 96.5024C63.0957 96.5025 63.0768 96.4969 63.0606 96.4864C63.0444 96.4758 63.0316 96.4608 63.0239 96.4431C63.0162 96.4253 63.0138 96.4058 63.0171 96.3867C63.0203 96.3677 63.0291 96.35 63.0424 96.3359L64.1098 95.1829C64.1276 95.1636 64.1524 95.1522 64.1786 95.1512C64.2049 95.1502 64.2304 95.1596 64.2497 95.1775C64.269 95.1953 64.2804 95.22 64.2814 95.2463C64.2825 95.2725 64.273 95.2981 64.2552 95.3174L63.1878 96.4704C63.1785 96.4804 63.1673 96.4884 63.1548 96.4939C63.1422 96.4994 63.1287 96.5023 63.1151 96.5024Z" fill="#002E5D"/>
<path d="M64.4712 98.8955C64.4608 98.8952 64.4505 98.8935 64.4406 98.8904L63.443 98.5684C63.4236 98.562 63.4067 98.5497 63.3944 98.5334C63.3822 98.517 63.3753 98.4972 63.3747 98.4768L63.3282 96.9036C63.3278 96.8906 63.33 96.8776 63.3346 96.8654C63.3393 96.8532 63.3463 96.8421 63.3553 96.8326C63.3643 96.8231 63.3751 96.8155 63.387 96.8103C63.399 96.805 63.4118 96.8021 63.4249 96.8018C63.4506 96.8018 63.4753 96.8119 63.4938 96.8298C63.5123 96.8477 63.523 96.8721 63.5238 96.8978L63.5674 98.4012L64.4014 98.6709L65.1561 96.0291C65.1597 96.0166 65.1657 96.0049 65.1738 95.9947C65.1819 95.9845 65.1919 95.976 65.2033 95.9697C65.2147 95.9634 65.2272 95.9594 65.2401 95.9579C65.253 95.9564 65.2661 95.9575 65.2786 95.9611C65.2912 95.9647 65.3028 95.9707 65.313 95.9788C65.3232 95.9869 65.3317 95.9969 65.338 96.0083C65.3443 96.0196 65.3483 96.0321 65.3498 96.0451C65.3513 96.058 65.3502 96.0711 65.3466 96.0836L64.5635 98.8236C64.5598 98.8363 64.5536 98.8483 64.5452 98.8586C64.5369 98.869 64.5265 98.8776 64.5148 98.8839C64.5013 98.8909 64.4864 98.8949 64.4712 98.8955Z" fill="#002E5D"/>
<path d="M74.9669 90.7956C74.7652 90.7953 74.5663 90.7491 74.3852 90.6604L66.1252 86.6446C66.1119 86.6381 66.1002 86.6287 66.0911 86.6172C66.0819 86.6056 66.0754 86.5921 66.0721 86.5777L65.5886 84.5109C65.5847 84.4944 65.5851 84.4771 65.5898 84.4608C65.5946 84.4444 65.6034 84.4296 65.6155 84.4177C65.6277 84.4058 65.6427 84.3972 65.6591 84.3927C65.6755 84.3883 65.6928 84.3882 65.7093 84.3924L67.2362 84.7864C67.2617 84.793 67.2835 84.8094 67.2968 84.832C67.3102 84.8547 67.314 84.8817 67.3075 84.9071C67.3009 84.9326 67.2845 84.9544 67.2619 84.9677C67.2392 84.9811 67.2122 84.9849 67.1868 84.9784L65.8176 84.625L66.2539 86.4868L74.4703 90.4852C74.6339 90.5645 74.8143 90.6031 74.9961 90.5975C75.1779 90.5919 75.3556 90.5424 75.514 90.4531C75.6725 90.3639 75.8069 90.2376 75.9059 90.085C76.0049 89.9325 76.0654 89.7582 76.0823 89.5772L76.8145 81.6372L72.5689 79.0499C72.5578 79.0431 72.5482 79.0342 72.5405 79.0237C72.5329 79.0132 72.5274 79.0013 72.5243 78.9887C72.5213 78.9761 72.5208 78.963 72.5228 78.9502C72.5248 78.9373 72.5294 78.925 72.5361 78.914C72.5429 78.9029 72.5518 78.8932 72.5623 78.8856C72.5728 78.878 72.5847 78.8725 72.5974 78.8694C72.61 78.8664 72.6231 78.8659 72.6359 78.8679C72.6487 78.8699 72.661 78.8745 72.6721 78.8812L76.9708 81.4983C76.9866 81.5081 76.9993 81.522 77.0075 81.5386C77.0157 81.5551 77.0191 81.5737 77.0173 81.5921L76.283 89.5961C76.2644 89.8093 76.1939 90.0147 76.0775 90.1942C75.9611 90.3738 75.8025 90.5222 75.6155 90.6262C75.4175 90.7375 75.1941 90.7959 74.9669 90.7956Z" fill="#002E5D"/>
<path d="M73.9148 87.5142C73.9034 87.514 73.8922 87.512 73.8814 87.5083L68.3553 85.4874C68.3349 85.4801 68.3175 85.4663 68.3059 85.4481L67.4922 84.1839C67.4781 84.1618 67.4732 84.135 67.4788 84.1094C67.4844 84.0838 67.5 84.0614 67.5221 84.0472C67.5441 84.0331 67.5709 84.0282 67.5966 84.0338C67.6222 84.0394 67.6446 84.055 67.6587 84.077L68.4542 85.3129L73.8283 87.2757L74.0937 84.1199C74.0946 84.1069 74.0981 84.0942 74.104 84.0826C74.1099 84.071 74.1181 84.0607 74.1281 84.0523C74.138 84.0438 74.1496 84.0375 74.162 84.0337C74.1745 84.0298 74.1876 84.0285 74.2006 84.0298C74.2267 84.032 74.2509 84.0445 74.2678 84.0645C74.2847 84.0846 74.293 84.1105 74.2907 84.1366L74.0144 87.4211C74.0127 87.4358 74.0078 87.4499 74 87.4625C73.9922 87.4751 73.9818 87.4857 73.9694 87.4938C73.9537 87.506 73.9347 87.5131 73.9148 87.5142Z" fill="#002E5D"/>
<path d="M69.1931 87.3912C69.1824 87.3913 69.1719 87.3896 69.1618 87.3861C69.1369 87.3778 69.1163 87.36 69.1045 87.3366C69.0926 87.3132 69.0905 87.286 69.0986 87.2611L69.5683 85.8297C69.5765 85.8047 69.5943 85.784 69.6177 85.7721C69.6412 85.7603 69.6684 85.7582 69.6933 85.7664C69.7183 85.7746 69.739 85.7924 69.7509 85.8158C69.7627 85.8393 69.7648 85.8665 69.7566 85.8915L69.2891 87.3229C69.2825 87.343 69.2696 87.3606 69.2524 87.3729C69.2351 87.3852 69.2143 87.3916 69.1931 87.3912Z" fill="#002E5D"/>
<path d="M71.7413 86.7196C71.7283 86.7193 71.7155 86.7165 71.7036 86.7112C71.6917 86.706 71.6809 86.6985 71.672 86.6891C71.663 86.6797 71.6559 86.6687 71.6512 86.6566C71.6465 86.6444 71.6443 86.6315 71.6446 86.6186L71.7507 81.1299C71.7513 81.1037 71.7623 81.0788 71.7812 81.0606C71.8002 81.0425 71.8256 81.0326 71.8518 81.0332C71.878 81.0338 71.9029 81.0448 71.9211 81.0637C71.9392 81.0827 71.9491 81.1081 71.9485 81.1343L71.8423 86.6222C71.8421 86.6352 71.8394 86.6481 71.8342 86.6601C71.829 86.6721 71.8215 86.6829 71.8121 86.6919C71.8027 86.701 71.7916 86.7081 71.7794 86.7128C71.7673 86.7176 71.7543 86.7199 71.7413 86.7196Z" fill="#002E5D"/>
<path d="M71.5833 97.0921C71.5623 97.0922 71.542 97.0856 71.5251 97.0732C71.5126 97.0639 71.5024 97.0519 71.4953 97.038C71.4882 97.0241 71.4845 97.0088 71.4844 96.9932V89.1877C71.4844 89.1615 71.4948 89.1364 71.5133 89.1178C71.5319 89.0993 71.557 89.0889 71.5833 89.0889C71.6095 89.0889 71.6346 89.0993 71.6532 89.1178C71.6717 89.1364 71.6821 89.1615 71.6821 89.1877V96.858L75.874 95.5313L75.4261 90.5668C75.4259 90.5418 75.4352 90.5177 75.452 90.4992C75.4689 90.4808 75.492 90.4693 75.5169 90.4671C75.5418 90.4649 75.5666 90.4721 75.5864 90.4874C75.6062 90.5026 75.6196 90.5247 75.6238 90.5494L76.0783 95.5924C76.0805 95.6148 76.0749 95.6373 76.0624 95.6561C76.05 95.6749 76.0314 95.6888 76.0099 95.6956L71.6145 97.0841C71.6047 97.0888 71.5941 97.0915 71.5833 97.0921Z" fill="#002E5D"/>
<path d="M71.5862 94.8203H67.9739C67.9477 94.8203 67.9225 94.8099 67.904 94.7913C67.8854 94.7728 67.875 94.7476 67.875 94.7214C67.875 94.6952 67.8854 94.6701 67.904 94.6515C67.9225 94.633 67.9477 94.6226 67.9739 94.6226H71.5862C71.6124 94.6226 71.6376 94.633 71.6561 94.6515C71.6747 94.6701 71.6851 94.6952 71.6851 94.7214C71.6851 94.7476 71.6747 94.7728 71.6561 94.7913C71.6376 94.8099 71.6124 94.8203 71.5862 94.8203Z" fill="#002E5D"/>
<path d="M74.8551 116.78H72.7879C72.7643 116.78 72.7414 116.771 72.7234 116.756C72.7055 116.741 72.6935 116.719 72.6897 116.696L69.6809 97.6655C69.6768 97.6396 69.6831 97.6131 69.6985 97.5918C69.7139 97.5705 69.7372 97.5563 69.7631 97.5521C69.789 97.548 69.8156 97.5543 69.8368 97.5697C69.8581 97.5851 69.8724 97.6083 69.8765 97.6343L72.8722 116.584H74.7525L74.0676 96.181C74.0672 96.1681 74.0693 96.1551 74.0739 96.143C74.0784 96.1308 74.0854 96.1197 74.0942 96.1102C74.1031 96.1007 74.1138 96.0931 74.1256 96.0877C74.1375 96.0823 74.1502 96.0793 74.1632 96.0789C74.1762 96.0785 74.1891 96.0806 74.2013 96.0852C74.2135 96.0898 74.2246 96.0967 74.2341 96.1056C74.2436 96.1144 74.2512 96.1251 74.2566 96.1369C74.262 96.1488 74.2649 96.1615 74.2654 96.1745L74.9539 116.679C74.9548 116.693 74.9527 116.706 74.948 116.719C74.9432 116.731 74.9358 116.743 74.9263 116.752C74.9169 116.761 74.9057 116.768 74.8935 116.773C74.8812 116.778 74.8682 116.78 74.8551 116.78Z" fill="#002E5D"/>
<path d="M67.7718 116.78H65.9293C65.9157 116.78 65.9023 116.778 65.8898 116.772C65.8773 116.767 65.866 116.76 65.8565 116.75C65.8471 116.74 65.8398 116.729 65.8349 116.716C65.83 116.704 65.8277 116.691 65.8282 116.677L66.3197 97.2969C66.3203 97.271 66.331 97.2465 66.3494 97.2284C66.3679 97.2103 66.3927 97.2002 66.4186 97.2002C66.4316 97.2005 66.4444 97.2033 66.4563 97.2086C66.4682 97.2138 66.4789 97.2213 66.4879 97.2307C66.4969 97.2401 66.5039 97.2511 66.5086 97.2632C66.5133 97.2753 66.5156 97.2883 66.5153 97.3012L66.0267 116.581H67.6881L70.201 100.924C70.2052 100.899 70.2195 100.875 70.2407 100.86C70.262 100.845 70.2885 100.838 70.3145 100.842C70.3404 100.846 70.3636 100.861 70.379 100.882C70.3944 100.903 70.4008 100.93 70.3966 100.956L67.8699 116.695C67.8664 116.719 67.8546 116.74 67.8366 116.756C67.8185 116.771 67.7955 116.78 67.7718 116.78Z" fill="#002E5D"/>
<path d="M68.0541 118.632H64.2942C64.2812 118.632 64.2682 118.629 64.2562 118.624C64.2441 118.619 64.2332 118.612 64.224 118.603C64.2148 118.594 64.2076 118.583 64.2026 118.571C64.1977 118.558 64.1952 118.546 64.1953 118.532V118.032C64.1953 118.008 64.2033 117.986 64.2181 117.968C64.2328 117.951 64.2533 117.938 64.276 117.934L65.5514 117.696L65.9687 116.969C65.9752 116.958 65.9839 116.948 65.9942 116.94C66.0045 116.933 66.0163 116.927 66.0288 116.923C66.0414 116.92 66.0545 116.919 66.0674 116.921C66.0803 116.922 66.0927 116.927 66.104 116.933C66.1153 116.94 66.1251 116.948 66.1331 116.959C66.141 116.969 66.1468 116.981 66.1502 116.993C66.1536 117.006 66.1544 117.019 66.1527 117.032C66.151 117.045 66.1468 117.057 66.1403 117.068L65.7041 117.836C65.6968 117.848 65.687 117.859 65.6753 117.867C65.6637 117.875 65.6504 117.881 65.6365 117.884L64.3967 118.114V118.434H67.9167L67.4586 117.053C67.4542 117.041 67.4524 117.028 67.4531 117.014C67.4539 117.001 67.4572 116.989 67.463 116.977C67.4688 116.965 67.4768 116.954 67.4867 116.946C67.4966 116.937 67.5081 116.931 67.5206 116.926C67.533 116.922 67.5462 116.921 67.5593 116.922C67.5724 116.923 67.5852 116.926 67.5968 116.932C67.6085 116.938 67.6189 116.946 67.6274 116.956C67.6359 116.966 67.6423 116.978 67.6462 116.991L68.1479 118.506C68.1529 118.52 68.1543 118.536 68.1519 118.552C68.1495 118.567 68.1434 118.582 68.1341 118.594C68.1246 118.606 68.1124 118.616 68.0986 118.623C68.0847 118.629 68.0695 118.632 68.0541 118.632Z" fill="#002E5D"/>
<path d="M65.2809 117.848L64.8715 118.532H64.2578V118.042L65.2809 117.848Z" fill="#002E5D"/>
<path d="M67.6271 117.26L67.1836 118.532H68.0823L67.6271 117.26Z" fill="#002E5D"/>
<path d="M75.0661 118.632H71.3098C71.2968 118.632 71.2839 118.629 71.2718 118.624C71.2598 118.619 71.2488 118.612 71.2396 118.603C71.2305 118.594 71.2232 118.583 71.2183 118.571C71.2133 118.558 71.2108 118.546 71.2109 118.532V118.032C71.2109 118.008 71.2189 117.986 71.2337 117.968C71.2484 117.951 71.2689 117.938 71.2917 117.934L72.567 117.696L72.9844 116.969C72.9909 116.958 72.9995 116.948 73.0098 116.94C73.0201 116.933 73.0319 116.927 73.0445 116.923C73.057 116.92 73.0701 116.919 73.083 116.921C73.0959 116.922 73.1083 116.927 73.1196 116.933C73.1309 116.94 73.1408 116.948 73.1487 116.959C73.1566 116.969 73.1624 116.981 73.1658 116.993C73.1692 117.006 73.17 117.019 73.1684 117.032C73.1667 117.045 73.1625 117.057 73.156 117.068L72.7197 117.836C72.7124 117.848 72.7026 117.859 72.691 117.867C72.6793 117.875 72.6661 117.881 72.6521 117.884L71.4124 118.114V118.434H74.9323L74.4742 117.053C74.4698 117.041 74.468 117.028 74.4687 117.014C74.4695 117.001 74.4728 116.989 74.4786 116.977C74.4844 116.965 74.4924 116.954 74.5023 116.946C74.5122 116.937 74.5237 116.931 74.5362 116.926C74.5486 116.922 74.5618 116.921 74.5749 116.922C74.588 116.923 74.6008 116.926 74.6125 116.932C74.6242 116.938 74.6346 116.946 74.643 116.956C74.6515 116.966 74.6579 116.978 74.6618 116.991L75.1635 118.506C75.1686 118.52 75.1699 118.536 75.1675 118.552C75.1651 118.567 75.159 118.582 75.1497 118.594C75.1399 118.607 75.1271 118.617 75.1126 118.623C75.098 118.63 75.082 118.633 75.0661 118.632Z" fill="#002E5D"/>
<path d="M72.2965 117.848L71.8871 118.532H71.2734V118.042L72.2965 117.848Z" fill="#002E5D"/>
<path d="M74.6428 117.26L74.1992 118.532H75.0979L74.6428 117.26Z" fill="#002E5D"/>
<path d="M67.4936 83.5232C67.478 83.5231 67.4625 83.5194 67.4486 83.5123C67.4369 83.5064 67.4266 83.4983 67.4181 83.4885C67.4097 83.4786 67.4033 83.4671 67.3993 83.4547C67.3953 83.4424 67.3938 83.4293 67.3949 83.4164C67.396 83.4034 67.3996 83.3908 67.4057 83.3793L68.769 80.7185C68.7747 80.7067 68.7828 80.696 68.7927 80.6873C68.8025 80.6786 68.8141 80.6719 68.8266 80.6677C68.8391 80.6635 68.8523 80.6619 68.8655 80.6629C68.8786 80.6639 68.8914 80.6675 68.9032 80.6735C68.9149 80.6795 68.9253 80.6878 68.9338 80.6979C68.9423 80.708 68.9487 80.7197 68.9526 80.7323C68.9564 80.7449 68.9578 80.7581 68.9565 80.7713C68.9552 80.7844 68.9513 80.7971 68.945 80.8087L67.5816 83.4694C67.5733 83.4856 67.5607 83.4992 67.5452 83.5087C67.5297 83.5182 67.5118 83.5232 67.4936 83.5232Z" fill="#002E5D"/>
<path d="M53.0268 71.717L46.4893 75.2996L48.0163 81.3378L44.0898 84.6819L46.6013 86.1998L44.7835 93.5945C44.7835 93.5945 44.5087 94.6806 44.6846 96.1644C44.8606 97.6481 45.3914 99.5513 45.3914 99.5513L45.776 101.388L46.0996 103.303L46.2203 104.167L46.9743 116.33H47.0208L46.8805 118.79H47.5836L47.5909 117.164H47.7225L47.8636 118.79H49.248L49.2531 117.191H49.3905L49.5461 118.79H50.86L50.8789 118.063L49.9773 116.536V116.318L51.3115 103.892L52.3069 94.5301L51.9434 89.6536L59.0116 89.8717H59.2727L61.4955 89.8644L61.4882 89.4777L59.9663 88.9026L60.1714 88.5108L59.9205 88.316L59.2843 88.9048H58.6641L52.4764 88.1422L52.2837 87.621L56.0538 83.8291L57.6643 82.65L57.1801 81.4984L56.0058 82.3265L55.8807 81.6802L55.5462 81.7427L55.5055 83.116L51.5987 85.781L50.4048 82.5664L50.2383 82.4937L50.7807 80.1419L52.0168 80.4458L52.7338 75.6856L53.9182 75.0989L53.0268 71.717Z" fill="white"/>
<path d="M53.029 71.717L53.5438 73.6704L48.5718 76.7281L48.9579 81.851L46.0043 85.837L44.0898 84.6804L48.0184 81.3378L46.4915 75.2996L53.029 71.717Z" fill="#325D9C"/>
<path d="M52.7358 75.6877L52.0188 80.448L50.4948 80.0837L50.1523 76.9629L52.7358 75.6877Z" fill="#F4B18F"/>
<path d="M49.517 82.2036L50.4048 82.5685L51.6794 86.0035L49.818 87.0322L48.4023 84.1795L49.517 82.2036Z" fill="#F70431"/>
<path d="M49.8203 87.0321L51.031 88.8146L61.4934 89.7197V89.4776L59.9715 88.9026L60.1766 88.5107L59.9257 88.3159L59.2895 88.904H58.6685L52.4786 88.1385L51.6817 86.0034L49.8203 87.0321Z" fill="#F4B18F"/>
<path d="M51.8242 86.4273L55.8466 83.459L57.3503 81.9026L57.6644 82.6499L56.0538 83.8291L52.2939 87.6428L51.8242 86.4273Z" fill="#F4B18F"/>
<path d="M48.0958 85.8538L46.2307 94.4611C46.1574 94.8493 46.1354 95.2455 46.1653 95.6395L47.0226 103.886H49.0418L49.5049 96.0932L49.955 97.2563L50.1731 103.89H51.3154L52.3109 94.5244L51.9473 89.6478L50.4102 89.5926L48.0958 85.8538Z" fill="#F70431"/>
<path d="M47.1953 103.886L47.6003 116.328H48.2969L49.0422 103.886H47.1953Z" fill="#F4B18F"/>
<path d="M49.8909 103.892L49.1914 116.337L49.9803 116.315L51.3146 103.892H49.8909Z" fill="#F4B18F"/>
<path d="M47.0994 86.5728C47.086 86.5727 47.0729 86.5689 47.0616 86.5618L44.0477 84.74C44.0375 84.7341 44.029 84.7257 44.0228 84.7157C44.0166 84.7057 44.0129 84.6944 44.0121 84.6826C44.0109 84.6709 44.0127 84.6591 44.0171 84.6482C44.0215 84.6373 44.0285 84.6277 44.0375 84.6201L47.9385 81.3218L46.4203 75.3178C46.4161 75.3019 46.4174 75.285 46.424 75.27C46.4306 75.2549 46.4421 75.2426 46.4566 75.2349L52.9941 71.6517C53.0043 71.6468 53.0155 71.6443 53.0268 71.6443C53.0381 71.6443 53.0493 71.6468 53.0595 71.6517C53.0699 71.6561 53.0791 71.6628 53.0864 71.6714C53.0938 71.68 53.099 71.6901 53.1017 71.7011L53.9866 75.0888C53.9913 75.1054 53.99 75.1232 53.9828 75.1389C53.9756 75.1546 53.963 75.1673 53.9473 75.1746L49.5374 77.3555L49.7453 81.9543C49.7459 81.9682 49.7426 81.9821 49.7359 81.9943L47.1641 86.5364C47.1592 86.545 47.1527 86.5526 47.1448 86.5586C47.1369 86.5646 47.1279 86.5689 47.1183 86.5713C47.1121 86.5729 47.1057 86.5734 47.0994 86.5728ZM44.2127 84.6666L47.0725 86.3975L49.5963 81.9405L49.3869 77.3104C49.3855 77.2955 49.3887 77.2805 49.3961 77.2675C49.4035 77.2545 49.4148 77.2441 49.4283 77.2377L53.8274 75.0612L52.9824 71.8232L46.578 75.333L48.0933 81.3262C48.0965 81.3393 48.0959 81.3531 48.0917 81.366C48.0874 81.3788 48.0797 81.3902 48.0693 81.3989L44.2127 84.6666Z" fill="#002E5D"/>
<path d="M52.0253 80.5236H52.0078L50.1748 80.0874C50.1555 80.0829 50.1388 80.0709 50.1284 80.0541C50.118 80.0372 50.1146 80.0169 50.1192 79.9977C50.1237 79.9784 50.1357 79.9617 50.1526 79.9512C50.1694 79.9408 50.1897 79.9375 50.209 79.942L51.9635 80.3622L52.663 75.6805C52.6644 75.671 52.6677 75.6618 52.6727 75.6535C52.6777 75.6453 52.6842 75.6381 52.692 75.6323C52.6997 75.6266 52.7086 75.6224 52.7179 75.6201C52.7273 75.6178 52.737 75.6173 52.7466 75.6187C52.7561 75.6202 52.7653 75.6235 52.7736 75.6284C52.7819 75.6334 52.7891 75.64 52.7948 75.6477C52.8006 75.6555 52.8047 75.6643 52.807 75.6737C52.8094 75.6831 52.8098 75.6928 52.8084 75.7023L52.0966 80.464C52.0951 80.4741 52.0916 80.4838 52.0863 80.4924C52.0809 80.501 52.0737 80.5085 52.0653 80.5142C52.0531 80.5211 52.0393 80.5244 52.0253 80.5236Z" fill="#002E5D"/>
<path d="M59.0053 88.979H58.6512L52.4664 88.215C52.4528 88.2134 52.44 88.2081 52.4293 88.1996C52.4187 88.1911 52.4106 88.1798 52.406 88.167L50.3476 82.6173L49.8386 82.4043C49.8296 82.4006 49.8215 82.3951 49.8146 82.3882C49.8077 82.3814 49.8023 82.3732 49.7986 82.3642C49.7949 82.3552 49.793 82.3456 49.793 82.3359C49.793 82.3262 49.7949 82.3166 49.7986 82.3076C49.8023 82.2986 49.8078 82.2905 49.8147 82.2836C49.8216 82.2767 49.8297 82.2713 49.8387 82.2676C49.8477 82.2639 49.8573 82.262 49.867 82.262C49.8767 82.262 49.8863 82.2639 49.8953 82.2676L50.4356 82.4922C50.445 82.4961 50.4535 82.502 50.4605 82.5094C50.4675 82.5168 50.4729 82.5255 50.4763 82.5351L52.5289 88.0696L58.665 88.8278H59.0053C59.0246 88.8278 59.0431 88.8355 59.0567 88.8491C59.0704 88.8627 59.078 88.8812 59.078 88.9005C59.078 88.9198 59.0704 88.9383 59.0567 88.9519C59.0431 88.9655 59.0246 88.9732 59.0053 88.9732V88.979Z" fill="#002E5D"/>
<path d="M59.0042 89.9458L50.4046 89.6754C50.3925 89.6751 50.3806 89.6717 50.37 89.6656C50.3595 89.6595 50.3506 89.6509 50.3443 89.6405L48.035 85.8922C48.0297 85.884 48.0261 85.8748 48.0245 85.8652C48.0228 85.8556 48.0231 85.8457 48.0254 85.8362C48.0276 85.8267 48.0317 85.8178 48.0375 85.8099C48.0433 85.8021 48.0506 85.7954 48.059 85.7904C48.0672 85.7851 48.0765 85.7814 48.0862 85.7797C48.0958 85.778 48.1058 85.7782 48.1154 85.7805C48.125 85.7827 48.134 85.7869 48.1419 85.7927C48.1498 85.7986 48.1565 85.8059 48.1615 85.8144L50.449 89.5285L59.0086 89.7975C59.0278 89.7975 59.0463 89.8052 59.06 89.8188C59.0736 89.8324 59.0813 89.8509 59.0813 89.8702C59.0813 89.8895 59.0736 89.908 59.06 89.9216C59.0463 89.9352 59.0278 89.9429 59.0086 89.9429L59.0042 89.9458Z" fill="#002E5D"/>
<path d="M61.5004 89.946H59.2893C59.27 89.946 59.2515 89.9383 59.2379 89.9247C59.2242 89.911 59.2166 89.8925 59.2166 89.8733C59.2166 89.854 59.2242 89.8355 59.2379 89.8219C59.2515 89.8082 59.27 89.8006 59.2893 89.8006H61.4263V89.5432L59.9371 88.9769C59.9272 88.9731 59.9182 88.9672 59.9108 88.9595C59.9033 88.9518 59.8977 88.9426 59.8942 88.9326C59.8906 88.9226 59.8892 88.912 59.89 88.9015C59.8909 88.8909 59.8941 88.8807 59.8993 88.8715L60.0855 88.5364L59.9299 88.4128L59.3395 88.9616C59.3251 88.975 59.306 88.9822 59.2864 88.9815C59.2667 88.9808 59.2482 88.9724 59.2348 88.958C59.2214 88.9436 59.2142 88.9245 59.2149 88.9049C59.2156 88.8853 59.224 88.8667 59.2384 88.8533L59.8761 88.2608C59.8894 88.249 59.9066 88.2424 59.9244 88.2424C59.9423 88.2424 59.9595 88.249 59.9728 88.2608L60.2273 88.4629C60.2414 88.4737 60.2511 88.4892 60.2546 88.5066C60.2581 88.524 60.2551 88.5421 60.2462 88.5574L60.0702 88.8722L61.5244 89.4262C61.5392 89.4315 61.5519 89.4414 61.5605 89.4545C61.5692 89.4676 61.5733 89.4832 61.5724 89.4989V89.8813C61.5705 89.899 61.562 89.9154 61.5488 89.9273C61.5355 89.9393 61.5183 89.9459 61.5004 89.946Z" fill="#002E5D"/>
<path d="M52.2886 87.717C52.2737 87.7177 52.2588 87.7138 52.2462 87.7058C52.2335 87.6978 52.2236 87.686 52.2179 87.6722C52.2122 87.6583 52.2109 87.6431 52.2142 87.6284C52.2174 87.6138 52.2252 87.6006 52.2363 87.5905L56.0078 83.7703L56.0173 83.7623L57.5675 82.6275L57.1523 81.6097L56.0478 82.3992C56.0378 82.4069 56.0259 82.4119 56.0134 82.4137C56.0009 82.4154 55.9881 82.4139 55.9763 82.4092C55.9646 82.4045 55.9543 82.3968 55.9464 82.3869C55.9385 82.377 55.9334 82.3652 55.9315 82.3527L55.8217 81.7631L55.6181 81.8038V83.1036C55.6181 83.1157 55.6152 83.1276 55.6095 83.1383C55.6038 83.149 55.5955 83.1581 55.5854 83.1647L51.8851 85.6837C51.877 85.6891 51.868 85.6929 51.8584 85.6948C51.8489 85.6968 51.8391 85.6968 51.8295 85.695C51.82 85.6931 51.8109 85.6894 51.8027 85.684C51.7946 85.6786 51.7876 85.6717 51.7822 85.6637C51.7768 85.6556 51.773 85.6465 51.771 85.637C51.7691 85.6275 51.769 85.6176 51.7709 85.6081C51.7728 85.5985 51.7765 85.5894 51.7818 85.5813C51.7872 85.5732 51.7941 85.5662 51.8022 85.5608L55.469 83.0644V81.7449C55.4687 81.7277 55.4746 81.711 55.4855 81.6976C55.4964 81.6843 55.5117 81.6753 55.5287 81.6722L55.866 81.6053C55.8757 81.6031 55.8857 81.6029 55.8955 81.6047C55.9052 81.6065 55.9145 81.6103 55.9227 81.6158C55.931 81.6213 55.938 81.6284 55.9434 81.6368C55.9488 81.6451 55.9524 81.6545 55.954 81.6642L56.0565 82.2131L57.1457 81.4345C57.155 81.4281 57.1655 81.4239 57.1765 81.422C57.1876 81.4201 57.1989 81.4207 57.2097 81.4236C57.2206 81.4267 57.2305 81.4322 57.2389 81.4398C57.2472 81.4473 57.2536 81.4567 57.2577 81.4672L57.7303 82.6253C57.7368 82.6406 57.7379 82.6578 57.7332 82.6738C57.7286 82.6898 57.7186 82.7037 57.7049 82.7132L56.1132 83.8764L52.3454 87.693C52.3382 87.7009 52.3295 87.7072 52.3197 87.7113C52.3099 87.7154 52.2993 87.7174 52.2886 87.717Z" fill="#002E5D"/>
<path d="M50.2506 82.5737H50.2339C50.2243 82.5717 50.2152 82.5678 50.2071 82.5623C50.1991 82.5567 50.1922 82.5496 50.187 82.5413C50.1818 82.533 50.1783 82.5237 50.1767 82.5141C50.1751 82.5044 50.1756 82.4945 50.1779 82.485L50.5327 80.8958C50.5348 80.8863 50.5388 80.8773 50.5444 80.8692C50.55 80.8612 50.5571 80.8544 50.5654 80.8491C50.5736 80.8439 50.5828 80.8403 50.5924 80.8386C50.602 80.8368 50.6119 80.837 50.6215 80.8391C50.631 80.8412 50.64 80.8452 50.6481 80.8508C50.6561 80.8564 50.6629 80.8635 50.6682 80.8717C50.6734 80.88 50.677 80.8892 50.6788 80.8988C50.6805 80.9084 50.6803 80.9183 50.6782 80.9278L50.3233 82.517C50.3196 82.5334 50.3104 82.548 50.2971 82.5583C50.2839 82.5687 50.2674 82.5741 50.2506 82.5737Z" fill="#002E5D"/>
<path d="M48.3006 116.402H46.9737C46.9544 116.402 46.9359 116.394 46.9222 116.38C46.9086 116.367 46.9009 116.348 46.9009 116.329L46.1477 104.175C46.1477 104.149 45.7797 101.183 45.0257 98.3881C44.2652 95.5689 44.6622 93.7821 44.6622 93.7646L46.5294 86.1794C46.5317 86.1698 46.5358 86.1608 46.5416 86.1529C46.5474 86.145 46.5546 86.1382 46.563 86.1331C46.5714 86.128 46.5807 86.1245 46.5904 86.123C46.6001 86.1215 46.61 86.1218 46.6195 86.1241C46.6291 86.1264 46.6381 86.1306 46.646 86.1363C46.654 86.1421 46.6607 86.1494 46.6659 86.1578C46.671 86.1661 46.6744 86.1754 46.676 86.1851C46.6775 86.1948 46.6771 86.2047 46.6748 86.2143L44.8069 93.7988C44.8032 93.8155 44.4164 95.5697 45.1668 98.3496C45.9237 101.155 46.2894 104.132 46.2931 104.161L47.0427 116.251H48.2308L49.4298 96.0858C49.431 96.0666 49.4398 96.0485 49.4542 96.0357C49.4614 96.0294 49.4697 96.0245 49.4788 96.0214C49.4878 96.0182 49.4974 96.0169 49.5069 96.0175C49.5165 96.0181 49.5258 96.0205 49.5344 96.0247C49.543 96.0289 49.5507 96.0347 49.557 96.0419C49.5634 96.049 49.5683 96.0574 49.5714 96.0664C49.5745 96.0754 49.5758 96.085 49.5753 96.0946L48.3719 116.329C48.3719 116.348 48.3644 116.366 48.3511 116.38C48.3378 116.394 48.3197 116.401 48.3006 116.402Z" fill="#002E5D"/>
<path d="M49.988 116.402H48.8188C48.7995 116.402 48.781 116.394 48.7674 116.38C48.7538 116.367 48.7461 116.348 48.7461 116.329C48.7461 116.31 48.7538 116.291 48.7674 116.278C48.781 116.264 48.7995 116.256 48.8188 116.256H49.9211L52.2341 94.5352L51.8705 89.6587C51.8698 89.6491 51.871 89.6395 51.8739 89.6304C51.8769 89.6213 51.8817 89.6129 51.8879 89.6057C51.8942 89.5984 51.9018 89.5925 51.9103 89.5881C51.9189 89.5838 51.9282 89.5812 51.9378 89.5805C51.9473 89.5798 51.9569 89.581 51.966 89.584C51.9751 89.587 51.9835 89.5917 51.9908 89.598C51.998 89.6042 52.004 89.6118 52.0083 89.6204C52.0126 89.6289 52.0152 89.6382 52.0159 89.6478L52.3795 94.5308C52.3798 94.5354 52.3798 94.5401 52.3795 94.5446L50.0593 116.339C50.057 116.356 50.0485 116.372 50.0354 116.383C50.0223 116.395 50.0055 116.402 49.988 116.402Z" fill="#002E5D"/>
<path d="M49.0429 103.963H46.6274C46.6081 103.963 46.5896 103.955 46.576 103.941C46.5623 103.928 46.5547 103.909 46.5547 103.89C46.5547 103.871 46.5623 103.852 46.576 103.838C46.5896 103.825 46.6081 103.817 46.6274 103.817H49.0429C49.0621 103.817 49.0806 103.825 49.0943 103.838C49.1079 103.852 49.1156 103.871 49.1156 103.89C49.1156 103.909 49.1079 103.928 49.0943 103.941C49.0806 103.955 49.0621 103.963 49.0429 103.963Z" fill="#002E5D"/>
<path d="M51.313 103.963H49.6508C49.6316 103.963 49.6131 103.955 49.5994 103.941C49.5858 103.928 49.5781 103.909 49.5781 103.89C49.5781 103.871 49.5858 103.852 49.5994 103.838C49.6131 103.825 49.6316 103.817 49.6508 103.817H51.313C51.3323 103.817 51.3508 103.825 51.3644 103.838C51.3781 103.852 51.3857 103.871 51.3857 103.89C51.3857 103.909 51.3781 103.928 51.3644 103.941C51.3508 103.955 51.3323 103.963 51.313 103.963Z" fill="#002E5D"/>
<path d="M47.8855 118.852C47.8672 118.852 47.8495 118.846 47.836 118.833C47.8225 118.821 47.8142 118.804 47.8128 118.785L47.6608 117.259V118.777C47.6608 118.797 47.6532 118.815 47.6395 118.829C47.6259 118.843 47.6074 118.85 47.5881 118.85H46.8828C46.8728 118.85 46.8628 118.848 46.8535 118.845C46.8443 118.841 46.8359 118.835 46.829 118.828C46.8152 118.813 46.8079 118.793 46.8086 118.772L46.9366 116.535C46.9366 116.525 46.9386 116.515 46.9426 116.506C46.9466 116.497 46.9524 116.488 46.9597 116.481C46.967 116.475 46.9756 116.469 46.985 116.466C46.9944 116.463 47.0044 116.461 47.0144 116.462C47.0244 116.462 47.0343 116.464 47.0435 116.468C47.0526 116.472 47.0609 116.478 47.0677 116.485C47.0745 116.492 47.0798 116.501 47.0831 116.51C47.0865 116.52 47.0878 116.53 47.0871 116.54L46.9642 118.699H47.5161V117.18C47.5161 117.161 47.5238 117.143 47.5374 117.129C47.5511 117.115 47.5695 117.108 47.5888 117.108H47.7343C47.7526 117.108 47.7702 117.114 47.7837 117.127C47.7972 117.139 47.8055 117.156 47.807 117.175L47.9582 118.701H49.1281V118.093L48.2607 116.581C48.2557 116.573 48.2524 116.564 48.2511 116.554C48.2498 116.544 48.2504 116.534 48.253 116.525C48.2556 116.515 48.26 116.507 48.2661 116.499C48.2722 116.491 48.2797 116.485 48.2883 116.48C48.2967 116.475 48.3061 116.472 48.3159 116.47C48.3257 116.469 48.3356 116.47 48.3451 116.472C48.3547 116.475 48.3636 116.479 48.3713 116.485C48.379 116.492 48.3854 116.499 48.3901 116.508L49.267 118.035C49.2734 118.046 49.2767 118.059 49.2765 118.072V118.776C49.2765 118.795 49.2688 118.814 49.2552 118.827C49.2415 118.841 49.223 118.849 49.2038 118.849H47.8949L47.8855 118.852Z" fill="#002E5D"/>
<path d="M49.5505 118.852C49.5322 118.853 49.5145 118.846 49.5011 118.833C49.4876 118.821 49.4793 118.804 49.4778 118.786L49.3251 117.259V118.778C49.3251 118.797 49.3174 118.815 49.3038 118.829C49.2902 118.843 49.2717 118.85 49.2524 118.85C49.2331 118.85 49.2146 118.843 49.201 118.829C49.1873 118.815 49.1797 118.797 49.1797 118.778V117.185C49.1797 117.166 49.1873 117.147 49.201 117.133C49.2146 117.12 49.2331 117.112 49.2524 117.112H49.3978C49.4161 117.112 49.4338 117.119 49.4473 117.131C49.4608 117.144 49.4691 117.161 49.4705 117.179L49.6218 118.706H50.7917V118.094L49.9243 116.581C49.9146 116.564 49.9121 116.544 49.9174 116.525C49.9226 116.506 49.9352 116.49 49.9522 116.481C49.9693 116.471 49.9895 116.469 50.0084 116.474C50.0273 116.479 50.0433 116.492 50.053 116.509L50.9306 118.035C50.937 118.047 50.9402 118.059 50.94 118.072V118.777C50.94 118.796 50.9324 118.815 50.9187 118.828C50.9051 118.842 50.8866 118.85 50.8673 118.85H49.5585L49.5505 118.852Z" fill="#002E5D"/>
<path d="M48.7476 117.286L48.645 118.093L47.8125 118.031L47.8859 118.778L49.1976 118.775V118.07L48.7476 117.286Z" fill="#002E5D"/>
<path d="M50.4124 117.286L50.3098 118.093L49.4766 118.031L49.5507 118.778L50.8624 118.775V118.07L50.4124 117.286Z" fill="#002E5D"/>
</svg>
