<svg width="16" height="16" fill="none" xmlns="http://www.w3.org/2000/svg"><g clip-path="url(#a)" fill="#002E5D"><path d="M3.81 8.38a3.81 3.81 0 1 0 0-7.62 3.81 3.81 0 0 0 0 7.62Zm8.38 0a3.81 3.81 0 1 0 0-7.62 3.81 3.81 0 0 0 0 7.62ZM1.143 15.237a.38.38 0 0 1-.381-.38v-3.048c0-.631.512-1.143 1.143-1.143h.38a.381.381 0 0 1 0 .762h-.38a.38.38 0 0 0-.381.38v3.049c0 .21-.17.38-.381.38Z"/><path d="M2.286 12.951H.38a.381.381 0 0 1 0-.761h1.905a.38.38 0 1 1 0 .761Zm1.143 2.286a.38.38 0 0 1-.381-.38v-3.81a.381.381 0 1 1 .762 0v3.81a.38.38 0 0 1-.381.38Zm1.523 0a.381.381 0 0 1-.38-.38V12.57a.38.38 0 0 1 .761 0v2.286a.38.38 0 0 1-.38.381Zm2.667.001a1.524 1.524 0 0 1 0-3.048 1.799 1.799 0 0 1 1.442.526.381.381 0 0 1-.598.472 1.187 1.187 0 0 0-.844-.236.762.762 0 0 0 0 1.524c.316.017.627-.08.878-.274a.38.38 0 0 1 .533.545c-.39.338-.895.513-1.411.49Zm2.667-.001a.38.38 0 0 1-.381-.38v-3.81a.381.381 0 0 1 .762 0v3.81c0 .21-.17.38-.381.38Z"/><path d="M11.81 15.237a.38.38 0 0 1-.27-.111l-1.524-1.524a.38.38 0 0 1 .058-.587l1.143-.761a.381.381 0 1 1 .423.633l-.756.505 1.194 1.195a.381.381 0 0 1-.268.65Zm1.523 0a.381.381 0 0 1-.38-.38V12.57a.38.38 0 0 1 .761 0v2.286a.38.38 0 0 1-.38.381Z"/><path d="M13.333 14.475a.381.381 0 0 1-.38-.38c0-1.053.852-1.905 1.904-1.905a.38.38 0 1 1 0 .761c-.631 0-1.143.512-1.143 1.143a.38.38 0 0 1-.38.381Zm-8.365-3.047a.38.38 0 1 1 0-.762h.007a.381.381 0 0 1 0 .762h-.007Z"/></g><defs><clipPath id="a"><path fill="#fff" d="M0 0h16v16H0z"/></clipPath></defs></svg>