<svg width="150" height="150" fill="none" xmlns="http://www.w3.org/2000/svg"><g clip-path="url(#a)"><path d="M145.147 38.505 150 103.283 8.118 119.517V67.766l137.029-29.261Z" fill="#F3F8FF"/><path d="m90.38 18.383-26.518 2.054.844 10.887 26.518-2.055-.844-10.886Z" fill="#C9DAF4"/><path d="m86.638 27.08-4.407-6.393a6.67 6.67 0 1 0-9.963.771l-3.375 6.995a.231.231 0 0 0 .037.258.233.233 0 0 0 .177.077.232.232 0 0 0 .207-.131l3.444-7.151v-.01a.208.208 0 0 0 .008-.025.168.168 0 0 0 .006-.02v-.023a.162.162 0 0 0 0-.045v-.022c0-.008-.004-.015-.006-.022l-.007-.02c0-.008-.007-.015-.01-.022l-.011-.02a.184.184 0 0 0-.03-.036l-.007-.009a6.199 6.199 0 1 1 9.042-.69l-.014.02a.16.16 0 0 0-.01.02c0 .007-.006.014-.008.021a.2.2 0 0 0-.007.022v.111l.007.022c0 .007.006.013.008.02a.193.193 0 0 0 .013.022l.005.01 4.5 6.531a.234.234 0 0 0 .32.06.234.234 0 0 0 .081-.322Z" fill="#C9DAF4"/><path d="m115.041 125.004-74.798-2.529c7.317-31.545 9.344-63.938 6-95.847l74.798 2.529c3.344 31.905 1.316 64.302-6 95.847Z" fill="#C9DAF4"/><path d="M108.755 120.389h-74.84a292.781 292.781 0 0 0 9.673-43.753 277.336 277.336 0 0 0 2.713-34.63c.077-5.103.01-10.192-.203-15.266h74.84c1.301 30.994-2.817 62.65-12.183 93.649Z" fill="#fff"/><path d="M40.318 95.424h-.022a.108.108 0 0 1-.08-.128c.948-4.54 1.797-9.149 2.521-13.7a.11.11 0 0 1 .083-.088.108.108 0 0 1 .13.08.108.108 0 0 1 .002.043 287.064 287.064 0 0 1-2.525 13.709.106.106 0 0 1-.109.084Zm68.437 25.074H77.544a.11.11 0 0 1-.077-.031.11.11 0 0 1-.031-.077.11.11 0 0 1 .031-.077.11.11 0 0 1 .077-.031h31.131c9.356-31.003 13.448-62.44 12.16-93.44H93.833a.11.11 0 0 1-.118-.108.11.11 0 0 1 .035-.08.109.109 0 0 1 .083-.029h27.105a.11.11 0 0 1 .109.104c.647 15.433-.056 31.195-2.089 46.847-2.033 15.652-5.433 31.412-10.096 46.843a.103.103 0 0 1-.04.058.107.107 0 0 1-.067.021ZM46.246 31.294a.108.108 0 0 1-.107-.106 272.986 272.986 0 0 0-.15-4.45.108.108 0 0 1 .11-.113h12.153a.109.109 0 0 1 0 .216H46.21c.06 1.439.109 2.899.145 4.339a.109.109 0 0 1-.105.11l-.004.005Z" fill="#002E5D"/><path d="m71.628 73.874-27.646 5.352c-.14-.863-.27-1.726-.394-2.59a277.318 277.318 0 0 0 2.713-34.63c6.633.06 13.266.119 19.9.177a117.875 117.875 0 0 0 5.427 31.691Z" fill="#C9DAF4"/><path d="M68.778 72.867 40.76 75.679a136.18 136.18 0 0 1 2.52-37.176l22.98 2.305a117.868 117.868 0 0 0 2.518 32.059Z" fill="#fff"/><path d="M65.281 41.782a127.664 127.664 0 0 0-.2 6.67 499.498 499.498 0 0 0-23.034 4.581c.424-4.445 1.06-8.858 1.905-13.238l21.33 1.987Zm-23.294 11.92a516.917 516.917 0 0 1 23.095-4.666c0 .482 0 .728.012 1.213a504.413 504.413 0 0 0-23.221 4.839c.042-.555.07-.832.114-1.386Zm23.139-1.909c.036 1.183.087 2.364.151 3.545a521.276 521.276 0 0 0-23.726 5.573c.048-1.355.114-2.708.197-4.06a527.531 527.531 0 0 1 23.378-5.058ZM41.497 67.627a554.221 554.221 0 0 1 24.265-6.447c.404 3.61.966 7.195 1.688 10.754L41.78 74.35c-.145-2.24-.24-4.481-.284-6.724Z" fill="#F3F8FF"/><path d="M40.652 58.207h-.008a.109.109 0 0 1-.1-.115 139.106 139.106 0 0 1 2.632-19.61.107.107 0 0 1 .117-.085l22.98 2.305a.108.108 0 0 1 .096.114 124.046 124.046 0 0 0-.178 10.02.11.11 0 0 1-.184.08.109.109 0 0 1-.033-.076c-.075-3.298-.017-6.64.173-9.933l-22.779-2.285a138.986 138.986 0 0 0-2.609 19.484.108.108 0 0 1-.107.101Zm.11 17.583a.106.106 0 0 1-.07-.026.108.108 0 0 1-.038-.075c-.173-2.482-.284-5-.33-7.486a.109.109 0 0 1 .216 0 147.2 147.2 0 0 0 .322 7.363l22.225-2.237a.108.108 0 0 1 .115.14.106.106 0 0 1-.093.076l-22.337 2.244h-.01Z" fill="#002E5D"/><path d="m55.842 48.029-10.285-.516a.107.107 0 0 1-.096-.072.109.109 0 0 1-.006-.041.105.105 0 0 1 .114-.103l10.284.516a.108.108 0 1 1-.006.216h-.005Zm6.611 5.965-17.502-.266a.108.108 0 0 1-.1-.069.106.106 0 0 1-.007-.041.112.112 0 0 1 .11-.107l17.502.267a.108.108 0 0 1 .07.18.108.108 0 0 1-.07.036h-.003Zm-17.81 5.969a.109.109 0 0 1-.109-.109.108.108 0 0 1 .109-.108l18.103-.343a.111.111 0 0 1 .11.107.11.11 0 0 1-.106.11l-18.103.343h-.004Zm-.013 6.243a.109.109 0 0 1-.005-.216l18.675-.978a.106.106 0 0 1 .114.103.109.109 0 0 1-.102.114l-18.676.977h-.005Z" fill="#002E5D"/><path d="m55.875 38.673-2.528 4.424-.894-5.326 3.422.902Z" fill="#454E54"/><path d="M56.636 38.613c.227-.881-.762-1.898-2.21-2.271s-2.806.038-3.033.92c-.227.88.762 1.897 2.21 2.27 1.448.374 2.806-.038 3.033-.92Z" fill="#454E54"/><path d="m73.68 106.313 27.647 5.352a136.208 136.208 0 0 0 .876-37.252l-23.092.205a117.832 117.832 0 0 1-5.431 31.695Z" fill="#C9DAF4"/><path d="m76.53 105.305 28.018 2.813a136.25 136.25 0 0 0-2.52-37.177l-22.98 2.305a117.838 117.838 0 0 1-2.519 32.059Z" fill="#fff"/><path d="M80.026 74.221c.125 2.221.191 4.444.2 6.67a497.809 497.809 0 0 1 23.035 4.583 139.707 139.707 0 0 0-1.905-13.239l-21.33 1.986Zm23.297 11.919a520.081 520.081 0 0 0-23.095-4.665c0 .482 0 .728-.011 1.213a504.287 504.287 0 0 1 23.22 4.839 92.407 92.407 0 0 0-.114-1.386Zm-23.136-1.908a147.414 147.414 0 0 1-.152 3.545 521.66 521.66 0 0 1 23.727 5.572 152.662 152.662 0 0 0-.198-4.06 533.532 533.532 0 0 0-23.377-5.057Zm23.623 15.834a554.99 554.99 0 0 0-24.265-6.447c-.404 3.61-.967 7.194-1.688 10.754l25.668 2.417c.147-2.24.242-4.481.285-6.724Z" fill="#F3F8FF"/><path d="M104.658 90.646a.107.107 0 0 1-.074-.03.11.11 0 0 1-.034-.071 139.094 139.094 0 0 0-2.609-19.484l-22.778 2.285c.19 3.294.249 6.635.173 9.933a.106.106 0 0 1-.11.106.107.107 0 0 1-.076-.034.108.108 0 0 1-.03-.077c.075-3.327.015-6.698-.178-10.02a.108.108 0 0 1 .097-.114l22.979-2.304a.109.109 0 0 1 .075.02.113.113 0 0 1 .042.065 139.39 139.39 0 0 1 2.633 19.61.111.111 0 0 1-.027.078.11.11 0 0 1-.074.037h-.009Zm-.11 17.582h-.01l-22.337-2.244a.107.107 0 0 1-.1-.075.107.107 0 0 1 .037-.119.1.1 0 0 1 .04-.019.095.095 0 0 1 .044-.002l22.226 2.233c.168-2.442.276-4.918.321-7.363a.109.109 0 0 1 .064-.109.112.112 0 0 1 .088 0 .109.109 0 0 1 .064.109 152.023 152.023 0 0 1-.33 7.485.119.119 0 0 1-.011.042.127.127 0 0 1-.027.034.11.11 0 0 1-.069.028Z" fill="#002E5D"/><path d="M89.465 80.467a.109.109 0 0 1-.082-.183.108.108 0 0 1 .076-.034l10.285-.515a.109.109 0 0 1 .01.216l-10.284.516h-.005Zm-6.609 5.966a.109.109 0 0 1 0-.217l17.499-.266a.11.11 0 0 1 .077.031.11.11 0 0 1 .031.077.11.11 0 0 1-.031.077.11.11 0 0 1-.077.031l-17.502.267h.003Zm17.811 5.969-18.103-.343a.109.109 0 0 1-.106-.11.107.107 0 0 1 .11-.107l18.103.343c.029 0 .057.011.077.031a.11.11 0 0 1 .032.077.108.108 0 0 1-.109.109h-.004Zm.009 6.243-18.678-.978a.11.11 0 0 1-.11-.114.108.108 0 0 1 .038-.078.109.109 0 0 1 .083-.024l18.675.977a.105.105 0 0 1 .07.037c.018.02.028.047.027.074a.104.104 0 0 1-.03.073.11.11 0 0 1-.072.033h-.003Z" fill="#002E5D"/><path d="m89.434 71.112 2.529 4.424.893-5.326-3.422.902Z" fill="#454E54"/><path d="M91.531 72.858c1.448-.374 2.438-1.39 2.21-2.271-.226-.882-1.584-1.293-3.032-.92-1.448.373-2.438 1.39-2.21 2.271.226.881 1.584 1.293 3.032.92Z" fill="#454E54"/><path d="m100.538 35.585-26.856 4.494 1.06 6.335 26.856-4.494-1.06-6.335Zm5.934 15.089h-27.23v6.423h27.23v-6.423ZM73.973 82.371l-24.504 1.504.393 6.41 24.504-1.503-.393-6.41Z" fill="#F3F8FF"/><path d="m75.126 46.872-.756-.92-.596 1.045c-.062.113-.138.22-.225.316a.39.39 0 0 1-.253.111.435.435 0 0 1-.408-.184.331.331 0 0 1-.046-.137c-.008-.097.042-.241.151-.432l.724-1.268-.829-.928c-.143-.152-.22-.29-.23-.41a.321.321 0 0 1 .092-.257.43.43 0 0 1 .287-.135.402.402 0 0 1 .276.066c.101.078.193.167.274.265l.67.762.506-.869c.063-.113.138-.218.225-.313a.408.408 0 0 1 .257-.111c.11-.014.22.013.31.075a.322.322 0 0 1 .143.237.429.429 0 0 1-.031.205 1.47 1.47 0 0 1-.13.241l-.647 1.062.94 1.117c.148.176.225.31.234.402a.32.32 0 0 1-.1.261.45.45 0 0 1-.29.132.409.409 0 0 1-.276-.067 1.547 1.547 0 0 1-.272-.266Zm3.593-.325-.756-.92-.596 1.044c-.063.113-.138.22-.225.316a.39.39 0 0 1-.253.111.434.434 0 0 1-.408-.184.331.331 0 0 1-.046-.137c-.008-.097.042-.24.151-.432l.723-1.268-.828-.928c-.143-.152-.22-.29-.23-.41a.32.32 0 0 1 .091-.256.433.433 0 0 1 .29-.132.402.402 0 0 1 .277.066c.1.078.193.167.273.265l.671.761.506-.868c.062-.113.137-.218.225-.313a.402.402 0 0 1 .257-.111c.11-.014.22.013.31.075a.321.321 0 0 1 .143.241.439.439 0 0 1-.031.205 1.494 1.494 0 0 1-.13.241l-.647 1.062.941 1.108c.147.175.225.31.234.402a.321.321 0 0 1-.099.26.443.443 0 0 1-.29.132.408.408 0 0 1-.276-.067 1.548 1.548 0 0 1-.277-.263Zm3.597-.327-.757-.92-.596 1.045a1.63 1.63 0 0 1-.224.316.393.393 0 0 1-.253.112.438.438 0 0 1-.408-.185.328.328 0 0 1-.046-.137c-.009-.096.042-.24.151-.431l.723-1.269-.828-.927c-.143-.153-.22-.29-.23-.41a.323.323 0 0 1 .09-.258.432.432 0 0 1 .292-.13.394.394 0 0 1 .276.066c.1.077.192.166.273.264l.671.761.505-.867c.063-.113.138-.218.225-.313a.402.402 0 0 1 .258-.112.443.443 0 0 1 .31.076.317.317 0 0 1 .143.237.443.443 0 0 1-.032.205 1.53 1.53 0 0 1-.129.24l-.648 1.062.942 1.117c.147.174.225.308.234.402a.321.321 0 0 1-.099.26.443.443 0 0 1-.29.132.406.406 0 0 1-.276-.067 1.525 1.525 0 0 1-.278-.268Zm3.595-.325-.756-.92-.596 1.045a1.74 1.74 0 0 1-.224.316.393.393 0 0 1-.253.11.437.437 0 0 1-.408-.184.331.331 0 0 1-.046-.137c-.008-.096.041-.24.151-.431l.724-1.27-.828-.926c-.143-.153-.22-.29-.231-.412a.328.328 0 0 1 .092-.256.431.431 0 0 1 .29-.132.402.402 0 0 1 .277.068c.1.077.192.166.273.263l.671.762.506-.868c.062-.113.137-.218.225-.312a.402.402 0 0 1 .256-.112c.11-.014.22.013.31.075a.316.316 0 0 1 .143.237.443.443 0 0 1-.03.205 1.53 1.53 0 0 1-.13.242l-.648 1.06.94 1.118c.148.175.226.31.234.401a.322.322 0 0 1-.098.26.446.446 0 0 1-.291.133.406.406 0 0 1-.276-.067 1.589 1.589 0 0 1-.277-.268Z" fill="#454E54"/><path d="m84.41 57.287-.553-1.055-.796.9c-.084.098-.18.186-.284.263a.388.388 0 0 1-.27.057.433.433 0 0 1-.362-.266.33.33 0 0 1-.017-.142c.01-.097.09-.227.236-.392l.968-1.094-.621-1.078c-.107-.178-.155-.328-.142-.449a.325.325 0 0 1 .143-.232.43.43 0 0 1 .31-.069c.098.008.19.051.258.122.083.096.154.202.213.314l.5.884.674-.746a1.59 1.59 0 0 1 .284-.26.402.402 0 0 1 .274-.058c.11.01.212.058.288.138a.315.315 0 0 1 .091.26.442.442 0 0 1-.071.195 1.547 1.547 0 0 1-.176.21l-.851.906.692 1.286c.107.2.156.348.147.443a.321.321 0 0 1-.15.234.446.446 0 0 1-.312.07.408.408 0 0 1-.257-.122 1.565 1.565 0 0 1-.217-.319Zm3.586.416-.552-1.056-.796.9a1.78 1.78 0 0 1-.284.263.39.39 0 0 1-.271.057.435.435 0 0 1-.361-.265.329.329 0 0 1-.017-.143c.01-.096.09-.227.236-.392l.964-1.094-.622-1.076c-.108-.179-.156-.329-.142-.45a.321.321 0 0 1 .143-.232.426.426 0 0 1 .31-.07c.099.008.19.052.258.123.083.096.154.201.214.314l.501.884.673-.747c.083-.098.178-.185.283-.26a.402.402 0 0 1 .274-.057c.11.009.213.058.29.138a.314.314 0 0 1 .09.26.433.433 0 0 1-.072.195 1.553 1.553 0 0 1-.176.21l-.85.906.692 1.285c.107.201.155.349.146.443a.321.321 0 0 1-.15.235.445.445 0 0 1-.311.07.408.408 0 0 1-.257-.123 1.607 1.607 0 0 1-.213-.318Zm7.174.834-.552-1.056-.796.896a1.68 1.68 0 0 1-.285.263.387.387 0 0 1-.27.058.437.437 0 0 1-.361-.266.333.333 0 0 1-.018-.143c.011-.096.09-.227.236-.391l.965-1.095-.621-1.076c-.108-.179-.155-.328-.143-.45a.321.321 0 0 1 .143-.232.43.43 0 0 1 .311-.07c.098.008.19.052.257.123.083.096.155.201.214.314l.5.884.673-.747c.084-.098.18-.185.285-.26a.402.402 0 0 1 .274-.056.44.44 0 0 1 .288.137.314.314 0 0 1 .09.261.438.438 0 0 1-.07.194 1.553 1.553 0 0 1-.177.21l-.85.907.692 1.285c.108.202.16.349.146.443a.32.32 0 0 1-.15.235.447.447 0 0 1-.31.07.41.41 0 0 1-.258-.122 1.57 1.57 0 0 1-.213-.316Z" fill="#325D9C"/><path d="m54.778 90.893-.794-.888-.552 1.067a1.732 1.732 0 0 1-.212.325.39.39 0 0 1-.248.122.435.435 0 0 1-.415-.17.33.33 0 0 1-.052-.133c-.013-.096.032-.241.133-.438l.67-1.298-.865-.893c-.149-.146-.232-.28-.248-.401a.327.327 0 0 1 .08-.26.43.43 0 0 1 .285-.145.402.402 0 0 1 .279.056c.104.073.2.157.284.252l.702.733.469-.889a1.61 1.61 0 0 1 .211-.321.401.401 0 0 1 .252-.122.45.45 0 0 1 .314.062.318.318 0 0 1 .152.231c.01.07.002.14-.022.206a1.556 1.556 0 0 1-.119.246l-.603 1.088.987 1.077c.154.168.238.299.25.393a.32.32 0 0 1-.088.264.439.439 0 0 1-.284.144.402.402 0 0 1-.279-.054 1.579 1.579 0 0 1-.287-.254Zm3.58-.478-.794-.884-.55 1.065a1.692 1.692 0 0 1-.212.321.39.39 0 0 1-.248.123.434.434 0 0 1-.312-.07.326.326 0 0 1-.155-.233c-.013-.097.031-.243.132-.438l.668-1.295-.866-.892c-.15-.146-.232-.28-.248-.402a.32.32 0 0 1 .08-.26.43.43 0 0 1 .285-.143.402.402 0 0 1 .279.054c.104.074.2.158.284.252l.703.733.471-.883c.057-.116.128-.224.212-.322a.401.401 0 0 1 .251-.122.448.448 0 0 1 .314.063.316.316 0 0 1 .152.23c.01.07.002.14-.022.206a1.539 1.539 0 0 1-.119.247l-.603 1.087.987 1.077c.155.168.238.3.25.393a.321.321 0 0 1-.087.264.44.44 0 0 1-.285.144.401.401 0 0 1-.278-.054 1.576 1.576 0 0 1-.289-.26Zm7.159-.953-.795-.884-.55 1.067a1.73 1.73 0 0 1-.211.321.39.39 0 0 1-.249.122.432.432 0 0 1-.415-.17.33.33 0 0 1-.052-.133c-.013-.097.031-.241.133-.438l.67-1.298-.867-.892c-.148-.146-.23-.28-.247-.401a.321.321 0 0 1 .08-.26.427.427 0 0 1 .284-.145.395.395 0 0 1 .28.056c.103.073.2.157.285.251l.701.733.47-.889c.056-.115.127-.223.21-.321a.402.402 0 0 1 .252-.123.448.448 0 0 1 .314.063.32.32 0 0 1 .152.23c.009.07.001.14-.023.207a1.47 1.47 0 0 1-.118.246l-.603 1.088.99 1.078c.153.169.237.3.25.394a.321.321 0 0 1-.09.268.45.45 0 0 1-.285.144.409.409 0 0 1-.278-.056 1.545 1.545 0 0 1-.288-.258Z" fill="#F70431"/><path d="M87.447 19.991 60.9 21.62l.669 10.898 26.548-1.628-.669-10.899Z" fill="#325D9C"/><path d="M69.575 22.958a.23.23 0 0 1-.16-.065 6.67 6.67 0 1 1 9.74-.597.234.234 0 1 1-.36-.298 6.2 6.2 0 1 0-9.06.557.233.233 0 0 1-.16.402Z" fill="#002E5D"/><path d="M83.372 28.984a.233.233 0 0 1-.195-.105l-4.398-6.603a.234.234 0 0 1 .39-.258l4.397 6.603a.233.233 0 0 1-.065.321.23.23 0 0 1-.13.042ZM66.017 30.05a.233.233 0 0 1-.208-.34l3.557-7.088a.234.234 0 0 1 .418.21l-3.557 7.09a.233.233 0 0 1-.21.127Zm22.365 105.895H11.33a.095.095 0 0 1-.045-.005.114.114 0 0 1-.064-.059.112.112 0 0 1-.01-.044c0-.015.004-.03.01-.043a.108.108 0 0 1 .026-.037.097.097 0 0 1 .038-.022.11.11 0 0 1 .045-.006h77.053a.111.111 0 0 1 .045.006.098.098 0 0 1 .038.022.108.108 0 0 1 .035.08.104.104 0 0 1-.035.08.115.115 0 0 1-.038.023.1.1 0 0 1-.045.005Zm50.058 3.79H79.05a.106.106 0 0 1-.077-.032.108.108 0 0 1 0-.153.11.11 0 0 1 .077-.032h59.39c.029 0 .056.012.077.032.02.02.031.048.031.077a.107.107 0 0 1-.108.108Z" fill="#002E5D"/><path d="m19.788 78.012-1.901 3.127-2.041-3.127 2.04-3.128 1.902 3.128Zm112.776-45.069-1.9 3.128-2.042-3.128 2.042-3.128 1.9 3.128Z" fill="#C9DAF4"/><path d="m47.808 100.046 4.01.586a.638.638 0 0 0 .542-.172.64.64 0 0 0 .194-.535l-.42-4.03-4.326 4.151Z" fill="#002E5D"/><path d="m4.434 46.195-2.42 2.323L49.71 98.22l2.42-2.322L4.435 46.195Z" fill="#fff"/><path d="m2.529 48.023-2.42 2.323 47.696 49.703 2.42-2.323L2.53 48.023Z" fill="#F70431"/><path d="M47.807 100.158a.13.13 0 0 1-.044-.008.124.124 0 0 1-.036-.025L.03 50.422a.106.106 0 0 1-.03-.08c0-.029.012-.056.032-.077l4.326-4.15a.106.106 0 0 1 .076-.031.107.107 0 0 1 .077.031L52.21 95.82a.106.106 0 0 1 .032.076.107.107 0 0 1-.032.076l-4.325 4.152a.106.106 0 0 1-.035.025.125.125 0 0 1-.043.01ZM.261 50.348l47.546 49.544 4.17-4.001L4.43 46.347.26 50.348Z" fill="#002E5D"/></g><defs><clipPath id="a"><path fill="#fff" d="M0 0h150v150H0z"/></clipPath></defs></svg>