<svg width="176" height="128" fill="none" xmlns="http://www.w3.org/2000/svg"><g clip-path="url(#a)"><path d="M91.947 128c35.244 0 63.814-28.469 63.814-63.587S127.191.826 91.947.826c-35.243 0-63.813 28.47-63.813 63.587 0 35.118 28.57 63.587 63.813 63.587Z" fill="#F3F8FF"/><path d="m76.206 117.932-74.008-2.927c-1.695-.068-2.595-1.463-2.03-3.119C11.37 78.585 16.736 44.493 16.09 10.723c-.04-1.681 1.285-2.987 2.981-2.92l74.005 2.927c1.621.043 3.144 1.57 3.158 3.164.645 33.77-4.72 67.861-15.922 101.162-.51 1.573-2.493 2.962-4.107 2.876Z" fill="#F70431"/><path d="m90.49 127.996-74.007-2.928c-1.695-.067-2.595-1.462-2.03-3.118C25.654 88.648 31.02 54.557 30.376 20.787c-.04-1.681 1.286-2.987 2.981-2.92l74.007 2.927c1.621.043 3.144 1.57 3.158 3.164.645 33.77-4.72 67.86-15.922 101.162-.513 1.573-2.495 2.962-4.11 2.876Z" fill="#002E5D"/><path d="M86.12 121.581H12.055c-1.698 0-2.66-1.358-2.171-3.037C19.55 84.827 23.349 50.55 21.159 16.832c-.117-1.677 1.149-3.036 2.844-3.036h74.065c1.621-.022 3.213 1.443 3.298 3.036 2.19 33.719-1.61 67.995-11.275 101.713-.438 1.591-2.354 3.057-3.971 3.036Z" fill="#fff"/><path d="M80.198 31.541H43.586a241.384 241.384 0 0 0-.073-3.297h36.613c.037 1.318.051 1.978.072 3.297Zm13.112 9.912H30.447c.025-1.323.034-1.985.044-3.307h62.863a243.31 243.31 0 0 1-.044 3.307ZM50.22 84.555H26.377c.225-1.325.334-1.991.544-3.315h23.845c-.21 1.327-.319 1.99-.544 3.315Zm37.159 9.935H24.516c.27-1.324.402-1.986.658-3.31h62.863a240.711 240.711 0 0 1-.658 3.31Zm-2.155 9.704H22.361c.316-1.319.47-1.979.77-3.3h62.863c-.3 1.321-.454 1.981-.77 3.3Z" fill="#E9EFFD"/><path d="M61.888 71.033a3.042 3.042 0 0 1-.487-.003c-.956-.084-1.892-.656-2.666-1.58-1.242 1.102-3.367 2.11-4.965 1.87-1.892-.284-2.892-1.991-3.608-3.408-.35-.691-.6-1.61-.799-2.544a94.82 94.82 0 0 1-7.505 5.594 220.8 220.8 0 0 0-.732-1.229c2.757-1.865 5.487-3.793 7.96-6.044-.32-3.054-.078-6.579 1.473-9.505.92-1.736 3.243-5.47 5.407-4.869 1.444.399 1.382 2.711 1.32 3.767-.007.1-.011.188-.015.26-.21 4.261-3.544 7.817-6.562 10.815.187 1.139.482 2.176.859 3.031.683 1.548 1.603 2.486 2.606 2.639 1.056.161 2.408-.507 3.756-1.58a8.991 8.991 0 0 1-.313-.647c-.834-1.9-1.062-4.39.157-6.34 1.085-1.735 3.194-2.926 5.17-3.153.941-.108 1.734.113 2.032.588.932 1.481-.55 3.987-1.563 5.532-.95 1.453-2.18 2.969-3.47 4.174.55.657 1.226 1.127 1.768 1.125 2.13-.01 4.39-3.099 5.736-4.845 1.391-1.803 2.195-2.806 3.082-2.322.745.408.413 1.357.02 2.454-.374 1.046-.966 2.76-.466 3.286 1.21 1.268 4.721-.11 6.4-.618.142.569.211.853.35 1.422-2.397.737-6.349 2.186-8.012.17-.772-.937-.405-2.54.025-3.834-.081.1-.163.204-.239.302-1.673 2.161-3.888 5.006-6.72 5.492ZM63.093 59.6a3.72 3.72 0 0 0-.422.056c-1.193.226-2.858 1.056-3.632 2.321-.868 1.42-.628 3.603-.02 4.908.044.093.086.19.13.283.75-.731 1.512-1.56 2.103-2.383 1.099-1.526 2.362-3.216 2.49-5.117-.027-.021-.223-.1-.65-.069Zm-7.725-8.858c-1.565.888-2.688 2.505-3.47 4.056-1.188 2.363-1.538 5.043-1.388 7.545 2.38-2.53 5.083-5.511 5.249-8.972l.016-.292c.105-1.792-.141-2.26-.362-2.337a.25.25 0 0 0-.045 0Zm18.011 8.993a1.17 1.17 0 0 1-1.074 1.132.966.966 0 0 1-.977-.584.958.958 0 0 1-.075-.395 1.163 1.163 0 0 1 1.07-1.132.968.968 0 0 1 .98.584c.053.124.079.26.076.395ZM39.44 71.898a1.121 1.121 0 0 1-1.02 1.031c-.537.036-.95-.36-.922-.891a1.12 1.12 0 0 1 1.019-1.032c.536-.036.952.36.923.892Z" fill="#325D9C"/><path d="m25.78 6.472 10.06 13.774c.34.467 1.08.241 1.1-.335l.579-16.256L25.78 6.472Z" fill="#002E5D"/><path d="M33.478 9.974c4.116-1.188 6.834-4.279 6.07-6.904C38.787.444 34.832-.721 30.716.466c-4.116 1.188-6.834 4.279-6.07 6.904.762 2.626 4.717 3.791 8.833 2.604Z" fill="#325D9C"/><mask id="b" style="mask-type:luminance" maskUnits="userSpaceOnUse" x="28" y="0" width="128" height="129"><path d="M91.947 128c35.244 0 63.814-28.469 63.814-63.587S127.191.826 91.947.826c-35.243 0-63.813 28.47-63.813 63.587 0 35.118 28.57 63.587 63.813 63.587Z" fill="#fff"/></mask><g mask="url(#b)"><path d="m153.315 75.094-1.838-.298-15.55-2.518-.833 2.159-25.633-6.212c-.1-.673-.267-1.702-.495-2.938a87.946 87.946 0 0 0-.571-2.846l-.264-1.317-.035-.005c-1.28-5.417-3.378-11.602-6.301-11.568-.644-1.045-1.603-1.98-3.04-2.322a5.219 5.219 0 0 0-1.263-.141 34.361 34.361 0 0 0-.2-.47c-.722-1.63-1.572-2.95-2.472-3.064-.716-.09-1.494-.08-2.235-.016-.632.05-1.234.14-1.753.233l-.018-.053a.546.546 0 0 0-.015-.044l-.062-.17a2.007 2.007 0 0 0-2.212-1.3c-3.76.619-12.773 2.377-15.007 5.307-2.843 3.73 6.567 1.75 8.664.928 2.097-.822 3.21-.631 3.662.556.233.611 1.302 5.143 2.008 9.502l.16 1.034c.554 3.722.764 7.072-.146 7.403-2.048.743-5.636-.777-6.674-4.15-.214-.697-.433-1.589-.668-2.558v-.004c-.216-.886-.446-1.837-.7-2.765v-.005c-.813-2.963-1.876-5.681-3.52-5.252-1.687.44-2.287 2.19-2.249 4.503v.013c.005.343.025.697.057 1.063v.021c.1 1.145.326 2.386.627 3.65 1.049 4.407 1.008 10.43 10.724 16.756 5.513 3.59 24.376 13.833 39.662 22.021l-1.138 2.942 7.91 4.56 1.099.632 24.254 13.979 16.737-43.897-20.672-3.349Z" fill="#325D9C" style="mix-blend-mode:multiply" opacity=".3"/><path d="m159.964 70.593-9.845 31.886c-9.111-3.719-53.02-21.7-62.234-26.48-10.296-5.342-10.85-11.339-12.333-15.621-1.483-4.282-2.004-8.383.639-9.36 2.642-.976 4.55 6.798 5.917 10.05 1.366 3.253 5.089 4.415 7.052 3.474 1.964-.941-3.223-16.516-3.79-17.653-.567-1.137-1.692-1.218-3.697-.192-2.005 1.025-11.173 3.92-8.714-.07 1.933-3.137 10.728-5.776 14.409-6.76a2.005 2.005 0 0 1 2.33 1.077l.077.163s.008.014.02.042l.023.05a18.9 18.9 0 0 1 1.72-.404c.732-.136 1.505-.224 2.227-.204.906.024 1.884 1.254 2.763 2.806.084.147.166.296.247.448.423-.046.85-.04 1.27.017 1.465.199 2.513 1.037 3.256 2.011 4.513-.5 8.532 14.12 9.478 17.827l49.185 6.893Z" fill="#FDC8AA"/><path d="M99.347 49.836c.016-.055.016-3.19-1.3-5.974a5.194 5.194 0 0 0-1.27-.016s1.896 4.113 2.57 5.99Zm-5.24.446c-1.145-2.602-3.906-8.29-4.289-9.08a18.9 18.9 0 0 1 1.721-.405c1.5 3.503 2.568 9.485 2.568 9.485Zm-5.534 6.882 21.423 3.665-1.244-4.062-20.442-.622.263 1.019Zm15.373 5.581 51.975 20.943 4.149-13.082-56.124-7.861Z" fill="#002E5D" fill-opacity=".2"/><path d="m176 67.522-12.304 45.329-25.522-11.525-1.154-.521-.514-.232-7.811-3.526 8.824-31.916 15.723.974.639.04 1.221.076 20.898 1.3Zm-44.896-20.895-.627 4.603-.843 6.173-58.236-1.773-3.542-3.374 4.862-1.824 58.386-3.805Z" fill="#325D9C"/><path d="m131.104 48.142-.627 4.603-58.088 1.503.329-2.301 58.386-3.805Z" fill="#002E5D"/><path d="M133.151 52.323c-.117 2.922-1.962 5.144-3.516 5.082-1.555-.063-2.231-2.386-2.113-5.308.118-2.922 2.028-5.531 3.582-5.468 1.554.062 2.165 2.77 2.047 5.694Z" fill="#002E5D"/><path d="m74.566 56.808 6.623 1.783-.974-2.692-5.817-.177.168 1.086Z" fill="#002E5D" fill-opacity=".2"/><path d="M153.88 66.145c-2.107 13.297-8.351 25.222-17.375 34.428l-7.811-3.526 8.825-31.916 15.722.974.639.04Z" fill="#F70431"/><path d="M136.234 94.625a1.877 1.877 0 0 0-1.236-2.355 1.887 1.887 0 0 0-2.363 1.232 1.878 1.878 0 0 0 1.236 2.355 1.887 1.887 0 0 0 2.363-1.232Z" fill="#fff"/></g></g><defs><clipPath id="a"><path fill="#fff" d="M0 0h176v128H0z"/></clipPath></defs></svg>