<svg width="136" height="128" fill="none" xmlns="http://www.w3.org/2000/svg"><g clip-path="url(#a)"><path fill-rule="evenodd" clip-rule="evenodd" d="M113.595 128h-89.35V.219H99.5L113.595 13.5V128Z" fill="#fff"/><path stroke="#002E5D" d="M24 127.5h87"/><path d="M113.61 44.711a.356.356 0 0 1-.357-.36V13.888a.356.356 0 1 1 .714 0v30.463a.362.362 0 0 1-.357.36ZM24.184 39.11a.355.355 0 0 1-.252-.105.362.362 0 0 1-.105-.255V.36a.36.36 0 0 1 .105-.254.355.355 0 0 1 .252-.106h74.84a.362.362 0 0 1 0 .721H24.54V38.75a.362.362 0 0 1-.105.255.355.355 0 0 1-.252.105Zm0 80.794a.36.36 0 0 1-.357-.361V77.142c0-.096.038-.188.105-.255a.355.355 0 0 1 .609.255v42.404a.363.363 0 0 1-.106.253.356.356 0 0 1-.251.105Z" fill="#002E5D"/><path d="m99.871 1.044 12.913 11.817-13.76 1.028.847-12.845Z" fill="#BDD0FB"/><path d="M131.722 127.911a.354.354 0 0 1-.336-.243l-1.262-3.665a.356.356 0 0 1-.008-.294.366.366 0 0 1 .212-.202.361.361 0 0 1 .465.259l1.262 3.666a.36.36 0 0 1-.215.461.364.364 0 0 1-.118.018ZM20.1 24.909c-.69 0-1.519-.327-2.478-.979a.36.36 0 0 1-.15-.37.362.362 0 0 1 .282-.283.353.353 0 0 1 .267.055c.825.56 1.955 1.138 2.66.702.956-.596.918-2.829.82-3.639a.364.364 0 0 1 .261-.386c.201-.056.766-.252 1.097-.52.062-.45-.626-2.482-1.332-4.157a.364.364 0 0 1 .189-.473.354.354 0 0 1 .468.19c0 .01.442 1.053.82 2.133.765 2.206.607 2.597.375 2.803-.334.304-.828.514-1.14.625.066.87.116 3.235-1.187 4.042a1.775 1.775 0 0 1-.953.257ZM15.839 13.34s5.272 2.05 7.03 0c1.757-2.049-4.595-8.153-10.457-4.783-5.86 3.37 0 11.658 0 11.658l1.217-1.41s-1.036-1.914.181-1.914 2.48-.319 2.029-3.55Z" fill="#002E5D"/><path d="M14.149 19.278a.353.353 0 0 1-.243-.097c-.566-.533-1.284-1.32-.998-2.015.286-.694 1.388-.697 1.605-.688a.363.363 0 0 1 .22.62.354.354 0 0 1-.248.1c-.382-.012-.854.088-.92.246 0 .012-.116.322.827 1.21a.36.36 0 0 1 .089.396.359.359 0 0 1-.332.228Zm-.001 7.172a.355.355 0 0 1-.35-.29l-1.058-5.44a.364.364 0 0 1 .054-.27.357.357 0 0 1 .647.13l1.059 5.442a.366.366 0 0 1-.153.37.353.353 0 0 1-.198.06Z" fill="#002E5D"/><path d="m28.075 28.913-7.558-2.254c.015 33.47 3.704 36.09 3.704 36.09l3.785 3.255 5.207-14.754-5.138-22.337Zm-1.548 26.915-.209-14.757 1.926 8.713-1.717 6.044Z" fill="#325D9C"/><path d="M28.718 67.185a.352.352 0 0 1-.238-.097l-4.497-4.075a.362.362 0 0 1-.101-.377l3.994-12.876-3.025-13.666a.364.364 0 0 1 .047-.272.357.357 0 0 1 .492-.111.36.36 0 0 1 .157.226l3.046 13.765a.352.352 0 0 1-.008.187L24.63 62.635l4.325 3.921a.362.362 0 0 1-.238.629Zm-4.362 58.131a.358.358 0 0 1-.353-.315l-6.52-50.216a.364.364 0 0 1 .07-.267.357.357 0 0 1 .639.17l6.472 49.86c1.51-.2 3.573-.483 4.294-.588.053-3.286-1.283-37.238-2.026-55.462l-4.698-3.996a.362.362 0 0 1 .2-.632.355.355 0 0 1 .26.08l4.817 4.105a.36.36 0 0 1 .127.26c.005.141.574 14.13 1.107 27.949.311 8.12.548 14.585.704 19.229.095 2.758.157 4.894.191 6.35.018.784.029 1.387.03 1.792v.483c-.005.162-.014.434-.286.504-.273.069-4.194.587-4.975.691a.461.461 0 0 1-.053.003Z" fill="#002E5D"/><path d="M11.174 124.496H6.577a.36.36 0 0 1-.254-.108.363.363 0 0 1-.103-.258l.608-55.944a.363.363 0 0 1 .127-.271l5.477-4.64a.357.357 0 0 1 .402-.056.358.358 0 0 1 .194.36.363.363 0 0 1-.138.248L7.54 68.36l-.603 55.415h3.923l7.194-53.311a.36.36 0 0 1 .088-.194l1.758-1.978a.356.356 0 0 1 .623.222.364.364 0 0 1-.09.261l-1.686 1.898-7.22 53.512a.356.356 0 0 1-.354.311Zm23.662 3.483H23.883a.36.36 0 0 1-.345-.268.366.366 0 0 1-.006-.157l.474-2.663a.358.358 0 0 1 .548-.25.352.352 0 0 1 .155.233.366.366 0 0 1-.001.144l-.398 2.24h9.992l-.378-.926-4.753-1.721a.371.371 0 0 1-.221-.182.362.362 0 0 1 .32-.526.35.35 0 0 1 .142.031l4.902 1.776a.362.362 0 0 1 .21.202l.641 1.571a.362.362 0 0 1-.329.498v-.002Z" fill="#002E5D"/><path d="M12.639 127.979H3.084a.353.353 0 0 1-.347-.278.363.363 0 0 1-.001-.159l.36-1.673a.366.366 0 0 1 .172-.237l3.132-1.81a.359.359 0 0 1 .277-.045.356.356 0 0 1 .268.308.362.362 0 0 1-.191.363l-2.995 1.73-.232 1.08h8.572l-1.253-2.983a.36.36 0 0 1 .463-.487.358.358 0 0 1 .193.206l1.465 3.48a.366.366 0 0 1-.03.34.351.351 0 0 1-.298.161v.004Zm9.149-66.419h-8.113a.355.355 0 0 1-.252-.105.362.362 0 0 1 .252-.616h8.113a.362.362 0 0 1 0 .721Z" fill="#002E5D"/><path d="M12.797 26.66 6.1 28.301.357 51.796l6.66 14.38 3.752-3.245s6.185-3.927 2.028-36.272Z" fill="#325D9C"/><path d="M7.016 66.536a.343.343 0 0 1-.22-.08.363.363 0 0 1-.099-.128L.034 51.948a.36.36 0 0 1-.023-.238l5.746-23.498a.363.363 0 0 1 .262-.264l6.697-1.639a.354.354 0 0 1 .431.266.364.364 0 0 1-.262.435l-6.487 1.587L.734 51.76l6.41 13.835 3.189-2.76-4.922-11.503a.36.36 0 0 1-.02-.22L8.55 36.444a.36.36 0 0 1 .155-.226.353.353 0 0 1 .493.108c.05.08.068.177.048.27l-3.13 14.55 4.982 11.641a.364.364 0 0 1-.095.418l-3.755 3.244a.355.355 0 0 1-.232.087Zm11.258-16.679a.357.357 0 0 1-.273-.129l-2.297-2.778a.363.363 0 0 1-.08-.28l1.914-14-.146-1.151-2.325-2.926a.363.363 0 0 1 .173-.584.353.353 0 0 1 .383.132l2.161 2.72.317-2.316a.362.362 0 0 1 .262-.309.352.352 0 0 1 .38.134.363.363 0 0 1 .065.272l-.553 4.032 1.722 13.698a.374.374 0 0 1-.027.193l-1.353 3.08a.36.36 0 0 1-.277.211.414.414 0 0 1-.046.001Zm-1.923-3.247 1.828 2.208 1.08-2.459-1.378-10.95-1.53 11.2ZM135.64 15.162c-.861-2.17-3.005-3.351-4.839-2.696-2.781-4.906-10.811-2.295-12.206 1.644-1.488 4.19 3.922 2.186 3.922 2.186.541 2.822 2.434 2.869 3.696 2.459 1.262-.41.18 2.367.18 2.367l1.217 3.46s2.03-1.687 3.253-4.35c.936.557 2.024.703 3.01.303 1.854-.747 2.648-3.156 1.767-5.373Z" fill="#002E5D"/><path d="M120.681 26.97a1.735 1.735 0 0 1-.856-.219c-1.058-.586-1.587-2.357-1.574-5.263.014-1.359.117-2.715.306-4.06a.365.365 0 0 1 .267-.307.351.351 0 0 1 .379.141.369.369 0 0 1 .06.275c-.314 2.074-.766 7.66.906 8.584.81.45 2.061-.412 2.965-1.214a.357.357 0 0 1 .592.294.362.362 0 0 1-.121.248c-1.15 1.02-2.116 1.522-2.924 1.522Zm6.375 1.006a.363.363 0 0 1-.357-.36v-2.699a.362.362 0 0 1 .357-.36.356.356 0 0 1 .357.36v2.698a.363.363 0 0 1-.357.36Zm-.665-6.49a.36.36 0 0 1-.331-.226.345.345 0 0 1-.025-.139.34.34 0 0 1 .029-.137c.617-1.45.364-1.765.333-1.796-.124-.124-.529-.042-.765.062a.354.354 0 0 1-.454-.192.363.363 0 0 1 .166-.468c.105-.046 1.027-.44 1.554.084.443.441.383 1.266-.179 2.594a.358.358 0 0 1-.328.218Z" fill="#002E5D"/><path d="m128.375 28.55-7.384 1.546-5.1 9.518s1.442 4.008.861 7.605c-.582 3.597-.861 10.04-.861 10.04s9.802.206 16.383-2.253l-2.614-8.06 2.097-11.544-3.382-6.853Z" fill="#5B97EF"/><path d="M130.674 54.188s6.624 6.49 3.852 30.465l-21.363-.484 4.125-29.371 13.386-.61Z" fill="#5B97EF"/><path d="M119.869 57.53a.361.361 0 0 1-.018-.72c3.392-.178 8.18-.676 11.976-2.023l-2.507-7.728a.37.37 0 0 1-.011-.177l2.076-11.426-3.33-6.745a.36.36 0 0 1 .433-.503c.09.03.164.095.206.18l3.383 6.855c.034.07.045.149.031.226l-2.081 11.453 2.583 7.973a.364.364 0 0 1-.017.27.356.356 0 0 1-.198.18c-3.922 1.47-8.97 2-12.509 2.187l-.017-.001Z" fill="#002E5D"/><path d="M134.527 85.013h-.008l-13.909-.311a.357.357 0 0 1-.349-.368.361.361 0 0 1 .227-.33.35.35 0 0 1 .137-.023l13.586.303c2.068-18.333-1.42-26.248-3.023-28.807a.364.364 0 0 1 .24-.548.35.35 0 0 1 .266.06.366.366 0 0 1 .097.102c1.653 2.64 5.262 10.809 3.092 29.603a.356.356 0 0 1-.356.319Zm-19.517 35.05a.35.35 0 0 1-.281-.138.364.364 0 0 1-.069-.146.369.369 0 0 1 .003-.162l8.193-34.194a.354.354 0 0 1 .652-.102c.049.081.064.18.042.272l-8.194 34.194a.353.353 0 0 1-.126.198.352.352 0 0 1-.22.078Zm-3.787 5.594h-.031a.36.36 0 0 1-.325-.387l3.465-39.796a.36.36 0 0 1 .247-.316.357.357 0 0 1 .45.239.375.375 0 0 1 .014.141l-3.463 39.79a.36.36 0 0 1-.357.329Zm20.272-3.628h-.018a.357.357 0 0 1-.247-.119.366.366 0 0 1-.092-.259l1.818-36.163a.363.363 0 0 1 .236-.324.355.355 0 0 1 .458.22.37.37 0 0 1 .019.14l-1.818 36.163a.36.36 0 0 1-.356.342Zm-3.078-.679a.356.356 0 0 1-.354-.322l-3.781-35.483a.358.358 0 0 1 .317-.397.36.36 0 0 1 .393.32l3.784 35.483a.367.367 0 0 1-.077.265.354.354 0 0 1-.282.134Z" fill="#002E5D"/><path d="m112.876 128-4.034-.018a.36.36 0 0 1-.274-.133c-.04-.049-.383-.493-.198-1.033.164-.484.693-.837 1.572-1.042 1.498-.35 3.554-4.715 4.22-6.367a.353.353 0 0 1 .408-.215c1.07.243 1.851.824 2.322 1.726 1.315 2.513-.28 6.661-.348 6.835a.358.358 0 0 1-.332.229l-1.059-.005a.357.357 0 0 1-.354-.331l-.2-2.369-1.415 2.539a.349.349 0 0 1-.13.134.349.349 0 0 1-.178.05Zm-3.827-.739 3.615.018 1.874-3.384a.357.357 0 0 1 .669.146l.271 3.212h.479c.306-.882 1.299-4.093.298-6.006-.332-.634-.844-1.055-1.559-1.281-.563 1.339-2.667 6.052-4.599 6.504-.841.193-1.019.463-1.053.569a.32.32 0 0 0 .008.222h-.003Zm22.661.65h-6.242a.361.361 0 0 1-.357-.361v-.914a.366.366 0 0 1 .122-.271c.019-.016 1.865-1.662 2.068-3.038.235-1.586 1.134-4.199 3.018-3.924 1.052.153 1.631 1.573 1.787 4.342a32.217 32.217 0 0 1-.04 3.831.36.36 0 0 1-.356.335Zm-5.885-.721h5.549c.192-2.947-.034-6.906-1.161-7.07-1.664-.242-2.201 3.286-2.21 3.316-.211 1.424-1.732 2.942-2.182 3.363l.004.391Z" fill="#002E5D"/><path d="m125.047 33.49 1.03 17.897-1.892 14.481h-4.261l1.067-14.344-2.081-12.638" fill="#5B97EF"/><path d="m113.67 54.734 17.544 3.62-2.231 13.277-18.118-3.372 2.805-13.525Z" fill="#fff"/><path d="M124.186 66.229h-4.26a.356.356 0 0 1-.356-.387l1.063-14.301-2.072-12.594a.371.371 0 0 1 .053-.278.365.365 0 0 1 .237-.153.352.352 0 0 1 .368.175.37.37 0 0 1 .045.137l2.08 12.637a.31.31 0 0 1 0 .086l-1.037 13.957h3.563l1.847-14.134-1.027-17.863a.368.368 0 0 1 .083-.27.353.353 0 0 1 .598.087.36.36 0 0 1 .03.14l1.031 17.898a.383.383 0 0 1 0 .068l-1.892 14.481a.356.356 0 0 1-.354.314Zm-3.363 5.763c-.918 0-1.904-.524-2.942-1.565a.356.356 0 0 1-.098-.332.357.357 0 0 1 .224-.262c.057-.022 1.306-.525 1.361-1.94-.653.321-1.769.708-2.537.104a.357.357 0 0 1-.135-.24.37.37 0 0 1 .073-.266.344.344 0 0 1 .237-.137.353.353 0 0 1 .263.073c.582.457 1.803-.153 2.225-.428a.355.355 0 0 1 .545.247c.245 1.557-.574 2.54-1.295 3.01.956.85 1.818 1.168 2.557.944 1.786-.536 2.527-3.939 2.534-3.973a.355.355 0 0 1 .648-.122.36.36 0 0 1 .05.272c-.033.158-.836 3.854-3.027 4.514a2.347 2.347 0 0 1-.683.101ZM113.5 69.11a.375.375 0 0 1-.065-.006l-2.634-.49a.35.35 0 0 1-.234-.154.365.365 0 0 1-.054-.276l2.806-13.524a.359.359 0 0 1 .421-.273.36.36 0 0 1 .277.42l-2.728 13.164 2.276.423a.358.358 0 0 1 .291.387.362.362 0 0 1-.356.328Z" fill="#002E5D"/><path d="M117.558 46.536c-.135.097-6.13 2.095-6.13 2.095l.27 3.462 5.86-.228v-5.329Z" fill="#5B97EF"/><path d="M110.218 49.53a.357.357 0 0 1-.287-.153l-1.379-1.98-1.875-.359a.354.354 0 0 1-.228-.151.362.362 0 0 1 .222-.556.352.352 0 0 1 .139-.001l2.017.386c.091.018.172.07.226.147l1.452 2.099c.038.053.06.116.064.182a.356.356 0 0 1-.038.19.356.356 0 0 1-.313.196Z" fill="#002E5D"/><path d="M108.825 52.31c-1.844 0-3.67-1.12-4.655-2.115-.713-.721-.67-1.058-.574-1.25.047-.096.191-.305.568-.253.924.13 2.943-.436 3.643-.665a.355.355 0 0 1 .463.227.366.366 0 0 1-.116.392.362.362 0 0 1-.127.066c-.096.033-2.23.728-3.58.72.346.415 1.138 1.126 2.23 1.635.947.443 2.35.832 3.653.178a.355.355 0 0 1 .519.297.36.36 0 0 1-.201.348 4.02 4.02 0 0 1-1.823.42Zm5.096 12.575a.354.354 0 0 1-.347-.279.36.36 0 0 1-.001-.16l1.352-6.147a.364.364 0 0 1 .286-.288.354.354 0 0 1 .369.165.365.365 0 0 1 .041.278l-1.352 6.149a.354.354 0 0 1-.348.282Zm1.41 2.666a.35.35 0 0 1-.302-.169.365.365 0 0 1-.045-.272l2.218-9.814a.358.358 0 0 1 .426-.266.36.36 0 0 1 .269.428l-2.221 9.813a.36.36 0 0 1-.345.28Z" fill="#002E5D"/><path d="m68.239 15.826-30.205.263a2.375 2.375 0 0 1-1.692-.691A2.407 2.407 0 0 1 36.325 12a2.391 2.391 0 0 1 1.685-.719l30.206-.265a2.372 2.372 0 0 1 1.69.69c.45.447.704 1.056.708 1.693a2.423 2.423 0 0 1-.69 1.707 2.39 2.39 0 0 1-1.685.72Z" fill="#F70431"/><path d="m97.487 28.306-51.964.217a1.962 1.962 0 0 1-1.806-1.18 1.906 1.906 0 0 1 .402-2.098 1.94 1.94 0 0 1 1.367-.569l51.964-.217a1.964 1.964 0 0 1 1.379.558 1.937 1.937 0 0 1 .581 1.359c.005.51-.195 1-.556 1.362a1.94 1.94 0 0 1-1.367.569Zm.041 10.574-59.74.856a1.878 1.878 0 0 1-1.369-.562 1.949 1.949 0 0 1-.42-.638 2.046 2.046 0 0 1 .42-2.17c.182-.187.395-.336.63-.44.235-.102.487-.157.74-.16l59.742-.856a1.875 1.875 0 0 1 1.368.562c.18.181.322.398.42.638a2.046 2.046 0 0 1-.42 2.17 2.004 2.004 0 0 1-.63.439 1.91 1.91 0 0 1-.74.161Zm.697 11.561-60.57.634a1.934 1.934 0 0 1-1.39-.567 1.97 1.97 0 0 1-.579-1.399 2.014 2.014 0 0 1 .57-1.412c.182-.186.398-.335.636-.437a1.95 1.95 0 0 1 .75-.16l60.57-.634a1.934 1.934 0 0 1 1.39.567 1.977 1.977 0 0 1 .579 1.4 2.017 2.017 0 0 1-.57 1.412 1.982 1.982 0 0 1-1.386.596Zm-.799 10.216-59.74.854a1.884 1.884 0 0 1-1.368-.562 1.982 1.982 0 0 1-.566-1.396 2.046 2.046 0 0 1 .567-1.412c.18-.187.394-.336.629-.44a1.91 1.91 0 0 1 .74-.16l59.74-.856a1.877 1.877 0 0 1 1.37.562c.179.182.321.399.418.638a2.044 2.044 0 0 1-.42 2.17 1.96 1.96 0 0 1-.629.44 1.912 1.912 0 0 1-.741.162Zm-16.301 11.5-42.53.028a1.941 1.941 0 0 1-1.346-.542 1.885 1.885 0 0 1-.418-.602 1.834 1.834 0 0 1-.019-1.42 1.847 1.847 0 0 1 1.013-1.004c.228-.093.474-.141.723-.141l42.529-.029a1.941 1.941 0 0 1 1.347.543c.178.172.32.376.418.601a1.834 1.834 0 0 1 .019 1.42 1.841 1.841 0 0 1-1.013 1.004 1.917 1.917 0 0 1-.723.142Zm16.877 11.218L37.619 83.3a2.022 2.022 0 0 1-1.392-.56 1.944 1.944 0 0 1-.433-.617 1.875 1.875 0 0 1-.16-.729 1.839 1.839 0 0 1 .552-1.344 1.92 1.92 0 0 1 .629-.412 1.98 1.98 0 0 1 .746-.144l60.382.076a2.02 2.02 0 0 1 1.392.559c.184.177.331.387.433.618a1.846 1.846 0 0 1-.392 2.073 1.953 1.953 0 0 1-1.374.556Zm-.149 11.335-59.553.145a1.964 1.964 0 0 1-1.37-.553 1.921 1.921 0 0 1-.426-.616 1.887 1.887 0 0 1-.015-1.455 1.878 1.878 0 0 1 1.034-1.031c.233-.096.483-.146.737-.146l59.55-.145a1.964 1.964 0 0 1 1.37.553c.181.176.326.385.425.616a1.87 1.87 0 0 1-.395 2.073 1.927 1.927 0 0 1-1.357.56Z" fill="#E4ECF9"/><path d="M36.365 52.701a2.63 2.63 0 0 1-1.403-.939 2.659 2.659 0 0 1-.55-1.604l-.016-3.237c-.004-.704.27-1.38.763-1.883a2.64 2.64 0 0 1 1.861-.792l40.768-.341a2.621 2.621 0 0 1 2.446 1.616c.135.321.205.665.207 1.014l.007 1.45a.473.473 0 0 1-.464.473.464.464 0 0 1-.47-.465l-.008-1.45a1.718 1.718 0 0 0-.505-1.208 1.697 1.697 0 0 0-1.208-.491l-40.766.34a1.707 1.707 0 0 0-1.202.512c-.318.324-.495.76-.494 1.215l.017 3.24c.003.454.185.888.506 1.207.321.318.755.495 1.207.492l34.17-.286a.464.464 0 0 1 .47.466.473.473 0 0 1-.465.473l-34.17.286a2.631 2.631 0 0 1-.7-.088Z" fill="#325D9C"/></g><defs><clipPath id="a"><path fill="#fff" d="M0 0h136v128H0z"/></clipPath></defs></svg>