<svg width="480" height="492" viewBox="0 0 480 492" fill="none" xmlns="http://www.w3.org/2000/svg">
<path d="M0 491.725H119.762L164.118 318.711H239.522V282.287H173.975L186.295 236.757L114.318 204.886L102.019 235.745L0 491.725Z" fill="#002E5D"/>
<path d="M177.42 209.434C201.918 209.434 221.777 189.05 221.777 163.904C221.777 138.759 201.918 118.374 177.42 118.374C152.923 118.374 133.064 138.759 133.064 163.904C133.064 189.05 152.923 209.434 177.42 209.434Z" fill="#002E5D"/>
<path d="M479.056 491.725H359.298L314.939 318.711H239.534V282.287H305.084L292.765 236.757L364.742 204.886L377.042 235.745L479.056 491.725Z" fill="#325D9C"/>
<path d="M301.638 209.434C277.14 209.434 257.281 189.05 257.281 163.904C257.281 138.759 277.14 118.374 301.638 118.374C326.134 118.374 345.994 138.759 345.994 163.904C345.994 189.05 326.134 209.434 301.638 209.434Z" fill="#325D9C"/>
<path d="M319.335 18.2075H159.653V91.0564H319.335V18.2075Z" fill="#002E5D"/>
<path d="M372.589 0H106.451V18.2121H372.589V0Z" fill="#002E5D"/>
<path d="M115.292 18.2075H119.728V45.5257L124.164 54.6318H110.857L115.292 45.5257V18.2075Z" fill="#002E5D"/>
</svg>
