<svg width="978" height="1415" viewBox="0 0 978 1415" fill="none" xmlns="http://www.w3.org/2000/svg">
<g opacity="0.2" clip-path="url(#clip0_2758_18656)">
<path d="M578.3 -1195.87C578.3 -1112.82 564.636 -1112.82 564.636 -1029.75C564.636 -946.674 578.3 -946.692 578.3 -863.639C578.3 -780.586 564.636 -780.567 564.636 -697.514C564.636 -614.461 578.3 -614.461 578.3 -531.389C578.3 -448.318 564.636 -448.336 564.636 -365.265C564.636 -282.193 578.3 -282.211 578.3 -199.14C578.3 -116.068 564.636 -116.087 564.636 -33.0334C564.636 50.0198 578.3 50.0382 578.3 133.091C578.3 216.145 564.636 216.163 564.636 299.216C564.636 382.269 578.3 382.288 578.3 465.341C578.3 548.394 564.636 548.394 564.636 631.374C564.636 714.353 578.3 714.427 578.3 797.499C578.3 880.57 564.636 880.552 564.636 963.605C564.636 1046.66 578.3 1046.68 578.3 1129.73C578.3 1212.78 564.636 1212.8 564.636 1295.87C564.636 1378.94 578.3 1378.93 578.3 1462C578.3 1545.07 564.636 1545.05 564.636 1628.12C564.636 1711.19 578.3 1711.19 578.3 1794.25C578.3 1877.3 564.636 1877.32 564.636 1960.37C564.636 2043.43 578.3 2043.44 578.3 2126.52C578.3 2209.59 564.636 2209.57 564.636 2292.64C564.636 2375.71 578.3 2375.71 578.3 2458.78C578.3 2541.85 564.636 2541.85 564.636 2624.93" stroke="#BBD1DC" stroke-width="4" stroke-miterlimit="10"/>
<path d="M543.388 -1195.87C543.388 -1112.82 529.723 -1112.82 529.723 -1029.75C529.723 -946.674 543.388 -946.692 543.388 -863.639C543.388 -780.586 529.723 -780.567 529.723 -697.514C529.723 -614.461 543.388 -614.461 543.388 -531.389C543.388 -448.318 529.723 -448.336 529.723 -365.265C529.723 -282.193 543.388 -282.211 543.388 -199.14C543.388 -116.068 529.723 -116.087 529.723 -33.0333C529.723 50.0199 543.388 50.0382 543.388 133.091C543.388 216.145 529.723 216.163 529.723 299.216C529.723 382.269 543.388 382.288 543.388 465.341C543.388 548.394 529.723 548.394 529.723 631.447C529.723 714.501 543.388 714.501 543.388 797.572C543.388 880.644 529.723 880.625 529.723 963.679C529.723 1046.73 543.388 1046.75 543.388 1129.8C543.388 1212.86 529.723 1212.88 529.723 1295.95C529.723 1379.02 543.388 1379 543.388 1462.07C543.388 1545.14 529.723 1545.12 529.723 1628.2C529.723 1711.27 543.388 1711.27 543.388 1794.32C543.388 1877.37 529.723 1877.39 529.723 1960.45C529.723 2043.5 543.388 2043.52 543.388 2126.59C543.388 2209.66 529.723 2209.64 529.723 2292.71C529.723 2375.79 543.388 2375.79 543.388 2458.86C543.388 2541.93 529.723 2541.93 529.723 2625" stroke="#BBD1DC" stroke-width="4" stroke-miterlimit="10"/>
<path d="M508.475 -1195.87C508.475 -1112.82 494.811 -1112.82 494.811 -1029.75C494.811 -946.674 508.475 -946.692 508.475 -863.639C508.475 -780.586 494.811 -780.567 494.811 -697.514C494.811 -614.461 508.475 -614.461 508.475 -531.389C508.475 -448.318 494.811 -448.336 494.811 -365.265C494.811 -282.193 508.475 -282.211 508.475 -199.14C508.475 -116.068 494.811 -116.087 494.811 -33.0333C494.811 50.0199 508.475 50.0382 508.475 133.091C508.475 216.145 494.811 216.163 494.811 299.216C494.811 382.269 508.475 382.288 508.475 465.341C508.475 548.394 494.811 548.394 494.811 631.447C494.811 714.501 508.475 714.501 508.475 797.572C508.475 880.644 494.811 880.625 494.811 963.679C494.811 1046.73 508.475 1046.75 508.475 1129.8C508.475 1212.86 494.811 1212.88 494.811 1295.95C494.811 1379.02 508.475 1379 508.475 1462.07C508.475 1545.14 494.811 1545.12 494.811 1628.2C494.811 1711.27 508.475 1711.27 508.475 1794.32C508.475 1877.37 494.811 1877.39 494.811 1960.45C494.811 2043.5 508.475 2043.52 508.475 2126.59C508.475 2209.66 494.811 2209.64 494.811 2292.71C494.811 2375.79 508.475 2375.79 508.475 2458.86C508.475 2541.93 494.811 2541.93 494.811 2625" stroke="#BBD1DC" stroke-width="4" stroke-miterlimit="10"/>
<path d="M473.566 -1195.87C473.566 -1112.82 459.897 -1112.82 459.897 -1029.75C459.897 -946.674 473.566 -946.692 473.566 -863.639C473.566 -780.586 459.897 -780.567 459.897 -697.514C459.897 -614.461 473.566 -614.461 473.566 -531.389C473.566 -448.318 459.897 -448.336 459.897 -365.265C459.897 -282.193 473.566 -282.211 473.566 -199.14C473.566 -116.068 459.897 -116.087 459.897 -33.0333C459.897 50.0199 473.566 50.0382 473.566 133.091C473.566 216.145 459.897 216.163 459.897 299.216C459.897 382.269 473.566 382.288 473.566 465.341C473.566 548.394 459.897 548.394 459.897 631.447C459.897 714.501 473.566 714.501 473.566 797.572C473.566 880.644 459.897 880.625 459.897 963.679C459.897 1046.73 473.566 1046.75 473.566 1129.8C473.566 1212.86 459.897 1212.88 459.897 1295.95C459.897 1379.02 473.566 1379 473.566 1462.07C473.566 1545.14 459.897 1545.12 459.897 1628.2C459.897 1711.27 473.566 1711.27 473.566 1794.32C473.566 1877.37 459.897 1877.39 459.897 1960.45C459.897 2043.5 473.566 2043.52 473.566 2126.59C473.566 2209.66 459.897 2209.64 459.897 2292.71C459.897 2375.79 473.566 2375.79 473.566 2458.86C473.566 2541.93 459.897 2541.93 459.897 2625" stroke="#BBD1DC" stroke-width="4" stroke-miterlimit="10"/>
<path d="M438.653 -1195.87C438.653 -1112.82 424.989 -1112.82 424.989 -1029.75C424.989 -946.674 438.653 -946.692 438.653 -863.639C438.653 -780.586 424.989 -780.567 424.989 -697.514C424.989 -614.461 438.653 -614.461 438.653 -531.389C438.653 -448.318 424.989 -448.336 424.989 -365.265C424.989 -282.193 438.653 -282.211 438.653 -199.14C438.653 -116.068 424.989 -116.087 424.989 -33.0333C424.989 50.0199 438.653 50.0382 438.653 133.091C438.653 216.145 424.989 216.163 424.989 299.216C424.989 382.269 438.653 382.288 438.653 465.341C438.653 548.394 424.989 548.394 424.989 631.447C424.989 714.501 438.653 714.501 438.653 797.572C438.653 880.644 424.989 880.625 424.989 963.679C424.989 1046.73 438.653 1046.75 438.653 1129.8C438.653 1212.86 424.989 1212.88 424.989 1295.95C424.989 1379.02 438.653 1379 438.653 1462.07C438.653 1545.14 424.989 1545.12 424.989 1628.2C424.989 1711.27 438.653 1711.27 438.653 1794.32C438.653 1877.37 424.989 1877.39 424.989 1960.45C424.989 2043.5 438.653 2043.52 438.653 2126.59C438.653 2209.66 424.989 2209.64 424.989 2292.71C424.989 2375.79 438.653 2375.79 438.653 2458.86C438.653 2541.93 424.989 2541.93 424.989 2625" stroke="#BBD1DC" stroke-width="4" stroke-miterlimit="10"/>
<path d="M403.741 -1195.87C403.741 -1112.82 390.076 -1112.82 390.076 -1029.75C390.076 -946.674 403.741 -946.692 403.741 -863.639C403.741 -780.586 390.076 -780.567 390.076 -697.514C390.076 -614.461 403.741 -614.461 403.741 -531.389C403.741 -448.318 390.076 -448.336 390.076 -365.265C390.076 -282.193 403.741 -282.211 403.741 -199.14C403.741 -116.068 390.076 -116.087 390.076 -33.0333C390.076 50.0199 403.741 50.0382 403.741 133.091C403.741 216.145 390.076 216.163 390.076 299.216C390.076 382.269 403.741 382.288 403.741 465.341C403.741 548.394 390.076 548.394 390.076 631.447C390.076 714.501 403.741 714.501 403.741 797.572C403.741 880.644 390.076 880.625 390.076 963.679C390.076 1046.73 403.741 1046.75 403.741 1129.8C403.741 1212.86 390.076 1212.88 390.076 1295.95C390.076 1379.02 403.741 1379 403.741 1462.07C403.741 1545.14 390.076 1545.12 390.076 1628.2C390.076 1711.27 403.741 1711.27 403.741 1794.32C403.741 1877.37 390.076 1877.39 390.076 1960.45C390.076 2043.5 403.741 2043.52 403.741 2126.59C403.741 2209.66 390.076 2209.64 390.076 2292.71C390.076 2375.79 403.741 2375.79 403.741 2458.86C403.741 2541.93 390.076 2541.93 390.076 2625" stroke="#BBD1DC" stroke-width="4" stroke-miterlimit="10"/>
<path d="M368.846 -1195.87C368.846 -1112.82 355.178 -1112.82 355.178 -1029.75C355.178 -946.674 368.846 -946.692 368.846 -863.639C368.846 -780.586 355.178 -780.567 355.178 -697.514C355.178 -614.461 368.846 -614.461 368.846 -531.389C368.846 -448.318 355.178 -448.336 355.178 -365.265C355.178 -282.193 368.846 -282.248 368.846 -199.14C368.846 -116.031 355.178 -116.087 355.178 -33.0333C355.178 50.0199 368.846 50.0382 368.846 133.091C368.846 216.145 355.178 216.163 355.178 299.216C355.178 382.269 368.846 382.288 368.846 465.341C368.846 548.394 355.163 548.394 355.163 631.374C355.163 714.354 368.846 714.501 368.846 797.572C368.846 880.644 355.178 880.625 355.178 963.679C355.178 1046.73 368.846 1046.82 368.846 1129.8C368.846 1212.78 355.178 1212.88 355.178 1295.95C355.178 1379.02 368.846 1379 368.846 1462.07C368.846 1545.14 355.178 1545.12 355.178 1628.2C355.178 1711.27 368.846 1711.27 368.846 1794.32C368.846 1877.37 355.178 1877.39 355.178 1960.45C355.178 2043.5 368.846 2043.52 368.846 2126.59C368.846 2209.66 355.178 2209.64 355.178 2292.71C355.178 2375.79 368.846 2375.79 368.846 2458.86C368.846 2541.93 355.178 2541.93 355.178 2625" stroke="#BBD1DC" stroke-width="4" stroke-miterlimit="10"/>
<path d="M333.919 -1195.87C333.919 -1112.82 320.254 -1112.82 320.254 -1029.75C320.254 -946.674 333.919 -946.692 333.919 -863.639C333.919 -780.586 320.254 -780.567 320.254 -697.514C320.254 -614.461 333.919 -614.461 333.919 -531.389C333.919 -448.318 320.254 -448.336 320.254 -365.265C320.254 -282.193 333.919 -282.211 333.919 -199.14C333.919 -116.068 320.254 -116.087 320.254 -33.0334C320.254 50.0198 333.919 50.0382 333.919 133.091C333.919 216.145 320.254 216.163 320.254 299.216C320.254 382.269 333.919 382.288 333.919 465.341C333.919 548.394 320.254 548.394 320.254 631.374C320.254 714.353 333.919 714.427 333.919 797.499C333.919 880.57 320.254 880.552 320.254 963.605C320.254 1046.66 333.919 1046.68 333.919 1129.73C333.919 1212.78 320.254 1212.8 320.254 1295.87C320.254 1378.94 333.919 1378.93 333.919 1462C333.919 1545.07 320.254 1545.05 320.254 1628.12C320.254 1711.19 333.919 1711.19 333.919 1794.25C333.919 1877.3 320.254 1877.32 320.254 1960.37C320.254 2043.43 333.919 2043.44 333.919 2126.52C333.919 2209.59 320.254 2209.57 320.254 2292.64C320.254 2375.71 333.919 2375.71 333.919 2458.78C333.919 2541.85 320.254 2541.85 320.254 2624.93" stroke="#BBD1DC" stroke-width="4" stroke-miterlimit="10"/>
<path d="M299.006 -1195.87C299.006 -1112.82 285.342 -1112.82 285.342 -1029.75C285.342 -946.674 299.006 -946.692 299.006 -863.639C299.006 -780.586 285.342 -780.567 285.342 -697.514C285.342 -614.461 299.006 -614.461 299.006 -531.389C299.006 -448.318 285.342 -448.336 285.342 -365.265C285.342 -282.193 299.006 -282.211 299.006 -199.14C299.006 -116.068 285.342 -116.087 285.342 -33.0333C285.342 50.0199 299.006 50.0382 299.006 133.091C299.006 216.145 285.342 216.163 285.342 299.216C285.342 382.269 299.006 382.288 299.006 465.341C299.006 548.394 285.342 548.394 285.342 631.374C285.342 714.354 299.006 714.427 299.006 797.499C299.006 880.57 285.342 880.552 285.342 963.605C285.342 1046.66 299.006 1046.68 299.006 1129.73C299.006 1212.78 285.342 1212.8 285.342 1295.87C285.342 1378.94 299.006 1378.93 299.006 1462C299.006 1545.07 285.342 1545.05 285.342 1628.12C285.342 1711.19 299.006 1711.19 299.006 1794.25C299.006 1877.3 285.342 1877.39 285.342 1960.45C285.342 2043.5 299.006 2043.52 299.006 2126.59C299.006 2209.66 285.342 2209.64 285.342 2292.71C285.342 2375.79 299.006 2375.79 299.006 2458.86C299.006 2541.93 285.342 2541.93 285.342 2625" stroke="#BBD1DC" stroke-width="4" stroke-miterlimit="10"/>
<path d="M264.093 -1195.87C264.093 -1112.82 250.429 -1112.82 250.429 -1029.75C250.429 -946.674 264.093 -946.692 264.093 -863.639C264.093 -780.586 250.429 -780.567 250.429 -697.514C250.429 -614.461 264.093 -614.461 264.093 -531.389C264.093 -448.318 250.429 -448.336 250.429 -365.265C250.429 -282.193 264.093 -282.211 264.093 -199.14C264.093 -116.068 250.429 -116.087 250.429 -33.0334C250.429 50.0198 264.093 50.0382 264.093 133.091C264.093 216.145 250.429 216.163 250.429 299.216C250.429 382.269 264.093 382.288 264.093 465.341C264.093 548.394 250.429 548.394 250.429 631.374C250.429 714.353 264.093 714.427 264.093 797.499C264.093 880.57 250.429 880.552 250.429 963.605C250.429 1046.66 264.093 1046.68 264.093 1129.73C264.093 1212.78 250.429 1212.8 250.429 1295.87C250.429 1378.94 264.093 1378.93 264.093 1462C264.093 1545.07 250.429 1545.05 250.429 1628.12C250.429 1711.19 264.093 1711.19 264.093 1794.25C264.093 1877.3 250.429 1877.32 250.429 1960.37C250.429 2043.43 264.093 2043.44 264.093 2126.52C264.093 2209.59 250.429 2209.57 250.429 2292.64C250.429 2375.71 264.093 2375.71 264.093 2458.78C264.093 2541.85 250.429 2541.85 250.429 2624.93" stroke="#BBD1DC" stroke-width="4" stroke-miterlimit="10"/>
<path d="M229.181 -1195.87C229.181 -1112.82 215.513 -1112.82 215.513 -1029.75C215.513 -946.674 229.181 -946.692 229.181 -863.639C229.181 -780.586 215.513 -780.567 215.513 -697.514C215.513 -614.461 229.181 -614.461 229.181 -531.389C229.181 -448.318 215.513 -448.336 215.513 -365.265C215.513 -282.193 229.181 -282.248 229.181 -199.14C229.181 -116.031 215.513 -116.087 215.513 -33.0333C215.513 50.0199 229.181 50.0382 229.181 133.091C229.181 216.145 215.513 216.163 215.513 299.216C215.513 382.269 229.181 382.288 229.181 465.341C229.181 548.394 215.516 548.394 215.516 631.374C215.516 714.354 229.181 714.501 229.181 797.572C229.181 880.644 215.513 880.625 215.513 963.679C215.513 1046.73 229.181 1046.82 229.181 1129.8C229.181 1212.78 215.513 1212.88 215.513 1295.95C215.513 1379.02 229.181 1379 229.181 1462.07C229.181 1545.14 215.513 1545.12 215.513 1628.2C215.513 1711.27 229.181 1711.27 229.181 1794.32C229.181 1877.37 215.513 1877.39 215.513 1960.45C215.513 2043.5 229.181 2043.52 229.181 2126.59C229.181 2209.66 215.513 2209.64 215.513 2292.71C215.513 2375.79 229.181 2375.79 229.181 2458.86C229.181 2541.93 215.513 2541.93 215.513 2625" stroke="#BBD1DC" stroke-width="4" stroke-miterlimit="10"/>
<path d="M194.272 -1195.87C194.272 -1112.82 180.607 -1112.82 180.607 -1029.75C180.607 -946.674 194.272 -946.692 194.272 -863.639C194.272 -780.586 180.607 -780.567 180.607 -697.514C180.607 -614.461 194.272 -614.461 194.272 -531.389C194.272 -448.318 180.607 -448.336 180.607 -365.265C180.607 -282.193 194.272 -282.211 194.272 -199.14C194.272 -116.068 180.607 -116.087 180.607 -33.0334C180.607 50.0198 194.272 50.0382 194.272 133.091C194.272 216.145 180.607 216.163 180.607 299.216C180.607 382.269 194.272 382.288 194.272 465.341C194.272 548.394 180.607 548.394 180.607 631.374C180.607 714.353 194.272 714.427 194.272 797.499C194.272 880.57 180.607 880.552 180.607 963.605C180.607 1046.66 194.272 1046.68 194.272 1129.73C194.272 1212.78 180.607 1212.8 180.607 1295.87C180.607 1378.94 194.272 1378.93 194.272 1462C194.272 1545.07 180.607 1545.05 180.607 1628.12C180.607 1711.19 194.272 1711.19 194.272 1794.25C194.272 1877.3 180.607 1877.32 180.607 1960.37C180.607 2043.43 194.272 2043.44 194.272 2126.52C194.272 2209.59 180.607 2209.57 180.607 2292.64C180.607 2375.71 194.272 2375.71 194.272 2458.78C194.272 2541.85 180.607 2541.85 180.607 2624.93" stroke="#BBD1DC" stroke-width="4" stroke-miterlimit="10"/>
<path d="M159.359 -1195.87C159.359 -1112.82 145.694 -1112.82 145.694 -1029.75C145.694 -946.674 159.359 -946.692 159.359 -863.639C159.359 -780.586 145.694 -780.567 145.694 -697.514C145.694 -614.461 159.359 -614.461 159.359 -531.389C159.359 -448.318 145.694 -448.336 145.694 -365.265C145.694 -282.193 159.359 -282.211 159.359 -199.14C159.359 -116.068 145.694 -116.087 145.694 -33.0334C145.694 50.0198 159.359 50.0382 159.359 133.091C159.359 216.145 145.694 216.163 145.694 299.216C145.694 382.269 159.359 382.288 159.359 465.341C159.359 548.394 145.694 548.394 145.694 631.374C145.694 714.353 159.359 714.427 159.359 797.499C159.359 880.57 145.694 880.552 145.694 963.605C145.694 1046.66 159.359 1046.68 159.359 1129.73C159.359 1212.78 145.694 1212.8 145.694 1295.87C145.694 1378.94 159.359 1378.93 159.359 1462C159.359 1545.07 145.694 1545.05 145.694 1628.12C145.694 1711.19 159.359 1711.19 159.359 1794.25C159.359 1877.3 145.694 1877.32 145.694 1960.37C145.694 2043.43 159.359 2043.44 159.359 2126.52C159.359 2209.59 145.694 2209.57 145.694 2292.64C145.694 2375.71 159.359 2375.71 159.359 2458.78C159.359 2541.85 145.694 2541.85 145.694 2624.93" stroke="#BBD1DC" stroke-width="4" stroke-miterlimit="10"/>
<path d="M124.45 -1195.87C124.45 -1112.82 110.782 -1112.82 110.782 -1029.75C110.782 -946.674 124.45 -946.692 124.45 -863.639C124.45 -780.586 110.782 -780.567 110.782 -697.514C110.782 -614.461 124.45 -614.461 124.45 -531.389C124.45 -448.318 110.782 -448.336 110.782 -365.265C110.782 -282.193 124.45 -282.248 124.45 -199.14C124.45 -116.031 110.782 -116.087 110.782 -33.0334C110.782 50.0198 124.45 50.0382 124.45 133.091C124.45 216.145 110.782 216.163 110.782 299.216C110.782 382.269 124.45 382.288 124.45 465.341C124.45 548.394 110.782 548.394 110.782 631.374C110.782 714.353 124.45 714.427 124.45 797.499C124.45 880.57 110.782 880.552 110.782 963.605C110.782 1046.66 124.45 1046.68 124.45 1129.73C124.45 1212.78 110.782 1212.8 110.782 1295.87C110.782 1378.94 124.45 1378.93 124.45 1462C124.45 1545.07 110.782 1545.05 110.782 1628.12C110.782 1711.19 124.45 1711.19 124.45 1794.25C124.45 1877.3 110.782 1877.32 110.782 1960.37C110.782 2043.43 124.45 2043.44 124.45 2126.52C124.45 2209.59 110.782 2209.57 110.782 2292.64C110.782 2375.71 124.45 2375.71 124.45 2458.78C124.45 2541.85 110.782 2541.85 110.782 2624.93" stroke="#BBD1DC" stroke-width="4" stroke-miterlimit="10"/>
<path d="M89.5372 -1195.87C89.5372 -1112.82 75.8691 -1112.82 75.8691 -1029.75C75.8691 -946.674 89.5372 -946.692 89.5372 -863.639C89.5372 -780.586 75.8802 -780.567 75.8802 -697.514C75.8802 -614.461 89.5483 -614.461 89.5483 -531.389C89.5483 -448.318 75.8802 -448.336 75.8802 -365.265C75.8802 -282.193 89.5483 -282.211 89.5483 -199.14C89.5483 -116.068 75.8802 -116.087 75.8802 -33.0333C75.8802 50.0199 89.5483 50.0382 89.5483 133.091C89.5483 216.145 75.8802 216.163 75.8802 299.216C75.8802 382.269 89.5483 382.288 89.5483 465.341C89.5483 548.394 75.8802 548.394 75.8802 631.374C75.8802 714.354 89.5483 714.427 89.5483 797.499C89.5483 880.57 75.8802 880.625 75.8802 963.679C75.8802 1046.73 89.5483 1046.75 89.5483 1129.8C89.5483 1212.86 75.8802 1212.88 75.8802 1295.95C75.8802 1379.02 89.5483 1379 89.5483 1462.07C89.5483 1545.14 75.8802 1545.12 75.8802 1628.2C75.8802 1711.27 89.5483 1711.27 89.5483 1794.32C89.5483 1877.37 75.8802 1877.39 75.8802 1960.45C75.8802 2043.5 89.5483 2043.52 89.5483 2126.59C89.5483 2209.66 75.8802 2209.64 75.8802 2292.71C75.8802 2375.79 89.5483 2375.79 89.5483 2458.86C89.5483 2541.93 75.8802 2541.93 75.8802 2625" stroke="#BBD1DC" stroke-width="4" stroke-miterlimit="10"/>
<path d="M54.6243 -1195.87C54.6243 -1112.82 40.96 -1112.82 40.96 -1029.75C40.96 -946.674 54.6243 -946.692 54.6243 -863.639C54.6243 -780.586 40.96 -780.567 40.96 -697.514C40.96 -614.461 54.6243 -614.461 54.6243 -531.389C54.6243 -448.318 40.96 -448.336 40.96 -365.265C40.96 -282.193 54.6243 -282.211 54.6243 -199.14C54.6243 -116.068 40.96 -116.087 40.96 -33.0334C40.96 50.0198 54.6243 50.0382 54.6243 133.091C54.6243 216.145 40.96 216.163 40.96 299.216C40.96 382.269 54.6243 382.288 54.6243 465.341C54.6243 548.394 40.96 548.394 40.96 631.374C40.96 714.353 54.6243 714.427 54.6243 797.499C54.6243 880.57 40.96 880.552 40.96 963.605C40.96 1046.66 54.6243 1046.68 54.6243 1129.73C54.6243 1212.78 40.96 1212.8 40.96 1295.87C40.96 1378.94 54.6243 1378.93 54.6243 1462C54.6243 1545.07 40.96 1545.05 40.96 1628.12C40.96 1711.19 54.6243 1711.19 54.6243 1794.25C54.6243 1877.3 40.96 1877.32 40.96 1960.37C40.96 2043.43 54.6243 2043.44 54.6243 2126.52C54.6243 2209.59 40.96 2209.57 40.96 2292.64C40.96 2375.71 54.6243 2375.71 54.6243 2458.78C54.6243 2541.85 40.96 2541.85 40.96 2624.93" stroke="#BBD1DC" stroke-width="4" stroke-miterlimit="10"/>
<path d="M19.7117 -1195.87C19.7117 -1112.82 6.04736 -1112.82 6.04736 -1029.75C6.04736 -946.674 19.7117 -946.692 19.7117 -863.639C19.7117 -780.586 6.04736 -780.567 6.04736 -697.514C6.04736 -614.461 19.7117 -614.461 19.7117 -531.389C19.7117 -448.318 6.04736 -448.336 6.04736 -365.265C6.04736 -282.193 19.7117 -282.248 19.7117 -199.14C19.7117 -116.031 6.04736 -116.087 6.04736 -33.0333C6.04736 50.0199 19.7117 50.0382 19.7117 133.091C19.7117 216.145 6.04736 216.163 6.04736 299.216C6.04736 382.269 19.7117 382.288 19.7117 465.341C19.7117 548.394 6.04736 548.394 6.04736 631.374C6.04736 714.354 19.7117 714.427 19.7117 797.499C19.7117 880.57 6.04736 880.625 6.04736 963.679C6.04736 1046.73 19.7117 1046.75 19.7117 1129.8C19.7117 1212.86 6.04736 1212.88 6.04736 1295.95C6.04736 1379.02 19.7117 1379 19.7117 1462.07C19.7117 1545.14 6.04736 1545.12 6.04736 1628.2C6.04736 1711.27 19.7117 1711.27 19.7117 1794.32C19.7117 1877.37 6.04736 1877.39 6.04736 1960.45C6.04736 2043.5 19.7117 2043.52 19.7117 2126.59C19.7117 2209.66 6.04736 2209.64 6.04736 2292.71C6.04736 2375.79 19.7117 2375.79 19.7117 2458.86C19.7117 2541.93 6.04736 2541.93 6.04736 2625" stroke="#BBD1DC" stroke-width="4" stroke-miterlimit="10"/>
<path d="M959.929 -1205C959.929 -1121.95 946.261 -1121.95 946.261 -1038.88C946.261 -955.804 959.929 -955.822 959.929 -872.769C959.929 -789.716 946.261 -789.697 946.261 -706.644C946.261 -623.591 959.929 -623.591 959.929 -540.519C959.929 -457.448 946.261 -457.466 946.261 -374.394C946.261 -291.323 959.929 -291.378 959.929 -208.27C959.929 -125.161 946.261 -125.216 946.261 -42.1632C946.261 40.89 959.929 40.9083 959.929 123.962C959.929 207.015 946.261 207.033 946.261 290.086C946.261 373.14 959.929 373.158 959.929 456.211C959.929 539.264 946.246 539.264 946.246 622.244C946.246 705.224 959.929 705.371 959.929 788.442C959.929 871.514 946.261 871.496 946.261 954.549C946.261 1037.6 959.929 1037.69 959.929 1120.67C959.929 1203.65 946.261 1203.75 946.261 1286.82C946.261 1369.89 959.929 1369.87 959.929 1452.94C959.929 1536.01 946.261 1535.99 946.261 1619.07C946.261 1702.14 959.929 1702.14 959.929 1785.19C959.929 1868.24 946.261 1868.26 946.261 1951.32C946.261 2034.37 959.929 2034.39 959.929 2117.46C959.929 2200.53 946.261 2200.51 946.261 2283.58C946.261 2366.66 959.929 2366.66 959.929 2449.73C959.929 2532.8 946.261 2532.8 946.261 2615.87" stroke="#BBD1DC" stroke-width="4" stroke-miterlimit="10"/>
<path d="M925.002 -1205C925.002 -1121.95 911.337 -1121.95 911.337 -1038.88C911.337 -955.804 925.002 -955.822 925.002 -872.769C925.002 -789.716 911.337 -789.697 911.337 -706.644C911.337 -623.591 925.002 -623.591 925.002 -540.519C925.002 -457.448 911.337 -457.466 911.337 -374.394C911.337 -291.323 925.002 -291.341 925.002 -208.27C925.002 -125.198 911.337 -125.217 911.337 -42.1633C911.337 40.8899 925.002 40.9083 925.002 123.961C925.002 207.015 911.337 207.033 911.337 290.086C911.337 373.139 925.002 373.158 925.002 456.211C925.002 539.264 911.337 539.264 911.337 622.244C911.337 705.224 925.002 705.297 925.002 788.369C925.002 871.44 911.337 871.422 911.337 954.475C911.337 1037.53 925.002 1037.55 925.002 1120.6C925.002 1203.65 911.337 1203.67 911.337 1286.74C911.337 1369.81 925.002 1369.8 925.002 1452.87C925.002 1535.94 911.337 1535.92 911.337 1618.99C911.337 1702.06 925.002 1702.06 925.002 1785.12C925.002 1868.17 911.337 1868.19 911.337 1951.24C911.337 2034.3 925.002 2034.31 925.002 2117.39C925.002 2200.46 911.337 2200.44 911.337 2283.51C911.337 2366.58 925.002 2366.58 925.002 2449.65C925.002 2532.72 911.337 2532.72 911.337 2615.8" stroke="#BBD1DC" stroke-width="4" stroke-miterlimit="10"/>
<path d="M890.089 -1205C890.089 -1121.95 876.425 -1121.95 876.425 -1038.88C876.425 -955.804 890.089 -955.822 890.089 -872.769C890.089 -789.716 876.425 -789.697 876.425 -706.644C876.425 -623.591 890.089 -623.591 890.089 -540.519C890.089 -457.448 876.425 -457.466 876.425 -374.394C876.425 -291.323 890.089 -291.341 890.089 -208.27C890.089 -125.198 876.425 -125.216 876.425 -42.1632C876.425 40.89 890.089 40.9083 890.089 123.962C890.089 207.015 876.425 207.033 876.425 290.086C876.425 373.14 890.089 373.158 890.089 456.211C890.089 539.264 876.425 539.264 876.425 622.244C876.425 705.224 890.089 705.297 890.089 788.369C890.089 871.44 876.425 871.422 876.425 954.475C876.425 1037.53 890.089 1037.55 890.089 1120.6C890.089 1203.65 876.425 1203.67 876.425 1286.74C876.425 1369.81 890.089 1369.8 890.089 1452.87C890.089 1535.94 876.425 1535.92 876.425 1618.99C876.425 1702.06 890.089 1702.06 890.089 1785.12C890.089 1868.17 876.425 1868.26 876.425 1951.32C876.425 2034.37 890.089 2034.39 890.089 2117.46C890.089 2200.53 876.425 2200.51 876.425 2283.58C876.425 2366.66 890.089 2366.66 890.089 2449.73C890.089 2532.8 876.425 2532.8 876.425 2615.87" stroke="#BBD1DC" stroke-width="4" stroke-miterlimit="10"/>
<path d="M855.176 -1205C855.176 -1121.95 841.512 -1121.95 841.512 -1038.88C841.512 -955.804 855.176 -955.822 855.176 -872.769C855.176 -789.716 841.512 -789.697 841.512 -706.644C841.512 -623.591 855.176 -623.591 855.176 -540.519C855.176 -457.448 841.512 -457.466 841.512 -374.394C841.512 -291.323 855.176 -291.341 855.176 -208.27C855.176 -125.198 841.512 -125.217 841.512 -42.1633C841.512 40.8899 855.176 40.9083 855.176 123.961C855.176 207.015 841.512 207.033 841.512 290.086C841.512 373.139 855.176 373.158 855.176 456.211C855.176 539.264 841.512 539.264 841.512 622.244C841.512 705.224 855.176 705.297 855.176 788.369C855.176 871.44 841.512 871.422 841.512 954.475C841.512 1037.53 855.176 1037.55 855.176 1120.6C855.176 1203.65 841.512 1203.67 841.512 1286.74C841.512 1369.81 855.176 1369.8 855.176 1452.87C855.176 1535.94 841.512 1535.92 841.512 1618.99C841.512 1702.06 855.176 1702.06 855.176 1785.12C855.176 1868.17 841.512 1868.19 841.512 1951.24C841.512 2034.3 855.176 2034.31 855.176 2117.39C855.176 2200.46 841.512 2200.44 841.512 2283.51C841.512 2366.58 855.176 2366.58 855.176 2449.65C855.176 2532.72 841.512 2532.72 841.512 2615.8" stroke="#BBD1DC" stroke-width="4" stroke-miterlimit="10"/>
<path d="M820.264 -1205C820.264 -1121.95 806.596 -1121.95 806.596 -1038.88C806.596 -955.804 820.264 -955.822 820.264 -872.769C820.264 -789.716 806.596 -789.697 806.596 -706.644C806.596 -623.591 820.264 -623.591 820.264 -540.519C820.264 -457.448 806.596 -457.466 806.596 -374.394C806.596 -291.323 820.264 -291.378 820.264 -208.27C820.264 -125.161 806.596 -125.216 806.596 -42.1632C806.596 40.89 820.264 40.9083 820.264 123.962C820.264 207.015 806.596 207.033 806.596 290.086C806.596 373.14 820.264 373.158 820.264 456.211C820.264 539.264 806.599 539.264 806.599 622.244C806.599 705.224 820.264 705.371 820.264 788.442C820.264 871.514 806.596 871.496 806.596 954.549C806.596 1037.6 820.264 1037.69 820.264 1120.67C820.264 1203.65 806.596 1203.75 806.596 1286.82C806.596 1369.89 820.264 1369.87 820.264 1452.94C820.264 1536.01 806.596 1535.99 806.596 1619.07C806.596 1702.14 820.264 1702.14 820.264 1785.19C820.264 1868.24 806.596 1868.26 806.596 1951.32C806.596 2034.37 820.264 2034.39 820.264 2117.46C820.264 2200.53 806.596 2200.51 806.596 2283.58C806.596 2366.66 820.264 2366.66 820.264 2449.73C820.264 2532.8 806.596 2532.8 806.596 2615.87" stroke="#BBD1DC" stroke-width="4" stroke-miterlimit="10"/>
<path d="M785.355 -1205C785.355 -1121.95 771.69 -1121.95 771.69 -1038.88C771.69 -955.804 785.355 -955.822 785.355 -872.769C785.355 -789.716 771.69 -789.697 771.69 -706.644C771.69 -623.591 785.355 -623.591 785.355 -540.519C785.355 -457.448 771.69 -457.466 771.69 -374.394C771.69 -291.323 785.355 -291.341 785.355 -208.27C785.355 -125.198 771.69 -125.217 771.69 -42.1633C771.69 40.8899 785.355 40.9083 785.355 123.961C785.355 207.015 771.69 207.033 771.69 290.086C771.69 373.139 785.355 373.158 785.355 456.211C785.355 539.264 771.69 539.264 771.69 622.244C771.69 705.224 785.355 705.297 785.355 788.369C785.355 871.44 771.69 871.422 771.69 954.475C771.69 1037.53 785.355 1037.55 785.355 1120.6C785.355 1203.65 771.69 1203.67 771.69 1286.74C771.69 1369.81 785.355 1369.8 785.355 1452.87C785.355 1535.94 771.69 1535.92 771.69 1618.99C771.69 1702.06 785.355 1702.06 785.355 1785.12C785.355 1868.17 771.69 1868.19 771.69 1951.24C771.69 2034.3 785.355 2034.31 785.355 2117.39C785.355 2200.46 771.69 2200.44 771.69 2283.51C771.69 2366.58 785.355 2366.58 785.355 2449.65C785.355 2532.72 771.69 2532.72 771.69 2615.8" stroke="#BBD1DC" stroke-width="4" stroke-miterlimit="10"/>
<path d="M750.442 -1205C750.442 -1121.95 736.777 -1121.95 736.777 -1038.88C736.777 -955.804 750.442 -955.822 750.442 -872.769C750.442 -789.716 736.777 -789.697 736.777 -706.644C736.777 -623.591 750.442 -623.591 750.442 -540.519C750.442 -457.448 736.777 -457.466 736.777 -374.394C736.777 -291.323 750.442 -291.341 750.442 -208.27C750.442 -125.198 736.777 -125.217 736.777 -42.1633C736.777 40.8899 750.442 40.9083 750.442 123.961C750.442 207.015 736.777 207.033 736.777 290.086C736.777 373.139 750.442 373.158 750.442 456.211C750.442 539.264 736.777 539.264 736.777 622.244C736.777 705.224 750.442 705.297 750.442 788.369C750.442 871.44 736.777 871.422 736.777 954.475C736.777 1037.53 750.442 1037.55 750.442 1120.6C750.442 1203.65 736.777 1203.67 736.777 1286.74C736.777 1369.81 750.442 1369.8 750.442 1452.87C750.442 1535.94 736.777 1535.92 736.777 1618.99C736.777 1702.06 750.442 1702.06 750.442 1785.12C750.442 1868.17 736.777 1868.19 736.777 1951.24C736.777 2034.3 750.442 2034.31 750.442 2117.39C750.442 2200.46 736.777 2200.44 736.777 2283.51C736.777 2366.58 750.442 2366.58 750.442 2449.65C750.442 2532.72 736.777 2532.72 736.777 2615.8" stroke="#BBD1DC" stroke-width="4" stroke-miterlimit="10"/>
<path d="M715.533 -1205C715.533 -1121.95 701.865 -1121.95 701.865 -1038.88C701.865 -955.804 715.533 -955.822 715.533 -872.769C715.533 -789.716 701.865 -789.697 701.865 -706.644C701.865 -623.591 715.533 -623.591 715.533 -540.519C715.533 -457.448 701.865 -457.466 701.865 -374.394C701.865 -291.323 715.533 -291.378 715.533 -208.27C715.533 -125.161 701.865 -125.217 701.865 -42.1633C701.865 40.8899 715.533 40.9083 715.533 123.961C715.533 207.015 701.865 207.033 701.865 290.086C701.865 373.139 715.533 373.158 715.533 456.211C715.533 539.264 701.865 539.264 701.865 622.244C701.865 705.224 715.533 705.297 715.533 788.369C715.533 871.44 701.865 871.422 701.865 954.475C701.865 1037.53 715.533 1037.55 715.533 1120.6C715.533 1203.65 701.865 1203.67 701.865 1286.74C701.865 1369.81 715.533 1369.8 715.533 1452.87C715.533 1535.94 701.865 1535.92 701.865 1618.99C701.865 1702.06 715.533 1702.06 715.533 1785.12C715.533 1868.17 701.865 1868.19 701.865 1951.24C701.865 2034.3 715.533 2034.31 715.533 2117.39C715.533 2200.46 701.865 2200.44 701.865 2283.51C701.865 2366.58 715.533 2366.58 715.533 2449.65C715.533 2532.72 701.865 2532.72 701.865 2615.8" stroke="#BBD1DC" stroke-width="4" stroke-miterlimit="10"/>
<path d="M680.62 -1205C680.62 -1121.95 666.952 -1121.95 666.952 -1038.88C666.952 -955.804 680.62 -955.822 680.62 -872.769C680.62 -789.716 666.963 -789.697 666.963 -706.644C666.963 -623.591 680.631 -623.591 680.631 -540.519C680.631 -457.448 666.963 -457.466 666.963 -374.394C666.963 -291.323 680.631 -291.341 680.631 -208.27C680.631 -125.198 666.963 -125.216 666.963 -42.1632C666.963 40.89 680.631 40.9083 680.631 123.962C680.631 207.015 666.963 207.033 666.963 290.086C666.963 373.14 680.631 373.158 680.631 456.211C680.631 539.264 666.963 539.264 666.963 622.244C666.963 705.224 680.631 705.297 680.631 788.369C680.631 871.44 666.963 871.496 666.963 954.549C666.963 1037.6 680.631 1037.62 680.631 1120.67C680.631 1203.73 666.963 1203.75 666.963 1286.82C666.963 1369.89 680.631 1369.87 680.631 1452.94C680.631 1536.01 666.963 1535.99 666.963 1619.07C666.963 1702.14 680.631 1702.14 680.631 1785.19C680.631 1868.24 666.963 1868.26 666.963 1951.32C666.963 2034.37 680.631 2034.39 680.631 2117.46C680.631 2200.53 666.963 2200.51 666.963 2283.58C666.963 2366.66 680.631 2366.66 680.631 2449.73C680.631 2532.8 666.963 2532.8 666.963 2615.87" stroke="#BBD1DC" stroke-width="4" stroke-miterlimit="10"/>
<path d="M645.707 -1205C645.707 -1121.95 632.043 -1121.95 632.043 -1038.88C632.043 -955.804 645.707 -955.822 645.707 -872.769C645.707 -789.716 632.043 -789.697 632.043 -706.644C632.043 -623.591 645.707 -623.591 645.707 -540.519C645.707 -457.448 632.043 -457.466 632.043 -374.394C632.043 -291.323 645.707 -291.341 645.707 -208.27C645.707 -125.198 632.043 -125.217 632.043 -42.1633C632.043 40.8899 645.707 40.9083 645.707 123.961C645.707 207.015 632.043 207.033 632.043 290.086C632.043 373.139 645.707 373.158 645.707 456.211C645.707 539.264 632.043 539.264 632.043 622.244C632.043 705.224 645.707 705.297 645.707 788.369C645.707 871.44 632.043 871.422 632.043 954.475C632.043 1037.53 645.707 1037.55 645.707 1120.6C645.707 1203.65 632.043 1203.67 632.043 1286.74C632.043 1369.81 645.707 1369.8 645.707 1452.87C645.707 1535.94 632.043 1535.92 632.043 1618.99C632.043 1702.06 645.707 1702.06 645.707 1785.12C645.707 1868.17 632.043 1868.19 632.043 1951.24C632.043 2034.3 645.707 2034.31 645.707 2117.39C645.707 2200.46 632.043 2200.44 632.043 2283.51C632.043 2366.58 645.707 2366.58 645.707 2449.65C645.707 2532.72 632.043 2532.72 632.043 2615.8" stroke="#BBD1DC" stroke-width="4" stroke-miterlimit="10"/>
<path d="M610.795 -1205C610.795 -1121.95 597.13 -1121.95 597.13 -1038.88C597.13 -955.804 610.795 -955.822 610.795 -872.769C610.795 -789.716 597.13 -789.697 597.13 -706.644C597.13 -623.591 610.795 -623.591 610.795 -540.519C610.795 -457.448 597.13 -457.466 597.13 -374.394C597.13 -291.323 610.795 -291.378 610.795 -208.27C610.795 -125.161 597.13 -125.216 597.13 -42.1632C597.13 40.89 610.795 40.9083 610.795 123.962C610.795 207.015 597.13 207.033 597.13 290.086C597.13 373.14 610.795 373.158 610.795 456.211C610.795 539.264 597.13 539.264 597.13 622.244C597.13 705.224 610.795 705.297 610.795 788.369C610.795 871.44 597.13 871.496 597.13 954.549C597.13 1037.6 610.795 1037.62 610.795 1120.67C610.795 1203.73 597.13 1203.75 597.13 1286.82C597.13 1369.89 610.795 1369.87 610.795 1452.94C610.795 1536.01 597.13 1535.99 597.13 1619.07C597.13 1702.14 610.795 1702.14 610.795 1785.19C610.795 1868.24 597.13 1868.26 597.13 1951.32C597.13 2034.37 610.795 2034.39 610.795 2117.46C610.795 2200.53 597.13 2200.51 597.13 2283.58C597.13 2366.66 610.795 2366.66 610.795 2449.73C610.795 2532.8 597.13 2532.8 597.13 2615.87" stroke="#BBD1DC" stroke-width="4" stroke-miterlimit="10"/>
</g>
<defs>
<clipPath id="clip0_2758_18656">
<rect width="1176" height="1415" fill="white"/>
</clipPath>
</defs>
</svg>
