<svg width="497" height="374" viewBox="0 0 497 374" fill="none" xmlns="http://www.w3.org/2000/svg">
<g clip-path="url(#clip0_2759_18697)">
<path d="M496.902 92.325L59.0703 1.55566L0.0910685 283.158L437.923 373.927L496.902 92.325Z" fill="white"/>
<path d="M431.464 196.618L458.396 175.567L437.238 148.772L410.306 169.823L431.464 196.618Z" fill="#BBD1DC"/>
<path d="M258.044 269.429C257.878 269.429 257.739 269.303 257.726 269.138C257.713 268.961 257.853 268.822 258.018 268.81L320.286 264.992C320.464 264.979 320.604 265.118 320.617 265.282C320.629 265.459 320.489 265.598 320.324 265.611L258.056 269.429H258.044Z" fill="#002E5D"/>
<path d="M97.3657 173.755L78.5981 188.424L93.342 207.096L112.11 192.427L97.3657 173.755Z" fill="#BBD1DC"/>
<path d="M343.859 158.208H2.83398V234.926H343.859V158.208Z" fill="#002E5D"/>
<path d="M367.216 181.08H26.1909V257.798H367.216V181.08Z" fill="white"/>
<path d="M258.895 181.433H108.702C108.511 181.433 108.359 181.281 108.359 181.092C108.359 180.902 108.511 180.75 108.702 180.75H258.895C259.085 180.75 259.238 180.902 259.238 181.092C259.238 181.281 259.085 181.433 258.895 181.433Z" fill="#002E5D"/>
<path d="M203.21 258.152H26.1908C26.0001 258.152 25.8477 258 25.8477 257.81V240.477C25.8477 240.287 26.0001 240.135 26.1908 240.135C26.3814 240.135 26.5339 240.287 26.5339 240.477V257.456H203.197C203.388 257.456 203.54 257.608 203.54 257.798C203.54 257.987 203.4 258.152 203.21 258.152Z" fill="#002E5D"/>
<path d="M367.216 258.202H262.593C262.377 258.202 262.199 258.025 262.199 257.81C262.199 257.595 262.377 257.418 262.593 257.418H367.216C367.432 257.418 367.61 257.595 367.61 257.81C367.61 258.025 367.432 258.202 367.216 258.202Z" fill="#002E5D"/>
<path d="M378.983 171.977H283.967V266.926H378.983V171.977Z" fill="#325D9C"/>
<path d="M45.5448 247.847C45.3542 247.847 45.2017 247.696 45.2017 247.506V191.383C45.2017 191.194 45.3542 191.042 45.5448 191.042C45.7354 191.042 45.8879 191.194 45.8879 191.383V247.506C45.8879 247.696 45.7354 247.847 45.5448 247.847Z" fill="#002E5D"/>
<path d="M186.296 277.546L145.008 280.517C142.619 280.694 141.819 283.779 143.839 285.081L160.944 296.081C161.516 296.447 161.91 297.029 162.037 297.686L165.976 317.561C166.434 319.9 169.623 320.305 170.665 318.168L188.723 281.111C189.562 279.392 188.215 277.407 186.296 277.546Z" fill="#002E5D"/>
<path d="M127.98 308.534C120.342 308.534 112.946 307.042 105.97 304.109C99.2347 301.277 93.1858 297.219 88.0011 292.048C82.8036 286.877 78.7371 280.859 75.8779 274.17C72.9297 267.229 71.4302 259.871 71.4302 252.273C71.4302 250.591 71.5064 248.897 71.6589 247.241C71.6716 247.051 71.8495 246.912 72.0274 246.925C72.2181 246.937 72.3578 247.114 72.3451 247.291C72.1926 248.935 72.1291 250.604 72.1291 252.26C72.1291 282.907 97.1888 307.826 127.98 307.826C137.282 307.826 146.482 305.513 154.602 301.126C154.768 301.037 154.984 301.1 155.073 301.265C155.162 301.429 155.098 301.644 154.933 301.732C146.724 306.183 137.396 308.534 127.98 308.534Z" fill="#002E5D"/>
<path d="M371.689 279.341C371.498 279.341 371.346 279.189 371.346 279V179.537H293.117C292.926 179.537 292.774 179.385 292.774 179.195C292.774 179.006 292.926 178.854 293.117 178.854H371.702C371.892 178.854 372.045 179.006 372.045 179.195V279C372.032 279.189 371.88 279.341 371.689 279.341Z" fill="#002E5D"/>
<path d="M392.899 273.867H319.816C319.626 273.867 319.473 273.715 319.473 273.525C319.473 273.336 319.626 273.184 319.816 273.184H392.899C393.089 273.184 393.242 273.336 393.242 273.525C393.242 273.715 393.089 273.867 392.899 273.867Z" fill="#002E5D"/>
<path d="M163.568 140.539C139.703 104.417 151.738 58.5483 190.445 38.0918C229.153 17.6227 279.882 30.3163 303.76 66.4376C327.625 102.559 315.591 148.415 276.883 168.884C238.176 189.341 187.434 176.647 163.568 140.539ZM359.865 266.224L306.429 185.371L301.803 187.811L294.496 176.761C329.239 153.321 341.744 111.093 325.846 73.6568C323.711 68.6375 321.081 63.7193 317.917 58.9276C289.223 15.5113 228.238 0.263718 181.702 24.8545C173.951 28.9509 167.076 33.907 161.154 39.5078C131.545 67.5123 125.483 111.839 149.387 148.011C176.162 188.532 231.072 204.513 276.096 186.471L283.402 197.521L278.777 199.974L317.561 258.663L359.865 266.224Z" fill="#BBD1DC"/>
<path d="M340.676 50.1149C316.137 4.10673 258.749 -13.3913 212.518 11.0225C166.288 35.4363 148.687 92.5198 173.239 138.528C196.138 181.464 247.643 199.569 292.005 181.944L298.245 193.652L293.645 196.079L342.76 288.146C346.788 295.694 356.192 298.564 363.779 294.556C371.365 290.548 374.25 281.192 370.221 273.645L321.106 181.578L316.506 184.005L310.266 172.298C349.787 145.633 363.575 93.0381 340.676 50.1149ZM187.306 131.094C166.885 92.8232 181.524 45.3358 219.99 25.031C258.457 4.7136 306.187 19.2784 326.596 57.549C347.004 95.8196 332.378 143.307 293.911 163.612C255.458 183.917 207.727 169.364 187.306 131.094Z" fill="#002E5D"/>
<path d="M439.065 80.3011L443.754 107.383L440.641 106.763L436.918 127.106L452.485 130.077L481.598 164.302C483.58 166.628 483.758 169.979 482.056 172.507L461.024 203.634L462.676 270.15L473.046 338.7H471.14L479.056 354.479H444.402L444.441 348.41H461.367L465.701 338.814L462.752 338.865L437.464 251.337L428.835 338.738H426.586L434.211 354.34L399.811 354.492L399.633 348.347L416.534 348.398L420.957 338.827L417.462 338.738L414.323 207.579L411.146 155.945L400.891 155.11C393.012 154.465 387.446 147.17 388.946 139.458L396.113 102.464L392.224 88.7088L407.347 87.6215L406.8 92.8684L410.333 93.0327L405.174 103.008L403.534 104.867L400.294 134.502L411.782 137.296L424.96 128.787L422.355 117.51L414.59 119.836L416.509 84.4734L410.333 83.5631V72.5889L439.065 80.3011Z" fill="white"/>
<path d="M410.485 72.627L410.346 79.8967L434.579 84.0942L432.699 105.17L443.729 107.256L439.065 80.3013L410.485 72.627Z" fill="#002E5D"/>
<path d="M399.633 351.546H425.303L430.386 346.83L434.3 354.479H399.633V351.546Z" fill="#002E5D"/>
<path d="M414.59 120L416.357 84.4102L427.972 86.1296L426.79 116.03L414.59 120Z" fill="#F4B18F"/>
<path d="M444.416 351.546H470.072L475.156 346.83L479.07 354.479H444.416V351.546Z" fill="#002E5D"/>
<path d="M398.108 122.618L395.236 140.811L410.346 145.009L411.172 156.147L399.989 154.959C391.843 153.707 387.129 145.691 389.022 137.714L392.072 122.618H398.108Z" fill="#325D9C"/>
<path d="M392.085 122.605L395.986 102.212L392.237 88.6836L407.538 87.5078L406.788 93.0455L405.492 93.1087L404.653 97.4706L401.425 102.692L398.108 122.618L392.085 122.605Z" fill="#F4B18F"/>
<path d="M425.087 128.699L415.467 134.92L422.469 205.519L451.062 197.452L457.098 184.455L464.989 190.043L475.588 169.89C476.477 168.209 476.248 166.161 475.016 164.707L449.943 134.983L436.143 130.014L427.972 141.051L425.087 128.699Z" fill="#325D9C"/>
<path d="M447.097 198.564L422.456 205.506L420.309 338.865L428.848 338.7L437.35 250.831L431.771 231.576L435.571 226.822L466.196 338.865H473.071L462.702 270.314L461.024 203.634L448.342 222.156L438.887 213.496L447.097 198.564Z" fill="#002E5D"/>
<path d="M464.976 190.031L445.953 220.248L442.191 216.518L457.085 184.442L464.976 190.031Z" fill="#F4B18F"/>
<path d="M443.691 107.686L428.772 104.703C428.619 104.665 428.505 104.526 428.518 104.361L430.233 86.762L410.295 83.8288C410.142 83.8035 410.028 83.6771 410.028 83.5253V72.5891C410.028 72.4879 410.079 72.3994 410.155 72.3362C410.231 72.273 410.333 72.2604 410.434 72.2856L439.154 79.9853C439.268 80.0232 439.357 80.1117 439.383 80.2381L444.072 107.32C444.085 107.421 444.059 107.522 443.983 107.598C443.919 107.661 443.843 107.686 443.767 107.686C443.729 107.699 443.716 107.699 443.691 107.686ZM410.663 73.0063V83.2598L430.627 86.2057C430.792 86.231 430.907 86.3827 430.894 86.547L429.178 104.159L443.373 106.991L438.798 80.5542L410.663 73.0063Z" fill="#002E5D"/>
<path d="M414.59 120.304C414.628 120.304 414.654 120.304 414.692 120.292L433.232 114.261C433.398 114.21 433.487 114.033 433.436 113.869C433.385 113.705 433.207 113.616 433.042 113.667L414.933 119.546L416.598 87.0151C416.611 86.8381 416.471 86.699 416.306 86.6863C416.128 86.6737 415.988 86.8128 415.975 86.9771L414.285 119.963C414.285 120.064 414.323 120.165 414.412 120.228C414.463 120.292 414.527 120.304 414.59 120.304Z" fill="#002E5D"/>
<path d="M427.959 141.62C428.06 141.62 428.149 141.57 428.213 141.494L434.961 132.429C435.062 132.29 435.037 132.1 434.897 131.986C434.757 131.885 434.567 131.91 434.452 132.049L428.111 140.571L423.524 120.974C423.485 120.81 423.32 120.696 423.142 120.746C422.977 120.784 422.863 120.949 422.914 121.126L427.654 141.38C427.679 141.494 427.781 141.595 427.895 141.62C427.908 141.62 427.933 141.62 427.959 141.62Z" fill="#002E5D"/>
<path d="M448.317 222.587C448.418 222.587 448.52 222.536 448.583 222.448L482.335 172.912C484.152 170.232 483.975 166.628 481.878 164.15L452.929 129.913C452.879 129.862 452.815 129.824 452.752 129.812L437.286 126.853L439.764 113.186C439.79 113.022 439.675 112.857 439.51 112.819C439.345 112.794 439.18 112.908 439.142 113.072L436.613 127.056C436.587 127.22 436.689 127.384 436.867 127.422L452.523 130.419L481.395 164.58C483.314 166.843 483.479 170.131 481.814 172.583L448.062 222.119C447.961 222.258 447.999 222.46 448.151 222.549C448.19 222.574 448.253 222.587 448.317 222.587Z" fill="#002E5D"/>
<path d="M452.091 226.102C452.18 226.102 452.256 226.064 452.319 226C452.434 225.874 452.434 225.672 452.307 225.558L439.103 213.256C438.976 213.142 438.773 213.142 438.658 213.269C438.544 213.395 438.544 213.598 438.671 213.711L451.875 226.013C451.938 226.076 452.014 226.102 452.091 226.102Z" fill="#002E5D"/>
<path d="M442.166 216.872C442.28 216.872 442.395 216.809 442.445 216.695L464.824 168.537C464.887 168.398 464.849 168.247 464.722 168.158L441.683 151.482C441.543 151.381 441.34 151.406 441.238 151.545C441.136 151.684 441.162 151.887 441.302 151.988L464.137 168.512L441.873 216.442C441.797 216.594 441.873 216.783 442.026 216.859C442.077 216.859 442.128 216.872 442.166 216.872Z" fill="#002E5D"/>
<path d="M465.294 190.574C465.395 190.574 465.484 190.524 465.548 190.448C465.65 190.309 465.611 190.106 465.472 190.005L457.262 184.189C457.123 184.088 456.919 184.126 456.818 184.265C456.716 184.404 456.754 184.607 456.894 184.708L465.103 190.524C465.167 190.549 465.23 190.574 465.294 190.574Z" fill="#002E5D"/>
<path d="M411.832 137.574C407.372 136.538 400.637 134.97 400.268 134.907C400.192 134.894 400.116 134.856 400.065 134.806C399.938 134.666 399.912 134.641 400.421 129.837C400.688 127.359 401.056 123.92 401.552 119.609C402.378 112.276 403.229 104.867 403.242 104.804C403.267 104.627 403.42 104.513 403.585 104.525C403.763 104.551 403.877 104.702 403.865 104.867C402.988 112.503 400.764 131.986 400.624 134.338C401.691 134.565 405.466 135.438 411.858 136.93L420.918 130.911C421.058 130.81 421.261 130.861 421.35 131C421.452 131.139 421.414 131.341 421.261 131.43L412.086 137.524C412.036 137.562 411.972 137.574 411.908 137.574C411.883 137.574 411.858 137.574 411.832 137.574ZM400.294 134.907C400.281 134.907 400.281 134.907 400.268 134.907C400.281 134.907 400.294 134.907 400.294 134.907ZM400.395 134.3C400.37 134.287 400.332 134.287 400.294 134.287C400.306 134.287 400.344 134.287 400.395 134.3Z" fill="#002E5D"/>
<path d="M406.597 100.682C406.711 100.682 406.813 100.619 406.876 100.518L410.968 92.9951C411.019 92.894 411.019 92.7802 410.956 92.6791C410.892 92.5779 410.79 92.5273 410.676 92.5273L398.591 93.1469C398.413 93.1595 398.286 93.2986 398.299 93.4756C398.311 93.6526 398.451 93.779 398.629 93.7664L410.142 93.1722L406.317 100.202C406.228 100.353 406.292 100.543 406.444 100.632C406.495 100.669 406.546 100.682 406.597 100.682Z" fill="#002E5D"/>
<path d="M395.668 101.112C395.694 101.112 395.719 101.112 395.757 101.099C395.923 101.049 396.024 100.884 395.973 100.707L392.644 88.9619L407.169 87.8367L406.47 92.9951C406.445 93.1721 406.572 93.3238 406.737 93.3491C406.915 93.3744 407.067 93.2479 407.093 93.0836L407.842 87.5459C407.855 87.4574 407.83 87.3563 407.753 87.293C407.69 87.2298 407.601 87.1919 407.499 87.1919L392.199 88.3677C392.11 88.3804 392.021 88.4183 391.97 88.5068C391.92 88.5826 391.894 88.6838 391.92 88.7723L395.351 100.884C395.414 101.023 395.541 101.112 395.668 101.112Z" fill="#002E5D"/>
<path d="M407.537 156.033C407.702 156.033 407.829 155.907 407.855 155.755C407.868 155.578 407.741 155.426 407.575 155.414L400.739 154.731C397.117 154.377 393.787 152.506 391.614 149.611C389.429 146.715 388.565 143.011 389.238 139.458L395.744 104.905C395.783 104.74 395.668 104.576 395.49 104.538C395.325 104.5 395.16 104.614 395.122 104.791L388.615 139.344C387.916 143.074 388.819 146.956 391.106 149.99C393.393 153.024 396.875 154.984 400.675 155.363L407.512 156.046C407.512 156.033 407.525 156.033 407.537 156.033Z" fill="#002E5D"/>
<path d="M394.156 122.934C396.189 122.934 398.998 122.921 399.176 122.921C399.353 122.921 399.493 122.782 399.493 122.605C399.493 122.428 399.353 122.289 399.176 122.289C397.333 122.302 392.466 122.314 392.11 122.289C391.932 122.276 391.792 122.403 391.78 122.58C391.767 122.757 391.894 122.896 392.072 122.908C392.212 122.934 393.076 122.934 394.156 122.934Z" fill="#002E5D"/>
<path d="M414.349 208.085C414.374 208.085 414.4 208.085 414.438 208.072L439.917 200.954C440.082 200.904 440.184 200.739 440.133 200.562C440.082 200.398 439.917 200.297 439.739 200.347L414.641 207.364L410.664 142.556C410.651 142.379 410.511 142.252 410.333 142.265C410.155 142.278 410.028 142.429 410.041 142.594L414.031 207.794C414.031 207.883 414.082 207.971 414.158 208.034C414.222 208.072 414.285 208.085 414.349 208.085Z" fill="#002E5D"/>
<path d="M417.348 339.168H428.836C429.001 339.168 429.128 339.042 429.153 338.89L437.795 251.362C437.807 251.185 437.68 251.033 437.515 251.021C437.337 251.008 437.185 251.135 437.172 251.299L428.556 338.536H417.665L414.654 207.769C414.654 207.592 414.501 207.465 414.336 207.465C414.158 207.465 414.018 207.617 414.031 207.781L417.03 338.865C417.03 339.042 417.17 339.168 417.348 339.168Z" fill="#002E5D"/>
<path d="M462.765 339.168H473.071C473.16 339.168 473.249 339.13 473.312 339.054C473.376 338.991 473.401 338.89 473.389 338.802L462.994 270.112L461.342 203.622C461.342 203.457 461.202 203.318 461.024 203.318C461.024 203.318 461.024 203.318 461.011 203.318C460.833 203.318 460.706 203.47 460.706 203.634L462.358 270.15C462.358 270.162 462.358 270.175 462.358 270.188L472.702 338.536H463.006L432.063 231.487C432.012 231.323 431.847 231.222 431.669 231.272C431.504 231.323 431.402 231.5 431.453 231.664L462.46 338.953C462.498 339.08 462.625 339.168 462.765 339.168Z" fill="#002E5D"/>
<path d="M399.633 354.796H434.287C434.402 354.796 434.503 354.745 434.554 354.644C434.618 354.555 434.618 354.442 434.567 354.34L428.289 342.039C428.213 341.887 428.022 341.824 427.87 341.9C427.717 341.975 427.654 342.165 427.73 342.317L433.779 354.163H399.951V348.638H416.687C416.814 348.638 416.928 348.562 416.979 348.449L419.699 342.304C419.775 342.14 419.699 341.963 419.533 341.887C419.368 341.811 419.19 341.887 419.114 342.051L416.484 348.019H399.646C399.468 348.019 399.328 348.158 399.328 348.335V354.479C399.328 354.656 399.468 354.796 399.633 354.796Z" fill="#002E5D"/>
<path d="M444.415 354.796H479.069C479.184 354.796 479.285 354.745 479.336 354.644C479.4 354.555 479.4 354.442 479.349 354.34L473.071 342.039C472.995 341.887 472.804 341.824 472.652 341.9C472.499 341.975 472.436 342.165 472.512 342.317L478.561 354.163H444.733V348.638H461.469C461.596 348.638 461.71 348.562 461.761 348.449L464.481 342.304C464.557 342.14 464.481 341.963 464.315 341.887C464.15 341.811 463.972 341.887 463.896 342.051L461.266 348.019H444.428C444.25 348.019 444.11 348.158 444.11 348.335V354.479C444.097 354.656 444.237 354.796 444.415 354.796Z" fill="#002E5D"/>
<path opacity="0.4" d="M70.0932 224.493C69.8265 224.493 69.6932 224.36 69.6932 224.093V222.093C69.6932 220.893 69.9598 219.906 70.4932 219.133C71.0532 218.36 71.8665 217.533 72.9332 216.653C73.9198 215.826 74.6532 215.08 75.1332 214.413C75.6398 213.746 75.8932 212.893 75.8932 211.853C75.8932 210.653 75.5598 209.706 74.8932 209.013C74.2532 208.293 73.3865 207.933 72.2932 207.933C71.1732 207.933 70.2665 208.306 69.5732 209.053C68.8798 209.773 68.5332 210.733 68.5332 211.933V212.973C68.5332 213.24 68.3998 213.373 68.1332 213.373L65.0932 213.213C64.8265 213.213 64.6932 213.08 64.6932 212.813V211.933C64.6932 209.693 65.3998 207.893 66.8132 206.533C68.2265 205.146 70.0798 204.453 72.3732 204.453C74.6132 204.453 76.3998 205.12 77.7332 206.453C79.0665 207.76 79.7332 209.52 79.7332 211.733C79.7332 212.906 79.5465 213.92 79.1732 214.773C78.8265 215.626 78.3998 216.32 77.8932 216.853C77.4132 217.386 76.7732 217.986 75.9732 218.653C75.1465 219.346 74.5332 219.946 74.1332 220.453C73.7332 220.96 73.5332 221.573 73.5332 222.293V224.093C73.5332 224.36 73.3998 224.493 73.1332 224.493H70.0932ZM71.5732 232.773C70.8265 232.773 70.2132 232.533 69.7332 232.053C69.2532 231.573 69.0132 230.96 69.0132 230.213C69.0132 229.466 69.2532 228.853 69.7332 228.373C70.2132 227.893 70.8265 227.653 71.5732 227.653C72.3198 227.653 72.9332 227.893 73.4132 228.373C73.8932 228.853 74.1332 229.466 74.1332 230.213C74.1332 230.96 73.8932 231.573 73.4132 232.053C72.9332 232.533 72.3198 232.773 71.5732 232.773ZM89.8322 216.293C88.7656 216.293 87.7789 216.026 86.8722 215.493C85.9656 214.96 85.2456 214.24 84.7122 213.333C84.1789 212.426 83.9122 211.426 83.9122 210.333C83.9122 209.266 84.1789 208.28 84.7122 207.373C85.2456 206.466 85.9656 205.76 86.8722 205.253C87.7789 204.72 88.7656 204.453 89.8322 204.453C90.8989 204.453 91.8722 204.72 92.7522 205.253C93.6589 205.786 94.3656 206.506 94.8722 207.413C95.4056 208.293 95.6722 209.266 95.6722 210.333C95.6722 211.426 95.4056 212.426 94.8722 213.333C94.3656 214.24 93.6589 214.96 92.7522 215.493C91.8722 216.026 90.8989 216.293 89.8322 216.293ZM88.6322 232.813C88.4989 232.813 88.3922 232.773 88.3122 232.693C88.2589 232.586 88.2722 232.466 88.3522 232.333L103.232 205.093C103.312 204.906 103.472 204.813 103.712 204.813H105.672C105.806 204.813 105.899 204.866 105.952 204.973C106.032 205.053 106.032 205.16 105.952 205.293L91.0722 232.533C90.9922 232.72 90.8322 232.813 90.5922 232.813H88.6322ZM89.8322 214.013C90.8189 214.013 91.6456 213.653 92.3122 212.933C93.0056 212.213 93.3522 211.346 93.3522 210.333C93.3522 209.32 93.0056 208.466 92.3122 207.773C91.6456 207.053 90.8189 206.693 89.8322 206.693C88.8456 206.693 87.9922 207.053 87.2722 207.773C86.5789 208.466 86.2322 209.32 86.2322 210.333C86.2322 211.373 86.5789 212.253 87.2722 212.973C87.9656 213.666 88.8189 214.013 89.8322 214.013ZM104.672 233.173C103.606 233.173 102.619 232.906 101.712 232.373C100.806 231.84 100.086 231.12 99.5522 230.213C99.0456 229.306 98.7922 228.32 98.7922 227.253C98.7922 226.186 99.0456 225.2 99.5522 224.293C100.086 223.386 100.806 222.666 101.712 222.133C102.619 221.6 103.606 221.333 104.672 221.333C105.739 221.333 106.712 221.6 107.592 222.133C108.499 222.666 109.219 223.386 109.752 224.293C110.286 225.2 110.552 226.186 110.552 227.253C110.552 228.32 110.286 229.306 109.752 230.213C109.219 231.12 108.499 231.84 107.592 232.373C106.712 232.906 105.739 233.173 104.672 233.173ZM104.672 230.933C105.659 230.933 106.499 230.573 107.192 229.853C107.886 229.133 108.232 228.266 108.232 227.253C108.232 226.24 107.886 225.386 107.192 224.693C106.499 223.973 105.659 223.613 104.672 223.613C103.659 223.613 102.806 223.973 102.112 224.693C101.419 225.386 101.072 226.24 101.072 227.253C101.072 228.266 101.419 229.133 102.112 229.853C102.832 230.573 103.686 230.933 104.672 230.933ZM119.937 224.493C119.67 224.493 119.537 224.36 119.537 224.093V222.093C119.537 220.893 119.804 219.906 120.337 219.133C120.897 218.36 121.71 217.533 122.777 216.653C123.764 215.826 124.497 215.08 124.977 214.413C125.484 213.746 125.737 212.893 125.737 211.853C125.737 210.653 125.404 209.706 124.737 209.013C124.097 208.293 123.23 207.933 122.137 207.933C121.017 207.933 120.11 208.306 119.417 209.053C118.724 209.773 118.377 210.733 118.377 211.933V212.973C118.377 213.24 118.244 213.373 117.977 213.373L114.937 213.213C114.67 213.213 114.537 213.08 114.537 212.813V211.933C114.537 209.693 115.244 207.893 116.657 206.533C118.07 205.146 119.924 204.453 122.217 204.453C124.457 204.453 126.244 205.12 127.577 206.453C128.91 207.76 129.577 209.52 129.577 211.733C129.577 212.906 129.39 213.92 129.017 214.773C128.67 215.626 128.244 216.32 127.737 216.853C127.257 217.386 126.617 217.986 125.817 218.653C124.99 219.346 124.377 219.946 123.977 220.453C123.577 220.96 123.377 221.573 123.377 222.293V224.093C123.377 224.36 123.244 224.493 122.977 224.493H119.937ZM121.417 232.773C120.67 232.773 120.057 232.533 119.577 232.053C119.097 231.573 118.857 230.96 118.857 230.213C118.857 229.466 119.097 228.853 119.577 228.373C120.057 227.893 120.67 227.653 121.417 227.653C122.164 227.653 122.777 227.893 123.257 228.373C123.737 228.853 123.977 229.466 123.977 230.213C123.977 230.96 123.737 231.573 123.257 232.053C122.777 232.533 122.164 232.773 121.417 232.773ZM153.636 232.333C153.689 232.386 153.716 232.466 153.716 232.573C153.716 232.733 153.609 232.813 153.396 232.813H149.996C149.836 232.813 149.676 232.733 149.516 232.573L147.756 230.453C147.676 230.373 147.596 230.373 147.516 230.453C145.329 232.24 142.876 233.133 140.156 233.133C137.863 233.133 136.009 232.56 134.596 231.413C133.209 230.266 132.516 228.6 132.516 226.413C132.516 224.6 132.983 223.053 133.916 221.773C134.849 220.493 136.129 219.28 137.756 218.133C137.836 218.08 137.836 218.013 137.756 217.933C136.343 216.066 135.423 214.693 134.996 213.813C134.569 212.906 134.356 211.946 134.356 210.933C134.356 209.013 134.983 207.466 136.236 206.293C137.489 205.093 139.129 204.493 141.156 204.493C143.209 204.493 144.889 205.093 146.196 206.293C147.529 207.493 148.196 209.066 148.196 211.013C148.196 212.64 147.743 214.066 146.836 215.293C145.929 216.493 144.689 217.653 143.116 218.773C143.036 218.8 143.023 218.866 143.076 218.973L146.516 223.253L147.796 224.853C147.876 224.96 147.956 224.96 148.036 224.853C148.703 223.946 149.423 222.88 150.196 221.653C150.249 221.546 150.329 221.493 150.436 221.493C150.543 221.466 150.649 221.48 150.756 221.533L152.996 222.813C153.209 222.946 153.263 223.133 153.156 223.373C152.169 225.053 151.169 226.493 150.156 227.693C150.129 227.773 150.129 227.853 150.156 227.933C150.449 228.28 150.863 228.8 151.396 229.493C152.783 231.253 153.529 232.2 153.636 232.333ZM141.276 208.013C140.343 208.013 139.596 208.306 139.036 208.893C138.476 209.453 138.196 210.213 138.196 211.173C138.196 211.76 138.343 212.36 138.636 212.973C138.929 213.56 139.596 214.546 140.636 215.933C140.716 216.013 140.796 216.026 140.876 215.973C142.023 215.146 142.889 214.36 143.476 213.613C144.063 212.84 144.356 211.986 144.356 211.053C144.356 210.146 144.063 209.413 143.476 208.853C142.916 208.293 142.183 208.013 141.276 208.013ZM140.356 229.853C142.063 229.853 143.729 229.16 145.356 227.773C145.436 227.693 145.449 227.613 145.396 227.533L143.156 224.693L142.196 223.493L140.196 221.013C140.169 220.933 140.103 220.92 139.996 220.973C138.823 221.853 137.929 222.706 137.316 223.533C136.703 224.36 136.396 225.293 136.396 226.333C136.396 227.4 136.743 228.253 137.436 228.893C138.156 229.533 139.129 229.853 140.356 229.853Z" fill="#002E5D"/>
</g>
<defs>
<clipPath id="clip0_2759_18697">
<rect width="497" height="374" fill="white"/>
</clipPath>
</defs>
</svg>
